<svg viewBox="0 0 330 200" xmlns="http://www.w3.org/2000/svg"><g><g><g><g><g><line x1="50" y1="178" x2="45" y2="178" style="visibility: inherit;" fill="rgb(0, 0, 0)" stroke="rgb(204, 204, 204)" stroke-width="1px"></line><line x1="50" y1="158.2222222222222" x2="45" y2="158.2222222222222" style="visibility: inherit;" fill="rgb(0, 0, 0)" stroke="rgb(204, 204, 204)" stroke-width="1px"></line><line x1="50" y1="138.44444444444446" x2="45" y2="138.44444444444446" style="visibility: inherit;" fill="rgb(0, 0, 0)" stroke="rgb(204, 204, 204)" stroke-width="1px"></line><line x1="50" y1="118.66666666666666" x2="45" y2="118.66666666666666" style="visibility: inherit;" fill="rgb(0, 0, 0)" stroke="rgb(204, 204, 204)" stroke-width="1px"></line><line x1="50" y1="98.8888888888889" x2="45" y2="98.8888888888889" style="visibility: inherit;" fill="rgb(0, 0, 0)" stroke="rgb(204, 204, 204)" stroke-width="1px"></line><line x1="50" y1="79.1111111111111" x2="45" y2="79.1111111111111" style="visibility: inherit;" fill="rgb(0, 0, 0)" stroke="rgb(204, 204, 204)" stroke-width="1px"></line><line x1="50" y1="59.33333333333334" x2="45" y2="59.33333333333334" style="visibility: inherit;" fill="rgb(0, 0, 0)" stroke="rgb(204, 204, 204)" stroke-width="1px"></line><line x1="50" y1="39.55555555555557" x2="45" y2="39.55555555555557" style="visibility: inherit;" fill="rgb(0, 0, 0)" stroke="rgb(204, 204, 204)" stroke-width="1px"></line><line x1="50" y1="19.777777777777786" x2="45" y2="19.777777777777786" style="visibility: inherit;" fill="rgb(0, 0, 0)" stroke="rgb(204, 204, 204)" stroke-width="1px"></line><line x1="50" y1="0" x2="45" y2="0" style="visibility: inherit;" fill="rgb(0, 0, 0)" stroke="rgb(204, 204, 204)" stroke-width="1px"></line></g><g transform="translate(40, 0)"><text x="0" y="178" dx="0em" dy="0.3em" style="text-anchor: end; visibility: hidden; font-family: Roboto, sans-serif; font-size: 12px; font-weight: 200;" fill="rgb(50, 49, 63)" stroke="none" stroke-width="1px">-0.1</text><text x="0" y="158.2222222222222" dx="0em" dy="0.3em" style="text-anchor: end; visibility: inherit; font-family: Roboto, sans-serif; font-size: 12px; font-weight: 200;" fill="rgb(50, 49, 63)" stroke="none" stroke-width="1px">0</text><text x="0" y="138.44444444444446" dx="0em" dy="0.3em" style="text-anchor: end; visibility: hidden; font-family: Roboto, sans-serif; font-size: 12px; font-weight: 200;" fill="rgb(50, 49, 63)" stroke="none" stroke-width="1px">0.1</text><text x="0" y="118.66666666666666" dx="0em" dy="0.3em" style="text-anchor: end; visibility: inherit; font-family: Roboto, sans-serif; font-size: 12px; font-weight: 200;" fill="rgb(50, 49, 63)" stroke="none" stroke-width="1px">0.2</text><text x="0" y="98.8888888888889" dx="0em" dy="0.3em" style="text-anchor: end; visibility: hidden; font-family: Roboto, sans-serif; font-size: 12px; font-weight: 200;" fill="rgb(50, 49, 63)" stroke="none" stroke-width="1px">0.3</text><text x="0" y="79.1111111111111" dx="0em" dy="0.3em" style="text-anchor: end; visibility: inherit; font-family: Roboto, sans-serif; font-size: 12px; font-weight: 200;" fill="rgb(50, 49, 63)" stroke="none" stroke-width="1px">0.4</text><text x="0" y="59.33333333333334" dx="0em" dy="0.3em" style="text-anchor: end; visibility: hidden; font-family: Roboto, sans-serif; font-size: 12px; font-weight: 200;" fill="rgb(50, 49, 63)" stroke="none" stroke-width="1px">0.5</text><text x="0" y="39.55555555555557" dx="0em" dy="0.3em" style="text-anchor: end; visibility: inherit; font-family: Roboto, sans-serif; font-size: 12px; font-weight: 200;" fill="rgb(50, 49, 63)" stroke="none" stroke-width="1px">0.6</text><text x="0" y="19.777777777777786" dx="0em" dy="0.3em" style="text-anchor: end; visibility: hidden; font-family: Roboto, sans-serif; font-size: 12px; font-weight: 200;" fill="rgb(50, 49, 63)" stroke="none" stroke-width="1px">0.7</text><text x="0" y="0" dx="0em" dy="0.3em" style="text-anchor: end; visibility: hidden; font-family: Roboto, sans-serif; font-size: 12px; font-weight: 200;" fill="rgb(50, 49, 63)" stroke="none" stroke-width="1px">0.8</text></g><line x1="50" y1="0" x2="50" y2="178" fill="rgb(0, 0, 0)" stroke="rgb(204, 204, 204)" stroke-width="1px"></line></g></g><g transform="translate(50, 0)" clip-path="url(#clip_0)"><clipPath id="clip_0"><rect width="280" height="178"></rect></clipPath><g><g><g><line x1="0" y1="0" x2="0" y2="178" fill="rgb(0, 0, 0)" stroke="rgb(60, 60, 60)" stroke-width="1px" opacity="0.25"></line><line x1="20" y1="0" x2="20" y2="178" fill="rgb(0, 0, 0)" stroke="rgb(60, 60, 60)" stroke-width="1px" opacity="0.25"></line><line x1="40" y1="0" x2="40" y2="178" fill="rgb(0, 0, 0)" stroke="rgb(60, 60, 60)" stroke-width="1px" opacity="0.25"></line><line x1="60" y1="0" x2="60" y2="178" fill="rgb(0, 0, 0)" stroke="rgb(60, 60, 60)" stroke-width="1px" opacity="0.25"></line><line x1="80" y1="0" x2="80" y2="178" fill="rgb(0, 0, 0)" stroke="rgb(60, 60, 60)" stroke-width="1px" opacity="0.25"></line><line x1="100" y1="0" x2="100" y2="178" fill="rgb(0, 0, 0)" stroke="rgb(60, 60, 60)" stroke-width="1px" opacity="0.25"></line><line x1="120" y1="0" x2="120" y2="178" fill="rgb(0, 0, 0)" stroke="rgb(60, 60, 60)" stroke-width="1px" opacity="0.25"></line><line x1="140" y1="0" x2="140" y2="178" fill="rgb(0, 0, 0)" stroke="rgb(60, 60, 60)" stroke-width="1px" opacity="0.25"></line><line x1="160" y1="0" x2="160" y2="178" fill="rgb(0, 0, 0)" stroke="rgb(60, 60, 60)" stroke-width="1px" opacity="0.25"></line><line x1="180" y1="0" x2="180" y2="178" fill="rgb(0, 0, 0)" stroke="rgb(60, 60, 60)" stroke-width="1px" opacity="0.25"></line><line x1="200" y1="0" x2="200" y2="178" fill="rgb(0, 0, 0)" stroke="rgb(60, 60, 60)" stroke-width="1px" opacity="0.25"></line><line x1="220" y1="0" x2="220" y2="178" fill="rgb(0, 0, 0)" stroke="rgb(60, 60, 60)" stroke-width="1px" opacity="0.25"></line><line x1="240" y1="0" x2="240" y2="178" fill="rgb(0, 0, 0)" stroke="rgb(60, 60, 60)" stroke-width="1px" opacity="0.25"></line><line x1="260" y1="0" x2="260" y2="178" fill="rgb(0, 0, 0)" stroke="rgb(60, 60, 60)" stroke-width="1px" opacity="0.25"></line><line x1="280" y1="0" x2="280" y2="178" fill="rgb(0, 0, 0)" stroke="rgb(60, 60, 60)" stroke-width="1px" opacity="0.25"></line></g><g><line x1="0" y1="178" x2="280" y2="178" fill="rgb(0, 0, 0)" stroke="rgb(60, 60, 60)" stroke-width="1px" opacity="0.25"></line><line x1="0" y1="158.2222222222222" x2="280" y2="158.2222222222222" fill="rgb(0, 0, 0)" stroke="rgb(60, 60, 60)" stroke-width="1px" opacity="0.25"></line><line x1="0" y1="138.44444444444446" x2="280" y2="138.44444444444446" fill="rgb(0, 0, 0)" stroke="rgb(60, 60, 60)" stroke-width="1px" opacity="0.25"></line><line x1="0" y1="118.66666666666666" x2="280" y2="118.66666666666666" fill="rgb(0, 0, 0)" stroke="rgb(60, 60, 60)" stroke-width="1px" opacity="0.25"></line><line x1="0" y1="98.8888888888889" x2="280" y2="98.8888888888889" fill="rgb(0, 0, 0)" stroke="rgb(60, 60, 60)" stroke-width="1px" opacity="0.25"></line><line x1="0" y1="79.1111111111111" x2="280" y2="79.1111111111111" fill="rgb(0, 0, 0)" stroke="rgb(60, 60, 60)" stroke-width="1px" opacity="0.25"></line><line x1="0" y1="59.33333333333334" x2="280" y2="59.33333333333334" fill="rgb(0, 0, 0)" stroke="rgb(60, 60, 60)" stroke-width="1px" opacity="0.25"></line><line x1="0" y1="39.55555555555557" x2="280" y2="39.55555555555557" fill="rgb(0, 0, 0)" stroke="rgb(60, 60, 60)" stroke-width="1px" opacity="0.25"></line><line x1="0" y1="19.777777777777786" x2="280" y2="19.777777777777786" fill="rgb(0, 0, 0)" stroke="rgb(60, 60, 60)" stroke-width="1px" opacity="0.25"></line><line x1="0" y1="0" x2="280" y2="0" fill="rgb(0, 0, 0)" stroke="rgb(60, 60, 60)" stroke-width="1px" opacity="0.25"></line></g></g></g><g><g><line x1="0" y1="158.2222222222222" x2="280" y2="158.2222222222222" fill="rgb(0, 0, 0)" stroke="rgb(153, 153, 153)" stroke-width="1.5px"></line></g></g><g><g><line x1="20" y1="0" x2="20" y2="178" fill="rgb(0, 0, 0)" stroke="rgb(153, 153, 153)" stroke-width="1.5px"></line></g></g><g><g><g><g><g><path stroke="rgb(255, 112, 67)" stroke-width="2px" d="M20,3.2845494747161865L21,10.818305455976047L22,10.043579412425707L23,16.204383467926732L24,22.93343795276994L25,21.130197002759967L26,32.731475059447384L27,32.35483014142618L28,28.035447609768582L29.000000000000004,30.4500133341565L30,41.59054861997935L31,31.963745287127644L32,33.63594297100575L33,35.0215198360662L34,35.29614874321102L35,39.97382500352188L36,40.103055061479786L37,43.82313959590107L38,48.354963385606666L39,36.06006881493434L40,33.8019225106988L41,42.64182122653803L42,46.79498979086728L43,45.68917560705128L44,43.21752669995974L45,48.01048158571268L46,55.76434140049505L46.99999999999999,52.033059092330745L48,55.19531935989651L49,52.80200401408439L50,59.57633721031916L51,59.69541173186102L52,60.95569818279893L53,49.08314367395459L54,51.42005993195107L55,50.66626746367732L56,47.77959660637855L57,50.56882762589374L58.00000000000001,62.92451571800306L59,64.84838977276294L60,70.88920651322395L61,59.98811783664163L62,62.628549958338866L63,65.59845006422226L64,64.91808908482223L65,61.386634145422704L66,55.82380088601196L67,53.850074548083015L68,45.74773965977095L69,40.417628993098674L70,41.60584636169207L71,54.997297276918495L72,46.85563923971953L73,46.258362395573315L74,48.73300240616675L75,52.34595494245696L76,52.760388974995756L77,60.0567556806324L78,55.39764456014636L79,60.07302438189424L80,60.84416048442563L81.00000000000001,66.39954787256804L82,54.290133749022885L83,47.272000794355904L84,53.079277603010595L85,52.54085516357569L86,58.30481099739164L87,64.14272809352506L88,62.46585148899707L89,65.79240710269117L90,65.92797306681761L91,68.10898371772356L92,67.720761848905L93,54.43287396038673L93.99999999999999,54.74950392275778L95,52.61088573208619L96,57.85029880566101L97,51.46362306493143L98,49.95070756300197L99,53.0987592295906L100,56.09471185607983L101,64.85903826583059L102,61.14890400638692L103,68.91272777493438L104,65.17139231071258L105,73.45343442105482L106,61.5519479368058L107,70.18136560046239L108,71.32721656435866L109,81.28640217308684L110,80.35615934300446L111,80.40269399769585L112,77.83260247560827L113,84.19888555279863L114,79.4242376416547L115,79.31201517957187L116.00000000000001,80.86516544514207L117,81.56402811980232L118,79.88479455721635L119,85.45849549751172L120,85.65116415277201L121,84.68456691152235L122,82.83814449231984L123,83.6448571338193L124,85.52156091322784L125,92.52931034651898L126,95.831066622196L127,101.4016188280268L128,92.57746910696791L129,93.26311190711797L130,82.1705405805416L131,88.18642161717125L132,87.53183514401051L133,89.35326521312038L134,95.35874824950004L135,99.90289977329316L136,83.44744719150071L137,87.67411734643356L138,86.75672364886933L139,89.92253554523454L140,93.8457901278762L141,97.84122425050639L142,92.51294588749934L143,88.31439945257235L144,91.11719476806374L145,95.40826250754812L146,94.77751328070109L147,92.3901450618587L148,99.37718560603156L149,102.19824416687888L150,107.12253978865492L151,98.85338751154102L152,97.65981078485157L152.99999999999997,99.77215352260772L154,93.87264782815068L155,94.8424625315004L156,85.31504628962676L157,90.05405600677436L158,92.24444638245276L159,91.82872673602685L160,90.12367773227298L161,98.6233200162991L162.00000000000003,95.888460684969L163,99.14103974517094L164,96.1163280027066L165,92.33967251348886L166,97.87786132555243L167,97.65646610932171L168,89.67864932251614L169,101.44675168109852L170,104.47661743588993L171,106.37417156845315L172,99.03722845855675L173,99.39586854384336L174,98.7387220088998L175,100.44638740896673L176,105.1032631045682L177,99.06284426063252L178,95.22270591105989L179,90.92697197557405L180,85.60069048752271L181,84.11608935405741L182,95.60304267213701L183,95.68891746670248L184,99.540501794439L185,99.86941142949746L186,99.74465837257411L187,98.53936495224353L187.99999999999997,97.540333888635L189,101.30478677188982L190,103.03404755679813L191,105.3184850888732L192,97.7164353562431L193,101.02565063567509L194,99.61321577614146L195,98.4261949344942L196,103.10287003358351L197.00000000000003,97.32752250152252L198,98.76922864030254L199,104.60367772366872L200,108.74271898566118L201,107.77729948221702L202,113.2033723822776L203,112.02044457650113L204,113.03689067238129L205,112.26618771954512L206,113.16869914719608L207,115.90657085690388L208,111.66590218452706L209,108.4908152542994L210,101.90867181554349L211,107.50126793610667L212,113.5372299271481L213,117.52260297178502L214,116.63644825270008L215,110.30433925632113L216,111.97305976668413L217,107.35365013935481L218,113.68094759644723L219,112.84780953536756L220,115.26399086839155L221,115.40157529667734L222,119.20568477617468L222.99999999999997,124.12209286925588L224,119.66787057965101L225,117.91761909368432L226,120.65357245735669L227,119.89558287169608L228,123.95657517204991L229,124.4851741759067L230,117.2332549076131L231,115.54014728749898L232.00000000000003,123.05103050507834L233,125.6766415950587L234,124.42716211380147L235,124.26437775871109L236,119.61461848764192L237,119.47744900434357L238,118.13309095041109L239,120.63814026224969L240,122.3632576299874L241,121.71472881700272L242,120.133768496375L243,119.43775682695353L244,124.13458760409141L245,124.41493879322029L246,124.5459816264274L247,125.36552353875148L248,126.6053146081413L249,126.17646476437784L250,124.22169827308339L251,111.9581086516213L252,112.43737105077163L253,108.54249573277826L254,116.63891836321787L255,110.47967773996984L256,115.4273341873677L257,118.59334020226879L258,122.87554297956302L259,118.76048502856644L260,122.27431545907083L261,122.62344682765298L262,124.41203184721911L263,118.58882171987321" style="fill: none;" fill="none"></path></g></g></g></g><g opacity="0.2"><g><g><g><path stroke="rgb(255, 112, 67)" stroke-width="2px" d="M20,3.2845494747161865L21,15.338559044732L22,9.299842410617408L23,23.449489037195853L24,31.718891488181228L25,18.635665602154216L26,49.32148830095928L27,31.805678235159988L28,21.665197372436523L29.000000000000004,34.03536203172472L30,58.20030771361458L31,17.575928926467896L32,36.138779481252044L33,37.09717064433628L34,35.7077692879571L35,46.98704033427769L36,40.29684546258715L37,49.40232186847263L38,55.152008692423514L39,17.618850760989723L40,30.414826896455555L41,55.90137841966418L42,53.0246606402927L43,44.03046743075054L44,39.51007090674507L45,55.19989347457886L46,67.39511128266653L46.99999999999999,46.43614135848152L48,59.93870684835645L49,49.212032318115234L50,69.73783475822874L51,59.87402349048191L52,62.84612770875296L53,31.274312761094837L54,54.92543421851265L55,49.53557878070408L56,43.44959036509197L57,54.75267412927416L58.00000000000001,81.45804778734845L59,67.73420084847345L60,79.95043161180284L61,43.636484834882964L62,66.58919813897874L63,70.05330022176108L64,63.89754761589899L65,56.08945173687407L66,47.47955099741619L67,50.88948504130047L68,33.594237327575684L69,32.422462993197975L70,43.38817241456774L71,75.08447364966077L72,34.64315218395659L73,45.362447129355544L74,52.44496242205303L75,57.76538374688891L76,53.38204002380371L77,71.0013057390849L78,48.40897787941828L79,67.08609411451552L80,62.0008646382226L81.00000000000001,74.73262895478143L82,36.126012563705444L83,36.74480136235556L84,61.79019281599256L85,51.73322150442335L86,66.95074474811554L87,72.89960373772516L88,59.950536582205025L89,70.78224052323236L90,66.13132201300728L91,71.38049969408247L92,67.13842904567719L93,34.50104212760925L93.99999999999999,55.224448866314376L95,49.402958446078834L96,65.70941841602325L97,41.88360945383709L98,47.681334310107765L99,57.820836729473555L100,60.588640795813674L101,78.00552788045671L102,55.58370261722141L103,80.55846342775557L104,59.55938911437988L105,85.8764975865682L106,43.69971821043228L107,83.12549209594727L108,73.04599301020306L109,96.2251805861791L110,78.9607950978809L111,80.47249597973295L112,73.97746519247693L113,93.7483101685842L114,72.2622657749388L115,79.14368148644766L116.00000000000001,83.19489084349739L117,82.61232213179272L118,77.36594421333739L119,93.81904690795476L120,85.94016713566252L121,83.23467104964787L122,80.06851086351607L123,84.8549260960685L124,88.33661658234068L125,103.04093449645573L126,100.78370103571152L127,109.75744713677301L128,79.34124452537962L129,94.29157610734305L130,65.53168359067705L131,97.21024317211574L132,86.54995543426939L133,92.08541031678519L134,104.36697280406952L135,106.71912705898285L136,58.764268318812064L137,94.01412257883285L138,85.38063310252296L139,94.67125338978236L140,99.73067200183868L141,103.83437543445164L142,84.52052834298875L143,82.01657980018193L144,95.32138774130081L145,101.84486411677467L146,93.83138944043054L147,88.80909273359511L148,109.8577464222908L149,106.42983200814989L150,114.50898322131899L151,86.44965909587013L152,95.86944569481744L152.99999999999997,102.94066762924194L154,85.02338928646513L155,96.29718458652496L156,71.02392192681631L157,97.1625705824958L158,95.53003194597032L159,91.20514726638794L160,87.5661042266422L161,111.37278344233832L162.00000000000003,91.78617168797388L163,104.0199083354738L164,91.57926038901013L165,86.67468927966225L166,106.18514454364777L167,97.3243732849757L168,77.71192414230772L169,119.09890521897209L170,109.02141606807709L171,109.22050276729797L172,88.0318137937122L173,99.93382867177328L174,97.7530022064845L175,103.00788550906712L176,112.08857664797043L177,90.00221599472894L178,89.46249838670096L179,84.48337107234532L180,77.6112682554457L181,81.88918765385947L182,112.83347264925641L183,95.81772965855068L184,105.31787828604382L185,100.36277588208517L186,99.55752878718907L187,96.73142482174768L187.99999999999997,96.04178729322221L189,106.9514660967721L190,105.62793873416054L191,108.74514138698578L192,86.31336075729796L193,105.98947355482315L194,97.49456348684099L195,96.64566367202336L196,110.1178826822175L197.00000000000003,88.66450120343103L198,100.9317878484726L199,113.35535134871802L200,114.95128087864983L201,106.32917022705078L202,121.34248173236847L203,110.24605286783641L204,114.56155981620154L205,111.11013329029083L206,114.52246628867256L207,120.01337842146557L208,105.30489917596182L209,103.72818485895795L210,92.03545665740967L211,115.8901621169514L212,122.5911729137103L213,123.50066253874039L214,115.30721617407268L215,100.80617576175267L216,114.4761405322287L217,100.42453569836086L218,123.17189378208583L219,111.59810244374806L220,118.88826286792755L221,115.60795193910599L222,124.91184899542068L222.99999999999997,131.49670500887763L224,112.98653714524376L225,115.29224186473424L226,124.75750250286525L227,118.75859849320518L228,130.04806362258066L229,125.27807268169191L230,106.35537600517273L231,113.00048585732779L232.00000000000003,134.3173553314474L233,129.61505823002923L234,122.55294289191565L235,124.0202012260755L236,112.63997958103818L237,119.27169477939606L238,116.11655386951234L239,124.39571423000758L240,124.95093368159401L241,120.74193559752571L242,117.76232801543343L243,118.39373932282132L244,131.17983376979828L245,124.83546557691362L246,124.7425458762381L247,126.5948364072376L248,128.46500121222604L249,125.53318999873268L250,121.28954853614172L251,93.56272421942818L252,113.15626464949715L253,102.70018275578818L254,128.7835523088773L255,101.24081680509781L256,122.84881885846457L257,123.3423492246204L258,129.29884714550442L259,112.58789810207155L260,127.54506110482747L261,123.14714388052624L262,127.09490937656825L263,109.85400652885437" style="fill: none;" fill="none"></path></g></g></g></g></g></g><g transform="translate(50, 178)" clip-path="url(#clip_1)"><clipPath id="clip_1"><rect width="280" height="22"></rect></clipPath><g><g><line x1="0" y1="0" x2="0" y2="5" style="visibility: inherit;" fill="rgb(0, 0, 0)" stroke="rgb(204, 204, 204)" stroke-width="1px"></line><line x1="20" y1="0" x2="20" y2="5" style="visibility: inherit;" fill="rgb(0, 0, 0)" stroke="rgb(204, 204, 204)" stroke-width="1px"></line><line x1="40" y1="0" x2="40" y2="5" style="visibility: inherit;" fill="rgb(0, 0, 0)" stroke="rgb(204, 204, 204)" stroke-width="1px"></line><line x1="60" y1="0" x2="60" y2="5" style="visibility: inherit;" fill="rgb(0, 0, 0)" stroke="rgb(204, 204, 204)" stroke-width="1px"></line><line x1="80" y1="0" x2="80" y2="5" style="visibility: inherit;" fill="rgb(0, 0, 0)" stroke="rgb(204, 204, 204)" stroke-width="1px"></line><line x1="100" y1="0" x2="100" y2="5" style="visibility: inherit;" fill="rgb(0, 0, 0)" stroke="rgb(204, 204, 204)" stroke-width="1px"></line><line x1="120" y1="0" x2="120" y2="5" style="visibility: inherit;" fill="rgb(0, 0, 0)" stroke="rgb(204, 204, 204)" stroke-width="1px"></line><line x1="140" y1="0" x2="140" y2="5" style="visibility: inherit;" fill="rgb(0, 0, 0)" stroke="rgb(204, 204, 204)" stroke-width="1px"></line><line x1="160" y1="0" x2="160" y2="5" style="visibility: inherit;" fill="rgb(0, 0, 0)" stroke="rgb(204, 204, 204)" stroke-width="1px"></line><line x1="180" y1="0" x2="180" y2="5" style="visibility: inherit;" fill="rgb(0, 0, 0)" stroke="rgb(204, 204, 204)" stroke-width="1px"></line><line x1="200" y1="0" x2="200" y2="5" style="visibility: inherit;" fill="rgb(0, 0, 0)" stroke="rgb(204, 204, 204)" stroke-width="1px"></line><line x1="220" y1="0" x2="220" y2="5" style="visibility: inherit;" fill="rgb(0, 0, 0)" stroke="rgb(204, 204, 204)" stroke-width="1px"></line><line x1="240" y1="0" x2="240" y2="5" style="visibility: inherit;" fill="rgb(0, 0, 0)" stroke="rgb(204, 204, 204)" stroke-width="1px"></line><line x1="260" y1="0" x2="260" y2="5" style="visibility: inherit;" fill="rgb(0, 0, 0)" stroke="rgb(204, 204, 204)" stroke-width="1px"></line><line x1="280" y1="0" x2="280" y2="5" style="visibility: inherit;" fill="rgb(0, 0, 0)" stroke="rgb(204, 204, 204)" stroke-width="1px"></line></g><g transform="translate(0, 8)"><text x="0" y="0" dx="0em" dy="0.95em" style="text-anchor: middle; visibility: hidden; font-family: Roboto, sans-serif; font-size: 12px; font-weight: 200;" fill="rgb(50, 49, 63)" stroke="none" stroke-width="1px">-20</text><text x="20" y="0" dx="0em" dy="0.95em" style="text-anchor: middle; visibility: inherit; font-family: Roboto, sans-serif; font-size: 12px; font-weight: 200;" fill="rgb(50, 49, 63)" stroke="none" stroke-width="1px">0</text><text x="40" y="0" dx="0em" dy="0.95em" style="text-anchor: middle; visibility: hidden; font-family: Roboto, sans-serif; font-size: 12px; font-weight: 200;" fill="rgb(50, 49, 63)" stroke="none" stroke-width="1px">20</text><text x="60" y="0" dx="0em" dy="0.95em" style="text-anchor: middle; visibility: inherit; font-family: Roboto, sans-serif; font-size: 12px; font-weight: 200;" fill="rgb(50, 49, 63)" stroke="none" stroke-width="1px">40</text><text x="80" y="0" dx="0em" dy="0.95em" style="text-anchor: middle; visibility: hidden; font-family: Roboto, sans-serif; font-size: 12px; font-weight: 200;" fill="rgb(50, 49, 63)" stroke="none" stroke-width="1px">60</text><text x="100" y="0" dx="0em" dy="0.95em" style="text-anchor: middle; visibility: inherit; font-family: Roboto, sans-serif; font-size: 12px; font-weight: 200;" fill="rgb(50, 49, 63)" stroke="none" stroke-width="1px">80</text><text x="120" y="0" dx="0em" dy="0.95em" style="text-anchor: middle; visibility: hidden; font-family: Roboto, sans-serif; font-size: 12px; font-weight: 200;" fill="rgb(50, 49, 63)" stroke="none" stroke-width="1px">100</text><text x="140" y="0" dx="0em" dy="0.95em" style="text-anchor: middle; visibility: inherit; font-family: Roboto, sans-serif; font-size: 12px; font-weight: 200;" fill="rgb(50, 49, 63)" stroke="none" stroke-width="1px">120</text><text x="160" y="0" dx="0em" dy="0.95em" style="text-anchor: middle; visibility: hidden; font-family: Roboto, sans-serif; font-size: 12px; font-weight: 200;" fill="rgb(50, 49, 63)" stroke="none" stroke-width="1px">140</text><text x="180" y="0" dx="0em" dy="0.95em" style="text-anchor: middle; visibility: inherit; font-family: Roboto, sans-serif; font-size: 12px; font-weight: 200;" fill="rgb(50, 49, 63)" stroke="none" stroke-width="1px">160</text><text x="200" y="0" dx="0em" dy="0.95em" style="text-anchor: middle; visibility: hidden; font-family: Roboto, sans-serif; font-size: 12px; font-weight: 200;" fill="rgb(50, 49, 63)" stroke="none" stroke-width="1px">180</text><text x="220" y="0" dx="0em" dy="0.95em" style="text-anchor: middle; visibility: inherit; font-family: Roboto, sans-serif; font-size: 12px; font-weight: 200;" fill="rgb(50, 49, 63)" stroke="none" stroke-width="1px">200</text><text x="240" y="0" dx="0em" dy="0.95em" style="text-anchor: middle; visibility: hidden; font-family: Roboto, sans-serif; font-size: 12px; font-weight: 200;" fill="rgb(50, 49, 63)" stroke="none" stroke-width="1px">220</text><text x="260" y="0" dx="0em" dy="0.95em" style="text-anchor: middle; visibility: inherit; font-family: Roboto, sans-serif; font-size: 12px; font-weight: 200;" fill="rgb(50, 49, 63)" stroke="none" stroke-width="1px">240</text><text x="280" y="0" dx="0em" dy="0.95em" style="text-anchor: middle; visibility: hidden; font-family: Roboto, sans-serif; font-size: 12px; font-weight: 200;" fill="rgb(50, 49, 63)" stroke="none" stroke-width="1px">260</text></g><line x1="0" y1="0" x2="280" y2="0" fill="rgb(0, 0, 0)" stroke="rgb(204, 204, 204)" stroke-width="1px"></line></g></g></g></g></svg>