<svg viewBox="0 0 330 200" xmlns="http://www.w3.org/2000/svg"><g><g><g><g><g><line x1="50" y1="178" x2="45" y2="178" style="visibility: inherit;" fill="rgb(0, 0, 0)" stroke="rgb(204, 204, 204)" stroke-width="1px"></line><line x1="50" y1="165.28571428571428" x2="45" y2="165.28571428571428" style="visibility: inherit;" fill="rgb(0, 0, 0)" stroke="rgb(204, 204, 204)" stroke-width="1px"></line><line x1="50" y1="152.57142857142856" x2="45" y2="152.57142857142856" style="visibility: inherit;" fill="rgb(0, 0, 0)" stroke="rgb(204, 204, 204)" stroke-width="1px"></line><line x1="50" y1="139.85714285714286" x2="45" y2="139.85714285714286" style="visibility: inherit;" fill="rgb(0, 0, 0)" stroke="rgb(204, 204, 204)" stroke-width="1px"></line><line x1="50" y1="127.14285714285712" x2="45" y2="127.14285714285712" style="visibility: inherit;" fill="rgb(0, 0, 0)" stroke="rgb(204, 204, 204)" stroke-width="1px"></line><line x1="50" y1="114.42857142857142" x2="45" y2="114.42857142857142" style="visibility: inherit;" fill="rgb(0, 0, 0)" stroke="rgb(204, 204, 204)" stroke-width="1px"></line><line x1="50" y1="101.71428571428571" x2="45" y2="101.71428571428571" style="visibility: inherit;" fill="rgb(0, 0, 0)" stroke="rgb(204, 204, 204)" stroke-width="1px"></line><line x1="50" y1="89" x2="45" y2="89" style="visibility: inherit;" fill="rgb(0, 0, 0)" stroke="rgb(204, 204, 204)" stroke-width="1px"></line><line x1="50" y1="76.28571428571428" x2="45" y2="76.28571428571428" style="visibility: inherit;" fill="rgb(0, 0, 0)" stroke="rgb(204, 204, 204)" stroke-width="1px"></line><line x1="50" y1="63.571428571428584" x2="45" y2="63.571428571428584" style="visibility: inherit;" fill="rgb(0, 0, 0)" stroke="rgb(204, 204, 204)" stroke-width="1px"></line><line x1="50" y1="50.857142857142854" x2="45" y2="50.857142857142854" style="visibility: inherit;" fill="rgb(0, 0, 0)" stroke="rgb(204, 204, 204)" stroke-width="1px"></line><line x1="50" y1="38.142857142857125" x2="45" y2="38.142857142857125" style="visibility: inherit;" fill="rgb(0, 0, 0)" stroke="rgb(204, 204, 204)" stroke-width="1px"></line><line x1="50" y1="25.428571428571416" x2="45" y2="25.428571428571416" style="visibility: inherit;" fill="rgb(0, 0, 0)" stroke="rgb(204, 204, 204)" stroke-width="1px"></line><line x1="50" y1="12.714285714285689" x2="45" y2="12.714285714285689" style="visibility: inherit;" fill="rgb(0, 0, 0)" stroke="rgb(204, 204, 204)" stroke-width="1px"></line><line x1="50" y1="0" x2="45" y2="0" style="visibility: inherit;" fill="rgb(0, 0, 0)" stroke="rgb(204, 204, 204)" stroke-width="1px"></line></g><g transform="translate(40, 0)"><text x="0" y="178" dx="0em" dy="0.3em" style="text-anchor: end; visibility: hidden; font-family: Roboto, sans-serif; font-size: 12px; font-weight: 200;" fill="rgb(50, 49, 63)" stroke="none" stroke-width="1px">-0.2</text><text x="0" y="165.28571428571428" dx="0em" dy="0.3em" style="text-anchor: end; visibility: inherit; font-family: Roboto, sans-serif; font-size: 12px; font-weight: 200;" fill="rgb(50, 49, 63)" stroke="none" stroke-width="1px">-0.1</text><text x="0" y="152.57142857142856" dx="0em" dy="0.3em" style="text-anchor: end; visibility: hidden; font-family: Roboto, sans-serif; font-size: 12px; font-weight: 200;" fill="rgb(50, 49, 63)" stroke="none" stroke-width="1px">0</text><text x="0" y="139.85714285714286" dx="0em" dy="0.3em" style="text-anchor: end; visibility: inherit; font-family: Roboto, sans-serif; font-size: 12px; font-weight: 200;" fill="rgb(50, 49, 63)" stroke="none" stroke-width="1px">0.1</text><text x="0" y="127.14285714285712" dx="0em" dy="0.3em" style="text-anchor: end; visibility: hidden; font-family: Roboto, sans-serif; font-size: 12px; font-weight: 200;" fill="rgb(50, 49, 63)" stroke="none" stroke-width="1px">0.2</text><text x="0" y="114.42857142857142" dx="0em" dy="0.3em" style="text-anchor: end; visibility: inherit; font-family: Roboto, sans-serif; font-size: 12px; font-weight: 200;" fill="rgb(50, 49, 63)" stroke="none" stroke-width="1px">0.3</text><text x="0" y="101.71428571428571" dx="0em" dy="0.3em" style="text-anchor: end; visibility: hidden; font-family: Roboto, sans-serif; font-size: 12px; font-weight: 200;" fill="rgb(50, 49, 63)" stroke="none" stroke-width="1px">0.4</text><text x="0" y="89" dx="0em" dy="0.3em" style="text-anchor: end; visibility: inherit; font-family: Roboto, sans-serif; font-size: 12px; font-weight: 200;" fill="rgb(50, 49, 63)" stroke="none" stroke-width="1px">0.5</text><text x="0" y="76.28571428571428" dx="0em" dy="0.3em" style="text-anchor: end; visibility: hidden; font-family: Roboto, sans-serif; font-size: 12px; font-weight: 200;" fill="rgb(50, 49, 63)" stroke="none" stroke-width="1px">0.6</text><text x="0" y="63.571428571428584" dx="0em" dy="0.3em" style="text-anchor: end; visibility: inherit; font-family: Roboto, sans-serif; font-size: 12px; font-weight: 200;" fill="rgb(50, 49, 63)" stroke="none" stroke-width="1px">0.7</text><text x="0" y="50.857142857142854" dx="0em" dy="0.3em" style="text-anchor: end; visibility: hidden; font-family: Roboto, sans-serif; font-size: 12px; font-weight: 200;" fill="rgb(50, 49, 63)" stroke="none" stroke-width="1px">0.8</text><text x="0" y="38.142857142857125" dx="0em" dy="0.3em" style="text-anchor: end; visibility: inherit; font-family: Roboto, sans-serif; font-size: 12px; font-weight: 200;" fill="rgb(50, 49, 63)" stroke="none" stroke-width="1px">0.9</text><text x="0" y="25.428571428571416" dx="0em" dy="0.3em" style="text-anchor: end; visibility: hidden; font-family: Roboto, sans-serif; font-size: 12px; font-weight: 200;" fill="rgb(50, 49, 63)" stroke="none" stroke-width="1px">1</text><text x="0" y="12.714285714285689" dx="0em" dy="0.3em" style="text-anchor: end; visibility: inherit; font-family: Roboto, sans-serif; font-size: 12px; font-weight: 200;" fill="rgb(50, 49, 63)" stroke="none" stroke-width="1px">1.1</text><text x="0" y="0" dx="0em" dy="0.3em" style="text-anchor: end; visibility: hidden; font-family: Roboto, sans-serif; font-size: 12px; font-weight: 200;" fill="rgb(50, 49, 63)" stroke="none" stroke-width="1px">1.2</text></g><line x1="50" y1="0" x2="50" y2="178" fill="rgb(0, 0, 0)" stroke="rgb(204, 204, 204)" stroke-width="1px"></line></g></g><g transform="translate(50, 0)" clip-path="url(#clip_0)"><clipPath id="clip_0"><rect width="280" height="178"></rect></clipPath><g><g><g><line x1="0" y1="0" x2="0" y2="178" fill="rgb(0, 0, 0)" stroke="rgb(60, 60, 60)" stroke-width="1px" opacity="0.25"></line><line x1="20" y1="0" x2="20" y2="178" fill="rgb(0, 0, 0)" stroke="rgb(60, 60, 60)" stroke-width="1px" opacity="0.25"></line><line x1="40" y1="0" x2="40" y2="178" fill="rgb(0, 0, 0)" stroke="rgb(60, 60, 60)" stroke-width="1px" opacity="0.25"></line><line x1="60" y1="0" x2="60" y2="178" fill="rgb(0, 0, 0)" stroke="rgb(60, 60, 60)" stroke-width="1px" opacity="0.25"></line><line x1="80" y1="0" x2="80" y2="178" fill="rgb(0, 0, 0)" stroke="rgb(60, 60, 60)" stroke-width="1px" opacity="0.25"></line><line x1="100" y1="0" x2="100" y2="178" fill="rgb(0, 0, 0)" stroke="rgb(60, 60, 60)" stroke-width="1px" opacity="0.25"></line><line x1="120" y1="0" x2="120" y2="178" fill="rgb(0, 0, 0)" stroke="rgb(60, 60, 60)" stroke-width="1px" opacity="0.25"></line><line x1="140" y1="0" x2="140" y2="178" fill="rgb(0, 0, 0)" stroke="rgb(60, 60, 60)" stroke-width="1px" opacity="0.25"></line><line x1="160" y1="0" x2="160" y2="178" fill="rgb(0, 0, 0)" stroke="rgb(60, 60, 60)" stroke-width="1px" opacity="0.25"></line><line x1="180" y1="0" x2="180" y2="178" fill="rgb(0, 0, 0)" stroke="rgb(60, 60, 60)" stroke-width="1px" opacity="0.25"></line><line x1="200" y1="0" x2="200" y2="178" fill="rgb(0, 0, 0)" stroke="rgb(60, 60, 60)" stroke-width="1px" opacity="0.25"></line><line x1="220" y1="0" x2="220" y2="178" fill="rgb(0, 0, 0)" stroke="rgb(60, 60, 60)" stroke-width="1px" opacity="0.25"></line><line x1="240" y1="0" x2="240" y2="178" fill="rgb(0, 0, 0)" stroke="rgb(60, 60, 60)" stroke-width="1px" opacity="0.25"></line><line x1="260" y1="0" x2="260" y2="178" fill="rgb(0, 0, 0)" stroke="rgb(60, 60, 60)" stroke-width="1px" opacity="0.25"></line><line x1="280" y1="0" x2="280" y2="178" fill="rgb(0, 0, 0)" stroke="rgb(60, 60, 60)" stroke-width="1px" opacity="0.25"></line></g><g><line x1="0" y1="178" x2="280" y2="178" fill="rgb(0, 0, 0)" stroke="rgb(60, 60, 60)" stroke-width="1px" opacity="0.25"></line><line x1="0" y1="165.28571428571428" x2="280" y2="165.28571428571428" fill="rgb(0, 0, 0)" stroke="rgb(60, 60, 60)" stroke-width="1px" opacity="0.25"></line><line x1="0" y1="152.57142857142856" x2="280" y2="152.57142857142856" fill="rgb(0, 0, 0)" stroke="rgb(60, 60, 60)" stroke-width="1px" opacity="0.25"></line><line x1="0" y1="139.85714285714286" x2="280" y2="139.85714285714286" fill="rgb(0, 0, 0)" stroke="rgb(60, 60, 60)" stroke-width="1px" opacity="0.25"></line><line x1="0" y1="127.14285714285712" x2="280" y2="127.14285714285712" fill="rgb(0, 0, 0)" stroke="rgb(60, 60, 60)" stroke-width="1px" opacity="0.25"></line><line x1="0" y1="114.42857142857142" x2="280" y2="114.42857142857142" fill="rgb(0, 0, 0)" stroke="rgb(60, 60, 60)" stroke-width="1px" opacity="0.25"></line><line x1="0" y1="101.71428571428571" x2="280" y2="101.71428571428571" fill="rgb(0, 0, 0)" stroke="rgb(60, 60, 60)" stroke-width="1px" opacity="0.25"></line><line x1="0" y1="89" x2="280" y2="89" fill="rgb(0, 0, 0)" stroke="rgb(60, 60, 60)" stroke-width="1px" opacity="0.25"></line><line x1="0" y1="76.28571428571428" x2="280" y2="76.28571428571428" fill="rgb(0, 0, 0)" stroke="rgb(60, 60, 60)" stroke-width="1px" opacity="0.25"></line><line x1="0" y1="63.571428571428584" x2="280" y2="63.571428571428584" fill="rgb(0, 0, 0)" stroke="rgb(60, 60, 60)" stroke-width="1px" opacity="0.25"></line><line x1="0" y1="50.857142857142854" x2="280" y2="50.857142857142854" fill="rgb(0, 0, 0)" stroke="rgb(60, 60, 60)" stroke-width="1px" opacity="0.25"></line><line x1="0" y1="38.142857142857125" x2="280" y2="38.142857142857125" fill="rgb(0, 0, 0)" stroke="rgb(60, 60, 60)" stroke-width="1px" opacity="0.25"></line><line x1="0" y1="25.428571428571416" x2="280" y2="25.428571428571416" fill="rgb(0, 0, 0)" stroke="rgb(60, 60, 60)" stroke-width="1px" opacity="0.25"></line><line x1="0" y1="12.714285714285689" x2="280" y2="12.714285714285689" fill="rgb(0, 0, 0)" stroke="rgb(60, 60, 60)" stroke-width="1px" opacity="0.25"></line><line x1="0" y1="0" x2="280" y2="0" fill="rgb(0, 0, 0)" stroke="rgb(60, 60, 60)" stroke-width="1px" opacity="0.25"></line></g></g></g><g><g><line x1="0" y1="152.57142857142856" x2="280" y2="152.57142857142856" fill="rgb(0, 0, 0)" stroke="rgb(153, 153, 153)" stroke-width="1.5px"></line></g></g><g><g><line x1="20" y1="0" x2="20" y2="178" fill="rgb(0, 0, 0)" stroke="rgb(153, 153, 153)" stroke-width="1.5px"></line></g></g><g><g><g><g><g><path stroke="rgb(255, 112, 67)" stroke-width="2px" d="M20,8.700676032475066L21,15.198030412197113L22,21.723853699319914L23,30.06453867394384L24,33.418461231134955L25,34.808766925579114L26,42.07045158381038L27,46.859148277000315L28,51.17125646529707L29.000000000000004,47.21583241472542L30,30.79035305428547L31,17.390152179104156L32,-6.651382729576772L37,-3.3135146915598237L38,10.494292187591913L39,23.913439367816963L40,18.654635845225005L41,23.98387285545528L42,19.416247296570422L43,34.268885838493816L44,42.161866543012835L45,44.099974254858154L46,59.69608473136536L46.99999999999999,64.30499928969108L48,68.74692855438597L49,61.94862630885116L50,64.50832065445482L51,54.30417486068691L52,58.33787789895728L53,64.0349981106855L54,70.4170724537325L55,46.72708497735468L56,60.13113351674479L57,70.50172393773725L58.00000000000001,73.07901962784916L59,69.29802151695333L60,72.30229803498976L61,74.11980836141272L62,78.68062950320221L63,65.3888437657066L64,64.54966481880894L65,58.89599604783889L66,52.67931813459385L67,51.91066434826617L68,26.75587799508673L69,40.32310320364058L70,41.774674914559796L71,46.68624276400765L72,41.999159909451436L73,52.85797205314335L74,59.91438668048576L75,64.77624351598152L76,69.46973045870453L77,68.85526346601199L78,72.75834032813177L79,74.17002227854417L80,79.9096062699914L81.00000000000001,80.52108951670547L82,78.20697224977893L83,68.6138259086463L84,71.67061845059203L85,70.18451131170563L86,74.95047597331578L87,75.40269711162316L88,63.19585071446182L89,67.55904703233224L90,71.20889349856978L91,72.73455083417298L92,79.93886364556364L93,85.18213807122969L93.99999999999999,88.64558519809539L95,90.90649675064739L96,91.1645214107498L97,82.85850594408215L98,80.5652767264573L99,82.97585739498561L100,84.00808781269328L101,82.82156149079283L102,80.242912180687L103,81.45368901084619L104,83.17174901479933L105,91.11803977949378L106,85.81258291588573L107,80.35840609593426L108,78.60042422538369L109,80.04733356295107L110,80.636121629993L111,84.48079680674752L112,87.08250558283872L113,87.44140254033347L114,83.67250454256293L115,86.33634849514749L116.00000000000001,86.74299977582123L117,80.07690728437048L118,87.96842143971408L119,89.68428939944575L120,89.4617135563599L121,84.15247837027265L122,75.3422981902893L123,80.7118535385349L124,84.70986130936426L125,90.27748412210973L126,89.59896446656724L127,99.28231857652389L128,95.50573147113363L129,97.54430940272695L130,91.50291891239029L131,94.33083385347773L132,89.12226934333881L133,93.68109826164732L134,94.40850404281362L135,96.96997087653416L136,100.49662130406206L137,98.05697423501944L138,95.93501931257669L139,98.28960816587156L140,100.85324983569214L141,106.00234552571227L142,106.10939896314771L143,104.57757788510494L144,106.3508265659465L145,107.78324659651328L146,107.8343572138894L147,102.29111823553733L148,100.90938289148828L149,104.58635475489287L150,102.68139692355012L151,97.92297516334202L152,99.6615085520719L152.99999999999997,101.05070096959915L154,102.17476862751732L155,97.67141883593203L156,95.61845136297585L157,102.36648946173692L158,98.67698551601505L159,99.68227725514714L160,99.55731209773899L161,108.92725086094106L162.00000000000003,99.89295975069331L163,104.77582408862528L164,101.08938550024416L165,100.15955630156337L166,103.96345064852117L167,103.89657489971975L168,99.30237931831955L169,102.64576078463448L170,100.61098902486218L171,101.46013538789508L172,103.12506915608668L173,102.54092911512288L174,105.85491014328551L175,100.56291224415699L176,104.94722111309356L177,104.12188268984514L178,99.95341162425801L179,103.82857068589556L180,98.94890805779063L181,99.44333956657746L182,103.7519378952744L183,105.97396422835706L184,110.33845952399084L185,109.2279911132647L186,110.04954956126173L187,110.21214329094863L187.99999999999997,111.69975312457615L189,112.20167256708052L190,109.9362797338671L191,113.11767631592365L192,108.65191554065608L193,110.34537286183871L194,112.17162866792633L195,111.09658127836745L196,111.07059880042631L197.00000000000003,105.13399789981491L198,108.9685538187769L199,111.54501035065334L200,111.14257636390089L201,111.30112921429847L202,115.37551890835779L203,111.42677571873946L204,105.22708775103737L205,108.52886540762404L206,108.03380122653307L207,103.43195667275499L208,99.66890103890297L209,96.61431045439973L210,100.11475024031736L211,106.4683377009204L212,110.08533973379643L213,112.42163162928479L214,116.58343827086821L215,113.6508146179633L216,113.27151649313669L217,109.96271557792808L218,113.89057106826432L219,113.42351097837185L220,115.25492864406591L221,111.59218026475853L222,114.31989435207608L222.99999999999997,119.5037469344159L224,117.28514912075435L225,112.12265565431667L226,118.72907206250588L227,120.1466493741389L228,120.78179911843377L229,121.64103453031612L230,113.36911527148317L231,113.29409310376644L232.00000000000003,113.65966932781424L233,113.99747760777406L234,116.42328558120822L235,113.57914333366995L236,111.09387803568629L237,114.00215367884236L238,111.38929974596466L239,115.37722371554833L240,116.46964329460279L241,114.99785123369789L242,116.08646600477343L243,116.12225310736648L244,117.48753463296913L245,119.75222881988267L246,120.66205805241128L247,119.12248491550638L248,115.94190972799578L249,114.23273610752109L250,116.93453553384454L251,108.3992930595035L252,111.5687751736614L253,111.48938491484616L254,116.80578329204462L255,107.5144808788577L256,105.7395205863574L257,107.15475989220664L258,113.02620144560242L259,112.80196976246162L260,117.0272393763679L261,113.71666730628971L262,113.99165688268283L263,110.97349280986069" style="fill: none;" fill="none"></path></g></g></g></g><g opacity="0.2"><g><g><g><path stroke="rgb(255, 112, 67)" stroke-width="2px" d="M20,8.700676032475066L21,19.096443040030337L22,27.988644054957796L23,39.87318420410156L24,37.797342521803714L25,36.73206021104541L26,52.45477683203561L27,53.84111402715955L28,57.53077845914023L29.000000000000004,41.34248868056705L30,6.301111902509406L31,-2.6372258322579407L35,-28.593041147504522L36,0.7701770578111893L37,16.45279686791556L38,31.203899025917053L39,44.04093357494898L40,10.766718966620303L41,31.977553009986877L42,12.564899138041902L43,56.5476677077157L44,54.00128149986267L45,47.00712755748203L46,83.09021053995404L46.99999999999999,71.21836405141013L48,75.40981835978371L49,51.75117669786725L50,68.34786132403782L51,38.99795820031848L52,64.38843197481972L53,72.58067802020481L54,79.99018369402204L55,11.192104373659397L56,80.23720611844745L57,86.05760947295597L58.00000000000001,76.94496314866203L59,63.626524363245274L60,76.80871280602047L61,76.8460738488606L62,85.52186121259417L63,45.451165165219976L64,63.290896398680545L65,50.41549289226532L66,43.35430126530783L67,50.75768366881778L68,-10.976301533835269L69,60.673941016197205L70,43.952032480921055L71,54.053594538143706L72,34.96853562763758L73,69.14619026865277L74,70.4990086214883L75,72.06902876922062L76,76.50996087278638L77,67.93356297697339L78,78.61295562131065L79,76.2875452041626L80,88.51898225716182L81.00000000000001,81.43831438677651L82,74.73579634938922L83,54.224106396947576L84,76.25580726351056L85,67.95535060337612L86,82.09942296573094L87,76.08102881908417L88,44.88558111871991L89,74.10384150913784L90,76.68366319792611L91,75.02303683757782L92,90.74533286264963L93,93.04704970972878L93.99999999999999,93.84075588839394L95,94.2978640794754L96,91.55155840090342L97,70.39948274408069L98,77.12543290002006L99,86.5917283977781L100,85.55643343925476L101,81.0417720079422L102,76.37493821552822L103,83.26985425608498L104,85.74883902072906L105,103.03747592653546L106,77.85439762047359L107,72.17714086600712L108,75.96345141955784L109,82.21769756930215L110,81.51930373055595L111,90.24780957187924L112,90.98506874697549L113,87.97974797657558L114,78.01915754590716L115,90.3321144240243L116.00000000000001,87.35297669683185L117,70.07776854719434L118,99.80569267272949L119,92.2580913390432L120,89.12784979173117L121,76.18862559114184L122,62.12702792031424L123,88.76618656090328L124,90.70687296560831L125,98.62891834122794L126,88.58118498325348L127,113.80734974145889L128,89.84085081304822L129,100.60217630011695L130,82.44083317688533L131,98.57270626510892L132,81.30942257813045L133,100.51934163911002L134,95.49961271456309L135,100.81217112711496L136,105.78659694535392L137,94.39750363145556L138,92.75208692891258L139,101.82149144581385L140,104.69871234042304L141,113.72598906074252L142,106.26997911930084L143,102.2798462680408L144,109.01069958720889L145,109.9318766423634L146,107.91102313995361L147,93.97625976800919L148,98.8367798754147L149,110.10181254999978L150,99.82396017653602L151,90.78534252302987L152,102.26930863516671L152.99999999999997,103.13448959589005L154,103.8608701143946L155,90.91639414855413L156,92.53900015354156L157,112.48854660987854L158,93.14272959743228L159,101.19021486384528L160,99.36986436162677L161,122.98215900574412L162.00000000000003,86.3415230853217L163,112.1001205955233L164,95.55972761767251L165,98.76481250354223L166,109.66929216895785L167,103.79626127651758L168,92.4110859462193L169,107.66083298410688L170,97.55883138520377L171,102.73385493244443L172,105.62246980837412L173,101.66471905367715L174,110.82588168552942L175,92.62491539546423L176,111.52368441649847L177,102.8838750549725L178,93.70070502587728L179,109.64130927835193L180,91.6294141156333L181,100.18498682975769L182,110.21483538831983L183,109.30700372798103L184,116.88520246744156L185,107.5622884971755L186,111.2818872332573L187,110.45603388547897L187.99999999999997,113.93116787501745L189,112.95455173083715L190,106.53819048404694L191,117.88977118900843L192,101.95327437775475L193,112.88555884361267L194,114.91101237705774L195,109.48401019402914L196,111.03162508351463L197.00000000000003,96.22909654889789L198,114.72038769721985L199,115.40969514846802L200,110.53892538377218L201,111.53895848989487L202,121.48710344944682L203,105.50366093431201L204,95.92755579948425L205,113.48153189250402L206,107.29120495489664L207,96.52918984208789L208,94.02431758812494L209,92.03242457764489L210,105.36540991919381L211,115.99871889182499L212,115.51084278311048L213,115.92606947251728L214,122.8261482332434L215,109.25187913860593L216,112.70256930589676L217,104.99951420511518L218,119.78235430376868L219,112.7229208435331L220,118.002055142607L221,106.09805769579751L222,118.4114654830524L222.99999999999997,127.27952580792564L224,113.95725240026202L225,104.37891545466013L226,128.63869667478968L227,122.27301534158843L228,121.73452373487609L229,122.92988764813967L230,100.96123638323374L231,113.18155985219138L232.00000000000003,114.20803366388593L233,114.50419002771378L234,120.06199754135947L235,109.31292996236257L236,107.36598008871078L237,118.36456714357648L238,107.47001884664807L239,121.35910966992378L240,118.10827266318458L241,112.79016314234052L242,117.71938816138676L243,116.17593376125608L244,119.53545692137308L245,123.14927010025296L246,122.02680190120425L247,116.81312521014895L248,111.17104694672994L249,111.66897567680903L250,120.98723467332977L251,95.59642934799194L252,116.32299834489822L253,111.37029952662331L254,124.7803808578423L255,93.57752725907736L256,103.07708014760699L257,109.27761885098047L258,121.83336377569607L259,112.46562223775047L260,123.36514379722732L261,108.75080920117242L262,114.40414124727249L263,106.44624670062747" style="fill: none;" fill="none"></path></g></g></g></g></g></g><g transform="translate(50, 178)" clip-path="url(#clip_1)"><clipPath id="clip_1"><rect width="280" height="22"></rect></clipPath><g><g><line x1="0" y1="0" x2="0" y2="5" style="visibility: inherit;" fill="rgb(0, 0, 0)" stroke="rgb(204, 204, 204)" stroke-width="1px"></line><line x1="20" y1="0" x2="20" y2="5" style="visibility: inherit;" fill="rgb(0, 0, 0)" stroke="rgb(204, 204, 204)" stroke-width="1px"></line><line x1="40" y1="0" x2="40" y2="5" style="visibility: inherit;" fill="rgb(0, 0, 0)" stroke="rgb(204, 204, 204)" stroke-width="1px"></line><line x1="60" y1="0" x2="60" y2="5" style="visibility: inherit;" fill="rgb(0, 0, 0)" stroke="rgb(204, 204, 204)" stroke-width="1px"></line><line x1="80" y1="0" x2="80" y2="5" style="visibility: inherit;" fill="rgb(0, 0, 0)" stroke="rgb(204, 204, 204)" stroke-width="1px"></line><line x1="100" y1="0" x2="100" y2="5" style="visibility: inherit;" fill="rgb(0, 0, 0)" stroke="rgb(204, 204, 204)" stroke-width="1px"></line><line x1="120" y1="0" x2="120" y2="5" style="visibility: inherit;" fill="rgb(0, 0, 0)" stroke="rgb(204, 204, 204)" stroke-width="1px"></line><line x1="140" y1="0" x2="140" y2="5" style="visibility: inherit;" fill="rgb(0, 0, 0)" stroke="rgb(204, 204, 204)" stroke-width="1px"></line><line x1="160" y1="0" x2="160" y2="5" style="visibility: inherit;" fill="rgb(0, 0, 0)" stroke="rgb(204, 204, 204)" stroke-width="1px"></line><line x1="180" y1="0" x2="180" y2="5" style="visibility: inherit;" fill="rgb(0, 0, 0)" stroke="rgb(204, 204, 204)" stroke-width="1px"></line><line x1="200" y1="0" x2="200" y2="5" style="visibility: inherit;" fill="rgb(0, 0, 0)" stroke="rgb(204, 204, 204)" stroke-width="1px"></line><line x1="220" y1="0" x2="220" y2="5" style="visibility: inherit;" fill="rgb(0, 0, 0)" stroke="rgb(204, 204, 204)" stroke-width="1px"></line><line x1="240" y1="0" x2="240" y2="5" style="visibility: inherit;" fill="rgb(0, 0, 0)" stroke="rgb(204, 204, 204)" stroke-width="1px"></line><line x1="260" y1="0" x2="260" y2="5" style="visibility: inherit;" fill="rgb(0, 0, 0)" stroke="rgb(204, 204, 204)" stroke-width="1px"></line><line x1="280" y1="0" x2="280" y2="5" style="visibility: inherit;" fill="rgb(0, 0, 0)" stroke="rgb(204, 204, 204)" stroke-width="1px"></line></g><g transform="translate(0, 8)"><text x="0" y="0" dx="0em" dy="0.95em" style="text-anchor: middle; visibility: hidden; font-family: Roboto, sans-serif; font-size: 12px; font-weight: 200;" fill="rgb(50, 49, 63)" stroke="none" stroke-width="1px">-20</text><text x="20" y="0" dx="0em" dy="0.95em" style="text-anchor: middle; visibility: inherit; font-family: Roboto, sans-serif; font-size: 12px; font-weight: 200;" fill="rgb(50, 49, 63)" stroke="none" stroke-width="1px">0</text><text x="40" y="0" dx="0em" dy="0.95em" style="text-anchor: middle; visibility: hidden; font-family: Roboto, sans-serif; font-size: 12px; font-weight: 200;" fill="rgb(50, 49, 63)" stroke="none" stroke-width="1px">20</text><text x="60" y="0" dx="0em" dy="0.95em" style="text-anchor: middle; visibility: inherit; font-family: Roboto, sans-serif; font-size: 12px; font-weight: 200;" fill="rgb(50, 49, 63)" stroke="none" stroke-width="1px">40</text><text x="80" y="0" dx="0em" dy="0.95em" style="text-anchor: middle; visibility: hidden; font-family: Roboto, sans-serif; font-size: 12px; font-weight: 200;" fill="rgb(50, 49, 63)" stroke="none" stroke-width="1px">60</text><text x="100" y="0" dx="0em" dy="0.95em" style="text-anchor: middle; visibility: inherit; font-family: Roboto, sans-serif; font-size: 12px; font-weight: 200;" fill="rgb(50, 49, 63)" stroke="none" stroke-width="1px">80</text><text x="120" y="0" dx="0em" dy="0.95em" style="text-anchor: middle; visibility: hidden; font-family: Roboto, sans-serif; font-size: 12px; font-weight: 200;" fill="rgb(50, 49, 63)" stroke="none" stroke-width="1px">100</text><text x="140" y="0" dx="0em" dy="0.95em" style="text-anchor: middle; visibility: inherit; font-family: Roboto, sans-serif; font-size: 12px; font-weight: 200;" fill="rgb(50, 49, 63)" stroke="none" stroke-width="1px">120</text><text x="160" y="0" dx="0em" dy="0.95em" style="text-anchor: middle; visibility: hidden; font-family: Roboto, sans-serif; font-size: 12px; font-weight: 200;" fill="rgb(50, 49, 63)" stroke="none" stroke-width="1px">140</text><text x="180" y="0" dx="0em" dy="0.95em" style="text-anchor: middle; visibility: inherit; font-family: Roboto, sans-serif; font-size: 12px; font-weight: 200;" fill="rgb(50, 49, 63)" stroke="none" stroke-width="1px">160</text><text x="200" y="0" dx="0em" dy="0.95em" style="text-anchor: middle; visibility: hidden; font-family: Roboto, sans-serif; font-size: 12px; font-weight: 200;" fill="rgb(50, 49, 63)" stroke="none" stroke-width="1px">180</text><text x="220" y="0" dx="0em" dy="0.95em" style="text-anchor: middle; visibility: inherit; font-family: Roboto, sans-serif; font-size: 12px; font-weight: 200;" fill="rgb(50, 49, 63)" stroke="none" stroke-width="1px">200</text><text x="240" y="0" dx="0em" dy="0.95em" style="text-anchor: middle; visibility: hidden; font-family: Roboto, sans-serif; font-size: 12px; font-weight: 200;" fill="rgb(50, 49, 63)" stroke="none" stroke-width="1px">220</text><text x="260" y="0" dx="0em" dy="0.95em" style="text-anchor: middle; visibility: inherit; font-family: Roboto, sans-serif; font-size: 12px; font-weight: 200;" fill="rgb(50, 49, 63)" stroke="none" stroke-width="1px">240</text><text x="280" y="0" dx="0em" dy="0.95em" style="text-anchor: middle; visibility: hidden; font-family: Roboto, sans-serif; font-size: 12px; font-weight: 200;" fill="rgb(50, 49, 63)" stroke="none" stroke-width="1px">260</text></g><line x1="0" y1="0" x2="280" y2="0" fill="rgb(0, 0, 0)" stroke="rgb(204, 204, 204)" stroke-width="1px"></line></g></g></g></g></svg>