<svg viewBox="0 0 330 200" xmlns="http://www.w3.org/2000/svg"><g><g><g><g><g><line x1="50" y1="178" x2="45" y2="178" style="visibility: inherit;" fill="rgb(0, 0, 0)" stroke="rgb(204, 204, 204)" stroke-width="1px"></line><line x1="50" y1="163.16666666666666" x2="45" y2="163.16666666666666" style="visibility: inherit;" fill="rgb(0, 0, 0)" stroke="rgb(204, 204, 204)" stroke-width="1px"></line><line x1="50" y1="148.33333333333334" x2="45" y2="148.33333333333334" style="visibility: inherit;" fill="rgb(0, 0, 0)" stroke="rgb(204, 204, 204)" stroke-width="1px"></line><line x1="50" y1="133.5" x2="45" y2="133.5" style="visibility: inherit;" fill="rgb(0, 0, 0)" stroke="rgb(204, 204, 204)" stroke-width="1px"></line><line x1="50" y1="118.66666666666669" x2="45" y2="118.66666666666669" style="visibility: inherit;" fill="rgb(0, 0, 0)" stroke="rgb(204, 204, 204)" stroke-width="1px"></line><line x1="50" y1="103.83333333333334" x2="45" y2="103.83333333333334" style="visibility: inherit;" fill="rgb(0, 0, 0)" stroke="rgb(204, 204, 204)" stroke-width="1px"></line><line x1="50" y1="89.00000000000001" x2="45" y2="89.00000000000001" style="visibility: inherit;" fill="rgb(0, 0, 0)" stroke="rgb(204, 204, 204)" stroke-width="1px"></line><line x1="50" y1="74.16666666666669" x2="45" y2="74.16666666666669" style="visibility: inherit;" fill="rgb(0, 0, 0)" stroke="rgb(204, 204, 204)" stroke-width="1px"></line><line x1="50" y1="59.33333333333336" x2="45" y2="59.33333333333336" style="visibility: inherit;" fill="rgb(0, 0, 0)" stroke="rgb(204, 204, 204)" stroke-width="1px"></line><line x1="50" y1="44.50000000000002" x2="45" y2="44.50000000000002" style="visibility: inherit;" fill="rgb(0, 0, 0)" stroke="rgb(204, 204, 204)" stroke-width="1px"></line><line x1="50" y1="29.66666666666668" x2="45" y2="29.66666666666668" style="visibility: inherit;" fill="rgb(0, 0, 0)" stroke="rgb(204, 204, 204)" stroke-width="1px"></line><line x1="50" y1="14.83333333333334" x2="45" y2="14.83333333333334" style="visibility: inherit;" fill="rgb(0, 0, 0)" stroke="rgb(204, 204, 204)" stroke-width="1px"></line><line x1="50" y1="0" x2="45" y2="0" style="visibility: inherit;" fill="rgb(0, 0, 0)" stroke="rgb(204, 204, 204)" stroke-width="1px"></line></g><g transform="translate(40, 0)"><text x="0" y="178" dx="0em" dy="0.3em" style="text-anchor: end; visibility: hidden; font-family: Roboto, sans-serif; font-size: 12px; font-weight: 200;" fill="rgb(50, 49, 63)" stroke="none" stroke-width="1px">-0.2</text><text x="0" y="163.16666666666666" dx="0em" dy="0.3em" style="text-anchor: end; visibility: inherit; font-family: Roboto, sans-serif; font-size: 12px; font-weight: 200;" fill="rgb(50, 49, 63)" stroke="none" stroke-width="1px">0</text><text x="0" y="148.33333333333334" dx="0em" dy="0.3em" style="text-anchor: end; visibility: hidden; font-family: Roboto, sans-serif; font-size: 12px; font-weight: 200;" fill="rgb(50, 49, 63)" stroke="none" stroke-width="1px">0.2</text><text x="0" y="133.5" dx="0em" dy="0.3em" style="text-anchor: end; visibility: inherit; font-family: Roboto, sans-serif; font-size: 12px; font-weight: 200;" fill="rgb(50, 49, 63)" stroke="none" stroke-width="1px">0.4</text><text x="0" y="118.66666666666669" dx="0em" dy="0.3em" style="text-anchor: end; visibility: hidden; font-family: Roboto, sans-serif; font-size: 12px; font-weight: 200;" fill="rgb(50, 49, 63)" stroke="none" stroke-width="1px">0.6</text><text x="0" y="103.83333333333334" dx="0em" dy="0.3em" style="text-anchor: end; visibility: inherit; font-family: Roboto, sans-serif; font-size: 12px; font-weight: 200;" fill="rgb(50, 49, 63)" stroke="none" stroke-width="1px">0.8</text><text x="0" y="89.00000000000001" dx="0em" dy="0.3em" style="text-anchor: end; visibility: hidden; font-family: Roboto, sans-serif; font-size: 12px; font-weight: 200;" fill="rgb(50, 49, 63)" stroke="none" stroke-width="1px">1</text><text x="0" y="74.16666666666669" dx="0em" dy="0.3em" style="text-anchor: end; visibility: inherit; font-family: Roboto, sans-serif; font-size: 12px; font-weight: 200;" fill="rgb(50, 49, 63)" stroke="none" stroke-width="1px">1.2</text><text x="0" y="59.33333333333336" dx="0em" dy="0.3em" style="text-anchor: end; visibility: hidden; font-family: Roboto, sans-serif; font-size: 12px; font-weight: 200;" fill="rgb(50, 49, 63)" stroke="none" stroke-width="1px">1.4</text><text x="0" y="44.50000000000002" dx="0em" dy="0.3em" style="text-anchor: end; visibility: inherit; font-family: Roboto, sans-serif; font-size: 12px; font-weight: 200;" fill="rgb(50, 49, 63)" stroke="none" stroke-width="1px">1.6</text><text x="0" y="29.66666666666668" dx="0em" dy="0.3em" style="text-anchor: end; visibility: hidden; font-family: Roboto, sans-serif; font-size: 12px; font-weight: 200;" fill="rgb(50, 49, 63)" stroke="none" stroke-width="1px">1.8</text><text x="0" y="14.83333333333334" dx="0em" dy="0.3em" style="text-anchor: end; visibility: inherit; font-family: Roboto, sans-serif; font-size: 12px; font-weight: 200;" fill="rgb(50, 49, 63)" stroke="none" stroke-width="1px">2</text><text x="0" y="0" dx="0em" dy="0.3em" style="text-anchor: end; visibility: hidden; font-family: Roboto, sans-serif; font-size: 12px; font-weight: 200;" fill="rgb(50, 49, 63)" stroke="none" stroke-width="1px">2.2</text></g><line x1="50" y1="0" x2="50" y2="178" fill="rgb(0, 0, 0)" stroke="rgb(204, 204, 204)" stroke-width="1px"></line></g></g><g transform="translate(50, 0)" clip-path="url(#clip_0)"><clipPath id="clip_0"><rect width="280" height="178"></rect></clipPath><g><g><g><line x1="0" y1="0" x2="0" y2="178" fill="rgb(0, 0, 0)" stroke="rgb(60, 60, 60)" stroke-width="1px" opacity="0.25"></line><line x1="20" y1="0" x2="20" y2="178" fill="rgb(0, 0, 0)" stroke="rgb(60, 60, 60)" stroke-width="1px" opacity="0.25"></line><line x1="40" y1="0" x2="40" y2="178" fill="rgb(0, 0, 0)" stroke="rgb(60, 60, 60)" stroke-width="1px" opacity="0.25"></line><line x1="60" y1="0" x2="60" y2="178" fill="rgb(0, 0, 0)" stroke="rgb(60, 60, 60)" stroke-width="1px" opacity="0.25"></line><line x1="80" y1="0" x2="80" y2="178" fill="rgb(0, 0, 0)" stroke="rgb(60, 60, 60)" stroke-width="1px" opacity="0.25"></line><line x1="100" y1="0" x2="100" y2="178" fill="rgb(0, 0, 0)" stroke="rgb(60, 60, 60)" stroke-width="1px" opacity="0.25"></line><line x1="120" y1="0" x2="120" y2="178" fill="rgb(0, 0, 0)" stroke="rgb(60, 60, 60)" stroke-width="1px" opacity="0.25"></line><line x1="140" y1="0" x2="140" y2="178" fill="rgb(0, 0, 0)" stroke="rgb(60, 60, 60)" stroke-width="1px" opacity="0.25"></line><line x1="160" y1="0" x2="160" y2="178" fill="rgb(0, 0, 0)" stroke="rgb(60, 60, 60)" stroke-width="1px" opacity="0.25"></line><line x1="180" y1="0" x2="180" y2="178" fill="rgb(0, 0, 0)" stroke="rgb(60, 60, 60)" stroke-width="1px" opacity="0.25"></line><line x1="200" y1="0" x2="200" y2="178" fill="rgb(0, 0, 0)" stroke="rgb(60, 60, 60)" stroke-width="1px" opacity="0.25"></line><line x1="220" y1="0" x2="220" y2="178" fill="rgb(0, 0, 0)" stroke="rgb(60, 60, 60)" stroke-width="1px" opacity="0.25"></line><line x1="240" y1="0" x2="240" y2="178" fill="rgb(0, 0, 0)" stroke="rgb(60, 60, 60)" stroke-width="1px" opacity="0.25"></line><line x1="260" y1="0" x2="260" y2="178" fill="rgb(0, 0, 0)" stroke="rgb(60, 60, 60)" stroke-width="1px" opacity="0.25"></line><line x1="280" y1="0" x2="280" y2="178" fill="rgb(0, 0, 0)" stroke="rgb(60, 60, 60)" stroke-width="1px" opacity="0.25"></line></g><g><line x1="0" y1="178" x2="280" y2="178" fill="rgb(0, 0, 0)" stroke="rgb(60, 60, 60)" stroke-width="1px" opacity="0.25"></line><line x1="0" y1="163.16666666666666" x2="280" y2="163.16666666666666" fill="rgb(0, 0, 0)" stroke="rgb(60, 60, 60)" stroke-width="1px" opacity="0.25"></line><line x1="0" y1="148.33333333333334" x2="280" y2="148.33333333333334" fill="rgb(0, 0, 0)" stroke="rgb(60, 60, 60)" stroke-width="1px" opacity="0.25"></line><line x1="0" y1="133.5" x2="280" y2="133.5" fill="rgb(0, 0, 0)" stroke="rgb(60, 60, 60)" stroke-width="1px" opacity="0.25"></line><line x1="0" y1="118.66666666666669" x2="280" y2="118.66666666666669" fill="rgb(0, 0, 0)" stroke="rgb(60, 60, 60)" stroke-width="1px" opacity="0.25"></line><line x1="0" y1="103.83333333333334" x2="280" y2="103.83333333333334" fill="rgb(0, 0, 0)" stroke="rgb(60, 60, 60)" stroke-width="1px" opacity="0.25"></line><line x1="0" y1="89.00000000000001" x2="280" y2="89.00000000000001" fill="rgb(0, 0, 0)" stroke="rgb(60, 60, 60)" stroke-width="1px" opacity="0.25"></line><line x1="0" y1="74.16666666666669" x2="280" y2="74.16666666666669" fill="rgb(0, 0, 0)" stroke="rgb(60, 60, 60)" stroke-width="1px" opacity="0.25"></line><line x1="0" y1="59.33333333333336" x2="280" y2="59.33333333333336" fill="rgb(0, 0, 0)" stroke="rgb(60, 60, 60)" stroke-width="1px" opacity="0.25"></line><line x1="0" y1="44.50000000000002" x2="280" y2="44.50000000000002" fill="rgb(0, 0, 0)" stroke="rgb(60, 60, 60)" stroke-width="1px" opacity="0.25"></line><line x1="0" y1="29.66666666666668" x2="280" y2="29.66666666666668" fill="rgb(0, 0, 0)" stroke="rgb(60, 60, 60)" stroke-width="1px" opacity="0.25"></line><line x1="0" y1="14.83333333333334" x2="280" y2="14.83333333333334" fill="rgb(0, 0, 0)" stroke="rgb(60, 60, 60)" stroke-width="1px" opacity="0.25"></line><line x1="0" y1="0" x2="280" y2="0" fill="rgb(0, 0, 0)" stroke="rgb(60, 60, 60)" stroke-width="1px" opacity="0.25"></line></g></g></g><g><g><line x1="0" y1="163.16666666666666" x2="280" y2="163.16666666666666" fill="rgb(0, 0, 0)" stroke="rgb(153, 153, 153)" stroke-width="1.5px"></line></g></g><g><g><line x1="20" y1="0" x2="20" y2="178" fill="rgb(0, 0, 0)" stroke="rgb(153, 153, 153)" stroke-width="1.5px"></line></g></g><g><g><g><g><g><path stroke="rgb(255, 112, 67)" stroke-width="2px" d="M20,3.0615810950597195L21,9.676672334472352L22,13.192082172348387L23,20.365881056762234L24,24.84212469276995L25,24.97136551012097L26,33.55023876675059L27,36.19249761392773L28,37.07565017046477L29.000000000000004,35.65862786424196L30,30.236572575186557L31,18.787413827229898L32,5.362304830324624L33,-1.3254481529067856L35,-4.833948386894132L36,1.8827162187200968L37,10.91585754017921L38,20.61777977687765L39,23.78171864466418L40,19.813286108927223L41,26.182492644124757L42,25.02089308099932L43,33.215969665196525L44,36.83967711989844L45,39.7147893585121L46,51.66829398481825L46.99999999999999,52.90683834640238L48,56.63448187898909L49,51.723441324873264L50,55.71068359786208L51,49.75830187337748L52,52.54096123514745L53,51.37061776705077L54,55.929884857755745L55,41.78969474363108L56,48.48971443186784L57,55.55027197128001L58.00000000000001,61.653649699331105L59,60.13760907346456L60,64.12510196028758L61,61.06871264425027L62,64.69229070398792L63,58.027041140356815L64,57.25599059046788L65,52.60299621740657L66,46.854781119129605L67,45.626022558245225L68,27.870268285531917L69,33.73929358740966L70,34.98329226109188L71,42.82076636912402L72,36.983626381319354L73,43.04408899293679L74,48.03876305031895L75,52.1808095002674L76,55.02624127216224L77,57.357530289573305L78,57.8426026425856L79,60.37681822312473L80,63.973679822679074L81.00000000000001,66.37542917847384L82,60.448503239073794L83,52.187052470317504L84,56.116596735639L85,55.01866883265335L86,59.933311714097044L87,62.361313303330064L88,54.5886018832635L89,58.359713190403255L90,60.51956561820113L91,62.20876179307541L92,66.24835017226046L93,64.3078049355859L93.99999999999999,66.43179722234296L95,66.93468529147718L96,69.03704862294286L97,61.78490247228359L98,59.868644368044244L99,62.444820673103166L100,64.1605598712971L101,66.74573186546625L102,63.841569857856015L103,67.45125448528552L104,67.04297883405462L105,74.77708935197697L106,67.21266541157071L107,67.26100184087299L108,66.65951955456144L109,71.23288467013006L110,71.22246426631908L111,73.47798286849202L112,74.02747334027653L113,76.62002064973731L114,72.62698654844732L115,74.13493581919496L116.00000000000001,74.9508674401559L117,71.32096296897637L118,75.29191082130535L119,78.3805643404166L120,78.32070635664303L121,74.85897137467767L122,69.02512520399515L123,72.45771347987747L124,75.49140701000749L125,81.36482237957831L126,82.20503212123862L127,89.940760913152L128,84.42694283087562L129,85.87154197231638L130,78.18601216993159L131,82.08989939364648L132,78.80438703659887L133,82.14514999209077L134,84.82010081182857L135,88.0170351908859L136,83.9021624076122L137,84.06280644025925L138,82.47976674608306L139,85.03937051676861L140,88.00508766561637L141,92.50623380257622L142,90.56987093556285L143,88.1011876821619L144,90.18595109145453L145,92.62995008087523L146,92.4224332935991L147,88.29281740788912L148,90.1063306892174L149,93.30872684901502L150,94.04375894577633L151,88.16670656032163L152,88.73282567159414L152.99999999999997,90.33484998243696L154,88.77774587609957L155,86.51393449706987L156,81.74303646327947L157,87.45598134264485L158,86.12465341606818L159,86.5547166807597L160,85.84189952273042L161,94.49437519029104L162.00000000000003,88.19797422159907L163,92.2651286224675L164,88.97951179147672L165,87.01995374401955L166,91.31495625361134L167,91.19221444875596L168,85.51985163659215L169,91.88245746594883L170,91.83088105381857L171,93.03688329931894L172,91.25580993380228L173,91.04874718041864L174,92.73471874307582L175,90.28733347839706L176,94.59047739299098L177,91.84318181231792L178,87.97080742729808L179,88.61975638119245L180,83.77526424754379L181,83.5061929132266L182,90.32626470560174L183,91.65366538346414L184,95.64306412526334L185,95.11771919561444L186,95.54932032962454L187,95.19140194419907L187.99999999999997,95.68381436604594L189,97.38760135931771L190,96.71398130076926L191,99.42590615958653L192,93.96951546953528L193,96.19781404745427L194,96.73306436943122L195,95.66045972272025L196,97.3986927185313L197.00000000000003,91.76952293200432L198,94.546700914799L199,98.23727851714621L200,99.55431589448013L201,99.28432892737919L202,103.69528746790571L203,100.94765426031877L204,97.71192721910555L205,99.34890060655641L206,99.39859746912539L207,97.74083066991619L208,93.95528351274126L209,90.98244315986035L210,90.55555637242911L211,96.3585485511771L212,100.73155958019204L213,103.58866128064697L214,105.6838503404707L215,101.59844024127227L216,102.00272748358351L217,98.34005005451424L218,103.00372282639573L219,102.41855187798797L220,104.39266041667419L221,102.30742600610547L222,105.32504039834359L222.99999999999997,110.19249890544266L224,107.22790245392868L225,103.56003511058658L226,108.43968626324757L227,108.98232322413381L228,110.87576598412983L229,111.57544884972093L230,104.0309601022342L231,103.35248104295367L232.00000000000003,106.3824812227164L233,107.56436701140846L234,108.511083393427L235,106.7910959298207L236,103.59782168714965L237,105.24299958615758L238,103.2147690570509L239,106.48072341180774L240,107.76518779057425L241,106.66372527514793L242,106.70608742536047L243,106.46605539024436L244,109.02383774737854L245,110.4502306156576L246,111.03038402636174L247,110.4400015368421L248,109.04992942577756L249,107.89234205424482L250,108.73551003340698L251,99.15779166343106L252,101.18648043625926L253,99.67965611231352L254,105.81704702622906L255,98.08728958754072L256,98.90706957333286L257,100.9195517119944L258,105.95017049017626L259,104.2760753590052L260,108.05826103040685L261,106.25765064169433L262,107.08830983326516" style="fill: none;" fill="none"></path></g></g></g></g><g opacity="0.2"><g><g><g><path stroke="rgb(255, 112, 67)" stroke-width="2px" d="M20,3.0615810950597195L21,13.645727078119927L22,16.566875616709403L23,28.802268544832877L24,30.68630838394167L25,25.15015208721161L26,45.81816478570305L27,40.04493637879692L28,38.37812864780428L29.000000000000004,33.55451488494875L30,22.152667284011862L31,1.675981521606465L32,-14.731523354848212L35,-2.612093647321052L36,11.954870859781915L37,24.463276008764915L38,35.169185141722394L39,28.5273377497991L40,13.860854943593349L41,35.73609286546709L42,23.27851667006811L43,45.50848746299746L44,42.27521254618965L45,44.027445455392225L46,69.59852033853532L46.99999999999999,54.76465298732124L48,62.22594374418261L49,44.35688320795698L50,61.69154568513237L51,40.829730470975264L52,56.71494994560879L53,49.61510264873507L54,62.76878529787066L55,20.579409937063865L56,58.539743860562666L57,66.14110821485521L58.00000000000001,70.80871625741325L59,57.8635481397311L60,70.10634128252667L61,56.48412867387138L62,70.12765779097877L63,48.0291667977969L64,56.09941476583483L65,45.623504658540114L66,38.23245847225191L67,43.78288471698763L68,1.2366368770599563L69,42.54283154010775L70,36.84929027160011L71,54.576977531115226L72,28.22791639963787L73,52.134782910347006L74,55.53077413638435L75,58.39387917518618L76,59.29438893000286L77,60.85446381568911L78,58.5702111721039L79,64.17814159393312L80,69.36897222201031L81.00000000000001,69.97805321216585L82,51.55811432997387L83,39.79487631718321L84,62.01091313362124L85,53.37177697817486L86,67.30527603626253L87,66.00331568717958L88,42.92953475316368L89,64.0163801511129L90,63.75934425989788L91,64.74255605538688L92,72.30773274103802L93,61.39698708057406L93.99999999999999,69.61778565247856L95,67.6890173951785L96,72.19059362014137L97,50.90668324629467L98,56.9942572116852L99,66.30908513069154L100,66.73416866858803L101,70.62348985671998L102,59.48532684644066L103,72.86578142642976L104,66.43056535720827L105,86.37825512886049L106,55.866029500961325L107,67.33350648482643L108,65.75729612509411L109,78.09293234348299L110,71.20683366060258L111,76.86126077175142L112,74.8517090479533L113,80.5088416139285L114,66.63743539651237L115,76.39685972531639L116.00000000000001,76.1747648715973L117,65.87610626220705L118,81.24833259979886L119,83.01354461908342L120,78.23091938098274L121,69.6663689017296L122,60.274355947971365L123,77.60659589370094L124,80.0419473052025L125,90.17494543393455L126,83.46534673372906L127,101.54435410102211L128,76.15621570746106L129,88.03844068447751L130,66.65771746635438L131,87.94573022921882L132,73.87611850102745L133,87.1562944253286L134,88.83252704143526L135,92.81243675947191L136,77.72985323270164L137,84.30377248922986L138,80.10520720481874L139,88.8787761727969L140,92.45366338888806L141,99.25795300801597L142,87.66532663504285L143,84.39816280206047L144,93.31309620539349L145,96.29594856500627L146,92.1111581126849L147,82.09839357932411L148,92.82660061120988L149,98.11232108871144L150,95.14630709091824L151,79.3511279821396L152,89.5820043385029L152.99999999999997,92.73788644870125L154,86.44208971659344L155,83.11821742852531L156,74.58668941259386L157,96.02539866169296L158,84.12766152620317L159,87.19981157779695L160,84.77267378568651L161,107.47308869163197L162.00000000000003,78.75337276856106L163,98.36586022377016L164,84.05108654499055L165,84.08061667283378L166,97.75746001799904L167,91.0081017414729L168,77.01130741834642L169,101.42636620998383L170,91.75351643562318L171,94.8458866675695L172,88.58419988552731L173,90.73815305034321L174,95.26367608706158L175,86.61625558137895L176,101.04519326488179L177,87.72223844130836L178,82.16224584976834L179,89.593179812034L180,76.50852604707084L181,83.10258591175081L182,100.55637239416443L183,93.64476640025777L184,101.62716223796211L185,94.32970180114113L186,96.19672203063966L187,94.65452436606091L187.99999999999997,96.42243299881619L189,99.94328184922539L190,95.70355121294659L191,103.49379344781242L192,85.78492943445843L193,99.54026191433273L194,97.53593985239667L195,94.05155275265378L196,100.00604221224786L197.00000000000003,83.32576825221382L198,98.71246788899106L199,103.77314492066704L200,101.52987196048103L201,98.87934847672783L202,110.31172527869545L203,96.82620444893838L204,92.8583366572857L205,101.8043606877327L206,99.4731427629789L207,95.25418047110242L208,88.27696277697883L209,86.52318263053895L210,89.91522619128229L211,105.06303681929909L212,107.29107612371445L213,107.87431383132935L214,108.8266339302063L215,95.47032509247464L216,102.60915834705037L217,92.84603391091031L218,109.99923198421799L219,101.54079545537633L220,107.35382322470349L221,99.17957439025245L222,109.85146198670071L222.99999999999997,117.4936866660913L224,102.78100777665776L225,98.05823409557344L226,115.759162992239L227,109.79627866546315L228,113.71593012412391L229,112.62497314810753L230,92.7142269810041L231,102.3347624540329L232.00000000000003,110.92748149236046L233,109.33719569444656L234,109.93115796645485L235,104.21111473441124L236,98.80791032314302L237,107.7107664346695L238,100.17242326339088L239,111.37965494394302L240,109.69188435872398L241,105.01153150200844L242,106.76963065067929L243,106.10600733757019L244,112.8605112830798L245,112.58981991807622L246,111.90061414241791L247,109.55442780256271L248,106.96482125918072L249,106.15596099694572L250,110.00026200215024L251,84.79121410846712L252,104.2295135955016L253,97.41941962639493L254,115.02313339710236L255,86.49265342950822L256,100.13673955202103L257,103.93827491998672L258,113.49609865744911L259,101.76493266224861L260,113.7315395375093L261,103.55673505862556L262,108.33429862062138" style="fill: none;" fill="none"></path></g></g></g></g></g></g><g transform="translate(50, 178)" clip-path="url(#clip_1)"><clipPath id="clip_1"><rect width="280" height="22"></rect></clipPath><g><g><line x1="0" y1="0" x2="0" y2="5" style="visibility: inherit;" fill="rgb(0, 0, 0)" stroke="rgb(204, 204, 204)" stroke-width="1px"></line><line x1="20" y1="0" x2="20" y2="5" style="visibility: inherit;" fill="rgb(0, 0, 0)" stroke="rgb(204, 204, 204)" stroke-width="1px"></line><line x1="40" y1="0" x2="40" y2="5" style="visibility: inherit;" fill="rgb(0, 0, 0)" stroke="rgb(204, 204, 204)" stroke-width="1px"></line><line x1="60" y1="0" x2="60" y2="5" style="visibility: inherit;" fill="rgb(0, 0, 0)" stroke="rgb(204, 204, 204)" stroke-width="1px"></line><line x1="80" y1="0" x2="80" y2="5" style="visibility: inherit;" fill="rgb(0, 0, 0)" stroke="rgb(204, 204, 204)" stroke-width="1px"></line><line x1="100" y1="0" x2="100" y2="5" style="visibility: inherit;" fill="rgb(0, 0, 0)" stroke="rgb(204, 204, 204)" stroke-width="1px"></line><line x1="120" y1="0" x2="120" y2="5" style="visibility: inherit;" fill="rgb(0, 0, 0)" stroke="rgb(204, 204, 204)" stroke-width="1px"></line><line x1="140" y1="0" x2="140" y2="5" style="visibility: inherit;" fill="rgb(0, 0, 0)" stroke="rgb(204, 204, 204)" stroke-width="1px"></line><line x1="160" y1="0" x2="160" y2="5" style="visibility: inherit;" fill="rgb(0, 0, 0)" stroke="rgb(204, 204, 204)" stroke-width="1px"></line><line x1="180" y1="0" x2="180" y2="5" style="visibility: inherit;" fill="rgb(0, 0, 0)" stroke="rgb(204, 204, 204)" stroke-width="1px"></line><line x1="200" y1="0" x2="200" y2="5" style="visibility: inherit;" fill="rgb(0, 0, 0)" stroke="rgb(204, 204, 204)" stroke-width="1px"></line><line x1="220" y1="0" x2="220" y2="5" style="visibility: inherit;" fill="rgb(0, 0, 0)" stroke="rgb(204, 204, 204)" stroke-width="1px"></line><line x1="240" y1="0" x2="240" y2="5" style="visibility: inherit;" fill="rgb(0, 0, 0)" stroke="rgb(204, 204, 204)" stroke-width="1px"></line><line x1="260" y1="0" x2="260" y2="5" style="visibility: inherit;" fill="rgb(0, 0, 0)" stroke="rgb(204, 204, 204)" stroke-width="1px"></line><line x1="280" y1="0" x2="280" y2="5" style="visibility: inherit;" fill="rgb(0, 0, 0)" stroke="rgb(204, 204, 204)" stroke-width="1px"></line></g><g transform="translate(0, 8)"><text x="0" y="0" dx="0em" dy="0.95em" style="text-anchor: middle; visibility: hidden; font-family: Roboto, sans-serif; font-size: 12px; font-weight: 200;" fill="rgb(50, 49, 63)" stroke="none" stroke-width="1px">-20</text><text x="20" y="0" dx="0em" dy="0.95em" style="text-anchor: middle; visibility: inherit; font-family: Roboto, sans-serif; font-size: 12px; font-weight: 200;" fill="rgb(50, 49, 63)" stroke="none" stroke-width="1px">0</text><text x="40" y="0" dx="0em" dy="0.95em" style="text-anchor: middle; visibility: hidden; font-family: Roboto, sans-serif; font-size: 12px; font-weight: 200;" fill="rgb(50, 49, 63)" stroke="none" stroke-width="1px">20</text><text x="60" y="0" dx="0em" dy="0.95em" style="text-anchor: middle; visibility: inherit; font-family: Roboto, sans-serif; font-size: 12px; font-weight: 200;" fill="rgb(50, 49, 63)" stroke="none" stroke-width="1px">40</text><text x="80" y="0" dx="0em" dy="0.95em" style="text-anchor: middle; visibility: hidden; font-family: Roboto, sans-serif; font-size: 12px; font-weight: 200;" fill="rgb(50, 49, 63)" stroke="none" stroke-width="1px">60</text><text x="100" y="0" dx="0em" dy="0.95em" style="text-anchor: middle; visibility: inherit; font-family: Roboto, sans-serif; font-size: 12px; font-weight: 200;" fill="rgb(50, 49, 63)" stroke="none" stroke-width="1px">80</text><text x="120" y="0" dx="0em" dy="0.95em" style="text-anchor: middle; visibility: hidden; font-family: Roboto, sans-serif; font-size: 12px; font-weight: 200;" fill="rgb(50, 49, 63)" stroke="none" stroke-width="1px">100</text><text x="140" y="0" dx="0em" dy="0.95em" style="text-anchor: middle; visibility: inherit; font-family: Roboto, sans-serif; font-size: 12px; font-weight: 200;" fill="rgb(50, 49, 63)" stroke="none" stroke-width="1px">120</text><text x="160" y="0" dx="0em" dy="0.95em" style="text-anchor: middle; visibility: hidden; font-family: Roboto, sans-serif; font-size: 12px; font-weight: 200;" fill="rgb(50, 49, 63)" stroke="none" stroke-width="1px">140</text><text x="180" y="0" dx="0em" dy="0.95em" style="text-anchor: middle; visibility: inherit; font-family: Roboto, sans-serif; font-size: 12px; font-weight: 200;" fill="rgb(50, 49, 63)" stroke="none" stroke-width="1px">160</text><text x="200" y="0" dx="0em" dy="0.95em" style="text-anchor: middle; visibility: hidden; font-family: Roboto, sans-serif; font-size: 12px; font-weight: 200;" fill="rgb(50, 49, 63)" stroke="none" stroke-width="1px">180</text><text x="220" y="0" dx="0em" dy="0.95em" style="text-anchor: middle; visibility: inherit; font-family: Roboto, sans-serif; font-size: 12px; font-weight: 200;" fill="rgb(50, 49, 63)" stroke="none" stroke-width="1px">200</text><text x="240" y="0" dx="0em" dy="0.95em" style="text-anchor: middle; visibility: hidden; font-family: Roboto, sans-serif; font-size: 12px; font-weight: 200;" fill="rgb(50, 49, 63)" stroke="none" stroke-width="1px">220</text><text x="260" y="0" dx="0em" dy="0.95em" style="text-anchor: middle; visibility: inherit; font-family: Roboto, sans-serif; font-size: 12px; font-weight: 200;" fill="rgb(50, 49, 63)" stroke="none" stroke-width="1px">240</text><text x="280" y="0" dx="0em" dy="0.95em" style="text-anchor: middle; visibility: hidden; font-family: Roboto, sans-serif; font-size: 12px; font-weight: 200;" fill="rgb(50, 49, 63)" stroke="none" stroke-width="1px">260</text></g><line x1="0" y1="0" x2="280" y2="0" fill="rgb(0, 0, 0)" stroke="rgb(204, 204, 204)" stroke-width="1px"></line></g></g></g></g></svg>