<svg viewBox="0 0 330 200" xmlns="http://www.w3.org/2000/svg"><g><g><g><g><g><line x1="60" y1="178" x2="55" y2="178" style="visibility: inherit;" fill="rgb(0, 0, 0)" stroke="rgb(204, 204, 204)" stroke-width="1px"></line><line x1="60" y1="161.81818181818178" x2="55" y2="161.81818181818178" style="visibility: inherit;" fill="rgb(0, 0, 0)" stroke="rgb(204, 204, 204)" stroke-width="1px"></line><line x1="60" y1="145.6363636363636" x2="55" y2="145.6363636363636" style="visibility: inherit;" fill="rgb(0, 0, 0)" stroke="rgb(204, 204, 204)" stroke-width="1px"></line><line x1="60" y1="129.4545454545454" x2="55" y2="129.4545454545454" style="visibility: inherit;" fill="rgb(0, 0, 0)" stroke="rgb(204, 204, 204)" stroke-width="1px"></line><line x1="60" y1="113.27272727272721" x2="55" y2="113.27272727272721" style="visibility: inherit;" fill="rgb(0, 0, 0)" stroke="rgb(204, 204, 204)" stroke-width="1px"></line><line x1="60" y1="97.09090909090901" x2="55" y2="97.09090909090901" style="visibility: inherit;" fill="rgb(0, 0, 0)" stroke="rgb(204, 204, 204)" stroke-width="1px"></line><line x1="60" y1="80.90909090909082" x2="55" y2="80.90909090909082" style="visibility: inherit;" fill="rgb(0, 0, 0)" stroke="rgb(204, 204, 204)" stroke-width="1px"></line><line x1="60" y1="64.7272727272726" x2="55" y2="64.7272727272726" style="visibility: inherit;" fill="rgb(0, 0, 0)" stroke="rgb(204, 204, 204)" stroke-width="1px"></line><line x1="60" y1="48.545454545454426" x2="55" y2="48.545454545454426" style="visibility: inherit;" fill="rgb(0, 0, 0)" stroke="rgb(204, 204, 204)" stroke-width="1px"></line><line x1="60" y1="32.36363636363622" x2="55" y2="32.36363636363622" style="visibility: inherit;" fill="rgb(0, 0, 0)" stroke="rgb(204, 204, 204)" stroke-width="1px"></line><line x1="60" y1="16.18181818181821" x2="55" y2="16.18181818181821" style="visibility: inherit;" fill="rgb(0, 0, 0)" stroke="rgb(204, 204, 204)" stroke-width="1px"></line></g><g transform="translate(50, 0)"><text x="0" y="178" dx="0em" dy="0.3em" style="text-anchor: end; visibility: hidden; font-family: Roboto, sans-serif; font-size: 12px; font-weight: 200;" fill="rgb(50, 49, 63)" stroke="none" stroke-width="1px">0.235</text><text x="0" y="161.81818181818178" dx="0em" dy="0.3em" style="text-anchor: end; visibility: inherit; font-family: Roboto, sans-serif; font-size: 12px; font-weight: 200;" fill="rgb(50, 49, 63)" stroke="none" stroke-width="1px">0.24</text><text x="0" y="145.6363636363636" dx="0em" dy="0.3em" style="text-anchor: end; visibility: hidden; font-family: Roboto, sans-serif; font-size: 12px; font-weight: 200;" fill="rgb(50, 49, 63)" stroke="none" stroke-width="1px">0.245</text><text x="0" y="129.4545454545454" dx="0em" dy="0.3em" style="text-anchor: end; visibility: inherit; font-family: Roboto, sans-serif; font-size: 12px; font-weight: 200;" fill="rgb(50, 49, 63)" stroke="none" stroke-width="1px">0.25</text><text x="0" y="113.27272727272721" dx="0em" dy="0.3em" style="text-anchor: end; visibility: hidden; font-family: Roboto, sans-serif; font-size: 12px; font-weight: 200;" fill="rgb(50, 49, 63)" stroke="none" stroke-width="1px">0.255</text><text x="0" y="97.09090909090901" dx="0em" dy="0.3em" style="text-anchor: end; visibility: inherit; font-family: Roboto, sans-serif; font-size: 12px; font-weight: 200;" fill="rgb(50, 49, 63)" stroke="none" stroke-width="1px">0.26</text><text x="0" y="80.90909090909082" dx="0em" dy="0.3em" style="text-anchor: end; visibility: hidden; font-family: Roboto, sans-serif; font-size: 12px; font-weight: 200;" fill="rgb(50, 49, 63)" stroke="none" stroke-width="1px">0.265</text><text x="0" y="64.7272727272726" dx="0em" dy="0.3em" style="text-anchor: end; visibility: inherit; font-family: Roboto, sans-serif; font-size: 12px; font-weight: 200;" fill="rgb(50, 49, 63)" stroke="none" stroke-width="1px">0.27</text><text x="0" y="48.545454545454426" dx="0em" dy="0.3em" style="text-anchor: end; visibility: hidden; font-family: Roboto, sans-serif; font-size: 12px; font-weight: 200;" fill="rgb(50, 49, 63)" stroke="none" stroke-width="1px">0.275</text><text x="0" y="32.36363636363622" dx="0em" dy="0.3em" style="text-anchor: end; visibility: inherit; font-family: Roboto, sans-serif; font-size: 12px; font-weight: 200;" fill="rgb(50, 49, 63)" stroke="none" stroke-width="1px">0.28</text><text x="0" y="16.18181818181821" dx="0em" dy="0.3em" style="text-anchor: end; visibility: hidden; font-family: Roboto, sans-serif; font-size: 12px; font-weight: 200;" fill="rgb(50, 49, 63)" stroke="none" stroke-width="1px">0.285</text></g><line x1="60" y1="0" x2="60" y2="178" fill="rgb(0, 0, 0)" stroke="rgb(204, 204, 204)" stroke-width="1px"></line></g></g><g transform="translate(60, 0)" clip-path="url(#clip_0)"><clipPath id="clip_0"><rect width="270" height="178"></rect></clipPath><g><g><g><line x1="0" y1="0" x2="0" y2="178" fill="rgb(0, 0, 0)" stroke="rgb(60, 60, 60)" stroke-width="1px" opacity="0.25"></line><line x1="19.285714285714285" y1="0" x2="19.285714285714285" y2="178" fill="rgb(0, 0, 0)" stroke="rgb(60, 60, 60)" stroke-width="1px" opacity="0.25"></line><line x1="38.57142857142857" y1="0" x2="38.57142857142857" y2="178" fill="rgb(0, 0, 0)" stroke="rgb(60, 60, 60)" stroke-width="1px" opacity="0.25"></line><line x1="57.857142857142854" y1="0" x2="57.857142857142854" y2="178" fill="rgb(0, 0, 0)" stroke="rgb(60, 60, 60)" stroke-width="1px" opacity="0.25"></line><line x1="77.14285714285714" y1="0" x2="77.14285714285714" y2="178" fill="rgb(0, 0, 0)" stroke="rgb(60, 60, 60)" stroke-width="1px" opacity="0.25"></line><line x1="96.42857142857143" y1="0" x2="96.42857142857143" y2="178" fill="rgb(0, 0, 0)" stroke="rgb(60, 60, 60)" stroke-width="1px" opacity="0.25"></line><line x1="115.71428571428571" y1="0" x2="115.71428571428571" y2="178" fill="rgb(0, 0, 0)" stroke="rgb(60, 60, 60)" stroke-width="1px" opacity="0.25"></line><line x1="135" y1="0" x2="135" y2="178" fill="rgb(0, 0, 0)" stroke="rgb(60, 60, 60)" stroke-width="1px" opacity="0.25"></line><line x1="154.28571428571428" y1="0" x2="154.28571428571428" y2="178" fill="rgb(0, 0, 0)" stroke="rgb(60, 60, 60)" stroke-width="1px" opacity="0.25"></line><line x1="173.57142857142858" y1="0" x2="173.57142857142858" y2="178" fill="rgb(0, 0, 0)" stroke="rgb(60, 60, 60)" stroke-width="1px" opacity="0.25"></line><line x1="192.85714285714286" y1="0" x2="192.85714285714286" y2="178" fill="rgb(0, 0, 0)" stroke="rgb(60, 60, 60)" stroke-width="1px" opacity="0.25"></line><line x1="212.14285714285714" y1="0" x2="212.14285714285714" y2="178" fill="rgb(0, 0, 0)" stroke="rgb(60, 60, 60)" stroke-width="1px" opacity="0.25"></line><line x1="231.42857142857142" y1="0" x2="231.42857142857142" y2="178" fill="rgb(0, 0, 0)" stroke="rgb(60, 60, 60)" stroke-width="1px" opacity="0.25"></line><line x1="250.71428571428572" y1="0" x2="250.71428571428572" y2="178" fill="rgb(0, 0, 0)" stroke="rgb(60, 60, 60)" stroke-width="1px" opacity="0.25"></line><line x1="270" y1="0" x2="270" y2="178" fill="rgb(0, 0, 0)" stroke="rgb(60, 60, 60)" stroke-width="1px" opacity="0.25"></line></g><g><line x1="0" y1="178" x2="270" y2="178" fill="rgb(0, 0, 0)" stroke="rgb(60, 60, 60)" stroke-width="1px" opacity="0.25"></line><line x1="0" y1="161.81818181818178" x2="270" y2="161.81818181818178" fill="rgb(0, 0, 0)" stroke="rgb(60, 60, 60)" stroke-width="1px" opacity="0.25"></line><line x1="0" y1="145.6363636363636" x2="270" y2="145.6363636363636" fill="rgb(0, 0, 0)" stroke="rgb(60, 60, 60)" stroke-width="1px" opacity="0.25"></line><line x1="0" y1="129.4545454545454" x2="270" y2="129.4545454545454" fill="rgb(0, 0, 0)" stroke="rgb(60, 60, 60)" stroke-width="1px" opacity="0.25"></line><line x1="0" y1="113.27272727272721" x2="270" y2="113.27272727272721" fill="rgb(0, 0, 0)" stroke="rgb(60, 60, 60)" stroke-width="1px" opacity="0.25"></line><line x1="0" y1="97.09090909090901" x2="270" y2="97.09090909090901" fill="rgb(0, 0, 0)" stroke="rgb(60, 60, 60)" stroke-width="1px" opacity="0.25"></line><line x1="0" y1="80.90909090909082" x2="270" y2="80.90909090909082" fill="rgb(0, 0, 0)" stroke="rgb(60, 60, 60)" stroke-width="1px" opacity="0.25"></line><line x1="0" y1="64.7272727272726" x2="270" y2="64.7272727272726" fill="rgb(0, 0, 0)" stroke="rgb(60, 60, 60)" stroke-width="1px" opacity="0.25"></line><line x1="0" y1="48.545454545454426" x2="270" y2="48.545454545454426" fill="rgb(0, 0, 0)" stroke="rgb(60, 60, 60)" stroke-width="1px" opacity="0.25"></line><line x1="0" y1="32.36363636363622" x2="270" y2="32.36363636363622" fill="rgb(0, 0, 0)" stroke="rgb(60, 60, 60)" stroke-width="1px" opacity="0.25"></line><line x1="0" y1="16.18181818181821" x2="270" y2="16.18181818181821" fill="rgb(0, 0, 0)" stroke="rgb(60, 60, 60)" stroke-width="1px" opacity="0.25"></line></g></g></g><g><g><line x1="0" y1="938.5454545454546" x2="270" y2="938.5454545454546" fill="rgb(0, 0, 0)" stroke="rgb(153, 153, 153)" stroke-width="1.5px"></line></g></g><g><g><line x1="19.285714285714285" y1="0" x2="19.285714285714285" y2="178" fill="rgb(0, 0, 0)" stroke="rgb(153, 153, 153)" stroke-width="1.5px"></line></g></g><g><g><g><g><g><path stroke="rgb(255, 112, 67)" stroke-width="2px" d="M19.285714285714285,149.6501629135824L20.25,149.64160287380216L21.214285714285715,149.60689768233857L22.178571428571427,149.5237693518879L23.142857142857142,149.3663477001337L24.107142857142858,149.12416681914434L25.071428571428573,148.79311916245317L26.03571428571429,148.360867449747L27,147.81652227942615L27.964285714285715,147.15505683494072L28.928571428571427,146.3598687653964L29.892857142857142,145.38583263125798L30.857142857142858,144.16609357412335L31.82142857142857,142.69442734967805L32.785714285714285,140.98997706764112L33.75,139.08712679030378L34.71428571428571,137.0248237878482L35.67857142857143,134.83902986254367L36.64285714285714,132.56708002572464L37.60714285714286,130.24080230629718L38.57142857142857,127.88480136972451L39.535714285714285,125.50763560911268L40.5,123.12555628904073L41.464285714285715,120.756727737832L42.42857142857143,118.41517543861819L43.392857142857146,116.1108204985112L44.357142857142854,113.8450252334385L45.32142857142857,111.63014305237773L46.285714285714285,109.4775986297272L47.25,107.38861417894012L48.214285714285715,105.36886142543487L49.17857142857142,103.42189778273942L50.142857142857146,101.54816019216301L51.107142857142854,99.7391530734939L52.07142857142858,97.99572048164495L53.035714285714285,96.32195683906697L54,94.72892224588058L54.964285714285715,93.20535143036084L55.92857142857143,91.74668431715813L56.892857142857146,90.35423581024091L57.857142857142854,89.03172696745585L58.82142857142857,87.77961572255104L59.785714285714285,86.59863980145363L60.75,85.48935758118597L61.714285714285715,84.33759727980392L62.67857142857143,82.99688471653708L63.64285714285714,81.43655020658397L64.60714285714286,79.68101625075876L65.57142857142857,77.77178835039389L66.53571428571429,75.74719580671214L67.5,73.63802945356592L68.46428571428571,71.48232408498627L69.42857142857142,69.30544688781643L70.39285714285715,67.12963981806253L71.35714285714286,64.96705205503737L72.32142857142857,62.83338364682347L73.28571428571428,60.74546207077829L74.25,58.72040545721606L75.21428571428572,56.776200776521144L76.17857142857143,54.920283710818936L77.14285714285714,53.1570385084627L78.10714285714286,51.48921145984706L79.07142857142857,49.91860466105344L80.03571428571429,48.4503503181331L81,47.08390119138459L81.96428571428571,45.81310328737915L82.92857142857143,44.63553736527211L83.89285714285714,43.54408055279135L84.85714285714286,42.53067824139831L85.82142857142857,41.5905362464301L86.78571428571429,40.71518389024751L87.75,39.90139062839324L88.71428571428571,39.144478921463865L89.67857142857143,38.43905735493136L90.64285714285714,37.78081082717107L91.60714285714286,37.170082392243195L92.57142857142857,36.605881888293254L93.53571428571428,36.08364143072755L94.5,35.59498754148642L95.46428571428572,35.13624644986848L96.42857142857143,34.70513673253088L97.39285714285714,34.29890063887269L98.35714285714285,33.921516265836416L99.32142857142858,33.57085655765306L100.28571428571429,33.244565027953364L101.25,32.939530244632806L102.21428571428571,32.65519708410225L103.17857142857142,32.38941919054141L104.14285714285715,32.141178813685656L105.10714285714286,31.907164671107058L106.07142857142857,31.6873190163983L107.03571428571428,31.48407635121735L108,31.292415859114595L108.96428571428572,31.110675366354258L109.92857142857143,30.935311258270293L110.89285714285714,30.76612638911187L111.85714285714286,30.604121304797218L112.82142857142857,30.45479605142194L113.78571428571429,30.336034070894424L114.75,30.230903237835772L115.71428571428571,30.131829167904513L116.67857142857143,30.035463224786163L117.64285714285714,29.940992220982366L118.60714285714286,29.84630786463285L119.57142857142857,29.74856338172143L120.53571428571429,29.649407207943533L121.5,29.555654054324854L122.46428571428571,29.474903569430165L123.42857142857143,29.398559605203477L124.39285714285714,29.324898133838495L125.35714285714286,29.25203596850998L126.32142857142857,29.178495972973817L127.28571428571428,29.103700509171638L128.25,29.034286057705838L129.21428571428572,28.972074001122873L130.17857142857144,28.91491641022845L131.14285714285714,28.85847667108825L132.10714285714286,28.804821051120346L133.07142857142858,28.751948552053317L134.03571428571428,28.70459996591541L135,28.662726233350043L135.96428571428572,28.628612746402005L136.92857142857142,28.597766510228983L137.89285714285714,28.56876488313822L138.85714285714283,28.53909532029144L139.82142857142858,28.50732745570803L140.7857142857143,28.472448747955337L141.75,28.437632557350366L142.71428571428572,28.410801451996036L143.67857142857142,28.39323673126619L144.64285714285714,28.37783676074459L145.60714285714286,28.36153655407183L146.57142857142856,28.342574280354537L147.53571428571428,28.322246249176384L148.5,28.300597217528978L149.46428571428572,28.2771524936144L150.42857142857144,28.253054739410288L151.39285714285714,28.229491098096226L152.35714285714286,28.20701953373572L153.32142857142856,28.18678501444758L154.28571428571428,28.163803193338754L155.25,28.133848887522106L156.21428571428572,28.097859228753517L157.17857142857144,28.058518421440603L158.14285714285714,28.01793853422092L159.10714285714286,27.978119837035397L160.07142857142858,27.94520079085436L161.03571428571428,27.914299609921823L162,27.882332900940643L162.9642857142857,27.85007409927911L163.92857142857142,27.814090639598987L164.89285714285717,27.774097683902486L165.85714285714286,27.73351231226242L166.82142857142858,27.698397140664376L167.78571428571428,27.66548383618428L168.75,27.632271272613494L169.71428571428572,27.601849849083802L170.67857142857142,27.57163705206174L171.64285714285714,27.540469178036563L172.60714285714283,27.51166037284427L173.57142857142858,27.482569468668405L174.5357142857143,27.449181195777417L175.5,27.410629610771363L176.46428571428572,27.367668302823134L177.42857142857142,27.328388356710498L178.39285714285714,27.2884622735865L179.35714285714286,27.251003462368505L180.32142857142856,27.21703119826506L181.28571428571428,27.18545950611828L182.25,27.15629266867006L183.21428571428572,27.129494675104525L184.17857142857144,27.105275401698027L185.14285714285714,27.079246860281557L186.10714285714286,27.057148217986573L187.07142857142856,27.039568020979754L188.03571428571428,27.02377296008209L189,27.008007308403425L189.96428571428572,26.990754664277983L190.92857142857144,26.978203991526662L191.89285714285714,26.966275415324017L192.85714285714286,26.950977792335085L193.82142857142858,26.931613976842627L194.78571428571428,26.907804261876755L195.75,26.881519909531846L196.7142857142857,26.86366595323195L197.67857142857142,26.861441280868046L198.64285714285717,26.863308655711137L199.60714285714286,26.860686775901698L200.57142857142858,26.85282503287609L201.53571428571428,26.83815422812732L202.5,26.816041486239417L203.46428571428572,26.79455620291762L204.42857142857142,26.777459762677314L205.39285714285714,26.766507450235544L206.35714285714283,26.75677246496988L207.32142857142858,26.749195353066412L208.2857142857143,26.739363562769825L209.25,26.727793160827407L210.21428571428572,26.714215080373215L211.17857142857142,26.7014771572438L212.14285714285714,26.689050426204464L213.10714285714286,26.679202399000054L214.07142857142856,26.6751068643434L215.03571428571428,26.67033471589055L216,26.66677697852102L216.96428571428572,26.66383214641874L217.92857142857144,26.660599189640077L218.89285714285714,26.65896805926071L219.85714285714286,26.661847427131402L220.82142857142856,26.672217071113803L221.78571428571428,26.683955863423602L222.75,26.692619518170744L223.71428571428572,26.699862475450974L224.67857142857144,26.7098024166615L225.64285714285714,26.719238622876105L226.60714285714286,26.7252861512147L227.57142857142858,26.730612208500972L228.53571428571428,26.736006929148857L229.5,26.73901227877169L230.4642857142857,26.75084640840084L231.42857142857142,26.764004018552257L232.39285714285717,26.776296757195084L233.35714285714286,26.784868394671356L234.32142857142858,26.7891240265544L235.28571428571428,26.791523083840318L236.25,26.799791259805673L237.21428571428572,26.811966711588497L238.17857142857142,26.828222649605937L239.14285714285714,26.843184574648937L240.10714285714283,26.854129333185004L241.07142857142858,26.860927671072353L242.0357142857143,26.86168875416031L243,26.86611919149433L243.96428571428572,26.868931775738638L244.92857142857142,26.868921786001977L245.89285714285714,26.8638617517714L246.85714285714286,26.85527014485172L247.82142857142856,26.841010191908097L248.78571428571428,26.83164403046132L249.75,26.82521414391261L250.71428571428572,26.814681792233475L251.67857142857144,26.79860152459761L252.64285714285714,26.778112254480124L253.60714285714286,26.754553197802935" style="fill: none;" fill="none"></path></g></g></g></g><g opacity="0.2"><g><g><g><path stroke="rgb(255, 112, 67)" stroke-width="2px" d="M19.285714285714285,149.65016291358248L20.25,149.63646684993392L21.214285714285715,149.57358069853345L22.178571428571427,149.42601043527773L23.142857142857142,149.16081799160347L24.107142857142858,148.78914347561917L25.071428571428573,148.31971571662203L26.03571428571429,147.73064030300483L27,147.01371888680887L27.964285714285715,146.17285773970858L28.928571428571427,145.17429895834485L29.892857142857142,143.93007909167892L30.857142857142858,142.34046764807263L31.82142857142857,140.4898111603476L32.785714285714285,138.43530516190958L33.75,136.23419341174034L34.71428571428571,133.9322419816797L35.67857142857143,131.56089394742787L36.64285714285714,129.15950137918642L37.60714285714286,126.75159835815425L38.57142857142857,124.3509291735562L39.535714285714285,121.94196518984704L40.5,119.55248433893371L41.464285714285715,117.20351297205139L42.42857142857143,114.90286363254889L43.392857142857146,112.65429791537194L44.357142857142854,110.4463381333784L45.32142857142857,108.3078231811523L46.285714285714285,106.24878397854887L47.25,104.25513865730973L48.214285714285715,102.33923296494913L49.17857142857142,100.50145270607682L50.142857142857146,98.73755402998485L51.107142857142854,97.02564252506598L52.07142857142858,95.38057166879821L53.035714285714285,93.81131141835988L54,92.33937038074835L54.964285714285715,90.91999522122465L55.92857142857143,89.55868365547867L56.892857142857146,88.2655630545182L57.857142857142854,87.0479637059298L58.82142857142857,85.9014488567005L59.785714285714285,84.8271759206598L60.75,83.82543425126502L61.714285714285715,82.60995682803063L62.67857142857143,80.98581587184555L63.64285714285714,79.09604844180016L64.60714285714286,77.0477153171192L65.57142857142857,74.90794649991118L66.53571428571429,72.71030699123031L67.5,70.47427992387244L68.46428571428571,68.2487660321322L69.42857142857142,66.04013109207148L70.39285714285715,63.8659292134371L71.35714285714286,61.72317041050299L72.32142857142857,59.63288103450424L73.28571428571428,57.613579706712144L74.25,55.6828205368735L75.21428571428572,53.859893755479234L76.17857142857143,52.136408112265784L77.14285714285714,50.51217070492826L78.10714285714286,48.98747088692399L79.07142857142857,47.56269446286283L80.03571428571429,46.2479688037525L81,45.034227501262265L81.96428571428571,43.90690643137145L82.92857142857143,42.8691884821111L83.89285714285714,41.90689533407033L84.85714285714286,41.01057477430858L85.82142857142857,40.18032325397833L86.78571428571429,39.40215535597362L87.75,38.68070073561229L88.71428571428571,38.009111361070055L89.67857142857143,37.38092500513244L90.64285714285714,36.793441035530726L91.60714285714286,36.253989739851455L92.57142857142857,35.759581132368545L93.53571428571428,35.300280744379165L94.5,34.86200670762489L95.46428571428572,34.44813481244169L96.42857142857143,34.0584721565246L97.39285714285714,33.68954649838529L98.35714285714285,33.35543970628212L99.32142857142858,33.044866995377916L100.28571428571429,32.755127733403924L101.25,32.48197806965214L102.21428571428571,32.228697343306045L103.17857142857142,31.990752350200236L104.14285714285715,31.76881824840192L105.10714285714286,31.55614345723927L106.07142857142857,31.357550534334997L107.03571428571428,31.179212353446207L108,31.004925120960515L108.96428571428572,30.838064627213857L109.92857142857143,30.67226509614418L110.89285714285714,30.512349085374257L111.85714285714286,30.361113678325236L112.82142857142857,30.230808171358923L113.78571428571429,30.15789110010314L114.75,30.073206988247893L115.71428571428571,29.983218063007634L116.67857142857143,29.890914310108464L117.64285714285714,29.79928571527648L118.60714285714286,29.704281330108582L119.57142857142857,29.601946657354116L120.53571428571429,29.50067294727665L121.5,29.415024323896866L122.46428571428571,29.353777842088125L123.42857142857143,29.284043658863347L124.39285714285714,29.214405926791052L125.35714285714286,29.14274272051718L126.32142857142857,29.06818597966969L127.28571428571428,28.99150731346818L128.25,28.930164380506973L129.21428571428572,28.8787559162486L130.17857142857144,28.82918002388688L131.14285714285714,28.77381706237787L132.10714285714286,28.724337621168594L133.07142857142858,28.67263980345287L134.03571428571428,28.633577086708705L135,28.599915634501993L135.96428571428572,28.577442515980046L136.92857142857142,28.551497155969738L137.89285714285714,28.525262442502044L138.85714285714283,28.49459097602145L139.82142857142858,28.45967565883283L140.7857142857143,28.420130686326406L141.75,28.385408271442692L142.71428571428572,28.370554793964665L143.67857142857142,28.366889650171398L144.64285714285714,28.354736804962098L145.60714285714286,28.33708624406288L146.57142857142856,28.314130869778655L147.53571428571428,28.29175420240917L148.5,28.268123670057754L149.46428571428572,28.241985407742522L150.42857142857144,28.21690810810429L151.39285714285714,28.19414563612499L152.35714285714286,28.173312187194764L153.32142857142856,28.156433235515177L154.28571428571428,28.129330461675405L155.25,28.088917428796886L156.21428571428572,28.043874740600526L157.17857142857144,27.999507210471354L158.14285714285714,27.957068703391275L159.10714285714286,27.918391791256926L160.07142857142858,27.89582222158253L161.03571428571428,27.86794783852311L162,27.834382837468862L162.9642857142857,27.80168589678671L163.92857142857142,27.760115450078725L164.89285714285717,27.714108250357828L165.85714285714286,27.672634254802286L166.82142857142858,27.645724383267424L167.78571428571428,27.616113879463832L168.75,27.58245242725712L169.71428571428572,27.556217713789444L170.67857142857142,27.526317856528483L171.64285714285714,27.49371736699879L172.60714285714283,27.468447165055654L173.57142857142858,27.438933112404506L174.5357142857143,27.39909878644071L175.5,27.35280223326244L176.46428571428572,27.3032263409007L177.42857142857142,27.269468437541544L178.39285714285714,27.228573148900747L179.35714285714286,27.194815245541594L180.32142857142856,27.166072802110097L181.28571428571428,27.13810196789823L182.25,27.11254241249772L183.21428571428572,27.08929768475614L184.17857142857144,27.068946491588175L185.14285714285714,27.040204048156678L186.10714285714286,27.02400025454428L187.07142857142856,27.01319772546935L188.03571428571428,27.000080368735514L189,26.98435883088539L189.96428571428572,26.96487569808954L190.92857142857144,26.959377982399623L191.89285714285714,26.948382551019787L192.85714285714286,26.928031357851843L193.82142857142858,26.902568253603796L194.78571428571428,26.87208968942809L195.75,26.842093381014685L196.7142857142857,26.83688501878212L197.67857142857142,26.85810427232216L198.64285714285717,26.866109717975895L199.60714285714286,26.856753956187784L200.57142857142858,26.841032418337683L201.53571428571428,26.81614802100436L202.5,26.782872373407482L203.46428571428572,26.76232827793461L204.42857142857142,26.751815102317057L205.39285714285714,26.750078981572866L206.35714285714283,26.742169987071573L207.32142857142858,26.73782968521112L208.2857142857143,26.72461587732482L209.25,26.71043755791398L210.21428571428572,26.693847959691762L211.17857142857142,26.68237027254965L212.14285714285714,26.670410329645275L213.10714285714286,26.66443035819308L214.07142857142856,26.66896356235844L215.03571428571428,26.66317649321117L216,26.66144037246698L216.96428571428572,26.65941489826542L217.92857142857144,26.655749754472158L218.89285714285714,26.656521363691787L219.85714285714286,26.666166478937267L220.82142857142856,26.687771537087123L221.78571428571428,26.70156405188815L222.75,26.70561500029125L223.71428571428572,26.71072691137135L224.67857142857144,26.724712328477285L225.64285714285714,26.733392932198207L226.60714285714286,26.734357443722747L227.57142857142858,26.738601294430755L228.53571428571428,26.74409901012067L229.5,26.743520303205948L230.4642857142857,26.768597602844178L231.42857142857142,26.783740433779577L232.39285714285717,26.794735865159414L233.35714285714286,26.79772585088551L234.32142857142858,26.795507474379043L235.28571428571428,26.795121669769227L236.25,26.812193523753702L237.21428571428572,26.830229889262736L238.17857142857142,26.852606556632242L239.14285714285714,26.865627462213634L240.10714285714283,26.87054647098881L241.07142857142858,26.871125177903554L242.0357142857143,26.862830378792445L243,26.87276484749528L243.96428571428572,26.873150652105092L244.92857142857142,26.868906801397085L245.89285714285714,26.856271700425527L246.85714285714286,26.842382734472036L247.82142857142856,26.819620262492716L248.78571428571428,26.817594788291178L249.75,26.815569314089636L250.71428571428572,26.798883264714956L251.67857142857144,26.77448112314391L252.64285714285714,26.74737834930414L253.60714285714286,26.719214612787365" style="fill: none;" fill="none"></path></g></g></g></g></g></g><g transform="translate(60, 178)" clip-path="url(#clip_1)"><clipPath id="clip_1"><rect width="270" height="22"></rect></clipPath><g><g><line x1="0" y1="0" x2="0" y2="5" style="visibility: inherit;" fill="rgb(0, 0, 0)" stroke="rgb(204, 204, 204)" stroke-width="1px"></line><line x1="19.285714285714285" y1="0" x2="19.285714285714285" y2="5" style="visibility: inherit;" fill="rgb(0, 0, 0)" stroke="rgb(204, 204, 204)" stroke-width="1px"></line><line x1="38.57142857142857" y1="0" x2="38.57142857142857" y2="5" style="visibility: inherit;" fill="rgb(0, 0, 0)" stroke="rgb(204, 204, 204)" stroke-width="1px"></line><line x1="57.857142857142854" y1="0" x2="57.857142857142854" y2="5" style="visibility: inherit;" fill="rgb(0, 0, 0)" stroke="rgb(204, 204, 204)" stroke-width="1px"></line><line x1="77.14285714285714" y1="0" x2="77.14285714285714" y2="5" style="visibility: inherit;" fill="rgb(0, 0, 0)" stroke="rgb(204, 204, 204)" stroke-width="1px"></line><line x1="96.42857142857143" y1="0" x2="96.42857142857143" y2="5" style="visibility: inherit;" fill="rgb(0, 0, 0)" stroke="rgb(204, 204, 204)" stroke-width="1px"></line><line x1="115.71428571428571" y1="0" x2="115.71428571428571" y2="5" style="visibility: inherit;" fill="rgb(0, 0, 0)" stroke="rgb(204, 204, 204)" stroke-width="1px"></line><line x1="135" y1="0" x2="135" y2="5" style="visibility: inherit;" fill="rgb(0, 0, 0)" stroke="rgb(204, 204, 204)" stroke-width="1px"></line><line x1="154.28571428571428" y1="0" x2="154.28571428571428" y2="5" style="visibility: inherit;" fill="rgb(0, 0, 0)" stroke="rgb(204, 204, 204)" stroke-width="1px"></line><line x1="173.57142857142858" y1="0" x2="173.57142857142858" y2="5" style="visibility: inherit;" fill="rgb(0, 0, 0)" stroke="rgb(204, 204, 204)" stroke-width="1px"></line><line x1="192.85714285714286" y1="0" x2="192.85714285714286" y2="5" style="visibility: inherit;" fill="rgb(0, 0, 0)" stroke="rgb(204, 204, 204)" stroke-width="1px"></line><line x1="212.14285714285714" y1="0" x2="212.14285714285714" y2="5" style="visibility: inherit;" fill="rgb(0, 0, 0)" stroke="rgb(204, 204, 204)" stroke-width="1px"></line><line x1="231.42857142857142" y1="0" x2="231.42857142857142" y2="5" style="visibility: inherit;" fill="rgb(0, 0, 0)" stroke="rgb(204, 204, 204)" stroke-width="1px"></line><line x1="250.71428571428572" y1="0" x2="250.71428571428572" y2="5" style="visibility: inherit;" fill="rgb(0, 0, 0)" stroke="rgb(204, 204, 204)" stroke-width="1px"></line><line x1="270" y1="0" x2="270" y2="5" style="visibility: inherit;" fill="rgb(0, 0, 0)" stroke="rgb(204, 204, 204)" stroke-width="1px"></line></g><g transform="translate(0, 8)"><text x="0" y="0" dx="0em" dy="0.95em" style="text-anchor: middle; visibility: hidden; font-family: Roboto, sans-serif; font-size: 12px; font-weight: 200;" fill="rgb(50, 49, 63)" stroke="none" stroke-width="1px">-20</text><text x="19.285714285714285" y="0" dx="0em" dy="0.95em" style="text-anchor: middle; visibility: inherit; font-family: Roboto, sans-serif; font-size: 12px; font-weight: 200;" fill="rgb(50, 49, 63)" stroke="none" stroke-width="1px">0</text><text x="38.57142857142857" y="0" dx="0em" dy="0.95em" style="text-anchor: middle; visibility: hidden; font-family: Roboto, sans-serif; font-size: 12px; font-weight: 200;" fill="rgb(50, 49, 63)" stroke="none" stroke-width="1px">20</text><text x="57.857142857142854" y="0" dx="0em" dy="0.95em" style="text-anchor: middle; visibility: inherit; font-family: Roboto, sans-serif; font-size: 12px; font-weight: 200;" fill="rgb(50, 49, 63)" stroke="none" stroke-width="1px">40</text><text x="77.14285714285714" y="0" dx="0em" dy="0.95em" style="text-anchor: middle; visibility: hidden; font-family: Roboto, sans-serif; font-size: 12px; font-weight: 200;" fill="rgb(50, 49, 63)" stroke="none" stroke-width="1px">60</text><text x="96.42857142857143" y="0" dx="0em" dy="0.95em" style="text-anchor: middle; visibility: inherit; font-family: Roboto, sans-serif; font-size: 12px; font-weight: 200;" fill="rgb(50, 49, 63)" stroke="none" stroke-width="1px">80</text><text x="115.71428571428571" y="0" dx="0em" dy="0.95em" style="text-anchor: middle; visibility: hidden; font-family: Roboto, sans-serif; font-size: 12px; font-weight: 200;" fill="rgb(50, 49, 63)" stroke="none" stroke-width="1px">100</text><text x="135" y="0" dx="0em" dy="0.95em" style="text-anchor: middle; visibility: inherit; font-family: Roboto, sans-serif; font-size: 12px; font-weight: 200;" fill="rgb(50, 49, 63)" stroke="none" stroke-width="1px">120</text><text x="154.28571428571428" y="0" dx="0em" dy="0.95em" style="text-anchor: middle; visibility: hidden; font-family: Roboto, sans-serif; font-size: 12px; font-weight: 200;" fill="rgb(50, 49, 63)" stroke="none" stroke-width="1px">140</text><text x="173.57142857142858" y="0" dx="0em" dy="0.95em" style="text-anchor: middle; visibility: inherit; font-family: Roboto, sans-serif; font-size: 12px; font-weight: 200;" fill="rgb(50, 49, 63)" stroke="none" stroke-width="1px">160</text><text x="192.85714285714286" y="0" dx="0em" dy="0.95em" style="text-anchor: middle; visibility: hidden; font-family: Roboto, sans-serif; font-size: 12px; font-weight: 200;" fill="rgb(50, 49, 63)" stroke="none" stroke-width="1px">180</text><text x="212.14285714285714" y="0" dx="0em" dy="0.95em" style="text-anchor: middle; visibility: inherit; font-family: Roboto, sans-serif; font-size: 12px; font-weight: 200;" fill="rgb(50, 49, 63)" stroke="none" stroke-width="1px">200</text><text x="231.42857142857142" y="0" dx="0em" dy="0.95em" style="text-anchor: middle; visibility: hidden; font-family: Roboto, sans-serif; font-size: 12px; font-weight: 200;" fill="rgb(50, 49, 63)" stroke="none" stroke-width="1px">220</text><text x="250.71428571428572" y="0" dx="0em" dy="0.95em" style="text-anchor: middle; visibility: inherit; font-family: Roboto, sans-serif; font-size: 12px; font-weight: 200;" fill="rgb(50, 49, 63)" stroke="none" stroke-width="1px">240</text><text x="270" y="0" dx="0em" dy="0.95em" style="text-anchor: middle; visibility: hidden; font-family: Roboto, sans-serif; font-size: 12px; font-weight: 200;" fill="rgb(50, 49, 63)" stroke="none" stroke-width="1px">260</text></g><line x1="0" y1="0" x2="270" y2="0" fill="rgb(0, 0, 0)" stroke="rgb(204, 204, 204)" stroke-width="1px"></line></g></g></g></g></svg>