<svg viewBox="0 0 330 200" xmlns="http://www.w3.org/2000/svg"><g><g><g><g><g><line x1="60" y1="178" x2="55" y2="178" style="visibility: inherit;" fill="rgb(0, 0, 0)" stroke="rgb(204, 204, 204)" stroke-width="1px"></line><line x1="60" y1="155.75" x2="55" y2="155.75" style="visibility: inherit;" fill="rgb(0, 0, 0)" stroke="rgb(204, 204, 204)" stroke-width="1px"></line><line x1="60" y1="133.5" x2="55" y2="133.5" style="visibility: inherit;" fill="rgb(0, 0, 0)" stroke="rgb(204, 204, 204)" stroke-width="1px"></line><line x1="60" y1="111.24999999999999" x2="55" y2="111.24999999999999" style="visibility: inherit;" fill="rgb(0, 0, 0)" stroke="rgb(204, 204, 204)" stroke-width="1px"></line><line x1="60" y1="88.99999999999999" x2="55" y2="88.99999999999999" style="visibility: inherit;" fill="rgb(0, 0, 0)" stroke="rgb(204, 204, 204)" stroke-width="1px"></line><line x1="60" y1="66.75" x2="55" y2="66.75" style="visibility: inherit;" fill="rgb(0, 0, 0)" stroke="rgb(204, 204, 204)" stroke-width="1px"></line><line x1="60" y1="44.5" x2="55" y2="44.5" style="visibility: inherit;" fill="rgb(0, 0, 0)" stroke="rgb(204, 204, 204)" stroke-width="1px"></line><line x1="60" y1="22.25" x2="55" y2="22.25" style="visibility: inherit;" fill="rgb(0, 0, 0)" stroke="rgb(204, 204, 204)" stroke-width="1px"></line><line x1="60" y1="0" x2="55" y2="0" style="visibility: inherit;" fill="rgb(0, 0, 0)" stroke="rgb(204, 204, 204)" stroke-width="1px"></line></g><g transform="translate(50, 0)"><text x="0" y="178" dx="0em" dy="0.3em" style="text-anchor: end; visibility: hidden; font-family: Roboto, sans-serif; font-size: 12px; font-weight: 200;" fill="rgb(50, 49, 63)" stroke="none" stroke-width="1px">-0.05</text><text x="0" y="155.75" dx="0em" dy="0.3em" style="text-anchor: end; visibility: inherit; font-family: Roboto, sans-serif; font-size: 12px; font-weight: 200;" fill="rgb(50, 49, 63)" stroke="none" stroke-width="1px">0</text><text x="0" y="133.5" dx="0em" dy="0.3em" style="text-anchor: end; visibility: hidden; font-family: Roboto, sans-serif; font-size: 12px; font-weight: 200;" fill="rgb(50, 49, 63)" stroke="none" stroke-width="1px">0.05</text><text x="0" y="111.24999999999999" dx="0em" dy="0.3em" style="text-anchor: end; visibility: inherit; font-family: Roboto, sans-serif; font-size: 12px; font-weight: 200;" fill="rgb(50, 49, 63)" stroke="none" stroke-width="1px">0.1</text><text x="0" y="88.99999999999999" dx="0em" dy="0.3em" style="text-anchor: end; visibility: hidden; font-family: Roboto, sans-serif; font-size: 12px; font-weight: 200;" fill="rgb(50, 49, 63)" stroke="none" stroke-width="1px">0.15</text><text x="0" y="66.75" dx="0em" dy="0.3em" style="text-anchor: end; visibility: inherit; font-family: Roboto, sans-serif; font-size: 12px; font-weight: 200;" fill="rgb(50, 49, 63)" stroke="none" stroke-width="1px">0.2</text><text x="0" y="44.5" dx="0em" dy="0.3em" style="text-anchor: end; visibility: hidden; font-family: Roboto, sans-serif; font-size: 12px; font-weight: 200;" fill="rgb(50, 49, 63)" stroke="none" stroke-width="1px">0.25</text><text x="0" y="22.25" dx="0em" dy="0.3em" style="text-anchor: end; visibility: inherit; font-family: Roboto, sans-serif; font-size: 12px; font-weight: 200;" fill="rgb(50, 49, 63)" stroke="none" stroke-width="1px">0.3</text><text x="0" y="0" dx="0em" dy="0.3em" style="text-anchor: end; visibility: hidden; font-family: Roboto, sans-serif; font-size: 12px; font-weight: 200;" fill="rgb(50, 49, 63)" stroke="none" stroke-width="1px">0.35</text></g><line x1="60" y1="0" x2="60" y2="178" fill="rgb(0, 0, 0)" stroke="rgb(204, 204, 204)" stroke-width="1px"></line></g></g><g transform="translate(60, 0)" clip-path="url(#clip_0)"><clipPath id="clip_0"><rect width="270" height="177"></rect></clipPath><g><g><g><line x1="0" y1="0" x2="0" y2="178" fill="rgb(0, 0, 0)" stroke="rgb(60, 60, 60)" stroke-width="1px" opacity="0.25"></line><line x1="30" y1="0" x2="30" y2="178" fill="rgb(0, 0, 0)" stroke="rgb(60, 60, 60)" stroke-width="1px" opacity="0.25"></line><line x1="60" y1="0" x2="60" y2="178" fill="rgb(0, 0, 0)" stroke="rgb(60, 60, 60)" stroke-width="1px" opacity="0.25"></line><line x1="90" y1="0" x2="90" y2="178" fill="rgb(0, 0, 0)" stroke="rgb(60, 60, 60)" stroke-width="1px" opacity="0.25"></line><line x1="120" y1="0" x2="120" y2="178" fill="rgb(0, 0, 0)" stroke="rgb(60, 60, 60)" stroke-width="1px" opacity="0.25"></line><line x1="150" y1="0" x2="150" y2="178" fill="rgb(0, 0, 0)" stroke="rgb(60, 60, 60)" stroke-width="1px" opacity="0.25"></line><line x1="180" y1="0" x2="180" y2="178" fill="rgb(0, 0, 0)" stroke="rgb(60, 60, 60)" stroke-width="1px" opacity="0.25"></line><line x1="210" y1="0" x2="210" y2="178" fill="rgb(0, 0, 0)" stroke="rgb(60, 60, 60)" stroke-width="1px" opacity="0.25"></line><line x1="240" y1="0" x2="240" y2="178" fill="rgb(0, 0, 0)" stroke="rgb(60, 60, 60)" stroke-width="1px" opacity="0.25"></line><line x1="270" y1="0" x2="270" y2="178" fill="rgb(0, 0, 0)" stroke="rgb(60, 60, 60)" stroke-width="1px" opacity="0.25"></line></g><g><line x1="0" y1="178" x2="270" y2="178" fill="rgb(0, 0, 0)" stroke="rgb(60, 60, 60)" stroke-width="1px" opacity="0.25"></line><line x1="0" y1="155.75" x2="270" y2="155.75" fill="rgb(0, 0, 0)" stroke="rgb(60, 60, 60)" stroke-width="1px" opacity="0.25"></line><line x1="0" y1="133.5" x2="270" y2="133.5" fill="rgb(0, 0, 0)" stroke="rgb(60, 60, 60)" stroke-width="1px" opacity="0.25"></line><line x1="0" y1="111.24999999999999" x2="270" y2="111.24999999999999" fill="rgb(0, 0, 0)" stroke="rgb(60, 60, 60)" stroke-width="1px" opacity="0.25"></line><line x1="0" y1="88.99999999999999" x2="270" y2="88.99999999999999" fill="rgb(0, 0, 0)" stroke="rgb(60, 60, 60)" stroke-width="1px" opacity="0.25"></line><line x1="0" y1="66.75" x2="270" y2="66.75" fill="rgb(0, 0, 0)" stroke="rgb(60, 60, 60)" stroke-width="1px" opacity="0.25"></line><line x1="0" y1="44.5" x2="270" y2="44.5" fill="rgb(0, 0, 0)" stroke="rgb(60, 60, 60)" stroke-width="1px" opacity="0.25"></line><line x1="0" y1="22.25" x2="270" y2="22.25" fill="rgb(0, 0, 0)" stroke="rgb(60, 60, 60)" stroke-width="1px" opacity="0.25"></line><line x1="0" y1="0" x2="270" y2="0" fill="rgb(0, 0, 0)" stroke="rgb(60, 60, 60)" stroke-width="1px" opacity="0.25"></line></g></g></g><g><g><line x1="0" y1="155.75" x2="270" y2="155.75" fill="rgb(0, 0, 0)" stroke="rgb(153, 153, 153)" stroke-width="1.5px"></line></g></g><g><g><line x1="30" y1="0" x2="30" y2="178" fill="rgb(0, 0, 0)" stroke="rgb(153, 153, 153)" stroke-width="1.5px"></line></g></g><g><g><g><g><g><path stroke="rgb(255, 112, 67)" stroke-width="2px" d="M30,142.28769325464964L30.3,150.70163497049361L30.599999999999998,153.27733141411932L30.900000000000002,154.41366808042477L31.2,154.99327075199628L31.5,155.31077597487646L31.799999999999997,155.49152541237956L32.1,155.59668146531786L32.4,155.6586332100407L32.7,155.69540225437504L33,155.7173208727271L33.300000000000004,137.28078727551363L33.6,144.67813381327417L33.9,137.6922800771781L34.2,144.91876583139978L34.5,149.25248208782656L34.8,151.8519292522649L35.1,148.1217305698112L35.400000000000006,151.17322428762856L35.699999999999996,153.00400150869302L36,154.10242500127777L36.300000000000004,154.76146367514596L36.6,153.07512183716977L36.9,154.145078172163L37.2,154.7870487284386L37.5,155.17222989411184L37.800000000000004,150.18885511815458L38.1,152.41331443692036L38.4,153.74798915392182L38.7,154.54879366939008L38.99999999999999,155.02927626536734L39.3,155.3175657821644L39.6,155.49053947755849L39.900000000000006,152.28709968987485L40.199999999999996,153.6722598377368L40.5,154.50335591121436L40.8,155.00201354981465L41.1,155.30120813099973L41.4,155.48072487899978L41.699999999999996,155.58843492754386L42,155.65306095657814L42.300000000000004,152.74534196715538L42.599999999999994,153.94720518064025L42.9,154.66832310850907L43.2,155.10099386515043L43.5,150.7440728555395L43.8,145.9868316744141L44.1,149.89209900473614L44.4,152.23525940287325L44.7,153.6411556417353L45,144.42472883247478L45.3,148.95483729949805L45.6,143.02431724643395L45.900000000000006,141.05261256650292L46.199999999999996,146.93156753990544L46.5,142.27674463697196L46.800000000000004,147.6660467821844L47.1,148.45725717401442L47.4,149.01727055165733L47.7,144.05213214548542L48,143.84348855520554L48.3,148.6060931331234L48.6,140.92814133145308L48.9,146.85688479887187L49.2,150.41413087932312L49.5,134.75043573849223L49.8,132.8972308598329L50.1,142.03833851589974L50.400000000000006,146.14482452794442L50.699999999999996,137.79110752537565L51,138.48404762741754L51.3,141.1156508064081L51.6,146.96939048384485L51.9,150.4816342903069L52.199999999999996,152.58898057418415L52.5,153.85338834451048L52.800000000000004,134.30376048103815L53.099999999999994,128.63875543007757L53.4,95.85313920932713L53.7,119.81188352559629L54,126.62925771567L54.3,129.56272099729046L54.6,82.86427427718439L54.9,112.01856456631064L55.2,129.5111387397864L55.5,140.00668324387183L55.8,146.3040099463231L56.1,150.08240596779387L56.400000000000006,119.00129124121783L56.699999999999996,133.7007747447307L57,72.79630000327914L57.300000000000004,105.97778000196749L57.6,50.13452169752675L57.9,71.8430603620801L58.2,43.02755414708814L58.5,-44.15200813255093L58.8,35.80879512046943L59.1,83.78527707228166L59.4,38.97635492306411L59.7,53.07189453018581L60,94.14313671811148L60.3,113.88989436744882L60.6,81.29763374399683L60.900000000000006,63.66522978348459L61.199999999999996,91.62075153650596L61.5,117.27245092190357L61.800000000000004,61.0005078184429L62.1,33.757716194857544L62.4,58.65442163113916L62.699999999999996,39.75765284516909L63,55.98543897043763L63.300000000000004,86.87644918424547L63.599999999999994,75.3210769156376L63.9,107.49264614938255L64.2,-7.7632955005255075L64.8,-7.474495833771925L65.1,33.2237313475266L65.4,61.60821989691585L65.7,53.6837048740168L66,78.36421970790504L66.3,33.693812443410614L66.60000000000001,82.51628746604638L66.9,77.37352864751648L67.2,22.484370737132014L67.5,75.79062244227921L67.8,17.4844019945347L68.10000000000001,-51.93068837309578L68.4,-34.966822369007424L68.69999999999999,25.18693861478083L69,13.747124344787077L69.3,70.54827460687225L69.6,80.83061174774686L69.9,102.49406629338573L70.2,113.41688077321477L70.5,123.98396647674338L70.80000000000001,136.69037988604603L71.1,96.0710189868301L71.39999999999999,119.94261139209804L71.7,110.12693391189421L72,118.72813378390933L72.3,128.68274658988278L72.60000000000001,67.18535004896138L72.9,81.73360636438261L73.2,111.34016381862955L73.5,105.69420614935872L73.8,124.18092460504425L74.1,79.81351243896037L74.4,75.4933706846401L74.7,40.81956200161964L75,-36.85073125148182L75.89999999999999,-5.716057464613787L76.2,52.766994705716215L76.5,-27.542500882792805L76.8,-24.80981964436078L77.10000000000001,35.35634961386379L77.4,24.002227632164107L77.7,50.24514474151084L77.99999999999999,92.44708684490651L78.3,108.36424695942718L78.6,120.97332959171484L78.89999999999999,96.16255749938696L79.2,119.99753449963218L79.5,134.2985206997793L79.80000000000001,137.97261426337965L80.10000000000001,126.84714792661909L80.39999999999999,101.13872287567283L80.69999999999999,88.43387270507708L81,-19.792274281159102L81.3,17.592614910140625L81.6,-16.66177767447532L81.9,15.852377653527858L82.2,51.722484228258494L82.5,82.92837426945279L82.8,52.19339379003469L83.1,18.879469968860295L83.39999999999999,13.075253020515994L83.7,60.04235487031397L84,79.25692833273087L84.3,100.64475163703246L84.60000000000001,110.18589379122903L84.9,116.77686704534918L85.19999999999999,132.3661202272095L85.5,108.10576456071841L85.8,111.3959645645732L86.1,69.38407589297974L86.4,103.93044553578785L86.7,95.12058896053368L87,49.42778945105394L87.3,91.95667367063238L87.6,80.96575596262379L87.89999999999999,33.41401699977732L88.2,16.892763446555236L88.5,72.43565806793315L88.8,11.36024604467833L89.10000000000001,50.97179203169513L89.4,92.8830752190171L89.69999999999999,72.21922202206956L90,11.5831332880098L90.3,63.0375595630907L90.6,91.56704875330348L90.9,109.72416010797154L91.2,101.75774380743579L91.5,88.20178051698254L91.80000000000001,77.5579807633641L92.1,108.83478845801845L92.39999999999999,102.84789767054853L92.7,93.48628529422363L93,103.25146906979609L93.3,61.22825551872093L93.60000000000001,52.172873835829705L93.9,78.33309221331346L94.2,98.59334144630475L94.5,111.28879953407312L94.8,129.07327972044385L95.1,64.13375181072851L95.4,69.09354773231686L95.7,67.97740364115444L96,71.75926460052136L96.30000000000001,16.534230179933328L96.6,-11.965120942981493L96.89999999999999,55.12092743421112L97.2,37.32776053014107L97.5,35.31257829226677L97.8,19.330746645674846L98.10000000000001,43.44608717855559L98.4,76.6040509146258L98.7,79.04296407114298L99,82.49731982952848L99.3,-7.11394421335164L99.6,-63.41272189662523L99.9,13.617475255157585L100.2,30.8471417449868L100.5,56.33045705097652L100.80000000000001,25.94422322474562L101.10000000000001,15.582470655218625L101.39999999999999,-8.732381439342603L101.69999999999999,13.517437460342352L102,62.41914968926863L102.3,74.71710997366404L102.6,90.082476321122L102.9,29.147934236085973L103.2,5.572946547243934L103.5,39.49455503152248L103.8,28.124470839061942L104.1,42.97213739702618L104.39999999999999,88.08328243821569L104.7,38.60643518405977L105,49.38276970647466L105.3,91.9296618238848L105.60000000000001,78.05467770908842L105.9,72.92394613870722L106.19999999999999,64.06475656419242L106.5,94.48891709708718L106.8,118.99335025825229L107.1,37.88560585426168L107.4,66.70794128922746L107.7,58.036124453235416L108,97.12167467194125L108.3,57.860063275798105L108.6,97.01603796547887L108.89999999999999,46.940147247709255L109.2,33.43385389256326L109.5,54.52514486794379L109.8,88.60423320701544L110.10000000000001,85.37216897112623L110.4,83.6440593499094L110.69999999999999,100.65065825272495L111,78.18740834169921L111.3,109.21244500501952L111.6,84.27194128289223L111.9,102.53506975087166L112.2,103.2622932774582L112.5,81.80656967656363L112.80000000000001,59.102512634375984L113.1,87.73031302039581L113.39999999999999,60.245699737934814L113.7,94.61972511379037L114,85.1210373614318L114.3,71.35947914565126L114.60000000000001,69.7389957287581L114.9,58.340811120192484L115.2,92.28773062182681L115.5,16.54537876101266L115.8,45.271032885622546L116.1,60.752478996462564L116.4,98.75148739787751L116.7,25.935832586126416L117,61.190827745936446L117.30000000000001,72.83842282816299L117.6,106.0030536968978L117.89999999999999,71.98063218113609L118.2,78.57472688863773L118.5,93.86957381016072L118.8,118.62174428609646L119.10000000000001,79.82965961162826L119.4,96.94816097953668L119.7,120.46889658772199L120,70.12162747385052L120.3,65.66474786640374L120.6,63.565027947671226L120.9,67.06691319671094L121.2,89.53379585103285L121.5,84.61520404670294L121.80000000000001,75.69214733871016L122.10000000000001,62.373324337197495L122.39999999999999,17.551124979611117L122.69999999999999,72.83067498776668L123,105.99840499266L123.3,104.96264475765233L123.60000000000001,125.27758685459142L123.9,67.90734574621584L124.2,26.271376332197576L124.50000000000001,75.56109022940933L124.8,83.49268457201566L125.1,67.13937246148257L125.39999999999999,60.51033688392918L125.7,63.723696177045575L126,43.35249899914267L126.3,67.33681897574903L126.60000000000001,85.162688751544L126.89999999999999,58.85260959835375L127.19999999999999,90.41213761044457L127.5,116.54728256626676L127.8,86.7726808843836L128.1,91.73608883367925L128.4,60.271197749060086L128.70000000000002,91.85228194170101L129,92.84086077435553L129.29999999999998,87.30476568355407L129.6,85.15780650504973L129.9,95.63286768453446L130.2,101.7557030919619L130.5,67.76399593373701L130.8,101.69125145808944L131.1,63.041885579443516L131.4,100.1251313476661L131.7,116.45148546629544L132,132.17089127977724L132.3,132.19560998368286L132.6,128.17041734271064L132.9,117.55254043586739L133.20000000000002,132.44093143219612L133.5,103.01729211971082L133.8,113.81179756084036L134.1,114.4641154507336L134.4,121.03379024860482L134.7,116.12108973739876L135,110.05892994152505L135.29999999999998,115.84285532025694L135.6,92.68243067019105L135.89999999999998,88.12577462525914L136.20000000000002,88.99286338288634L136.5,84.87656120418936L136.8,90.97656799530643L137.1,89.61649454340731L137.39999999999998,76.24928322258825L137.7,78.838991670747L138,109.60339500244822L138.3,119.5967895343087L138.6,95.45038457835804L138.9,67.2182422526186L139.2,73.53189813777836L139.5,99.16752728483098L139.8,97.45993450678003L140.1,113.6250338011778L140.4,98.80671667181232L140.7,119.03111177011L141,123.9048299361686L141.29999999999998,113.47117602642894L141.60000000000002,98.6872625816853L141.9,99.53686837965199L142.2,113.28836446323362L142.5,104.21685220788936L142.79999999999998,118.15705991531027L143.1,113.47843813743954L143.4,83.48538288978796L143.70000000000002,103.99870794271266L144,96.73020359429621L144.3,106.14945980639995L144.6,107.58478233654344L144.89999999999998,115.147748186821L145.20000000000002,118.2714726624693L145.5,122.98229318248066L145.8,121.65273607901831L146.1,119.88182186563074L146.4,113.87347115563905L146.7,125.92579680450292L147,112.96298078160008L147.3,122.84727079844785L147.6,92.05928856835551L147.9,115.61183329421752L148.2,123.40767131148857L148.5,110.56756233512809L148.8,101.73081054293782L149.1,117.65385029169123L149.4,126.27550371260762L149.7,124.84558658761571L150,118.3665459749865L150.29999999999998,130.35433001504944L150.60000000000002,94.05323866120936L150.9,104.04195078380087L151.20000000000002,105.54221198658452L151.5,115.39973442971888L151.79999999999998,94.66246493589988L152.1,82.5848012026078L152.4,67.21169833278219L152.70000000000002,80.2759225185845L153,89.72423448062737L153.3,47.14402092633722L153.6,53.523798055279705L153.89999999999998,84.10904888619689L154.20000000000002,77.20465259140558L154.5,73.00112881890432L154.8,106.1006772913426L155.1,86.58461473571599L155.4,109.36420285813413L155.7,106.3502406305814L155.99999999999997,85.48890191476013L156.3,90.46667564606943L156.6,93.46689103064703L156.9,118.38013461838823L157.2,109.40772765642798L157.5,106.70294634560582L157.79999999999998,107.3661789301624L158.10000000000002,82.60835655353011L158.4,97.87681782735312L158.7,100.2437813728626L159,111.55637947914452L159.29999999999998,115.8707295727578L159.60000000000002,112.85572599898858L159.9,117.27971115428853L160.20000000000002,111.64773706626089L160.5,102.17111523169987L160.79999999999998,115.32709991615245L161.1,128.18554183054704L161.39999999999998,110.22982459192714L161.70000000000002,122.74591155454661L162,130.03608503553357L162.3,94.4175517953222L162.6,106.75663239936738L162.9,100.42125067222544L163.2,98.98655723994031L163.5,106.63209564664993L163.8,105.13933202731033L164.1,103.69218015138756L164.4,110.85403702535898L164.7,103.04421162532968L165,109.41485246376516L165.3,84.77201416108801L165.6,106.86649115838881L165.9,91.51658326362536L166.2,96.37177829727509L166.5,84.81542267075169L166.79999999999998,88.09390819472662L167.10000000000002,71.58145397545451L167.4,87.0268941083047L167.7,106.41430054357608L168,92.35903833658075L168.29999999999998,117.71542300194844L168.6,115.27132306939568L168.9,94.75989873675229L169.20000000000002,111.323502963589L169.5,118.68107802319903L169.8,119.25523789017426L170.1,90.97323804669993L170.39999999999998,101.42622588618646L170.70000000000002,106.62699135568171L171,121.31404750675816L171.3,116.44089677113804L171.6,124.1137238364131L171.9,127.37229910169307L172.2,124.92619775041499L172.5,113.46744212689732L172.8,126.61784568761429L173.1,138.27070741256858L173.4,126.09722780526151L173.7,119.78727930987162L174,134.17236758592296L174.3,140.62198016463262L174.6,140.30944709580268L174.9,136.4280696517296L175.2,134.20177329218788L175.5,103.05296281955484L175.79999999999998,113.54857950199748L176.10000000000002,124.80943396263781L176.4,116.67950902923026L176.70000000000002,132.30770541753813L177,137.31195542753602L177.29999999999998,134.99986587638182L177.6,135.31862952068164L177.89999999999998,131.66032322200962L178.20000000000002,118.47244388432995L178.5,108.5348451410037L178.8,111.42048120941529L179.1,125.53689262834673L179.39999999999998,123.35688365738085L179.70000000000002,134.18958973320122L180,133.41981324959872L180.3,123.80253505056545L180.6,113.82558506337074L180.9,115.86782574419539L181.2,117.53258243360733L181.50000000000003,107.51527662967811L181.8,112.77676221069794L182.1,115.28691325686631L182.4,128.9438009536401L182.7,132.9521705702624L183,123.27767472241409L183.29999999999998,128.97072655721954L183.60000000000002,134.85813254573614L183.9,121.71882082497282L184.2,117.76207283124448L184.5,102.01769413343143L184.79999999999998,113.1234298186962L185.1,117.10818847045088L185.4,110.42384344652167L185.70000000000002,114.01857630202097L186,105.48120134347035L186.29999999999998,124.17366879819842L186.6,117.49299760543713L186.89999999999998,125.98535182406548L187.20000000000002,124.35692930418278L187.5,123.88670562027708L187.8,123.28691653203258L188.1,98.19167435044818L188.4,94.7803158335374L188.7,106.72011334136045L189,89.04013703128646L189.3,107.57735232478947L189.6,106.66300091425519L189.9,117.96830590832198L190.2,131.61802244122603L190.5,133.62993068209752L190.8,139.25985304839296L191.1,124.28349166409302L191.4,130.40270788846092L191.7,138.25972311647342L192,107.91481745810273L192.29999999999998,125.51429714975335L192.60000000000002,124.56090968380914L192.9,127.88557760882702L193.2,134.3190324289699L193.5,115.83541767496463L193.79999999999998,113.6331466865456L194.1,123.75744680058453L194.4,90.93838308746513L194.70000000000002,92.33510585126217L195,97.11878278551661L195.3,113.13430988310672L195.6,114.79310206484136L195.89999999999998,123.76339510030353L196.20000000000002,123.50676383344414L196.5,129.68603003035832L196.8,122.46485126621037L197.1,84.30428004626337L197.4,88.75730323412363L197.7,104.86222487311568L198,103.14087791514996L198.3,121.89752869880262L198.6,135.43851721928158L198.9,129.06269338217757L199.2,107.2580924003564L199.5,118.7283628311302L199.8,130.98894508117706L200.10000000000002,116.59592657944127L200.4,114.29575224316453L200.7,125.77944677380526L201,126.5132306176889L201.29999999999998,136.25754714137125L201.60000000000002,132.21990737692002L201.9,135.35332512185266L202.20000000000002,143.5119950731116L202.5,135.64100581464274L202.79999999999998,133.80825709436596L203.1,137.00629778435388L203.39999999999998,139.23145759913658L203.70000000000002,132.72277518697578L204,126.41448129765988L204.3,134.50613004745722L204.6,137.32845803816127L204.89999999999998,131.35382997226122L205.2,140.2746219471851L205.5,138.93343942378516L205.8,141.09073446327184L206.1,131.57657709201413L206.4,127.2373133568778L206.7,129.92662338726603L207,123.51957824118665L207.3,121.55866998009522L207.6,127.72709404273415L207.9,131.64259688760987L208.2,137.43412801075667L208.5,138.06204915910178L208.79999999999998,140.78784748237854L209.10000000000002,137.72796055568176L209.4,142.5299894631977L209.7,126.6666855139181L210,130.96821679309875L210.29999999999998,124.34878418824596L210.6,133.44700647432518L210.9,136.92934880652376L211.20000000000002,140.1979273550114L211.5,143.53459303333764L211.8,131.0293163672352L212.1,119.94925130100633L212.39999999999998,124.30270758534421L212.70000000000002,134.78173522622853L213,136.26799813044948L213.3,141.66628403072286L213.6,128.93038729193646L213.9,130.13431258417867L214.2,133.07983481387913L214.5,136.19811105132473L214.8,137.15051652729733L215.1,137.83156786704197L215.4,120.01813949551662L215.7,122.93773248437928L216,120.97957764651707L216.3,132.15821520290572L216.6,118.94999107004284L216.9,112.6520428555076L217.2,114.53935571294215L217.5,121.87815095949881L217.79999999999998,128.00307014714903L218.10000000000002,129.31082958508267L218.4,135.40536406653365L218.70000000000002,131.22119658301617L219,118.08428356713262L219.29999999999998,109.00697456399325L219.6,118.63279205322101L219.9,126.64530378436943L220.20000000000002,133.7447683765346L220.5,138.0706694381746L220.8,137.5150826249905L221.1,136.9091970756285L221.39999999999998,139.3760005211611L221.70000000000002,138.77706455443976L222,137.59579906019374L222.3,129.99815074892527L222.6,132.17726624781895L222.9,133.41460193559533L223.2,121.92804118016366L223.49999999999997,134.04961851921084L223.8,136.86983818224908L224.1,138.82547000743057L224.4,137.9523402911252L224.7,126.673054114689L225,131.95465649408675L225.29999999999998,134.85728976573094L225.60000000000002,139.76096388590662L225.9,137.0408652567406L226.2,135.17392220458623L226.5,136.47197544790052L226.79999999999998,140.8256551554307L227.10000000000002,139.4411472815576L227.4,144.21950456206815L227.70000000000002,138.7853874695588L228,145.57123248173528L228.29999999999998,137.0967683040722L228.6,141.7604555796757L228.89999999999998,135.36143248743858L229.20000000000002,129.01893315295604L229.5,134.4142835770859L229.8,135.10948428421102L230.1,131.64138723557522L230.4,128.81940944281416L230.7,134.30390980116843L231,139.88925081057738L231.3,137.6124993238651L231.6,138.96165748380443L231.9,117.23429592217695L232.2,120.2585821286779L232.5,130.92576177706965L232.8,127.19279879206805L233.1,132.27908499166006L233.4,130.2025556869783L233.7,138.21781347215045L234,139.39540993732135L234.29999999999998,142.25980344153595L234.60000000000002,141.0518708123991L234.9,144.67359317283208L235.2,117.56766629779563L235.5,129.4667142626001L235.79999999999998,131.86371182181557L236.1,131.5464547740109L236.4,133.00052505831047L236.70000000000002,128.09863674700333L237,125.29523263013407L237.3,133.85030298761154L237.6,136.61133171517625L237.89999999999998,143.2627683553411L238.20000000000002,142.147466218371L238.5,146.3212154309966L238.8,141.97588602012502L239.1,137.5467840347058L239.4,137.05577215930023L239.7,134.63720064240812L240,129.67869614886115L240.3,134.41081226364892L240.6,129.4818365484245L240.9,126.9796995943646L241.2,130.13309409772518L241.5,134.33254823717573L241.8,142.8995289423054L242.1,143.67927448484215L242.4,146.12164679077515L242.7,148.04852594417181L243,135.77702143777518L243.29999999999998,135.65571683340733L243.60000000000002,134.53621481772342L243.9,133.493581163383L244.20000000000002,134.43129764646082L244.5,138.68553656130902L244.79999999999998,135.0613547983162L245.1,135.329798507535L245.39999999999998,138.8183818699977L245.70000000000002,143.8127601887024L246,136.31915584476212L246.3,136.03621063841234L246.6,132.83957733936816L246.89999999999998,139.00512902276344L247.20000000000002,142.05806852183713L247.5,131.50948261500582L247.8,139.3125702654939L248.1,138.24387236032612L248.4,143.85845492985086L248.7,128.60989094499487L249.00000000000003,129.84694456293428L249.3,114.0146002962246L249.6,127.64258798772421L249.9,132.67632376291945L250.2,131.37622043722033L250.5,134.36253549595568L250.79999999999998,131.3965846147531L251.10000000000002,139.17928436228L251.4,138.7184779454968L251.7,134.8353171220244L252,134.33005628262882L252.29999999999998,133.2030947522815L252.6,134.08027594187828L252.9,138.32613976910096L253.20000000000002,141.718032506045L253.5,136.245513432882L253.79999999999998,137.38358450154172L254.1,132.27940754723372L254.39999999999998,126.63697965223683L254.70000000000002,133.46272637116368L255,123.71689377824936L255.3,129.95157883525178" style="fill: none;" fill="none"></path></g></g></g></g><g opacity="0.2"><g><g><g><path stroke="rgb(255, 112, 67)" stroke-width="2px" d="M30,142.28769325464964L30.3,155.75L30.599999999999998,155.75L30.900000000000002,155.75L31.2,155.75L31.5,155.75L31.799999999999997,155.75L32.1,155.75L32.4,155.75L32.7,155.75L33,155.75L33.300000000000004,109.72631768137217L33.6,155.75L33.9,127.22718548774719L34.2,155.75L34.5,155.75L34.8,155.75L35.1,142.52737964317203L35.400000000000006,155.75L35.699999999999996,155.75L36,155.75L36.300000000000004,155.75L36.6,150.5456423740834L36.9,155.75L37.2,155.75L37.5,155.75L37.800000000000004,142.7138057053089L38.1,155.75L38.4,155.75L38.7,155.75L38.99999999999999,155.75L39.3,155.75L39.6,155.75L39.900000000000006,147.48194023780525L40.199999999999996,155.75L40.5,155.75L40.8,155.75L41.1,155.75L41.4,155.75L41.699999999999996,155.75L42,155.75L42.300000000000004,148.38376348651946L42.599999999999994,155.75L42.9,155.75L43.2,155.75L43.5,144.20869134180248L43.8,138.85096990317106L44.1,155.75L44.4,155.75L44.7,155.75L45,130.60008861869574L45.3,155.75L45.6,134.12853716686368L45.900000000000006,138.09505554661155L46.199999999999996,155.75L46.5,135.29451028257608L46.800000000000004,155.75L47.1,149.64407276175916L47.4,149.85729061812162L47.7,136.60442453622818L48,143.53052316978574L48.3,155.75L48.6,129.41121362894773L48.9,155.75L49.2,155.75L49.5,111.254893027246L49.8,130.1174235418439L50.1,155.75L50.400000000000006,152.30455354601145L50.699999999999996,125.26053202152252L51,139.52345778048038L51.3,145.06305557489395L51.6,155.75L51.9,155.75L52.199999999999996,155.75L52.5,155.75L52.800000000000004,104.97931868582964L53.099999999999994,120.14124785363674L53.4,46.674714878201485L53.7,155.75L54,136.85531900078058L54.3,133.96291591972113L54.6,12.816604197025299L54.9,155.75L55.2,155.75L55.5,155.75L55.8,155.75L56.1,155.75L56.400000000000006,72.37961915135384L56.699999999999996,155.75L57,-18.560412108898163L57.300000000000004,155.75L57.6,-33.63036575913429L57.9,104.40586835891008L58.2,-0.19570517539978027L58.5,-174.9213515520096L58.8,155.75L59.1,155.75L59.4,-28.237028300762177L59.7,74.21520394086838L60,155.75L60.3,143.51003084145486L60.6,32.40924280881882L60.900000000000006,37.21662384271622L61.199999999999996,133.55403416603804L61.5,155.75L61.800000000000004,-23.407406836748123L62.1,-7.106471240520477L62.4,95.99947978556156L62.699999999999996,11.41249966621399L63,80.32711815834045L63.300000000000004,133.2129645049572L63.599999999999994,57.98801851272583L63.9,155.75L64.2,-180.64720797538766L64.5,-62.688992947340054L64.8,25.914122134447098L65.1,94.27107211947441L65.4,104.18495272099972L65.7,41.796932339668274L66,115.38499195873737L66.3,-33.311798453330994L66.60000000000001,155.75L66.9,69.6593904197216L67.2,-59.849366128444714L67.5,155.75L67.8,-69.9749286770821L68.4,-9.521023362874985L68.69999999999999,115.41758009046316L69,-3.4125970602035522L69.3,155.75L69.6,96.25411745905876L69.9,134.98924811184406L70.2,129.8011024929583L70.5,139.8345950320363L70.80000000000001,155.75L71.1,35.14197763800621L71.39999999999999,155.75L71.7,95.4034176915884L72,131.62993359193206L72.3,143.6146657988429L72.60000000000001,-25.060744762420654L72.9,103.5559908375144L73.2,155.75L73.5,97.2252696454525L73.8,151.9110022885725L74.1,13.262394189834595L74.4,69.01315805315971L74.7,-11.191151022911072L75.30000000000001,-28.12266978621483L75.60000000000001,8.362921595573425L75.89999999999999,10.715659379959106L76.2,140.4915729612112L76.5,-148.00674426555636L76.8,-20.710797786712646L77.10000000000001,125.60560350120068L77.4,6.971044659614563L77.7,89.60952040553093L77.99999999999999,155.75L78.3,132.23998713120818L78.6,139.88695354014635L78.89999999999999,58.94639936089516L79.2,155.75L79.5,155.75L79.80000000000001,143.48375460878015L80.10000000000001,110.15894842147827L80.39999999999999,62.576085299253464L80.69999999999999,69.37659744918346L81,-182.1314947605134L81.3,73.66994869709015L81.6,-68.04336655139927L81.9,64.62361064553261L82.2,105.52764409035444L82.5,129.73720933124423L82.8,6.090923070907593L83.1,-31.091415762901306L83.39999999999999,4.368927597999573L83.7,130.49300764501095L84,108.07878852635622L84.3,132.72648659348488L84.60000000000001,124.49760702252388L84.9,126.66332692652941L85.19999999999999,155.75L85.5,71.71523106098175L85.8,116.33126457035542L86.1,6.3662428855896L86.4,155.75L86.7,81.90580409765244L87,-19.111409813165665L87.3,155.75L87.6,64.47937940061092L87.89999999999999,-37.91359144449234L88.2,-7.889116883277893L88.5,155.75L88.8,-80.2528719902039L89.10000000000001,110.38911101222038L89.4,155.75L89.69999999999999,41.22344222664833L90,-79.37099981307988L90.3,140.21919897571206L90.6,134.36128253862262L90.9,136.95982713997364L91.2,89.80811935663223L91.5,67.86783558130264L91.80000000000001,61.59228113293648L92.1,155.75L92.39999999999999,93.86756148934364L92.7,79.44386672973633L93,117.89924473315477L93.3,-1.8065648078918457L93.60000000000001,38.58980131149292L93.9,117.57341977953911L94.2,128.98371529579163L94.5,130.3319866657257L94.8,155.75L95.1,-33.27554005384445L95.4,76.53324161469936L95.7,66.30318750441074L96,77.43205603957176L96.30000000000001,-66.30332145094876L96.6,-54.71414762735371L96.89999999999999,155.75L97.2,10.638010174036026L97.5,32.28980493545532L97.8,-4.642000824213028L98.10000000000001,79.61909797787666L98.4,126.34099651873112L98.7,82.7013338059187L99,87.67885346710682L99.3,-141.53084027767184L99.6,-147.86088842153552L99.9,129.16277098283172L100.2,56.691641479730606L100.5,94.55543000996113L100.80000000000001,-19.635127514600754L101.10000000000001,0.039841800928115845L101.39999999999999,-45.20465958118443L101.69999999999999,46.892165809869766L102,135.7717180326581L102.3,93.16405040025711L102.6,113.130525842309L102.9,-62.25387889146809L103.2,-29.789534986019135L103.5,90.37696775794029L103.8,11.06934455037117L104.1,65.24363723397255L104.39999999999999,155.75L104.7,-35.60883569717407L105,65.54727149009705L105.3,155.75L105.60000000000001,57.242201536893845L105.9,65.22784878313541L106.19999999999999,50.775972202420235L106.5,140.1251578964293L106.8,155.75L107.1,-83.77601075172429L107.4,109.94144444167614L107.7,45.02839919924736L108,155.75L108.3,-1.0323538184165955L108.6,155.75L108.89999999999999,-28.17368882894516L109.2,13.174413859844208L109.5,86.16208133101463L109.8,139.7228657156229L110.10000000000001,80.5240726172924L110.4,81.05189491808414L110.69999999999999,126.16055660694838L111,44.4925334751606L111.3,155.75L111.6,46.86118569970131L111.9,129.9297624528408L112.2,104.35312856733799L112.5,49.622984275221825L112.80000000000001,25.046427071094513L113.1,130.67201359942555L113.39999999999999,19.018779814243317L113.7,146.18076317757368L114,70.87300573289394L114.3,50.717141821980476L114.60000000000001,67.30827060341835L114.9,41.243534207344055L115.2,143.2081098742783L115.5,-97.06814903020863L115.8,88.35951407253742L116.1,83.97464816272259L116.4,155.75L116.7,-83.28764963150029L117,114.0733204856515L117.30000000000001,90.3098154515028L117.6,155.75L117.89999999999999,20.94699990749359L118.2,88.46586894989014L118.5,116.81184419244528L118.8,155.75L119.10000000000001,21.641532599925995L119.4,122.62591303139925L119.7,155.75L120,-5.3992761969566345L120.3,58.979428455233574L120.6,60.41544806957245L120.9,72.31974107027054L121.2,123.23411983251572L121.5,77.23731634020805L121.80000000000001,62.307562276721L122.10000000000001,42.39508983492851L122.39999999999999,-49.68217405676846L122.69999999999999,155.75L123,155.75L123.3,103.40900440514088L123.60000000000001,155.75L123.9,-18.148015916347504L124.2,-36.1825777888298L124.50000000000001,149.49566107522696L124.8,95.3900760859251L125.1,42.60940429568291L125.39999999999999,50.566783517599106L125.7,68.5437351167202L126,12.79570323228836L126.3,103.31329894065857L126.60000000000001,111.90149341523647L126.89999999999999,19.38749086856842L127.19999999999999,137.7514296285808L127.5,155.75L127.8,42.110778361558914L128.1,99.18120075762272L128.4,13.073861122131348L128.70000000000002,139.22390823066235L129,94.32372902333736L129.29999999999998,79.00062304735184L129.6,81.93736773729324L129.9,111.34545945376158L130.2,110.93995620310307L130.5,16.77643519639969L130.8,152.5821347446181L131.1,5.067836761474609L131.4,155.75L131.7,140.94101664423943L132,155.75L132.3,132.23268803954124L132.6,122.13262838125229L132.9,101.62572507560253L133.20000000000002,154.77351792668924L133.5,58.88183315098286L133.8,130.00355572253466L134.1,115.44259228557348L134.4,130.88830244541168L134.7,108.75203897058964L135,100.96569024771452L135.29999999999998,124.51874338835478L135.6,57.9417936950922L135.89999999999998,81.29079055786133L136.20000000000002,90.29349651932716L136.5,78.70210793614388L136.8,100.12657818198204L137.1,87.57638436555862L137.39999999999998,56.19846624135971L137.7,82.72355434298515L138,155.75L138.3,134.58688133209944L138.6,59.23077714443207L138.9,24.870028764009476L139.2,83.002381965518L139.5,137.62097100540996L139.8,94.89854533970356L140.1,137.8726827427745L140.4,76.57924097776413L140.7,149.36770441755652L141,131.21540718525648L141.29999999999998,97.82069516181946L141.60000000000002,76.51139241456985L141.9,100.81127707660198L142.2,133.91560858860612L142.5,90.60958382487297L142.79999999999998,139.06737147644162L143.1,106.4605054706335L143.4,38.49580001831055L143.70000000000002,134.76869552209973L144,85.82744707167149L144.3,120.27834412455559L144.6,109.73776613175869L144.89999999999998,126.49219696223736L145.20000000000002,122.95705937594175L145.5,130.0485239624977L145.8,119.65840042382479L146.1,117.22545054554939L146.4,104.86094509065151L146.7,144.00428527779877L147,93.51875674724579L147.3,137.6737058237195L147.6,45.87731522321701L147.9,150.9406503830105L148.2,135.1014283373952L148.5,91.30739887058735L148.8,88.4756828546524L149.1,141.5384099148214L149.4,139.20798384398222L149.7,122.70071090012789L150,108.64798505604267L150.29999999999998,148.3360060751438L150.60000000000002,39.601601630449295L150.9,119.02501896768808L151.20000000000002,107.79260379076004L151.5,130.18601809442043L151.79999999999998,63.556560695171356L152.1,64.46830560266972L152.4,44.15204402804375L152.70000000000002,99.87225879728794L153,103.89670242369175L153.3,-16.72629940509796L153.6,63.093463748693466L153.89999999999998,129.98692513257265L154.20000000000002,66.84805814921856L154.5,66.69584316015244L154.8,155.75L155.1,57.31052090227604L155.4,143.5335850417614L155.7,101.82929728925228L155.99999999999997,54.19689384102821L156.3,97.93333624303341L156.6,97.96721410751343L156.9,155.75L157.2,95.94911721348763L157.5,102.6457743793726L157.79999999999998,108.3610278069973L158.10000000000002,45.47162298858166L158.4,120.77950973808765L158.7,103.79422669112682L159,128.52527663856745L159.29999999999998,122.34225471317768L159.60000000000002,108.33322063833475L159.9,123.9156888872385L160.20000000000002,103.19977593421936L160.5,87.9561824798584L160.79999999999998,135.06107694283128L161.1,147.4732047021389L161.39999999999998,83.29624873399734L161.70000000000002,141.5200419984758L162,140.97134525701404L162.3,40.98975193500519L162.6,125.26525330543518L162.9,90.91817808151245L163.2,96.83451709151268L163.5,118.10040325671434L163.8,102.90018659830093L164.1,101.52145233750343L164.4,121.59682233631611L164.7,91.32947352528572L165,118.97081372141838L165.3,47.80775670707226L165.6,140.00820665434003L165.9,68.49172142148018L166.2,103.65457084774971L166.5,67.48088923096657L166.79999999999998,93.01163648068905L167.10000000000002,46.812772646546364L167.4,110.19505430758L167.7,135.49541019648314L168,71.27614502608776L168.29999999999998,155.75L168.6,111.60517317056656L168.9,63.99276223778725L169.20000000000002,136.16890930384398L169.5,129.71744061261415L169.8,120.11647769063711L170.1,48.55023828148842L170.39999999999998,117.10570764541626L170.70000000000002,114.4281395599246L171,143.3446317333728L171.3,109.13117066770792L171.6,135.6229644343257L171.9,132.26016199961305L172.2,121.25704572349787L172.5,96.27930869162083L172.8,146.34345102868974L173.1,155.75L173.4,107.83700839430094L173.7,110.32235656678677L174,155.75L174.3,150.29639903269708L174.6,139.84064749255776L174.9,130.60600348562002L175.2,130.86232875287533L175.5,56.32974711060524L175.79999999999998,129.29200452566147L176.10000000000002,141.7007156535983L176.4,104.48462162911892L176.70000000000002,155.75L177,144.8183304425329L177.29999999999998,131.53173154965043L177.6,135.79677498713136L177.89999999999998,126.1728637740016L178.20000000000002,98.69062487781048L178.5,93.62844702601433L178.8,115.7489353120327L179.1,146.7115097567439L179.39999999999998,120.08687020093203L179.70000000000002,150.43864884693176L180,132.26514852419496L180.3,109.37661775201559L180.6,98.86016008257866L180.9,118.93118676543236L181.2,120.02971746772528L181.50000000000003,92.48931792378426L181.8,120.6689905822277L182.1,119.05213982611895L182.4,149.42913249880075L182.7,138.96472499519587L183,108.76593095064163L183.29999999999998,137.51030430942774L183.60000000000002,143.68924152851105L183.9,102.00985324382782L184.2,111.82695084065199L184.5,78.40112608671188L184.79999999999998,129.78203334659338L185.1,123.08532644808292L185.4,100.39732591062784L185.70000000000002,119.41067558526993L186,92.67513890564442L186.29999999999998,152.21236998029053L186.6,107.47199081629515L186.89999999999998,138.72388315200806L187.20000000000002,121.91429552435875L187.5,123.18137009441853L187.8,122.38723289966583L188.1,60.548811078071594L188.4,89.66327805817127L188.7,124.62980960309505L189,62.52017256617546L189.3,135.38317526504397L189.6,105.29147379845381L189.9,134.92626339942217L190.2,152.0925972405821L190.5,136.64779304340482L190.8,147.70473659783602L191.1,101.81894958764315L191.4,139.58153222501278L191.7,150.04524595849216L192,62.39745897054672L192.29999999999998,151.91351668722928L192.60000000000002,123.13082848489285L192.9,132.87257949635386L193.2,143.96921465918422L193.5,88.10999554395676L193.79999999999998,110.32974020391703L194.1,138.94389697164297L194.4,41.709787517786026L194.70000000000002,94.43018999695778L195,104.29429818689823L195.3,137.1576005294919L195.6,117.28129033744335L195.89999999999998,137.21883465349674L196.20000000000002,123.12181693315506L196.5,138.9549293257296L196.8,111.63308311998844L197.1,27.063423216342926L197.4,95.43683801591396L197.7,129.01960733160377L198,100.55885747820139L198.3,150.03250487428159L198.6,155.75L198.9,119.49895762652159L199.2,74.5511909276247L199.5,135.93376847729087L199.8,149.37981845624745L200.10000000000002,95.00639882683754L200.4,110.8454907387495L200.7,143.00498856976628L201,127.6139063835144L201.29999999999998,150.87402192689478L201.60000000000002,126.1634477302432L201.9,140.0534517392516L202.20000000000002,155.75L202.5,123.83452192693949L202.79999999999998,131.05913401395082L203.1,141.8033588193357L203.39999999999998,142.56919732131064L203.70000000000002,122.95975156873465L204,116.95204046368599L204.3,146.64360317215323L204.6,141.56195002421737L204.89999999999998,122.39188787341118L205.2,153.65580990957096L205.5,136.92166563868523L205.8,144.32667702250183L206.1,117.30534103512764L206.4,120.72841775417328L206.7,133.96058843284845L207,113.90901052206755L207.3,118.61730758845806L207.6,136.97973013669252L207.9,137.51585115492344L208.2,146.1214246954769L208.5,139.00393088161945L208.79999999999998,144.87654496729374L209.10000000000002,133.13813016563654L209.4,149.7330328244716L209.7,102.87172958999872L210,137.42051371186972L210.29999999999998,114.41963528096676L210.6,147.09433990344405L210.9,142.1528623048216L211.20000000000002,145.10079517774284L211.5,148.53959155082703L211.8,112.27140136808157L212.1,103.32915370166302L212.39999999999998,130.83289201185107L212.70000000000002,150.50027668755502L213,138.49739248678088L213.3,149.76371288113296L213.6,109.82654218375683L213.9,131.940200522542L214.2,137.49811815842986L214.5,140.87552540749311L214.8,138.57912474125624L215.1,138.85314487665892L215.4,93.29799693822861L215.7,127.3171219676733L216,118.04234538972378L216.3,148.9261715374887L216.6,99.13765487074852L216.9,103.20512053370476L217.2,117.37032499909401L217.5,132.88634382933378L217.79999999999998,137.1904489286244L218.10000000000002,131.27246874198318L218.4,144.54716578871012L218.70000000000002,124.94494535773993L219,98.3789140433073L219.29999999999998,95.39101105928421L219.6,133.07151828706264L219.9,138.66407138109207L220.20000000000002,144.3939652647823L220.5,144.55952103063464L220.8,136.6817024052143L221.1,136.00036875158548L221.39999999999998,143.07620568946004L221.70000000000002,137.87866060435772L222,135.82390081882477L222.3,118.60167828202248L222.6,135.44593949615955L222.9,135.27060546725988L223.2,104.69820004701614L223.49999999999997,152.2319845277816L223.8,141.10016767680645L224.1,141.75891774520278L224.4,136.64264571666718L224.7,109.75412485003471L225,139.8770600631833L225.29999999999998,139.21123967319727L225.60000000000002,147.1164750661701L225.9,132.96071731299162L226.2,132.3735076263547L226.5,138.41905531287193L226.79999999999998,147.35617471672595L227.10000000000002,137.36438547074795L227.4,151.38704048283398L227.70000000000002,130.6342118307948L228,155.75L228.29999999999998,124.38507203757763L228.6,148.75598649308085L228.89999999999998,125.76289784908295L229.20000000000002,119.50518415123224L229.5,142.50730921328068L229.8,136.1522853448987L230.1,126.4392416626215L230.4,124.5864427536726L230.7,142.53066033869982L231,148.26726232469082L231.3,134.19737209379673L231.6,140.9853947237134L231.9,84.64325357973576L232.2,124.79501143842936L232.5,146.92653124965727L232.8,121.59335431456566L233.1,139.90851429104805L233.4,127.08776172995567L233.7,150.24070014990866L234,141.16180463507771L234.29999999999998,146.55639369785786L234.60000000000002,139.23997186869383L234.9,150.10617671348155L235.2,76.90877598524094L235.5,147.3152862098068L235.79999999999998,135.4592081606388L236.1,131.0705692023039L236.4,135.1816304847598L236.70000000000002,120.74580428004265L237,121.09012645483017L237.3,146.6829085238278L237.6,140.75287480652332L237.89999999999998,153.23992331558838L238.20000000000002,140.47451301291585L238.5,152.581839249935L238.8,135.45789190381765L239.1,130.90313105657697L239.4,136.31925434619188L239.7,131.00934336706996L240,122.24093940854073L240.3,141.5089864358306L240.6,122.08837297558784L240.9,123.22649416327477L241.2,134.86318585276604L241.5,140.63172944635153L241.8,155.75L242.1,144.84889279864728L242.4,149.78520524967462L242.7,150.93884467426687L243,117.36976467818022L243.29999999999998,135.47375992685556L243.60000000000002,132.85696179419756L243.9,131.92963068187237L244.20000000000002,135.83787237107754L244.5,145.06689493358135L244.79999999999998,129.62508215382695L245.1,135.7324640713632L245.39999999999998,144.05125691369176L245.70000000000002,151.3043276667595L246,125.0787493288517L246.3,135.6117928288877L246.6,128.0446273908019L246.89999999999998,148.25345654785633L247.20000000000002,146.63747777044773L247.5,115.68660375475883L247.8,151.01720174122602L248.1,136.64082550257444L248.4,152.28032878413796L248.7,105.73704496771097L249.00000000000003,131.70252498984337L249.3,90.26608389616013L249.6,148.08456952497363L249.9,140.22692742571235L250.2,129.42606544867158L250.5,138.84200808405876L250.79999999999998,126.9476582929492L251.10000000000002,150.85333398357034L251.4,138.02726832032204L251.7,129.0105758868158L252,133.5721650235355L252.29999999999998,131.5126524567604L252.6,135.39604772627354L252.9,144.69493550993502L253.20000000000002,146.80587161146104L253.5,128.03673482313752L253.79999999999998,139.0906911045313L254.1,124.62314211577177L254.39999999999998,118.1733378097415L254.70000000000002,143.70134644955397L255,109.09814488887787L255.3,139.3036064207554" style="fill: none;" fill="none"></path></g></g></g></g></g></g><g transform="translate(60, 178)" clip-path="url(#clip_1)"><clipPath id="clip_1"><rect width="270" height="21"></rect></clipPath><g><g><line x1="0" y1="0" x2="0" y2="5" style="visibility: inherit;" fill="rgb(0, 0, 0)" stroke="rgb(204, 204, 204)" stroke-width="1px"></line><line x1="30" y1="0" x2="30" y2="5" style="visibility: inherit;" fill="rgb(0, 0, 0)" stroke="rgb(204, 204, 204)" stroke-width="1px"></line><line x1="60" y1="0" x2="60" y2="5" style="visibility: inherit;" fill="rgb(0, 0, 0)" stroke="rgb(204, 204, 204)" stroke-width="1px"></line><line x1="90" y1="0" x2="90" y2="5" style="visibility: inherit;" fill="rgb(0, 0, 0)" stroke="rgb(204, 204, 204)" stroke-width="1px"></line><line x1="120" y1="0" x2="120" y2="5" style="visibility: inherit;" fill="rgb(0, 0, 0)" stroke="rgb(204, 204, 204)" stroke-width="1px"></line><line x1="150" y1="0" x2="150" y2="5" style="visibility: inherit;" fill="rgb(0, 0, 0)" stroke="rgb(204, 204, 204)" stroke-width="1px"></line><line x1="180" y1="0" x2="180" y2="5" style="visibility: inherit;" fill="rgb(0, 0, 0)" stroke="rgb(204, 204, 204)" stroke-width="1px"></line><line x1="210" y1="0" x2="210" y2="5" style="visibility: inherit;" fill="rgb(0, 0, 0)" stroke="rgb(204, 204, 204)" stroke-width="1px"></line><line x1="240" y1="0" x2="240" y2="5" style="visibility: inherit;" fill="rgb(0, 0, 0)" stroke="rgb(204, 204, 204)" stroke-width="1px"></line><line x1="270" y1="0" x2="270" y2="5" style="visibility: inherit;" fill="rgb(0, 0, 0)" stroke="rgb(204, 204, 204)" stroke-width="1px"></line></g><g transform="translate(0, 8)"><text x="0" y="0" dx="0em" dy="0.95em" style="text-anchor: middle; visibility: hidden; font-family: Roboto, sans-serif; font-size: 12px; font-weight: 200;" fill="rgb(50, 49, 63)" stroke="none" stroke-width="1px">-100</text><text x="30" y="0" dx="0em" dy="0.95em" style="text-anchor: middle; visibility: inherit; font-family: Roboto, sans-serif; font-size: 12px; font-weight: 200;" fill="rgb(50, 49, 63)" stroke="none" stroke-width="1px">0</text><text x="60" y="0" dx="0em" dy="0.95em" style="text-anchor: middle; visibility: inherit; font-family: Roboto, sans-serif; font-size: 12px; font-weight: 200;" fill="rgb(50, 49, 63)" stroke="none" stroke-width="1px">100</text><text x="90" y="0" dx="0em" dy="0.95em" style="text-anchor: middle; visibility: inherit; font-family: Roboto, sans-serif; font-size: 12px; font-weight: 200;" fill="rgb(50, 49, 63)" stroke="none" stroke-width="1px">200</text><text x="120" y="0" dx="0em" dy="0.95em" style="text-anchor: middle; visibility: inherit; font-family: Roboto, sans-serif; font-size: 12px; font-weight: 200;" fill="rgb(50, 49, 63)" stroke="none" stroke-width="1px">300</text><text x="150" y="0" dx="0em" dy="0.95em" style="text-anchor: middle; visibility: inherit; font-family: Roboto, sans-serif; font-size: 12px; font-weight: 200;" fill="rgb(50, 49, 63)" stroke="none" stroke-width="1px">400</text><text x="180" y="0" dx="0em" dy="0.95em" style="text-anchor: middle; visibility: inherit; font-family: Roboto, sans-serif; font-size: 12px; font-weight: 200;" fill="rgb(50, 49, 63)" stroke="none" stroke-width="1px">500</text><text x="210" y="0" dx="0em" dy="0.95em" style="text-anchor: middle; visibility: inherit; font-family: Roboto, sans-serif; font-size: 12px; font-weight: 200;" fill="rgb(50, 49, 63)" stroke="none" stroke-width="1px">600</text><text x="240" y="0" dx="0em" dy="0.95em" style="text-anchor: middle; visibility: inherit; font-family: Roboto, sans-serif; font-size: 12px; font-weight: 200;" fill="rgb(50, 49, 63)" stroke="none" stroke-width="1px">700</text><text x="270" y="0" dx="0em" dy="0.95em" style="text-anchor: middle; visibility: hidden; font-family: Roboto, sans-serif; font-size: 12px; font-weight: 200;" fill="rgb(50, 49, 63)" stroke="none" stroke-width="1px">800</text></g><line x1="0" y1="0" x2="270" y2="0" fill="rgb(0, 0, 0)" stroke="rgb(204, 204, 204)" stroke-width="1px"></line></g></g></g></g></svg>