<svg viewBox="0 0 330 200" xmlns="http://www.w3.org/2000/svg"><g><g><g><g><g><line x1="60" y1="178" x2="55" y2="178" style="visibility: inherit;" fill="rgb(0, 0, 0)" stroke="rgb(204, 204, 204)" stroke-width="1px"></line><line x1="60" y1="163.16666666666666" x2="55" y2="163.16666666666666" style="visibility: inherit;" fill="rgb(0, 0, 0)" stroke="rgb(204, 204, 204)" stroke-width="1px"></line><line x1="60" y1="148.33333333333331" x2="55" y2="148.33333333333331" style="visibility: inherit;" fill="rgb(0, 0, 0)" stroke="rgb(204, 204, 204)" stroke-width="1px"></line><line x1="60" y1="133.5" x2="55" y2="133.5" style="visibility: inherit;" fill="rgb(0, 0, 0)" stroke="rgb(204, 204, 204)" stroke-width="1px"></line><line x1="60" y1="118.66666666666666" x2="55" y2="118.66666666666666" style="visibility: inherit;" fill="rgb(0, 0, 0)" stroke="rgb(204, 204, 204)" stroke-width="1px"></line><line x1="60" y1="103.83333333333331" x2="55" y2="103.83333333333331" style="visibility: inherit;" fill="rgb(0, 0, 0)" stroke="rgb(204, 204, 204)" stroke-width="1px"></line><line x1="60" y1="88.99999999999999" x2="55" y2="88.99999999999999" style="visibility: inherit;" fill="rgb(0, 0, 0)" stroke="rgb(204, 204, 204)" stroke-width="1px"></line><line x1="60" y1="74.16666666666669" x2="55" y2="74.16666666666669" style="visibility: inherit;" fill="rgb(0, 0, 0)" stroke="rgb(204, 204, 204)" stroke-width="1px"></line><line x1="60" y1="59.33333333333332" x2="55" y2="59.33333333333332" style="visibility: inherit;" fill="rgb(0, 0, 0)" stroke="rgb(204, 204, 204)" stroke-width="1px"></line><line x1="60" y1="44.5" x2="55" y2="44.5" style="visibility: inherit;" fill="rgb(0, 0, 0)" stroke="rgb(204, 204, 204)" stroke-width="1px"></line><line x1="60" y1="29.66666666666668" x2="55" y2="29.66666666666668" style="visibility: inherit;" fill="rgb(0, 0, 0)" stroke="rgb(204, 204, 204)" stroke-width="1px"></line><line x1="60" y1="14.83333333333332" x2="55" y2="14.83333333333332" style="visibility: inherit;" fill="rgb(0, 0, 0)" stroke="rgb(204, 204, 204)" stroke-width="1px"></line><line x1="60" y1="0" x2="55" y2="0" style="visibility: inherit;" fill="rgb(0, 0, 0)" stroke="rgb(204, 204, 204)" stroke-width="1px"></line></g><g transform="translate(50, 0)"><text x="0" y="178" dx="0em" dy="0.3em" style="text-anchor: end; visibility: hidden; font-family: Roboto, sans-serif; font-size: 12px; font-weight: 200;" fill="rgb(50, 49, 63)" stroke="none" stroke-width="1px">-0.01</text><text x="0" y="163.16666666666666" dx="0em" dy="0.3em" style="text-anchor: end; visibility: inherit; font-family: Roboto, sans-serif; font-size: 12px; font-weight: 200;" fill="rgb(50, 49, 63)" stroke="none" stroke-width="1px">0</text><text x="0" y="148.33333333333331" dx="0em" dy="0.3em" style="text-anchor: end; visibility: hidden; font-family: Roboto, sans-serif; font-size: 12px; font-weight: 200;" fill="rgb(50, 49, 63)" stroke="none" stroke-width="1px">0.01</text><text x="0" y="133.5" dx="0em" dy="0.3em" style="text-anchor: end; visibility: inherit; font-family: Roboto, sans-serif; font-size: 12px; font-weight: 200;" fill="rgb(50, 49, 63)" stroke="none" stroke-width="1px">0.02</text><text x="0" y="118.66666666666666" dx="0em" dy="0.3em" style="text-anchor: end; visibility: hidden; font-family: Roboto, sans-serif; font-size: 12px; font-weight: 200;" fill="rgb(50, 49, 63)" stroke="none" stroke-width="1px">0.03</text><text x="0" y="103.83333333333331" dx="0em" dy="0.3em" style="text-anchor: end; visibility: inherit; font-family: Roboto, sans-serif; font-size: 12px; font-weight: 200;" fill="rgb(50, 49, 63)" stroke="none" stroke-width="1px">0.04</text><text x="0" y="88.99999999999999" dx="0em" dy="0.3em" style="text-anchor: end; visibility: hidden; font-family: Roboto, sans-serif; font-size: 12px; font-weight: 200;" fill="rgb(50, 49, 63)" stroke="none" stroke-width="1px">0.05</text><text x="0" y="74.16666666666669" dx="0em" dy="0.3em" style="text-anchor: end; visibility: inherit; font-family: Roboto, sans-serif; font-size: 12px; font-weight: 200;" fill="rgb(50, 49, 63)" stroke="none" stroke-width="1px">0.06</text><text x="0" y="59.33333333333332" dx="0em" dy="0.3em" style="text-anchor: end; visibility: hidden; font-family: Roboto, sans-serif; font-size: 12px; font-weight: 200;" fill="rgb(50, 49, 63)" stroke="none" stroke-width="1px">0.07</text><text x="0" y="44.5" dx="0em" dy="0.3em" style="text-anchor: end; visibility: inherit; font-family: Roboto, sans-serif; font-size: 12px; font-weight: 200;" fill="rgb(50, 49, 63)" stroke="none" stroke-width="1px">0.08</text><text x="0" y="29.66666666666668" dx="0em" dy="0.3em" style="text-anchor: end; visibility: hidden; font-family: Roboto, sans-serif; font-size: 12px; font-weight: 200;" fill="rgb(50, 49, 63)" stroke="none" stroke-width="1px">0.09</text><text x="0" y="14.83333333333332" dx="0em" dy="0.3em" style="text-anchor: end; visibility: inherit; font-family: Roboto, sans-serif; font-size: 12px; font-weight: 200;" fill="rgb(50, 49, 63)" stroke="none" stroke-width="1px">0.1</text><text x="0" y="0" dx="0em" dy="0.3em" style="text-anchor: end; visibility: hidden; font-family: Roboto, sans-serif; font-size: 12px; font-weight: 200;" fill="rgb(50, 49, 63)" stroke="none" stroke-width="1px">0.11</text></g><line x1="60" y1="0" x2="60" y2="178" fill="rgb(0, 0, 0)" stroke="rgb(204, 204, 204)" stroke-width="1px"></line></g></g><g transform="translate(60, 0)" clip-path="url(#clip_0)"><clipPath id="clip_0"><rect width="270" height="177"></rect></clipPath><g><g><g><line x1="0" y1="0" x2="0" y2="178" fill="rgb(0, 0, 0)" stroke="rgb(60, 60, 60)" stroke-width="1px" opacity="0.25"></line><line x1="30" y1="0" x2="30" y2="178" fill="rgb(0, 0, 0)" stroke="rgb(60, 60, 60)" stroke-width="1px" opacity="0.25"></line><line x1="60" y1="0" x2="60" y2="178" fill="rgb(0, 0, 0)" stroke="rgb(60, 60, 60)" stroke-width="1px" opacity="0.25"></line><line x1="90" y1="0" x2="90" y2="178" fill="rgb(0, 0, 0)" stroke="rgb(60, 60, 60)" stroke-width="1px" opacity="0.25"></line><line x1="120" y1="0" x2="120" y2="178" fill="rgb(0, 0, 0)" stroke="rgb(60, 60, 60)" stroke-width="1px" opacity="0.25"></line><line x1="150" y1="0" x2="150" y2="178" fill="rgb(0, 0, 0)" stroke="rgb(60, 60, 60)" stroke-width="1px" opacity="0.25"></line><line x1="180" y1="0" x2="180" y2="178" fill="rgb(0, 0, 0)" stroke="rgb(60, 60, 60)" stroke-width="1px" opacity="0.25"></line><line x1="210" y1="0" x2="210" y2="178" fill="rgb(0, 0, 0)" stroke="rgb(60, 60, 60)" stroke-width="1px" opacity="0.25"></line><line x1="240" y1="0" x2="240" y2="178" fill="rgb(0, 0, 0)" stroke="rgb(60, 60, 60)" stroke-width="1px" opacity="0.25"></line><line x1="270" y1="0" x2="270" y2="178" fill="rgb(0, 0, 0)" stroke="rgb(60, 60, 60)" stroke-width="1px" opacity="0.25"></line></g><g><line x1="0" y1="178" x2="270" y2="178" fill="rgb(0, 0, 0)" stroke="rgb(60, 60, 60)" stroke-width="1px" opacity="0.25"></line><line x1="0" y1="163.16666666666666" x2="270" y2="163.16666666666666" fill="rgb(0, 0, 0)" stroke="rgb(60, 60, 60)" stroke-width="1px" opacity="0.25"></line><line x1="0" y1="148.33333333333331" x2="270" y2="148.33333333333331" fill="rgb(0, 0, 0)" stroke="rgb(60, 60, 60)" stroke-width="1px" opacity="0.25"></line><line x1="0" y1="133.5" x2="270" y2="133.5" fill="rgb(0, 0, 0)" stroke="rgb(60, 60, 60)" stroke-width="1px" opacity="0.25"></line><line x1="0" y1="118.66666666666666" x2="270" y2="118.66666666666666" fill="rgb(0, 0, 0)" stroke="rgb(60, 60, 60)" stroke-width="1px" opacity="0.25"></line><line x1="0" y1="103.83333333333331" x2="270" y2="103.83333333333331" fill="rgb(0, 0, 0)" stroke="rgb(60, 60, 60)" stroke-width="1px" opacity="0.25"></line><line x1="0" y1="88.99999999999999" x2="270" y2="88.99999999999999" fill="rgb(0, 0, 0)" stroke="rgb(60, 60, 60)" stroke-width="1px" opacity="0.25"></line><line x1="0" y1="74.16666666666669" x2="270" y2="74.16666666666669" fill="rgb(0, 0, 0)" stroke="rgb(60, 60, 60)" stroke-width="1px" opacity="0.25"></line><line x1="0" y1="59.33333333333332" x2="270" y2="59.33333333333332" fill="rgb(0, 0, 0)" stroke="rgb(60, 60, 60)" stroke-width="1px" opacity="0.25"></line><line x1="0" y1="44.5" x2="270" y2="44.5" fill="rgb(0, 0, 0)" stroke="rgb(60, 60, 60)" stroke-width="1px" opacity="0.25"></line><line x1="0" y1="29.66666666666668" x2="270" y2="29.66666666666668" fill="rgb(0, 0, 0)" stroke="rgb(60, 60, 60)" stroke-width="1px" opacity="0.25"></line><line x1="0" y1="14.83333333333332" x2="270" y2="14.83333333333332" fill="rgb(0, 0, 0)" stroke="rgb(60, 60, 60)" stroke-width="1px" opacity="0.25"></line><line x1="0" y1="0" x2="270" y2="0" fill="rgb(0, 0, 0)" stroke="rgb(60, 60, 60)" stroke-width="1px" opacity="0.25"></line></g></g></g><g><g><line x1="0" y1="163.16666666666666" x2="270" y2="163.16666666666666" fill="rgb(0, 0, 0)" stroke="rgb(153, 153, 153)" stroke-width="1.5px"></line></g></g><g><g><line x1="30" y1="0" x2="30" y2="178" fill="rgb(0, 0, 0)" stroke="rgb(153, 153, 153)" stroke-width="1.5px"></line></g></g><g><g><g><g><g><path stroke="rgb(255, 112, 67)" stroke-width="2px" d="M30,139.46077080070972L30.3,115.73920639480156L30.599999999999998,70.97419779083764L30.900000000000002,47.94589761016418L31.2,74.49364695936896L31.5,94.43518993361978L31.799999999999997,94.06842811350572L32.1,92.98964868975226L32.4,118.91196811685273L32.7,110.49438270326091L33,96.26101617644169L33.300000000000004,109.22895586844736L33.6,73.56018275879L33.9,82.94074418008097L34.2,89.75871105107072L34.5,94.64257407282356L34.8,57.914045150103426L35.1,87.2913061491226L35.400000000000006,50.56913966648911L35.699999999999996,79.0342288326731L36,85.36330560272911L36.300000000000004,63.412735779126464L36.6,72.19590011319647L36.9,76.20116702104833L37.2,64.2199344489809L37.5,78.12945923578629L37.800000000000004,43.30981728462435L38.1,66.75468240283095L38.4,58.29506967756994L38.7,76.65396997566835L38.99999999999999,74.07472017111647L39.3,65.31914422985413L39.6,84.73051022940692L39.900000000000006,88.08365997317617L40.199999999999996,63.14048175436662L40.5,63.06511569197171L40.8,15.216197676426711L41.1,47.39144155427344L41.4,57.801419231905115L41.699999999999996,90.6950694103344L42,63.225326528728004L42.300000000000004,58.286317098096426L42.599999999999994,58.327929080312806L42.9,27.55417092750919L43.2,49.58696531054192L43.5,70.96253390920445L43.8,57.841771980503665L44.1,54.649190247213376L44.4,45.06623634692369L44.7,49.06152113279753L45,57.31781860197248L45.3,73.05305560039885L45.6,87.32368885345211L45.900000000000006,94.9753760190902L46.199999999999996,111.03351385845345L46.5,123.21437819895768L46.800000000000004,112.56431035755409L47.1,113.31539060806243L47.4,75.91257030050653L47.7,101.633647965079L48,97.49031527639544L48.3,92.6596323537892L48.6,105.14463546304314L48.9,110.20012124684501L49.2,114.59547328635287L49.5,41.76832123806596L49.8,58.355535876018955L50.1,59.42205910161924L50.400000000000006,73.36430097784077L50.699999999999996,71.60400840341335L51,67.40034119506251L51.3,47.9692648185466L51.6,59.16154471634869L51.9,30.87380442181654L52.199999999999996,10.477535362001825L52.5,39.13566779789722L52.800000000000004,52.52529631176031L53.099999999999994,59.84676739246707L53.4,24.13561008376515L53.7,11.762724695618774L54,18.65351516287475L54.3,40.65528612900345L54.6,16.087655589393183L54.9,4.158380801724228L55.2,26.59534420683792L55.5,42.61959681181992L55.8,58.35816640815468L56.1,71.91891315675575L56.400000000000006,37.359791710556344L56.699999999999996,81.32041932120768L57,15.394694111594653L57.300000000000004,45.66489518395012L57.6,-12.514814416303569L57.9,31.93139572755436L58.2,65.64176553974116L58.5,-38.66159170574215L58.8,-5.032495600221127L59.1,42.26343553826955L59.4,-13.448425347214506L59.7,27.033635777470145L60,56.86968037222029L60.3,88.60201216579L60.6,77.19897043411248L60.900000000000006,82.88784623267837L61.199999999999996,89.70251416835737L61.5,37.58575615290931L61.800000000000004,24.014349170550506L62.1,44.12639105202244L62.4,62.038309265463496L62.699999999999996,84.78470935381787L63,78.73828383261365L63.300000000000004,106.34755910719076L63.599999999999994,114.46702806523228L63.9,84.78627604864508L64.2,105.31987324032667L64.5,63.22713941737105L64.8,-33.654683571632226L65.1,-10.276199419245417L65.4,22.445941997203075L65.7,52.68840270795395L66,64.5443597648023L66.3,79.65302160263926L66.60000000000001,96.53761862594406L66.9,85.0332093529613L67.2,66.46996949470308L67.5,79.60514303757509L67.8,79.84157784907279L68.10000000000001,78.49934425033086L68.4,51.243974678180344L68.69999999999999,55.24091889806294L69,68.09508480438214L69.3,75.77189179544818L69.6,98.63210850925348L69.9,83.57096096856061L70.2,101.34291387289362L70.5,116.92534516368069L70.80000000000001,119.06476572074745L71.1,92.36806823363852L71.39999999999999,73.63933872908923L71.7,21.72107862073525L72,68.70703202320146L72.3,65.37274685203835L72.60000000000001,53.18216413875302L72.9,85.52158080261873L73.2,82.4538169526374L73.5,63.550557940601266L73.8,67.55481539233463L74.1,80.71785447436932L74.4,67.10967269602433L74.7,53.68558048047433L75,37.222867736247046L75.30000000000001,65.84718882880222L75.60000000000001,69.0586572538313L75.89999999999999,67.87096301220835L76.2,84.40505955916431L76.5,46.8828207967785L76.8,57.60669296889149L77.10000000000001,73.24465972329364L77.4,47.256898064286645L77.7,61.27985597980288L77.99999999999999,76.55124256411554L78.3,93.10638722518699L78.6,94.71741098308334L78.89999999999999,98.28091263757409L79.2,86.87775468420742L79.5,78.05987881576074L79.80000000000001,90.91100501788686L80.10000000000001,82.67670254174689L80.39999999999999,100.72078112521064L80.69999999999999,108.07385529433661L81,66.55753395768987L81.3,76.74227342692804L81.6,96.27300966046923L81.9,107.93617303478324L82.2,117.55848601991498L82.5,107.1633739860926L82.8,84.75483071955485L83.1,101.74746406963928L83.39999999999999,80.33430026307582L83.7,96.32178935806878L84,98.35092744867558L84.3,89.23034135087663L84.60000000000001,99.270517292128L84.9,85.41025266399343L85.19999999999999,109.43405870656387L85.5,111.98366855120787L85.8,120.35880543611127L86.1,124.10768871797131L86.4,84.08602435167435L86.7,62.35351637865586L87,57.815651408029495L87.3,59.746999932046485L87.6,64.1833990480795L87.89999999999999,85.27875993249582L88.2,86.17227427918374L88.5,63.79051483924385L88.8,33.63753544244286L89.10000000000001,53.64699967475604L89.4,52.770380976429806L89.69999999999999,51.666030374744274L90,51.27834196741108L90.3,84.43816871804826L90.6,66.19512993512254L90.9,78.31164909552159L91.2,95.81583534419906L91.5,66.42069421653176L91.80000000000001,92.75768989887372L92.1,116.73201476996063L92.39999999999999,68.99956304708077L92.7,65.41855835842463L93,94.41964291489543L93.3,7.375825478373486L93.60000000000001,6.2331063809425675L93.9,29.240194958195957L94.2,48.33988302156082L94.5,67.56623220963134L94.8,63.58450328423292L95.1,86.20640004096653L95.4,87.20810844750142L95.7,61.70150767913026L96,80.56027133554555L96.30000000000001,104.46266750295166L96.6,60.28332196155708L96.89999999999999,83.24770248271736L97.2,67.2575029274089L97.5,88.69474007031893L97.8,45.094684408157526L98.10000000000001,73.42617816590237L98.4,63.93519480742794L98.7,39.72098846664695L99,49.06074749686719L99.3,80.23176107759316L99.6,51.50995645893639L99.9,43.989270845888214L100.2,57.19433939248612L100.5,62.09160779986951L100.80000000000001,85.09691855703299L101.10000000000001,104.47513122297032L101.39999999999999,67.38402531506638L101.69999999999999,25.353596579802165L102,49.27882551060445L102.3,57.10403819823064L102.6,65.41973852183698L102.9,16.91466239531602L103.2,29.4603343413657L103.5,70.81776914982316L103.8,77.19160348567357L104.1,53.6028255903303L104.39999999999999,67.89945207438346L104.7,52.28961190621937L105,66.0825978390826L105.3,92.30290869508902L105.60000000000001,67.95955536147787L105.9,62.45947214989365L106.19999999999999,63.69015281813442L106.5,80.88243237485746L106.8,102.7378248364742L107.1,107.17461142685109L107.4,92.30925724752403L107.7,-1.2229753821234546L108,41.614710573009226L108.3,64.8661579700221L108.6,76.81300274204668L108.89999999999999,88.50277117990329L109.2,81.14870654405877L109.5,33.41034497536257L109.8,44.993471533360285L110.10000000000001,79.42806525943809L110.4,98.7362189660557L110.69999999999999,96.92984694759575L111,52.721394303563386L111.3,74.31939045873673L111.6,73.66323871684504L111.9,63.540309941405674L112.2,81.92379799622373L112.5,30.851373293825446L112.80000000000001,69.43472523222077L113.1,91.57780545292123L113.39999999999999,96.04969951513105L113.7,31.179551933225163L114,57.8654657040136L114.3,26.208458215043756L114.60000000000001,53.947186274357115L114.9,63.28528616608829L115.2,50.5689412044385L115.5,67.80465566835198L115.8,95.96738387974933L116.1,102.17009705801509L116.4,116.9328342040362L116.7,76.63803181608411L117,89.14500032401018L117.30000000000001,110.26442428625187L117.6,97.45509553668833L117.89999999999999,98.30306423535704L118.2,103.5842279821481L118.5,100.66729736307336L118.8,73.79678315706495L119.10000000000001,40.41087897293236L119.4,52.96007902526338L119.7,59.0925167725691L120,59.63144148347032L120.3,91.0705549774006L120.6,94.41789483174293L120.9,97.62174286133812L121.2,115.58198788972754L121.5,65.79333246874052L121.80000000000001,76.96457670406839L122.10000000000001,63.28373253708885L122.39999999999999,26.504389701480516L122.69999999999999,57.14458091648114L123,43.031512734840454L123.3,58.59867168320226L123.60000000000001,92.75323846997624L123.9,99.82627607918862L124.2,115.55384703847021L124.50000000000001,91.44018024825404L124.8,105.19196720395495L125.1,92.25931703532146L125.39999999999999,71.59591867815101L125.7,81.51850750718897L126,105.14768187333773L126.3,111.85051158147827L126.60000000000001,90.72083809620804L126.89999999999999,98.42596161154906L127.19999999999999,119.2861693317473L127.5,99.96604935714284L127.8,95.86177893413313L128.1,92.78112634877287L128.4,48.49684254840965L128.70000000000002,65.39603064963794L129,69.30555740898595L129.29999999999998,77.69807993912147L129.6,92.19564320967662L129.9,84.60488743082325L130.2,94.1866299410401L130.5,79.15174594519962L130.8,95.6745419074998L131.1,97.64615791161292L131.4,38.08917118978164L131.7,81.89997231759625L132,79.145641690282L132.3,74.32102351931016L132.6,68.15436749983199L132.9,95.62536560939768L133.20000000000002,95.59991459715577L133.5,62.36995633444118L133.8,74.1710069894846L134.1,94.24083987196617L134.4,89.12204405856332L134.7,88.3474722635281L135,94.92962560444266L135.29999999999998,73.05184569392122L135.6,46.55166363179793L135.89999999999998,61.64200894908176L136.20000000000002,17.788889719303846L136.5,52.25930691654866L136.8,79.28400538004666L137.1,76.08337987544476L137.39999999999998,84.12114721089009L137.7,89.78787415255746L138,68.31036684332076L138.3,72.13890504887374L138.6,48.76257903208734L138.9,34.631951468172105L139.2,60.4665490450357L139.5,17.156952821923955L139.8,60.39729453943989L140.1,82.54291279409024L140.4,63.44571097270861L140.7,80.6307783796959L141,88.17990752108332L141.29999999999998,49.863233961944424L141.60000000000002,50.05234225091416L141.9,44.38866209684062L142.2,45.616949743220694L142.5,67.61649851373204L142.79999999999998,78.34601268890324L143.1,89.3809365732838L143.4,106.29813361287333L143.70000000000002,120.08538658144204L144,26.484998409283936L144.3,72.86903404951062L144.6,65.6682781066098L144.89999999999998,63.526179847256245L145.20000000000002,53.66647693542792L145.5,73.15524071372442L145.8,92.85246551583346L146.1,105.58396876285553L146.4,101.69168954946646L146.7,120.0999719648543L147,101.8515723655015L147.3,90.28851813928623L147.6,84.91241824342613L147.9,69.1643484495906L148.2,101.69967185931372L148.5,57.96706903463782L148.8,84.11697124631911L149.1,95.86781676327213L149.4,91.85949896801526L149.7,89.7678282520911L150,102.02417335729248L150.29999999999998,109.84476642253267L150.60000000000002,106.08655122384786L150.9,55.76894303241587L151.20000000000002,84.61967351682515L151.5,55.998946539446905L151.79999999999998,90.08124207395424L152.1,66.38069497111307L152.4,32.93203615683038L152.70000000000002,68.53161994589003L153,50.74555528147597L153.3,-35.98510089725111L153.6,-13.93325261598739L153.89999999999998,12.921222758337404L154.20000000000002,43.0141711813477L154.5,-16.300760774874703L154.8,-23.046839520770746L155.1,5.756830011543579L155.4,57.225008613707786L155.7,59.87370336066218L155.99999999999997,71.3315595935416L156.3,81.84128618840171L156.6,95.46799007120008L156.9,100.53617642757659L157.2,81.02908946536401L157.5,47.66817536033643L157.79999999999998,80.63237082954717L158.10000000000002,93.14824161726118L158.4,88.35780053117601L158.7,104.64549105979242L159,97.79410775075696L159.29999999999998,108.65172381144967L159.60000000000002,107.18742531106196L159.9,88.92619727590872L160.20000000000002,91.70619293275989L160.5,94.83590071036527L160.79999999999998,111.47304352254139L161.1,117.45688248453816L161.39999999999998,83.33691863086788L161.70000000000002,113.94432834046764L162,117.16710303082674L162.3,114.58406185023749L162.6,105.37667050011613L162.9,96.2338932109733L163.2,100.36570320146437L163.5,109.15188297003799L163.8,109.29886259856002L164.1,120.42002556754456L164.4,108.70690546850345L164.7,89.16099560312419L165,66.97590307226969L165.3,71.07070504723704L165.6,96.55264466563095L165.9,113.12801348999676L166.2,48.245506587637685L166.5,70.10006387313997L166.79999999999998,83.16357178656733L167.10000000000002,103.89886593074687L167.4,12.667602526651326L167.7,57.46536562095474L168,50.24729123860829L168.29999999999998,48.20753362069667L168.6,51.730757617693L168.9,60.82717915797683L169.20000000000002,87.47302811448446L169.5,50.51563420159422L169.8,63.70083154298546L170.1,43.74901222422331L170.39999999999998,27.275208293803196L170.70000000000002,72.16181893065036L171,72.70175187735434L171.3,75.710185934794L171.6,46.872831779534835L171.9,56.8410149163893L172.2,40.788011066926984L172.5,58.30232252050249L172.8,86.1101732921728L173.1,108.80130512746942L173.4,91.4884712849027L173.7,77.8975080442806L174,84.65031774395982L174.3,90.95774504574703L174.6,95.06290613034902L174.9,111.69860746117158L175.2,126.30661130687628L175.5,114.15254402701677L175.79999999999998,105.27786570516002L176.10000000000002,68.69836256142521L176.4,55.69154787800351L176.70000000000002,61.58502213006202L177,65.00001105375082L177.29999999999998,79.03510426207576L177.6,81.58412078951318L177.89999999999998,76.64617409865767L178.20000000000002,42.730005651080866L178.5,50.439624287305826L178.8,43.287357026905944L179.1,80.02530880942211L179.39999999999998,79.1625609944717L179.70000000000002,92.22866722745435L180,114.08683744948746L180.3,91.38292345731442L180.6,99.75256750581057L180.9,115.23071912038759L181.2,73.75756271546146L181.50000000000003,90.00427642284865L181.8,57.50176257780613L182.1,87.37066267664088L182.4,102.44867138903251L182.7,89.73334394697892L183,50.90068477673062L183.29999999999998,67.30918238132831L183.60000000000002,77.42243262968245L183.9,96.9173937271542L184.2,105.37299126121444L184.5,73.3543265008909L184.79999999999998,102.24703616861396L185.1,115.15060974437331L185.4,114.93148226109147L185.70000000000002,117.91099147737224L186,128.56533008460323L186.29999999999998,105.71364201293858L186.6,90.65317305834972L186.89999999999998,103.80461074508358L187.20000000000002,98.07799418924527L187.5,101.87414265369341L187.8,89.35947454588592L188.1,102.0541173475006L188.4,121.66239500435304L188.7,115.888827406717L189,21.140127851577198L189.3,26.897475759592634L189.6,55.32960053805927L189.9,72.173175061888L190.2,85.04798145402263L190.5,76.78042227412536L190.8,61.30505259067978L191.1,90.9178070474535L191.4,91.80826335244593L191.7,72.6685757344557L192,88.03033714526453L192.29999999999998,65.54026356955502L192.60000000000002,84.3364726163157L192.9,86.4304034366533L193.2,89.38885551021447L193.5,63.835729692335626L193.79999999999998,44.68308446444415L194.1,62.07327087901439L194.4,82.98044591853463L194.70000000000002,62.752940053002675L195,68.22644755994675L195.3,70.65042741152881L195.6,74.02304910453107L195.89999999999998,81.36183293957676L196.20000000000002,101.25151789664724L196.5,114.46871795244712L196.8,94.66707168412823L197.1,84.48288595314396L197.4,63.12483339489841L197.7,72.92407650737769L198,84.83188631627247L198.3,62.215395421743104L198.6,61.048251834090394L198.9,74.7737470010375L199.2,100.26132503685086L199.5,103.2270747852528L199.8,94.67648363305352L200.10000000000002,110.24423429932129L200.4,103.37346893389582L200.7,101.19000521007912L201,101.91245738289994L201.29999999999998,93.26210328711414L201.60000000000002,109.11493394140408L201.9,69.55520542083583L202.20000000000002,96.70320239733698L202.5,77.77402309420332L202.79999999999998,81.26695598468756L203.1,80.2643665202791L203.39999999999998,88.38501574367292L203.70000000000002,99.2277163432241L204,64.92803578175308L204.3,68.07659803686859L204.6,86.8209687264263L204.89999999999998,74.84685803402459L205.2,77.30335725416141L205.5,61.59725393296914L205.8,49.95526928568861L206.1,84.92979743499545L206.4,102.86025144061837L206.7,95.99075384975309L207,102.76658312901358L207.3,103.57032335256238L207.6,109.27983334136823L207.9,96.93994561218909L208.2,90.10474643836632L208.5,78.64961497622858L208.79999999999998,52.84316201193013L209.10000000000002,64.04773343215115L209.4,69.55663109586474L209.7,66.84083851634959L210,83.58682983195484L210.29999999999998,83.70198822463969L210.6,58.684457197460056L210.9,51.586819260123875L211.20000000000002,71.48628150153368L211.5,83.67783138589984L211.8,101.72836193206066L212.1,91.58537555095843L212.39999999999998,91.09953924133754L212.70000000000002,25.105715553647535L213,51.64829843979253L213.3,72.08137904946707L213.6,97.48197074042581L213.9,108.45482110514337L214.2,102.58944172482147L214.5,115.34343093774987L214.8,91.08360443200036L215.1,89.55263893615422L215.4,74.97152602758737L215.7,90.00978959353803L216,101.59034414838973L216.3,92.85409207990499L216.6,96.23692854355214L216.9,112.52600637640818L217.2,118.62289579599856L217.5,122.90632327381624L217.79999999999998,116.8312082746656L218.10000000000002,108.5158876672803L218.4,114.64226975463342L218.70000000000002,117.16252829883005L219,123.93621726932231L219.29999999999998,52.685308357688406L219.6,72.7670239372726L219.9,69.81771019480679L220.20000000000002,71.60416823654604L220.5,92.31234249788066L220.8,95.41120608638252L221.1,112.69734484299336L221.39999999999998,73.70636140313337L221.70000000000002,98.58577317847764L222,78.76131699196867L222.3,71.80042917556985L222.6,89.01715453581464L222.9,103.54652976016077L223.2,99.13636084012113L223.49999999999997,81.50870613224461L223.8,97.7968907135754L224.1,108.71219523517465L224.4,110.08937056621814L224.7,47.782439619864455L225,74.84297758275196L225.29999999999998,87.43483830651L225.60000000000002,106.95425402220302L225.9,122.8969960834357L226.2,73.87772785777487L226.5,81.28541338337244L226.79999999999998,87.19068517124323L227.10000000000002,92.55687830846908L227.4,117.39868945716165L227.70000000000002,115.97836463851736L228,119.40220520021323L228.29999999999998,100.32728752169092L228.6,99.83236029747971L228.89999999999998,115.06699242047775L229.20000000000002,112.38898454915865L229.5,100.23122208204697L229.8,108.92529535275797L230.1,108.733472122642L230.4,92.72584248814537L230.7,105.63189659903581L231,116.85720407946984L231.3,96.92826241245317L231.6,92.64501286143332L231.9,106.3099604314224L232.2,95.22953296099043L232.5,89.14456366734068L232.8,76.52164404731808L233.1,83.45230861192039L233.4,103.66295771609796L233.7,89.33023769345516L234,96.7890582562683L234.29999999999998,113.36770671692676L234.60000000000002,126.15689651620697L234.9,122.59868816009549L235.2,88.14764014763466L235.5,50.48726340859831L235.79999999999998,54.35606613792797L236.1,89.21703826633781L236.4,55.3983973398667L236.70000000000002,59.78843174585868L237,40.94180416986845L237.3,75.41258007789952L237.6,98.82792080842636L237.89999999999998,107.42524917266675L238.20000000000002,106.35842779085183L238.5,110.22758990410058L238.8,106.4507842215881L239.1,61.78951637464673L239.4,94.35142699888095L239.7,93.58348948266553L240,100.95141805314887L240.3,102.21552388729971L240.6,116.51832312561464L240.9,112.35592897465264L241.2,53.4593699081566L241.5,88.76400142856396L241.8,83.9900383409736L242.1,95.22672533930603L242.4,99.44489299818633L242.7,101.45208473343507L243,87.17367417418274L243.29999999999998,109.48603220340597L243.60000000000002,118.36243541175318L243.9,125.65673001885925L244.20000000000002,113.89089890388954L244.5,110.49103184482442L244.79999999999998,107.01244400903174L245.1,110.16168144125494L245.39999999999998,120.32945812908066L245.70000000000002,129.480482462052L246,132.19072058777223L246.3,130.79716696429378L246.6,108.71041212035095L246.89999999999998,108.43068134518192L247.20000000000002,84.80708443759913L247.5,75.20628548446714L247.8,77.36691367298418L248.1,102.17402899863352L248.4,114.21587640157558L248.7,75.72892273532082L249.00000000000003,44.70908710996348L249.3,56.11016653362933L249.6,82.46950149069643L249.9,103.2247214448278L250.2,106.61311650465875L250.5,117.68183665339718L250.79999999999998,112.74989003657043L251.10000000000002,106.71845486691838L251.4,51.875438214925396L251.7,80.68829719866561L252,96.61280927446633L252.29999999999998,115.37050239525526L252.6,122.11865387826536L252.9,87.82125251572948L253.20000000000002,94.51817944992555L253.5,105.64537791718428L253.79999999999998,106.37995014176398L254.1,118.15386584750193L254.39999999999998,126.28669641575044L254.70000000000002,105.28806176678832L255,85.48745534557003L255.3,99.45542797339695L255.6,72.18241822258277" style="fill: none;" fill="none"></path></g></g></g></g><g opacity="0.2"><g><g><g><path stroke="rgb(255, 112, 67)" stroke-width="2px" d="M30,139.46077080070972L30.3,101.50626775125662L30.599999999999998,27.99978953103224L30.900000000000002,20.864616597692166L31.2,109.15438850969076L31.5,122.0215228224794L31.799999999999997,93.54395284255344L32.1,91.41677793363729L32.4,157.14235412050039L32.7,97.99524938315153L33,75.04006197303534L33.300000000000004,128.61029445131618L33.6,20.173487827181816L33.9,96.9932088156541L34.2,99.97764709343511L34.5,101.96492412686348L34.8,2.8367940485477448L35.1,131.34973876426616L35.400000000000006,-4.508515805006027L35.699999999999996,121.72926076004902L36,94.85657365620136L36.300000000000004,30.487603336572647L36.6,85.37047320604324L36.9,82.20901993662119L37.2,46.248170748353004L37.5,98.99368709822494L37.800000000000004,-8.919556548198091L38.1,101.92194408675033L38.4,45.60565838217735L38.7,104.19231027613083L38.99999999999999,70.20584631959599L39.3,52.18578206002712L39.6,113.8475569114089L39.900000000000006,93.11338434865075L40.199999999999996,25.72571549812952L40.5,62.95206660032272L40.8,-56.55717860658966L41.1,95.65430707236129L41.4,73.41638569037121L41.699999999999996,140.03554456805188L42,22.02071226139864L42.300000000000004,50.87780295809111L42.599999999999994,58.390347053607314L42.9,-18.60646628836792L43.2,82.63615687936544L43.5,103.02588680386543L43.8,38.16062908867994L44.1,49.86031764745712L44.4,30.691805496811867L44.7,55.05444831152758L45,69.70226480563483L45.3,96.6559110979239L45.6,108.72963873296976L45.900000000000006,106.45290676752725L46.199999999999996,135.12072061747313L46.5,141.48567470970252L46.800000000000004,96.58920859545469L47.1,114.44201098382473L47.4,19.808339839180316L47.7,140.21526446193457L48,91.27531624337036L48.3,85.4136079698801L48.6,123.87214012692371L48.9,117.78334992254773L49.2,121.18850134561458L49.5,-67.47240683436398L49.8,83.23635783294839L50.1,61.02184394001961L50.400000000000006,94.27766379217306L50.699999999999996,68.96356954177222L51,61.09484038253626L51.3,18.822650253772736L51.6,75.94996456305188L51.9,-11.55780601998173L52.199999999999996,-20.1168682277203L52.5,82.12286645174026L52.800000000000004,72.609739082555L53.099999999999994,70.82897401352724L53.4,-29.43112587928776L53.7,-6.796603386600799L54,28.989700863758717L54.3,73.65794257819653L54.6,-20.76379022002224L54.9,-13.735531379779207L55.2,60.25078931450844L55.5,66.65597571929297L55.8,81.96602080265683L56.1,92.26003327965736L56.400000000000006,-14.478890458742791L56.699999999999996,147.26136073718467L57,-83.49389370282493L57.300000000000004,91.07019679248333L57.6,-99.78437881668411L57.9,98.60071094334126L58.2,116.20732025802135L58.5,-195.11662757396698L58.8,45.41114855806032L59.1,113.20733224600554L59.4,-97.01621667544049L59.7,87.75672746449709L60,101.62374726434547L60.3,136.20050985614458L60.6,60.09440783659616L60.900000000000006,91.42115993052721L61.199999999999996,99.92451607187587L61.5,-40.589380870262794L61.800000000000004,3.6572386970122723L62.1,74.29445387423038L62.4,88.906186585625L62.699999999999996,118.9043094863494L63,69.66864555080733L63.300000000000004,147.76147201905647L63.599999999999994,126.64623150229454L63.9,40.26514802376428L64.2,136.12026902784902L64.5,0.08803868293762207L64.8,-178.97741805513704L65.1,24.791526809334755L65.4,71.52915412187576L65.7,98.05209377408028L66,82.32829535007477L66.3,102.3160143593947L66.60000000000001,121.86451416090131L66.9,67.77659544348717L67.2,38.62510970731577L67.5,99.30790335188308L67.8,80.19623006631932L68.10000000000001,76.485993852218L68.4,10.360920319954548L68.69999999999999,61.236335227886826L69,87.37633366386095L69.3,87.28710228204727L69.6,132.92243357996145L69.9,60.97923965752125L70.2,128.00084322939315L70.5,140.2989920998613L70.80000000000001,122.27389655634761L71.1,52.32302200297514L71.39999999999999,45.54624447226524L71.7,-56.15631154179577L72,139.18596212690073L72.3,60.37131909529367L72.60000000000001,34.896290068825095L72.9,134.03070579841733L73.2,77.85217117766541L73.5,35.19566942254701L73.8,73.5612015699347L74.1,100.46241309742132L74.4,46.697400028506905L74.7,33.549442157149315L75,12.528798619906102L75.30000000000001,108.78367046763498L75.60000000000001,73.87585989137492L75.89999999999999,66.08942164977393L76.2,109.20620437959829L76.5,-9.400537346800196L76.8,73.69250122706097L77.10000000000001,96.70160985489684L77.4,8.2752555757761L77.7,82.31429285307726L77.99999999999999,99.45832244058448L78.3,117.93910421679416L78.6,97.13394661992788L78.89999999999999,103.6261651193102L79.2,69.7730177541574L79.5,64.83306501309076L79.80000000000001,110.18769432107607L80.10000000000001,70.32524882753691L80.39999999999999,127.78689900040627L80.69999999999999,119.10346654802561L81,4.283051952719688L81.3,92.01938263078529L81.6,125.56911401078105L81.9,125.43091809625426L82.2,131.99195549761254L82.5,91.570705935359L82.8,51.14201581974825L83.1,127.23641409476596L83.39999999999999,48.21455455323061L83.7,120.3030230005582L84,101.39463458458582L84.3,75.54946220417818L84.60000000000001,114.33078120400506L84.9,64.6198557217916L85.19999999999999,145.4697677704195L85.5,115.80808331817389L85.8,132.92151076346636L86.1,129.73101364076138L86.4,24.053527802228928L86.7,29.754754419128094L87,51.008853952089936L87.3,62.64402271807194L87.6,70.83799772212905L87.89999999999999,116.92180125912029L88.2,87.51254579921562L88.5,30.21787567933401L88.8,-11.591933652758637L89.10000000000001,83.66119602322578L89.4,51.455452928940446L89.69999999999999,50.00950447221598L90,50.69680935641131L90.3,134.17790884400407L90.6,38.83057176073393L90.9,96.48642783612013L91.2,122.0721147172153L91.5,22.327982525030766L91.80000000000001,132.26318342238665L92.1,152.69350207659105L92.39999999999999,-2.5991145372390747L92.7,60.04705132544041L93,137.92126974960166L93.3,-123.18990067640942L93.60000000000001,4.519027734796199L93.9,63.750827824076026L94.2,76.98941511660814L94.5,96.40575599173704L94.8,57.61190989613533L95.1,120.13924517606694L95.4,88.71067105730373L95.7,23.441606526573505L96,108.8484168201685L96.30000000000001,140.31626175406078L96.6,-5.985696350534743L96.89999999999999,117.69427326445776L97.2,43.27220359444618L97.5,120.850595784684L97.8,-20.30539908508461L98.10000000000001,115.92341880251962L98.4,49.69871976971626L98.7,3.3996789554754825L99,63.070386042197555L99.3,126.98828144868213L99.6,8.427249530951176L99.9,32.708242426315934L100.2,77.00194221238297L100.5,69.43751041094464L100.80000000000001,119.60488469277817L101.10000000000001,133.5424502218763L101.39999999999999,11.747366453210507L101.69999999999999,-37.69204652309422L102,85.1666689068079L102.3,68.8418572296699L102.6,77.8932890072465L102.9,-55.84295179446541L103.2,48.2788422604402L103.5,132.8539213625093L103.8,86.75235498944917L104.1,18.219658747315407L104.39999999999999,89.3443918004632L104.7,28.874851653973256L105,86.7720767383774L105.3,131.63337497909862L105.60000000000001,31.444525361061096L105.9,54.2093473325173L106.19999999999999,65.5361738204956L106.5,106.67085170994201L106.8,135.52091352889934L107.1,113.82979131241638L107.4,70.01122597853345L107.7,-141.5213243265947L108,105.87123950570822L108.3,99.74332906554142L108.6,94.73326990008354L108.89999999999999,106.03742383668819L109.2,70.11760959029198L109.5,-38.197197377681775L109.8,62.36816137035689L110.10000000000001,131.07995584855476L110.4,127.69844952598214L110.69999999999999,94.22028891990581L111,-13.591284662485162L111.3,106.71638469149667L111.6,72.67901110400757L111.9,48.35591677824655L112.2,109.49903007845083L112.5,-45.757263759771995L112.80000000000001,127.30975313981372L113.1,124.79242578397194L113.39999999999999,102.7575406084458L113.7,-66.12566943963371L114,97.89433636019626L114.3,-21.277053018411028L114.60000000000001,95.55527836332718L114.9,77.292436003685L115.2,31.494423761963844L115.5,93.6582273642222L115.8,138.21147619684535L116.1,111.4741668254137L116.4,139.07693992306787L116.7,16.19582823415598L117,107.90545308589935L117.30000000000001,141.94356022961438L117.6,78.24110241234303L117.89999999999999,99.57501728336015L118.2,111.50597360233465L118.5,96.29190143446127L118.8,33.49101184805235L119.10000000000001,-9.667977303266564L119.4,71.78387910375994L119.7,68.29117339352769L120,60.43982854982218L120.3,138.22922521829605L120.6,99.43890461325645L120.9,102.42751490573087L121.2,142.52235543231168L121.5,-8.889650662740099L121.80000000000001,93.72144305706024L122.10000000000001,42.762466286619514L122.39999999999999,-28.66462455193203L122.69999999999999,103.10486773898202L123,21.861910462379456L123.3,81.94941010574502L123.60000000000001,143.9850886501372L123.9,110.43583249300718L124.2,139.14520347739258L124.50000000000001,55.26968006292978L124.8,125.8196476375063L125.1,72.86034178237122L125.39999999999999,40.60082114239535L125.7,96.40239075074592L126,140.59144342256087L126.3,121.90475614368916L126.60000000000001,59.02632786830267L126.89999999999999,109.98364688456059L127.19999999999999,150.57648091204464L127.5,70.9858693952362L127.8,89.70537329961854L128.1,88.16014747073251L128.4,-17.92958315213524L128.70000000000002,90.7448128014803L129,75.16984754800797L129.29999999999998,90.28686373432475L129.6,113.94198811550933L129.9,73.2187537625432L130.2,108.55924370636541L130.5,56.599419951438904L130.8,120.45873585095006L131.1,100.6035819177826L131.4,-51.24630889296536L131.7,147.61617400931814L132,75.01414574931067L132.3,67.08409626285237L132.6,58.90438347061476L132.9,136.83186277374625L133.20000000000002,95.56173807879287L133.5,12.525018940369282L133.8,91.87258297204971L134.1,124.34558919568855L134.4,81.44385033845901L134.7,87.1856145709753L135,104.80285561581451L135.29999999999998,40.23517582813898L135.6,6.801390538612995L135.89999999999998,84.27752692500752L136.20000000000002,-47.990789125363044L136.5,103.96493271241584L136.8,119.82105307529369L137.1,71.2824416185419L137.39999999999998,96.17779821405807L137.7,98.28796456505853L138,36.09410587946573L138.3,77.88171235720318L138.6,13.698090006907787L138.9,13.436010122299194L139.2,99.21844541033107L139.5,-47.807441512743644L139.8,125.25780711571375L140.1,115.76134017606574L140.4,34.7999082406362L140.7,106.40837949017683L141,99.50360123316446L141.29999999999998,-7.611776376763993L141.60000000000002,50.33600468436876L141.9,35.893141865730286L142.2,47.45938121279082L142.5,100.61582166949907L142.79999999999998,94.44028395165998L143.1,105.93332239985466L143.4,131.67392917225757L143.70000000000002,140.76626603429514L144,-113.91558384895329L144.3,142.44508750985065L144.6,54.86714419225851L144.89999999999998,60.31303245822588L145.20000000000002,38.876922567685455L145.5,102.38838638116914L145.8,122.398302718997L146.1,124.68122363338867L146.4,95.85327072938281L146.7,147.71239558793604L147,74.47897296647233L147.3,72.94393679996332L147.6,76.84826839963597L147.9,45.54224375883737L148.2,150.5026569738984L148.5,-7.631835202376061L148.8,123.34182456384102L149.1,113.49408503870168L149.4,85.84702227512994L149.7,86.63032217820484L150,120.40869101509452L150.29999999999998,121.57565602039296L150.60000000000002,100.44922842582065L150.9,-19.70746925473217L151.20000000000002,127.89576924343902L151.5,13.067856073379517L151.79999999999998,141.2046853757153L152.1,30.829874316851292L152.4,-17.24095206459366L152.70000000000002,121.93099562947947L153,24.06645828485489L153.3,-166.08108516534173L153.6,19.144519805908203L153.89999999999998,53.202935819824546L154.20000000000002,88.15359381586313L154.5,-105.27315870920819L154.8,-33.16595763961475L155.1,48.96233431001505L155.4,134.4272765169541L155.7,63.846745481093734L155.99999999999997,88.51834394286075L156.3,97.60587608069181L156.6,115.90804589539766L156.9,108.13845596214134L157.2,51.768459022045135L157.5,-2.3731957972049713L157.79999999999998,130.07866403336325L158.10000000000002,111.92204779883224L158.4,81.17213890204829L158.7,129.07702685271698L159,87.51703278720379L159.29999999999998,124.93814790248871L159.60000000000002,104.99097756048042L159.9,61.53435522317886L160.20000000000002,95.87618641803661L160.5,99.53046237677336L160.79999999999998,136.42875774080554L161.1,126.4326409275333L161.39999999999998,32.15697285036245L161.70000000000002,159.85544290486723L162,122.00126506636539L162.3,110.70950007935363L162.6,91.5655834749341L162.9,82.51972727725905L163.2,106.56341818720102L163.5,122.3311526228984L163.8,109.51933204134303L164.1,137.10177002102137L164.4,91.13722531994182L164.7,59.84213080505529L165,33.69826427598795L165.3,77.21290800968808L165.6,134.7755540932218L165.9,137.99106672654548L166.2,-49.07825376590095L166.5,102.88189980139333L166.79999999999998,102.75883365670839L167.10000000000002,135.0018071470161L167.4,-124.17929257949196L167.7,124.66201026240984L168,39.420179665088654L168.29999999999998,45.14789719382921L168.6,57.01559361318746L168.9,74.47181146840256L169.20000000000002,127.4418015492459L169.5,-4.920456667741126L169.8,83.47862755507231L170.1,13.821283246080075L170.39999999999998,2.5645023981730075L170.70000000000002,139.49173488592106L171,73.51165129741034L171.3,80.2228370209535L171.6,3.616800546646118L171.9,71.79328962167105L172.2,16.708505292733516L172.5,84.57378970086575L172.8,127.82194944967824L173.1,142.8380028804143L173.4,65.51922052105269L173.7,57.511063183347375L174,94.77953229347864L174.3,100.41888599842787L174.6,101.22064775725204L174.9,136.6521594574054L175.2,148.21861707543331L175.5,95.92144310722747L175.79999999999998,91.96584822237492L176.10000000000002,13.829107845822964L176.4,36.18132585287094L176.70000000000002,70.4252335081498L177,70.12249443928403L177.29999999999998,100.08774407456318L177.6,85.40764558066923L177.89999999999998,69.23925406237444L178.20000000000002,-8.144247020284348L178.5,62.00405224164328L178.8,32.558956136306136L179.1,135.1322364831964L179.39999999999998,77.86843927204609L179.70000000000002,111.82782657692829L180,146.87409278253713L180.3,57.32705246905485L180.6,112.30703357855478L180.9,138.44794654225308L181.2,11.54782810807228L181.50000000000003,114.37434698392946L181.8,8.747991810242329L182.1,132.174012824893L182.4,125.06568445761997L182.7,70.66035278389853L183,-7.348303978641814L183.29999999999998,91.92192878822485L183.60000000000002,92.59230800221363L183.9,126.15983537336189L184.2,118.05638756230474L184.5,25.326329360405598L184.79999999999998,145.5861006701986L185.1,134.50597010801235L185.4,114.60279103616872L185.70000000000002,122.3802553017934L186,144.5468379954497L186.29999999999998,71.43610990544161L186.6,68.06246962646645L186.89999999999998,123.5317672751844L187.20000000000002,89.48806935548782L187.5,107.56836535036564L187.8,70.58747238417467L188.1,121.09608154992262L188.4,151.0748114896317L188.7,107.22847601026297L189,-120.98292148113255L189.3,35.53349762161574L189.6,97.9777877057592L189.9,97.43853684763113L190.2,104.36019104222456L190.5,64.37908350427946L190.8,38.091998065511376L191.1,135.3369387326141L191.4,93.14394780993462L191.7,43.95904430747032L192,111.07297926147777L192.29999999999998,31.80515320599079L192.60000000000002,112.53078618645668L192.9,89.5712996671597L193.2,93.82653362055618L193.5,25.506040965517368L193.79999999999998,15.954116622606907L194.1,88.15855050086975L194.4,114.34120847781497L194.70000000000002,32.4116812547048L195,76.4367088203629L195.3,74.2863971889019L195.6,79.08198164403439L195.89999999999998,92.37000869214535L196.20000000000002,131.08604533225298L196.5,134.29451803614694L196.8,64.96460228164992L197.1,69.20660735666752L197.4,31.08775455753008L197.7,87.62294117609659L198,102.6936010296146L198.3,28.290659079949055L198.6,59.2975364526113L198.9,95.36198975145817L199.2,138.49269209057093L199.5,107.67569940785566L199.8,81.85059690475464L200.10000000000002,133.59586029872298L200.4,93.0673208857576L200.7,97.91480962435404L201,102.99613564213115L201.29999999999998,80.28657214343548L201.60000000000002,132.894179922839L201.9,10.215612639983501L202.20000000000002,137.42519786208868L202.5,49.38025413950285L202.79999999999998,86.50635532041389L203.1,78.76048232366642L203.39999999999998,100.56598957876363L203.70000000000002,115.49176724255085L204,13.478514939546585L204.3,72.79944141954184L204.6,114.93752476076284L204.89999999999998,56.885691995422036L205.2,80.98810608436665L205.5,38.038098951180785L205.8,32.49229231476784L206.1,137.39158965895572L206.4,129.75593244905272L206.7,85.6865074634552L207,112.93032704790431L207.3,104.77593368788558L207.6,117.844098324577L207.9,78.4301140184204L208.2,79.85194767763218L208.5,61.46691778302193L208.79999999999998,14.133482565482463L209.10000000000002,80.85459056248268L209.4,77.81997759143513L209.7,62.767149647076934L210,108.7058168053627L210.29999999999998,83.874725813667L210.6,21.158160656690598L210.9,40.94036235411963L211.20000000000002,101.33547486364841L211.5,101.96515621244907L211.8,128.80415775130191L212.1,76.37089597930512L212.39999999999998,90.37078477690616L212.70000000000002,-73.8850199778875L213,91.46217276901007L213.3,102.73099996397892L213.6,135.58285827686387L213.9,124.91409665221968L214.2,93.79137265433866L214.5,134.47441475714245L214.8,54.69386467337608L215.1,87.25619069238502L215.4,53.099856664737075L215.7,112.56718494246402L216,118.96117598066726L216.3,79.74971397717795L216.6,101.31118323902288L216.9,136.9596231256922L217.2,127.7682299253841L217.5,129.3314644905428L217.79999999999998,107.71853577593961L218.10000000000002,96.04290675620237L218.4,123.8318428856631L218.70000000000002,120.942916115125L219,134.0967507250607L219.29999999999998,-54.19105500976246L219.6,102.88959730664888L219.9,65.3937395811081L220.20000000000002,74.28385529915494L220.5,123.37460388988256L220.8,100.05950146913528L221.1,138.62655297790963L221.39999999999998,15.219886243343353L221.70000000000002,135.904890841494L222,49.02463271220526L222.3,61.3590974509716L222.6,114.84224257618189L222.9,125.34059259667993L223.2,92.5211074600617L223.49999999999997,55.0672240704298L223.8,122.22916758557159L224.1,125.0851520175735L224.4,112.15513356278339L224.7,-45.6779567996661L225,115.43378452708322L225.29999999999998,106.32262939214706L225.60000000000002,136.23337759574252L225.9,146.81110917528468L226.2,0.34882551928361916L226.5,92.39694167176881L226.79999999999998,96.04859285304943L227.10000000000002,100.6061680143078L227.4,154.66140618020046L227.70000000000002,113.8478774105509L228,124.53796604275703L228.29999999999998,71.71491100390753L228.6,99.08996946116287L228.89999999999998,137.9189406049748L229.20000000000002,108.37197274218002L229.5,81.99457838137945L229.8,121.96640525882441L230.1,108.44573727746803L230.4,68.7143980364005L230.7,124.99097776537138L231,133.6951653001209L231.3,67.03484991192818L231.6,86.22013853490353L231.9,126.80738178640604L232.2,78.60889175534248L232.5,80.0171097268661L232.8,57.58726461728415L233.1,93.84830545882383L233.4,133.97893137236434L233.7,67.83115765949091L234,107.97728910048801L234.29999999999998,138.23567940791446L234.60000000000002,145.3406812151273L234.9,117.26137562592822L235.2,36.47106812894344L235.5,-6.0033016999562445L235.79999999999998,60.15927023192248L236.1,141.5084964589526L236.4,4.6704359501600266L236.70000000000002,66.37348335484663L237,12.671862805883084L237.3,127.11874393994609L237.6,133.9509319042166L237.89999999999998,120.32124171902734L238.20000000000002,104.75819571812946L238.5,116.03133307397366L238.8,100.78557569781938L239.1,-5.202385395765305L239.4,143.1942929352323L239.7,92.43158320834237L240,112.00331090887386L240.3,104.11168263852596L240.6,137.97252198308706L240.9,106.11233774820963L241.2,-34.88546869158749L241.5,141.720948709175L241.8,76.82909370958805L242.1,112.08175583680469L242.4,105.77214448650676L242.7,104.46287233630815L243,65.75605833530426L243.29999999999998,142.9545692472408L243.60000000000002,131.67704022427398L243.9,136.59817192951837L244.20000000000002,96.24215223143497L244.5,105.39123125622669L244.79999999999998,101.79456225534278L245.1,114.88553758958975L245.39999999999998,135.5811231608192L245.70000000000002,143.20701896150905L246,136.25607777635256L246.3,128.7068365290761L246.6,75.58027985443672L246.89999999999998,108.01108518242836L247.20000000000002,49.37168907622495L247.5,60.80508705476919L247.8,80.6078559557597L248.1,139.38470198710758L248.4,132.27864750598866L248.7,17.998492235938702L249.00000000000003,-1.820666328072548L249.3,73.21178566912812L249.6,122.00850392629701L249.9,134.35755137602487L250.2,111.69570909440517L250.5,134.2849168765048L250.79999999999998,105.35197011133033L251.10000000000002,97.67130211244026L251.4,-30.38908676306408L251.7,123.90758567427594L252,120.49957738816738L252.29999999999998,143.50704207643867L252.6,132.2408811027805L252.9,36.375150471925735L253.20000000000002,104.56356985121965L253.5,122.33617561807233L253.79999999999998,107.48180847863355L254.1,135.81473940610886L254.39999999999998,138.4859422681232L254.70000000000002,73.79010979334515L255,55.78654571374258L255.3,120.40738691513735L255.6,31.272903596361484" style="fill: none;" fill="none"></path></g></g></g></g></g></g><g transform="translate(60, 178)" clip-path="url(#clip_1)"><clipPath id="clip_1"><rect width="270" height="21"></rect></clipPath><g><g><line x1="0" y1="0" x2="0" y2="5" style="visibility: inherit;" fill="rgb(0, 0, 0)" stroke="rgb(204, 204, 204)" stroke-width="1px"></line><line x1="30" y1="0" x2="30" y2="5" style="visibility: inherit;" fill="rgb(0, 0, 0)" stroke="rgb(204, 204, 204)" stroke-width="1px"></line><line x1="60" y1="0" x2="60" y2="5" style="visibility: inherit;" fill="rgb(0, 0, 0)" stroke="rgb(204, 204, 204)" stroke-width="1px"></line><line x1="90" y1="0" x2="90" y2="5" style="visibility: inherit;" fill="rgb(0, 0, 0)" stroke="rgb(204, 204, 204)" stroke-width="1px"></line><line x1="120" y1="0" x2="120" y2="5" style="visibility: inherit;" fill="rgb(0, 0, 0)" stroke="rgb(204, 204, 204)" stroke-width="1px"></line><line x1="150" y1="0" x2="150" y2="5" style="visibility: inherit;" fill="rgb(0, 0, 0)" stroke="rgb(204, 204, 204)" stroke-width="1px"></line><line x1="180" y1="0" x2="180" y2="5" style="visibility: inherit;" fill="rgb(0, 0, 0)" stroke="rgb(204, 204, 204)" stroke-width="1px"></line><line x1="210" y1="0" x2="210" y2="5" style="visibility: inherit;" fill="rgb(0, 0, 0)" stroke="rgb(204, 204, 204)" stroke-width="1px"></line><line x1="240" y1="0" x2="240" y2="5" style="visibility: inherit;" fill="rgb(0, 0, 0)" stroke="rgb(204, 204, 204)" stroke-width="1px"></line><line x1="270" y1="0" x2="270" y2="5" style="visibility: inherit;" fill="rgb(0, 0, 0)" stroke="rgb(204, 204, 204)" stroke-width="1px"></line></g><g transform="translate(0, 8)"><text x="0" y="0" dx="0em" dy="0.95em" style="text-anchor: middle; visibility: hidden; font-family: Roboto, sans-serif; font-size: 12px; font-weight: 200;" fill="rgb(50, 49, 63)" stroke="none" stroke-width="1px">-100</text><text x="30" y="0" dx="0em" dy="0.95em" style="text-anchor: middle; visibility: inherit; font-family: Roboto, sans-serif; font-size: 12px; font-weight: 200;" fill="rgb(50, 49, 63)" stroke="none" stroke-width="1px">0</text><text x="60" y="0" dx="0em" dy="0.95em" style="text-anchor: middle; visibility: inherit; font-family: Roboto, sans-serif; font-size: 12px; font-weight: 200;" fill="rgb(50, 49, 63)" stroke="none" stroke-width="1px">100</text><text x="90" y="0" dx="0em" dy="0.95em" style="text-anchor: middle; visibility: inherit; font-family: Roboto, sans-serif; font-size: 12px; font-weight: 200;" fill="rgb(50, 49, 63)" stroke="none" stroke-width="1px">200</text><text x="120" y="0" dx="0em" dy="0.95em" style="text-anchor: middle; visibility: inherit; font-family: Roboto, sans-serif; font-size: 12px; font-weight: 200;" fill="rgb(50, 49, 63)" stroke="none" stroke-width="1px">300</text><text x="150" y="0" dx="0em" dy="0.95em" style="text-anchor: middle; visibility: inherit; font-family: Roboto, sans-serif; font-size: 12px; font-weight: 200;" fill="rgb(50, 49, 63)" stroke="none" stroke-width="1px">400</text><text x="180" y="0" dx="0em" dy="0.95em" style="text-anchor: middle; visibility: inherit; font-family: Roboto, sans-serif; font-size: 12px; font-weight: 200;" fill="rgb(50, 49, 63)" stroke="none" stroke-width="1px">500</text><text x="210" y="0" dx="0em" dy="0.95em" style="text-anchor: middle; visibility: inherit; font-family: Roboto, sans-serif; font-size: 12px; font-weight: 200;" fill="rgb(50, 49, 63)" stroke="none" stroke-width="1px">600</text><text x="240" y="0" dx="0em" dy="0.95em" style="text-anchor: middle; visibility: inherit; font-family: Roboto, sans-serif; font-size: 12px; font-weight: 200;" fill="rgb(50, 49, 63)" stroke="none" stroke-width="1px">700</text><text x="270" y="0" dx="0em" dy="0.95em" style="text-anchor: middle; visibility: hidden; font-family: Roboto, sans-serif; font-size: 12px; font-weight: 200;" fill="rgb(50, 49, 63)" stroke="none" stroke-width="1px">800</text></g><line x1="0" y1="0" x2="270" y2="0" fill="rgb(0, 0, 0)" stroke="rgb(204, 204, 204)" stroke-width="1px"></line></g></g></g></g></svg>