<svg viewBox="0 0 330 200" xmlns="http://www.w3.org/2000/svg"><g><g><g><g><g><line x1="60" y1="178" x2="55" y2="178" style="visibility: inherit;" fill="rgb(0, 0, 0)" stroke="rgb(204, 204, 204)" stroke-width="1px"></line><line x1="60" y1="155.75" x2="55" y2="155.75" style="visibility: inherit;" fill="rgb(0, 0, 0)" stroke="rgb(204, 204, 204)" stroke-width="1px"></line><line x1="60" y1="133.5" x2="55" y2="133.5" style="visibility: inherit;" fill="rgb(0, 0, 0)" stroke="rgb(204, 204, 204)" stroke-width="1px"></line><line x1="60" y1="111.24999999999999" x2="55" y2="111.24999999999999" style="visibility: inherit;" fill="rgb(0, 0, 0)" stroke="rgb(204, 204, 204)" stroke-width="1px"></line><line x1="60" y1="88.99999999999999" x2="55" y2="88.99999999999999" style="visibility: inherit;" fill="rgb(0, 0, 0)" stroke="rgb(204, 204, 204)" stroke-width="1px"></line><line x1="60" y1="66.75" x2="55" y2="66.75" style="visibility: inherit;" fill="rgb(0, 0, 0)" stroke="rgb(204, 204, 204)" stroke-width="1px"></line><line x1="60" y1="44.5" x2="55" y2="44.5" style="visibility: inherit;" fill="rgb(0, 0, 0)" stroke="rgb(204, 204, 204)" stroke-width="1px"></line><line x1="60" y1="22.25" x2="55" y2="22.25" style="visibility: inherit;" fill="rgb(0, 0, 0)" stroke="rgb(204, 204, 204)" stroke-width="1px"></line><line x1="60" y1="0" x2="55" y2="0" style="visibility: inherit;" fill="rgb(0, 0, 0)" stroke="rgb(204, 204, 204)" stroke-width="1px"></line></g><g transform="translate(50, 0)"><text x="0" y="178" dx="0em" dy="0.3em" style="text-anchor: end; visibility: hidden; font-family: Roboto, sans-serif; font-size: 12px; font-weight: 200;" fill="rgb(50, 49, 63)" stroke="none" stroke-width="1px">-0.05</text><text x="0" y="155.75" dx="0em" dy="0.3em" style="text-anchor: end; visibility: inherit; font-family: Roboto, sans-serif; font-size: 12px; font-weight: 200;" fill="rgb(50, 49, 63)" stroke="none" stroke-width="1px">0</text><text x="0" y="133.5" dx="0em" dy="0.3em" style="text-anchor: end; visibility: hidden; font-family: Roboto, sans-serif; font-size: 12px; font-weight: 200;" fill="rgb(50, 49, 63)" stroke="none" stroke-width="1px">0.05</text><text x="0" y="111.24999999999999" dx="0em" dy="0.3em" style="text-anchor: end; visibility: inherit; font-family: Roboto, sans-serif; font-size: 12px; font-weight: 200;" fill="rgb(50, 49, 63)" stroke="none" stroke-width="1px">0.1</text><text x="0" y="88.99999999999999" dx="0em" dy="0.3em" style="text-anchor: end; visibility: hidden; font-family: Roboto, sans-serif; font-size: 12px; font-weight: 200;" fill="rgb(50, 49, 63)" stroke="none" stroke-width="1px">0.15</text><text x="0" y="66.75" dx="0em" dy="0.3em" style="text-anchor: end; visibility: inherit; font-family: Roboto, sans-serif; font-size: 12px; font-weight: 200;" fill="rgb(50, 49, 63)" stroke="none" stroke-width="1px">0.2</text><text x="0" y="44.5" dx="0em" dy="0.3em" style="text-anchor: end; visibility: hidden; font-family: Roboto, sans-serif; font-size: 12px; font-weight: 200;" fill="rgb(50, 49, 63)" stroke="none" stroke-width="1px">0.25</text><text x="0" y="22.25" dx="0em" dy="0.3em" style="text-anchor: end; visibility: inherit; font-family: Roboto, sans-serif; font-size: 12px; font-weight: 200;" fill="rgb(50, 49, 63)" stroke="none" stroke-width="1px">0.3</text><text x="0" y="0" dx="0em" dy="0.3em" style="text-anchor: end; visibility: hidden; font-family: Roboto, sans-serif; font-size: 12px; font-weight: 200;" fill="rgb(50, 49, 63)" stroke="none" stroke-width="1px">0.35</text></g><line x1="60" y1="0" x2="60" y2="178" fill="rgb(0, 0, 0)" stroke="rgb(204, 204, 204)" stroke-width="1px"></line></g></g><g transform="translate(60, 0)" clip-path="url(#clip_0)"><clipPath id="clip_0"><rect width="270" height="177"></rect></clipPath><g><g><g><line x1="0" y1="0" x2="0" y2="178" fill="rgb(0, 0, 0)" stroke="rgb(60, 60, 60)" stroke-width="1px" opacity="0.25"></line><line x1="30" y1="0" x2="30" y2="178" fill="rgb(0, 0, 0)" stroke="rgb(60, 60, 60)" stroke-width="1px" opacity="0.25"></line><line x1="60" y1="0" x2="60" y2="178" fill="rgb(0, 0, 0)" stroke="rgb(60, 60, 60)" stroke-width="1px" opacity="0.25"></line><line x1="90" y1="0" x2="90" y2="178" fill="rgb(0, 0, 0)" stroke="rgb(60, 60, 60)" stroke-width="1px" opacity="0.25"></line><line x1="120" y1="0" x2="120" y2="178" fill="rgb(0, 0, 0)" stroke="rgb(60, 60, 60)" stroke-width="1px" opacity="0.25"></line><line x1="150" y1="0" x2="150" y2="178" fill="rgb(0, 0, 0)" stroke="rgb(60, 60, 60)" stroke-width="1px" opacity="0.25"></line><line x1="180" y1="0" x2="180" y2="178" fill="rgb(0, 0, 0)" stroke="rgb(60, 60, 60)" stroke-width="1px" opacity="0.25"></line><line x1="210" y1="0" x2="210" y2="178" fill="rgb(0, 0, 0)" stroke="rgb(60, 60, 60)" stroke-width="1px" opacity="0.25"></line><line x1="240" y1="0" x2="240" y2="178" fill="rgb(0, 0, 0)" stroke="rgb(60, 60, 60)" stroke-width="1px" opacity="0.25"></line><line x1="270" y1="0" x2="270" y2="178" fill="rgb(0, 0, 0)" stroke="rgb(60, 60, 60)" stroke-width="1px" opacity="0.25"></line></g><g><line x1="0" y1="178" x2="270" y2="178" fill="rgb(0, 0, 0)" stroke="rgb(60, 60, 60)" stroke-width="1px" opacity="0.25"></line><line x1="0" y1="155.75" x2="270" y2="155.75" fill="rgb(0, 0, 0)" stroke="rgb(60, 60, 60)" stroke-width="1px" opacity="0.25"></line><line x1="0" y1="133.5" x2="270" y2="133.5" fill="rgb(0, 0, 0)" stroke="rgb(60, 60, 60)" stroke-width="1px" opacity="0.25"></line><line x1="0" y1="111.24999999999999" x2="270" y2="111.24999999999999" fill="rgb(0, 0, 0)" stroke="rgb(60, 60, 60)" stroke-width="1px" opacity="0.25"></line><line x1="0" y1="88.99999999999999" x2="270" y2="88.99999999999999" fill="rgb(0, 0, 0)" stroke="rgb(60, 60, 60)" stroke-width="1px" opacity="0.25"></line><line x1="0" y1="66.75" x2="270" y2="66.75" fill="rgb(0, 0, 0)" stroke="rgb(60, 60, 60)" stroke-width="1px" opacity="0.25"></line><line x1="0" y1="44.5" x2="270" y2="44.5" fill="rgb(0, 0, 0)" stroke="rgb(60, 60, 60)" stroke-width="1px" opacity="0.25"></line><line x1="0" y1="22.25" x2="270" y2="22.25" fill="rgb(0, 0, 0)" stroke="rgb(60, 60, 60)" stroke-width="1px" opacity="0.25"></line><line x1="0" y1="0" x2="270" y2="0" fill="rgb(0, 0, 0)" stroke="rgb(60, 60, 60)" stroke-width="1px" opacity="0.25"></line></g></g></g><g><g><line x1="0" y1="155.75" x2="270" y2="155.75" fill="rgb(0, 0, 0)" stroke="rgb(153, 153, 153)" stroke-width="1.5px"></line></g></g><g><g><line x1="30" y1="0" x2="30" y2="178" fill="rgb(0, 0, 0)" stroke="rgb(153, 153, 153)" stroke-width="1.5px"></line></g></g><g><g><g><g><g><path stroke="rgb(255, 112, 67)" stroke-width="2px" d="M39.6,-1.9791462361633072L39.900000000000006,1.7403088955923616L40.199999999999996,12.78741484492807L40.5,20.704450889289433L40.8,18.75197705244289L41.1,23.943133698995137L41.4,33.26726559516618L41.699999999999996,46.11043271182272L42,57.22435197981477L42.300000000000004,57.44110354643925L42.599999999999994,59.30668253870153L42.9,60.45919032218957L43.2,60.28675043177544L43.5,62.497304449171246L43.8,63.81154453740889L44.1,61.47757198797214L44.4,72.87502687819189L44.7,78.09474131259002L45,83.39219372747533L45.3,84.66385000514275L45.6,81.47163591722459L45.900000000000006,86.65808129275274L46.199999999999996,84.19610152223213L46.5,89.18540425645598L46.800000000000004,90.19928789465025L47.1,95.7420918305428L47.4,100.8699810957741L47.7,100.1335617456335L48,100.86289622506489L48.3,108.12373223078855L48.6,102.73788172109484L48.9,109.25049400987366L49.2,111.17825463212812L49.5,108.0819373446541L49.8,101.11634242044906L50.1,108.15315133635416L50.400000000000006,110.99087667050487L50.699999999999996,108.0458746825607L51,112.18094255178876L51.3,116.17729260712687L51.6,118.98187838309897L51.9,125.28347648867305L52.199999999999996,121.58981669359407L52.5,121.46528486259581L52.800000000000004,118.34606439976572L53.099999999999994,119.53551819389271L53.4,114.4266392348123L53.7,120.98197619515135L54,123.35567662654803L54.3,123.61379678570322L54.6,104.45703684403354L54.9,116.57144279547842L55.2,123.66374906461425L55.5,126.43039928115L55.8,128.89027834973686L56.1,129.72460850502225L56.400000000000006,115.88920836106047L56.699999999999996,124.44099436673582L57,102.06087671800292L57.300000000000004,115.61691177537342L57.6,101.71023738771854L57.9,103.33516273135055L58.2,97.76803109785382L58.5,66.29164523923673L58.8,95.21722412135766L59.1,113.04784360692837L59.4,102.25401518443788L59.7,100.4626004141543L60,115.82886352640233L60.3,120.80415599049236L60.6,111.26722929180326L60.900000000000006,95.60981294691958L61.199999999999996,108.88815544057128L61.5,121.6143649817004L61.800000000000004,94.31006731393899L62.1,90.29518103482106L62.4,95.01305120516884L62.699999999999996,80.48737082081477L63,91.97384310482407L63.300000000000004,107.43127138595858L63.599999999999994,100.3051173042123L63.9,114.63224496846584L64.2,63.38860198500865L64.5,68.08299116875595L64.8,77.43132999888579L65.1,90.28533310801696L65.4,98.58265298075025L65.7,91.41220265904988L66,104.17217509317356L66.3,83.48251419882746L66.60000000000001,104.30182119828922L66.9,107.13183034135379L67.2,77.04091535015988L67.5,101.7129805028682L67.8,82.90485567690403L68.10000000000001,56.213322668322746L68.4,66.20624513569406L68.69999999999999,89.88400524343807L69,86.03308185032459L69.3,106.55791330839071L69.6,110.40084152820631L69.9,117.54335224570586L70.2,120.47256510223005L70.5,125.54923365274102L70.80000000000001,131.3870983884277L71.1,110.78793605360639L71.39999999999999,121.84336174692662L71.7,119.65002105931015L72,123.19376945078118L72.3,127.6876117368325L72.60000000000001,91.942274593102L72.9,100.39911964701835L73.2,117.15615843783152L73.5,112.38892872959573L73.8,122.0741947312963L74.1,108.89778671382737L74.4,95.64793655704779L74.7,77.23418126959398L75,60.040779223792526L75.30000000000001,57.13547211334272L75.60000000000001,65.64745229151943L75.89999999999999,65.28600376645981L76.2,91.23823661983167L76.5,66.2800368510494L76.8,55.478418984580586L77.10000000000001,79.51541767929109L77.4,79.78517713793583L77.7,92.11190620451251L77.99999999999999,108.0545251735394L78.3,114.22334298302798L78.6,121.04171018487256L78.89999999999999,111.36077450922753L79.2,124.72189231343046L79.5,130.5612626843272L79.80000000000001,128.8062996549975L80.10000000000001,120.37906361720388L80.39999999999999,109.9448188906993L80.69999999999999,103.46279344356567L81,68.48198735354254L81.3,69.77295867584887L81.6,46.09313952912534L81.9,61.91920760863808L82.2,80.4670775031673L82.5,97.13606961939495L82.8,92.71401415093995L83.1,62.507728682900996L83.39999999999999,79.03699834760756L83.7,97.2139848328634L84,105.77856313329957L84.3,117.79073957587494L84.60000000000001,117.20297759464509L84.9,121.62745869869666L85.19999999999999,126.1698061881344L85.5,106.77516337978129L85.8,111.67495310155917L86.1,95.58531813531144L86.4,114.88833049362314L86.7,107.29053471938022L87,84.69654475125817L87.3,108.17203481851904L87.6,102.11153049980929L87.89999999999999,84.69366754719813L88.2,88.4699712313962L88.5,108.35606906817864L88.8,76.20705337528294L89.10000000000001,91.2661223066086L89.4,113.00100608555879L89.69999999999999,95.71292538576367L90,82.72111446936752L90.3,94.65010389256373L90.6,110.42479820589958L90.9,123.15058437312088L91.2,111.7786603887346L91.5,103.09783461805976L91.80000000000001,93.5807272858429L92.1,114.34252738905L92.39999999999999,113.7505032298091L92.7,105.7091313586904L93,110.34386207379539L93.3,111.28990878294492L93.60000000000001,97.15336595553507L93.9,110.58033677982301L94.2,110.04362208275204L94.5,115.13842574136379L94.8,126.32406976447656L95.1,108.7555401600966L95.4,107.3454624043446L95.7,98.3990532414044L96,103.02915372287778L96.30000000000001,87.1809864093992L96.6,67.74640088380174L96.89999999999999,98.14403162509677L97.2,93.5089901334672L97.5,82.92999035397938L97.8,86.04781782197819L98.10000000000001,92.71597268323819L98.4,103.89821162903736L98.7,109.969534481075L99,104.07743274242078L99.3,60.79797403258319L99.6,58.669875527872044L99.9,85.95217686620559L100.2,91.84642781154635L100.5,101.4171571870823L100.80000000000001,101.6521481657135L101.10000000000001,78.23656986857102L101.39999999999999,62.080639056591046L101.69999999999999,73.94051613344422L102,97.90537846048876L102.3,94.76593476510168L102.6,101.62205204353404L102.9,85.70544199935003L103.2,82.66250064844726L103.5,100.11602177545333L103.8,89.87665499642434L104.1,94.91758145925367L104.39999999999999,110.4408081533728L104.7,81.9618054009806L105,84.29282433255497L105.3,105.03626326152076L105.60000000000001,103.29583990531201L105.9,98.71968490455765L106.19999999999999,81.77793729647529L106.5,98.48980797138529L106.8,114.1821395206852L107.1,104.31170372059364L107.4,107.57342958981047L107.7,110.16245670637042L108,124.32319499117463L108.3,118.46975106038053L108.6,128.09321726359366L108.89999999999999,95.67436965106391L109.2,88.81533798455277L109.5,98.98529736625599L109.8,107.95385224477914L110.10000000000001,106.49499592695514L110.4,102.83575585790798L110.69999999999999,112.38401034062103L111,106.19718245616552L111.3,119.94588693947195L111.6,104.49680804592727L111.9,114.29030243237233L112.2,114.4548848669494L112.5,98.77695221905499L112.80000000000001,95.64358536723013L113.1,111.7809037257597L113.39999999999999,100.20970712240727L113.7,112.5287950747382L114,105.91015413482017L114.3,103.42015038775818L114.60000000000001,103.68110772280345L114.9,101.67993601744442L115.2,117.79399103796521L115.5,90.46892496869589L115.8,90.8281941469051L116.1,103.53731528255565L116.4,122.54358739157452L116.7,104.78362583219966L117,113.66267193019367L117.30000000000001,109.48168311512457L117.6,125.97905619514574L117.89999999999999,120.43554458959456L118.2,118.31831308867667L118.5,117.02548841039021L118.8,127.77114804029273L119.10000000000001,116.1276236083496L119.4,121.79287484028269L119.7,132.7128237988104L120,116.50639726552663L120.3,104.52077315350351L120.6,104.34571992814527L120.9,111.44974636709682L121.2,115.45957619354719L121.5,111.01018708888051L121.80000000000001,111.83248151805016L122.10000000000001,110.48533990958937L122.39999999999999,88.90201719391112L122.69999999999999,115.43779969228589L123,128.84316474691502L123.3,128.475731959912L123.60000000000001,138.7404249686027L123.9,109.14926715958265L124.2,94.89333031337348L124.50000000000001,114.98616663447552L124.8,116.18046294648367L125.1,110.49614017605137L125.39999999999999,111.68996140896886L125.7,107.74179407083754L126,95.57952914311747L126.3,87.83544389411367L126.60000000000001,101.92821685078475L126.89999999999999,97.39126802446086L127.19999999999999,114.09502694881941L127.5,128.71549056695093L127.8,100.19205543235653L128.1,111.83554486683437L128.4,109.20943006426945L128.70000000000002,116.01785561472688L129,108.5775527002246L129.29999999999998,116.08370357405133L129.6,101.95971430332055L129.9,115.9764762311613L130.2,102.05556734737368L130.5,89.45716608963374L130.8,111.13925633893588L131.1,90.93167913595546L131.4,116.79114942255582L131.7,121.37888772042373L132,129.75636524037586L132.3,123.7720289085869L132.6,122.42896381345773L132.9,124.47304556564917L133.20000000000002,130.1297047453906L133.5,121.49960732566034L133.8,120.94913652006812L134.1,117.21258561887758L134.4,125.38311917530548L134.7,115.87822395233542L135,116.43375048439638L135.29999999999998,118.27482698798738L135.6,98.29166201615668L135.89999999999998,98.66390917220316L136.20000000000002,104.66358123134732L136.5,102.06262258238291L136.8,99.17608011094745L137.1,98.1908495505334L137.39999999999998,96.45723742721563L137.7,96.59963506745153L138,118.88519108224273L138.3,123.40411412226177L138.6,101.57048830692182L138.9,95.62443189206247L139.2,102.39599471022204L139.5,114.580014848587L139.8,114.11364543967075L140.1,123.45539989490882L140.4,125.61512746166929L140.7,129.57164752931442L141,124.72578812510397L141.29999999999998,124.95435084027426L141.60000000000002,118.45149599386677L141.9,120.72050779088394L142.2,126.41331290169987L142.5,124.19379681625624L142.79999999999998,127.05031425224935L143.1,120.87910368124959L143.4,91.27162350464056L143.70000000000002,99.46821839361303L144,100.43233744054386L144.3,99.22654682248441L144.6,111.32301271319155L144.89999999999998,118.95583115285494L145.20000000000002,121.56771296421205L145.5,122.19712610339832L145.8,112.29792611775224L146.1,116.13260833905592L146.4,111.59488327197107L146.7,124.90682284842057L147,115.56312910503222L147.3,123.56789694598957L147.6,105.22248431665683L147.9,120.7046111792206L148.2,125.5878687751221L148.5,112.17672632050082L148.8,109.84395083136299L149.1,113.23797219602429L149.4,123.07201177095273L149.7,124.96943991312325L150,122.84761286633574L150.29999999999998,125.68466350351193L150.60000000000002,102.9434914762641L150.9,110.68040622322945L151.20000000000002,111.60330531626457L151.5,126.15777814018435L151.79999999999998,125.7668452508909L152.1,116.47446652338876L152.4,107.72977136424764L152.70000000000002,90.89306429536097L153,98.68084815747112L153.3,92.46279892686944L153.6,85.98642078258956L153.89999999999998,103.53023235630015L154.20000000000002,89.64397631663692L154.5,89.64706060635216L154.8,113.62727060562173L155.1,94.66981892374635L155.4,105.69999913923432L155.7,116.86850457520777L155.99999999999997,109.6033922262877L156.3,109.95960765945252L156.6,115.73871080200277L156.9,126.02262712788821L157.2,124.57982173724318L157.5,117.893446604391L157.79999999999998,118.32317069171671L158.10000000000002,110.32241331338169L158.4,119.34014367937613L158.7,120.79314841854315L159,118.56979688720547L159.29999999999998,123.2383586985865L159.60000000000002,119.24056977468719L159.9,122.99077059887642L160.20000000000002,122.25823854841467L160.5,112.65093286894366L160.79999999999998,118.50137603618268L161.1,129.26446303181388L161.39999999999998,117.22423268826329L161.70000000000002,128.79804486168337L162,128.59804025818656L162.3,116.75933670717326L162.6,120.45757002960353L162.9,113.06726628739064L163.2,119.15880060016171L163.5,124.13004829775724L163.8,127.57293709243196L164.1,109.39224997833286L164.4,120.20055012509175L164.7,114.44647563758461L165,123.09488120682816L165.3,115.35970757012235L165.6,126.28830659824412L165.9,111.62225077413201L166.2,110.94118325628448L166.5,104.45707790087226L166.79999999999998,108.70058982092478L167.10000000000002,102.96011827300987L167.4,113.27808883733157L167.7,125.5964790206945L168,124.5822040868876L168.29999999999998,133.17611573982703L168.6,125.09110278992932L168.9,116.57243987982916L169.20000000000002,124.43560219744114L169.5,125.89397822284263L169.8,121.82077470400071L170.1,121.31595153199515L170.39999999999998,122.3123178278618L170.70000000000002,118.95825719506819L171,127.14957631332443L171.3,127.30509079815606L171.6,130.77011699421203L171.9,135.73340251933334L172.2,135.48699984187363L172.5,117.5216812624602L172.8,128.51756111362988L173.1,137.67843734930105L173.4,139.31317316567987L173.7,135.7289203633433L174,141.52634246972593L174.3,141.05568841443892L174.6,133.0399131676342L174.9,130.96057818536676L175.2,129.86241312596033L175.5,130.23281565173167L175.79999999999998,124.22684287347612L176.10000000000002,114.87645805369745L176.4,120.67602269942122L176.70000000000002,132.8978419667158L177,129.77195417378385L177.29999999999998,128.19111183878206L177.6,132.64232094494358L177.89999999999998,130.2310504371396L178.20000000000002,123.9874013456387L178.5,122.98506295637385L178.8,113.72961016867218L179.1,123.38495201095138L179.39999999999998,123.05638788178082L179.70000000000002,131.41828199347566L180,126.25615926456875L180.3,130.00143908633248L180.6,125.20600502892407L180.9,123.54971370520634L181.2,127.75520507647065L181.50000000000003,123.84541503878512L181.8,122.72421288664388L182.1,115.66082534894494L182.4,128.4828956243703L182.7,131.62900824798993L183,130.68049779506833L183.29999999999998,130.49732133878655L183.60000000000002,129.4913071580731L183.9,126.78238929736634L184.2,117.3542084659816L184.5,114.11947378013616L184.79999999999998,126.01175213750652L185.1,126.64419774947434L185.4,109.42463107548875L185.70000000000002,106.17042455460262L186,115.93386215797443L186.29999999999998,130.4397595537089L186.6,134.24679244532484L186.89999999999998,134.60640532806096L187.20000000000002,125.95311324915038L187.5,125.76738587987869L187.8,121.7272205798176L188.1,121.91727375676314L188.4,124.62577252054263L188.7,124.55294092872171L189,121.31113443302173L189.3,124.43676316903267L189.6,117.7607686350717L189.9,123.12317660927619L190.2,132.04075444552208L190.5,132.14159117974583L190.8,131.01030588798372L191.1,128.06977381499198L191.4,131.0808018263673L191.7,137.8801395686862L192,133.2078229631422L192.29999999999998,140.66859706017007L192.60000000000002,131.00448464913745L192.9,130.99228749313104L193.2,136.95839595877018L193.5,115.47406309892469L193.79999999999998,120.4642844694837L194.1,123.31267749059106L194.4,121.48480059378089L194.70000000000002,125.5484589914843L195,127.63182103069808L195.3,130.54750721861237L195.6,125.1762805235941L195.89999999999998,122.50778875664226L196.20000000000002,126.39876367846341L196.5,129.29046477496152L196.8,128.66253986131863L197.1,125.89356870753596L197.4,128.64081748904604L197.7,129.3368055467714L198,136.10006920068912L198.3,142.0876986843017L198.6,146.6784259166072L198.9,134.10167290483417L199.2,128.71339903303684L199.5,131.89052983539523L199.8,139.73682486402822L200.10000000000002,129.63997692696947L200.4,130.48720806886374L200.7,131.02424645751486L201,129.69997079568964L201.29999999999998,127.87812032936728L201.60000000000002,131.66589457773398L201.9,134.51936457743187L202.20000000000002,141.9949839189794L202.5,134.68828502149262L202.79999999999998,133.7840521833353L203.1,136.08894334292725L203.39999999999998,131.87575414214322L203.70000000000002,129.39162655135266L204,132.5410381791608L204.3,137.08883729279736L204.6,136.00579780906853L204.89999999999998,131.583260465088L205.2,135.07278622592838L205.5,141.46390812862128L205.8,142.3434331880105L206.1,142.34268702439027L206.4,135.9713888786528L206.7,139.23035980670412L207,135.89127170687175L207.3,131.22545899835382L207.6,134.25785244934053L207.9,139.31314511258776L208.2,144.48496998606248L208.5,143.321942108918L208.79999999999998,139.4756636011891L209.10000000000002,137.3441469319637L209.4,139.96637879001946L209.7,139.13613547347697L210,134.27815765120215L210.29999999999998,133.37333623604553L210.6,137.1829887265657L210.9,137.50249311832752L211.20000000000002,141.94255057950716L211.5,145.67324510279238L211.8,141.05004120059573L212.1,117.78231645338396L212.39999999999998,124.40044656522664L212.70000000000002,133.09179027752634L213,130.28200264499517L213.3,132.42561782137116L213.6,119.74654872855876L213.9,126.77750838632187L214.2,134.3113763754654L214.5,129.04374952167797L214.8,126.67918983429983L215.1,133.43904528814744L215.4,126.17609415530079L215.7,121.8645443146164L216,122.78604690281956L216.3,133.35981736249275L216.6,133.05744338134852L216.9,131.60194273203567L217.2,130.35126123374673L217.5,131.43597030071004L217.79999999999998,132.2486005063509L218.10000000000002,132.18299932096332L218.4,134.92455440648752L218.70000000000002,125.09232476883147L219,128.91318619866976L219.29999999999998,130.60120498311406L219.6,134.6736933629029L219.9,136.56136661114175L220.20000000000002,140.64740220363066L220.5,143.61990650090652L220.8,138.49049058612036L221.1,143.5213971625617L221.39999999999998,146.11967489366833L221.70000000000002,145.4059341519779L222,139.76630801079904L222.3,141.2357220813229L222.6,138.70180376259054L222.9,140.5218712144349L223.2,135.99709437508903L223.49999999999997,142.10184738506092L223.8,144.63320421260127L224.1,139.36208263088184L224.4,134.33290180891106L224.7,132.15939708250372L225,129.01328532813554L225.29999999999998,135.09987542431693L225.60000000000002,138.87524497077547L225.9,132.4806575749259L226.2,132.80291596495752L226.5,134.85881485011365L226.79999999999998,138.93602790961378L227.10000000000002,139.66902767437526L227.4,143.03832816894547L227.70000000000002,142.86095788443504L228,147.41953364995518L228.29999999999998,145.03693889073966L228.6,143.83265756662152L228.89999999999998,133.17357916292826L229.20000000000002,129.55470592771337L229.5,132.803624132242L229.8,130.4786176913775L230.1,127.13107912145837L230.4,123.7479488635229L230.7,129.6088678916792L231,138.37502748999L231.3,132.98523942669033L231.6,137.31854562038063L231.9,131.95168964310815L232.2,136.4822260379453L232.5,136.13761957822203L232.8,138.4611631629643L233.1,137.3957865236865L233.4,128.31137189857165L233.7,138.08578222299815L234,138.63873137417553L234.29999999999998,143.5938307352848L234.60000000000002,139.0445316885702L234.9,141.22725189356757L235.2,123.88659908550234L235.5,134.15533139736803L235.79999999999998,138.07279453013152L236.1,125.04998522003777L236.4,127.57108203321866L236.70000000000002,133.53758120387897L237,134.0322662255174L237.3,137.10898114210403L237.6,138.65097664872428L237.89999999999998,142.35879789936317L238.20000000000002,144.09376652403338L238.5,143.90675368898312L238.8,142.99274831112143L239.1,133.0757515555377L239.4,133.01718932245703L239.7,131.161789483455L240,128.63150859870146L240.3,134.87277979327817L240.6,124.99816720291125L240.9,127.02512128713218L241.2,131.08051341213277L241.5,136.6335157383233L241.8,143.90036537148055L242.1,146.52183765000103L242.4,147.67090538487432L242.7,147.71914660093546L243,146.19887429271554L243.29999999999998,139.08647751536617L243.60000000000002,142.3953042997518L243.9,145.87088275506193L244.20000000000002,145.55976363825258L244.5,140.96712470535908L244.79999999999998,137.63007544567867L245.1,139.65870237255504L245.39999999999998,138.3105655992294L245.70000000000002,140.6968134177783L246,139.44446479279154L246.3,140.28849879949303L246.6,139.01389839827425L246.89999999999998,142.74436805742624L247.20000000000002,142.69945021478918L247.5,130.9206011981284L247.8,137.2936472156951L248.1,138.76424966211968L248.4,140.51956458959492L248.7,140.85230286165185L249.00000000000003,136.56758946623867L249.3,137.604063707271L249.6,141.61258554469273L249.9,140.96164008385375L250.2,134.74231228772663L250.5,134.97379116591134L250.79999999999998,134.98219268248272L251.10000000000002,138.52763355359906L251.4,141.5258735035984L251.7,139.1091525653081L252,135.4539183616088L252.29999999999998,136.60270483877935L252.6,138.67501915744947L252.9,142.44478334785703L253.20000000000002,143.42677539766552L253.5,138.9305901851101L253.79999999999998,124.99920929228327L254.1,129.11965452286637L254.39999999999998,134.3526944184484L254.70000000000002,139.8417489954342L255,131.83445581963713L255.3,139.0495563278857" style="fill: none;" fill="none"></path></g></g></g></g><g opacity="0.2"><g><g><g><path stroke="rgb(255, 112, 67)" stroke-width="2px" d="M38.7,-42.75712478160858L38.99999999999999,9.178788632154465L39.3,-6.366396725177765L39.6,22.67403495311737L39.900000000000006,7.319491326808929L40.199999999999996,29.35807329416275L40.5,32.58000475168228L40.8,15.823266327381134L41.1,31.72986862063408L41.4,47.25346338748932L41.699999999999996,65.37518334388733L42,73.89523085951805L42.300000000000004,57.7662308961153L42.599999999999994,62.10505102574825L42.9,62.18795199692249L43.2,60.028090596199036L43.5,65.81313547492027L43.8,65.78290466964245L44.1,57.97661316394806L44.4,89.97120921313763L44.7,85.92431296408176L45,91.33837234973907L45.3,86.57133442163467L45.6,76.68331478536129L45.900000000000006,94.43774935603142L46.199999999999996,80.50313186645508L46.5,96.66935835778713L46.800000000000004,91.72011335194111L47.1,104.05629773437977L47.4,108.56181499361992L47.7,99.02893272042274L48,101.95689794421196L48.3,119.01498623937368L48.6,94.65910595655441L48.9,119.0194124430418L49.2,114.0698955655098L49.5,103.43746141344309L49.8,90.66795003414154L50.1,118.70836471021175L50.400000000000006,115.247464671731L50.699999999999996,103.6283717006445L51,118.38354435563087L51.3,122.17181769013405L51.6,123.18875704705715L51.9,134.73587364703417L52.199999999999996,116.04932700097561L52.5,121.2784871160984L52.800000000000004,113.66723370552063L53.099999999999994,121.3196988850832L53.4,106.76332079619169L53.7,130.81498163565993L54,126.91622727364302L54.3,124.000977024436L54.6,75.72189693152905L54.9,134.74305172264576L55.2,134.30220846831799L55.5,130.5803746059537L55.8,132.58009695261717L56.1,130.97610373795033L56.400000000000006,95.13610814511776L56.699999999999996,137.2686733752489L57,68.49070024490356L57.300000000000004,135.95096436142921L57.6,80.85022580623627L57.9,105.77255074679852L58.2,89.41733364760876L58.5,19.07706645131111L58.8,138.60559244453907L59.1,139.79377283528447L59.4,86.0632725507021L59.7,97.77547825872898L60,138.8782581947744L60.3,128.2670946866274L60.6,96.96183924376965L60.900000000000006,72.12368842959404L61.199999999999996,128.80566918104887L61.5,140.7036792933941L61.800000000000004,53.35362081229687L62.1,84.27285161614418L62.4,102.0898564606905L62.699999999999996,58.698850244283676L63,109.20355153083801L63.300000000000004,130.61741380766034L63.599999999999994,89.61588618159294L63.9,136.12293646484613L64.2,-13.476862490177155L64.5,75.12457494437695L64.8,91.45383824408054L65.1,109.56633777171373L65.4,111.02863278985023L65.7,80.65652717649937L66,123.31213374435902L66.3,52.44802285730839L66.60000000000001,135.53078169748187L66.9,111.37684405595064L67.2,31.904542863368988L67.5,138.72107823193073L67.8,54.692668437957764L68.10000000000001,16.17602315545082L68.4,81.19562883675098L68.69999999999999,125.40064540505409L69,80.25669676065445L69.3,137.34516049548984L69.6,116.1652338579297L69.9,128.2571183219552L70.2,124.8663843870163L70.5,133.16423647850752L70.80000000000001,140.14389549195766L71.1,79.88919255137444L71.39999999999999,138.42650028690696L71.7,116.36001002788544L72,128.5093920379877L72.3,134.42837516590953L72.60000000000001,38.324268877506256L72.9,113.08438722789288L73.2,142.29171662405133L73.5,105.23808416724205L73.8,136.60209373384714L74.1,89.13317468762398L74.4,75.77316132187843L74.7,49.61354833841324L75,34.25067615509033L75.30000000000001,52.777511447668076L75.60000000000001,78.41542255878448L75.89999999999999,64.74383097887039L76.2,130.16658589988947L76.5,28.842737197875977L76.8,39.275992184877396L77.10000000000001,115.57091572135687L77.4,80.18981632590294L77.7,110.60199980437756L77.99999999999999,131.96845362707973L78.3,123.47656969726086L78.6,131.26926098763943L78.89999999999999,96.83937099575996L79.2,144.76356901973486L79.5,139.32031824067235L79.80000000000001,126.17385511100292L80.10000000000001,107.7382095605135L80.39999999999999,94.29345180094242L80.69999999999999,93.7397552728653L81,16.010778218507767L81.3,71.70941565930843L81.6,10.57341080904007L81.9,85.65830972790718L82.2,108.28888234496117L82.5,122.13955779373646L82.8,86.08093094825745L83.1,17.19830048084259L83.39999999999999,103.83090284466743L83.7,124.47946456074715L84,118.62543058395386L84.3,135.809004239738L84.60000000000001,116.32133462280035L84.9,128.264180354774L85.19999999999999,132.98332742229104L85.5,77.68319916725159L85.8,119.02463768422604L86.1,71.45086568593979L86.4,143.84284903109074L86.7,95.89384105801582L87,50.80555979907513L87.3,143.38526991941035L87.6,93.02077402174473L87.89999999999999,58.566873118281364L88.2,94.13442675769329L88.5,138.18521582335234L88.8,27.983529835939407L89.10000000000001,113.85472570359707L89.4,145.6033317539841L89.69999999999999,69.78080433607101L90,63.23339809477329L90.3,112.54358802735806L90.6,134.08683967590332L90.9,142.23926362395287L91.2,94.72077441215515L91.5,90.07659596204758L91.80000000000001,79.30506628751755L92.1,145.48522754386067L92.39999999999999,112.86246699094772L92.7,93.64707355201244L93,117.2959581464529L93.3,112.7089788466692L93.60000000000001,75.94855171442032L93.9,130.7207930162549L94.2,109.23855003714561L94.5,122.78063122928143L94.8,143.1025357991457L95.1,82.40274575352669L95.4,105.23034577071667L95.7,84.97943949699402L96,109.97430444508791L96.30000000000001,63.40873543918133L96.6,38.59452259540558L96.89999999999999,143.74047773703933L97.2,86.5564278960228L97.5,67.0614906847477L97.8,90.72455902397633L98.10000000000001,102.71820497512817L98.4,120.67157004773617L98.7,119.07651875913143L99,95.23928013443947L99.3,-4.121214032173157L99.6,55.47772777080536L99.9,126.87562887370586L100.2,100.68780422955751L100.5,115.77325125038624L100.80000000000001,102.00463463366032L101.10000000000001,43.113202422857285L101.39999999999999,37.84674283862114L101.69999999999999,91.73033174872398L102,133.85267195105553L102.3,90.0567692220211L102.6,111.9062279611826L102.9,61.830526933074L103.2,78.0980886220932L103.5,126.29630346596241L103.8,74.51760482788086L104.1,102.4789711534977L104.39999999999999,133.72564819455147L104.7,39.24330127239227L105,87.78935272991657L105.3,136.15142165496945L105.60000000000001,100.68520487099886L105.9,91.85545240342617L106.19999999999999,56.36531588435173L106.5,123.55761398375034L106.8,137.720636844635L107.1,89.50605002045631L107.4,112.46601839363575L107.7,114.04599738121033L108,145.56430241838098L108.3,109.68958516418934L108.6,142.52841656841338L108.89999999999999,47.04609823226929L109.2,78.52679048478603L109.5,114.24023643881083L109.8,121.4066845625639L110.10000000000001,104.30671145021915L110.4,97.34689575433731L110.69999999999999,126.70639206469059L111,96.91694062948227L111.3,140.56894366443157L111.6,81.32318970561028L111.9,128.9805440120399L112.2,114.70175851881504L112.5,75.26005324721336L112.80000000000001,90.9435350894928L113.1,135.9868812635541L113.39999999999999,82.85291221737862L113.7,131.00742700323462L114,95.98219272494316L114.3,99.68514476716518L114.60000000000001,104.07254372537136L114.9,98.6781784594059L115.2,141.96507356874645L115.5,49.48132586479187L115.8,91.3670979142189L116.1,122.60099698603153L116.4,151.05299555510283L116.7,78.14368349313736L117,126.98124107718468L117.30000000000001,103.2101998925209L117.6,150.72511581517756L117.89999999999999,112.12027718126774L118.2,115.14246583729982L118.5,115.08625139296055L118.8,143.88963748514652L119.10000000000001,98.66233696043491L119.4,130.29075168818235L119.7,149.092747236602L120,92.19675746560097L120.3,86.54233698546886L120.6,104.08314009010792L120.9,122.10578602552414L121.2,121.47432093322277L121.5,104.33610343188047L121.80000000000001,113.06592316180468L122.10000000000001,108.46462749689817L122.39999999999999,56.52703312039375L122.69999999999999,155.24147343984805L123,148.95121232885867L123.3,127.9245827794075L123.60000000000001,154.13746448163874L123.9,64.76253044605255L124.2,73.50942504405975L124.50000000000001,145.12542111612856L124.8,117.97190741449594L125.1,101.96965602040291L125.39999999999999,113.48069325834513L125.7,101.8195430636406L126,77.33613175153732L126.3,76.21931602060795L126.60000000000001,123.0673762857914L126.89999999999999,90.58584478497505L127.19999999999999,139.1506653353572L127.5,150.64618599414825L127.8,57.406902730464935L128.1,129.3007790185511L128.4,105.27025786042213L128.70000000000002,126.230493940413L129,97.41709832847118L129.29999999999998,127.34292988479137L129.6,80.77373039722443L129.9,137.00161912292242L130.2,81.17420402169228L130.5,70.55956420302391L130.8,143.66239171288908L131.1,60.620313331484795L131.4,155.58035485245637L131.7,128.2604951672256L132,142.32258152030408L132.3,114.79552441090345L132.6,120.41436617076397L132.9,127.53916819393635L133.20000000000002,138.61469351500273L133.5,108.55446119606495L133.8,120.12343031167984L134.1,111.60775926709175L134.4,137.6389195099473L134.7,101.62088111788034L135,117.26704028248787L135.29999999999998,121.03644174337387L135.6,68.31691455841064L135.89999999999998,99.22227990627289L136.20000000000002,113.66308932006359L136.5,98.16118460893631L136.8,94.84626640379429L137.1,96.7130037099123L137.39999999999998,93.856819242239L137.7,96.81323152780533L138,152.31352510442957L138.3,130.18249868229032L138.6,68.8200495839119L138.9,86.70534726977348L139.2,112.55333893746138L139.5,132.85604505613446L139.8,113.41409132629633L140.1,137.46803157776594L140.4,128.85471881181002L140.7,135.50642763078213L141,117.45699901878834L141.29999999999998,125.29719491302967L141.60000000000002,108.69721372425556L141.9,124.12402548640966L142.2,134.95252056792378L142.5,120.8645226880908L142.79999999999998,131.33509040623903L143.1,111.62228782474995L143.4,46.86040323972702L143.70000000000002,111.76311072707176L144,101.87851601094007L144.3,97.41786089539528L144.6,129.46771154925227L144.89999999999998,130.40505881235003L145.20000000000002,125.48553568124771L145.5,123.14124581217766L145.8,97.44912613928318L146.1,121.88463167101145L146.4,104.7882956713438L146.7,144.87473221309483L147,101.5475884899497L147.3,135.5750487074256L147.6,77.70436537265778L147.9,143.9278014730662L148.2,132.9127551689744L148.5,92.06001263856888L148.8,106.34478759765625L149.1,118.32900424301624L149.4,137.82307113334537L149.7,127.81558212637901L150,119.6648722961545L150.29999999999998,129.9402394592762L150.60000000000002,68.83173343539238L150.9,122.28577834367752L151.20000000000002,112.98765395581722L151.5,147.98948737606406L151.79999999999998,125.1804459169507L152.1,102.53589843213558L152.4,94.61272862553596L152.70000000000002,65.6380036920309L153,110.36252395063639L153.3,83.13572508096695L153.6,76.27185356616974L153.89999999999998,129.84594971686602L154.20000000000002,68.81459225714207L154.5,89.65168704092503L154.8,149.5975856045261L155.1,66.23364140093327L155.4,122.24526946246624L155.7,133.62126272916794L155.99999999999997,98.70572370290756L156.3,110.49393080919981L156.6,124.40736551582813L156.9,141.44850161671638L157.2,122.41561365127563L157.5,107.86388390511274L157.79999999999998,118.96775682270527L158.10000000000002,98.32127724587917L158.4,132.8667392283678L158.7,122.97265552729368L159,115.234769590199L159.29999999999998,130.241201415658L159.60000000000002,113.24388638883829L159.9,128.61607183516026L160.20000000000002,121.15944047272205L160.5,98.23997434973717L160.79999999999998,127.27704078704119L161.1,145.4090935252607L161.39999999999998,99.1638871729374L161.70000000000002,146.15876312181354L162,128.29803335294127L162.3,99.00128138065338L162.6,126.00492001324892L162.9,101.98181067407131L163.2,128.2961020693183L163.5,131.58691984415054L163.8,132.7372702844441L164.1,82.12121930718422L164.4,136.4130003452301L164.7,105.81536390632391L165,136.0674895606935L165.3,103.75694711506367L165.6,142.68120514042675L165.9,89.62316703796387L166.2,109.91958197951317L166.5,94.73091986775398L166.79999999999998,115.06585770100355L167.10000000000002,94.34941095113754L167.4,128.75504468381405L167.7,144.07406429573894L168,123.06079168617725L168.29999999999998,146.06698321923614L168.6,112.96358336508274L168.9,103.79444551467896L169.20000000000002,136.23034567385912L169.5,128.08154226094484L169.8,115.71096942573786L170.1,120.55871677398682L170.39999999999998,123.80686727166176L170.70000000000002,113.92716624587774L171,139.43655499070883L171.3,127.5383625254035L171.6,135.96765628829598L171.9,143.1783308070153L172.2,135.11739582568407L172.5,90.57370339334011L172.8,145.01138089038432L173.1,151.41975170280784L173.4,141.76527689024806L173.7,130.35254115983844L174,150.22247562929988L174.3,140.3497073315084L174.6,121.01625029742718L174.9,127.84157571196556L175.2,128.2151655368507L175.5,130.78841944038868L175.79999999999998,115.21788370609283L176.10000000000002,100.85088082402945L176.4,129.3753696680069L176.70000000000002,151.23057086765766L177,125.08312248438597L177.29999999999998,125.81984833627939L177.6,139.31913460418582L177.89999999999998,126.61414467543364L178.20000000000002,114.62192770838737L178.5,121.48155537247658L178.8,99.84643098711967L179.1,137.8679647743702L179.39999999999998,122.563541688025L179.70000000000002,143.9611231610179L180,118.51297517120838L180.3,135.61935881897807L180.6,118.01285394281149L180.9,121.06527671962976L181.2,134.06344213336706L181.50000000000003,117.98072998225689L181.8,121.042409658432L182.1,105.06574404239655L182.4,147.71600103750825L182.7,136.34817718341947L183,129.25773211568594L183.29999999999998,130.22255665436387L183.60000000000002,127.98228588700294L183.9,122.71901250630617L184.2,103.2119372189045L184.5,109.26737175136805L184.79999999999998,143.85016967356205L185.1,127.59286616742611L185.4,83.59528106451035L185.70000000000002,101.28911477327347L186,130.57901856303215L186.29999999999998,152.19860564731061L186.6,139.9573417827487L186.89999999999998,135.14582465216517L187.20000000000002,112.97317513078451L187.5,125.48879482597113L187.8,115.66697262972593L188.1,122.20235352218151L188.4,128.68852066621184L188.7,124.44369354099035L189,116.44842468947172L189.3,129.12520627304912L189.6,107.74677683413029L189.9,131.16678857058287L190.2,145.41712119989097L190.5,132.29284628108144L190.8,129.3133779503405L191.1,123.65897570550442L191.4,135.59734384343028L191.7,148.07914618216455L192,126.19934805482626L192.29999999999998,151.85975820571184L192.60000000000002,116.50831603258848L192.9,130.97399175912142L193.2,145.90755865722895L193.5,83.24756380915642L193.79999999999998,127.9496165253222L194.1,127.58526702225208L194.4,118.74298524856567L194.70000000000002,131.6439465880394L195,130.75686408951879L195.3,134.92103650048375L195.6,117.1194404810667L195.89999999999998,118.50505110621452L196.20000000000002,132.23522606119514L196.5,133.62801641970873L196.8,127.72065249085426L197.1,121.74011197686195L197.4,132.76169066131115L197.7,130.38078763335943L198,146.24496468156576L198.3,151.06914290972054L198.6,153.5645167650655L198.9,115.2365433871746L199.2,120.63098822534084L199.5,136.6562260389328L199.8,151.5062674069777L200.10000000000002,114.49470502138138L200.4,131.75805478170514L200.7,131.82980404049158L201,127.71355730295181L201.29999999999998,125.14534462988377L201.60000000000002,137.347555950284L201.9,138.79956957697868L202.20000000000002,153.2084129313007L202.5,123.72823667526245L202.79999999999998,132.4277029260993L203.1,139.5462800823152L203.39999999999998,125.55597034096718L203.70000000000002,125.66543516516685L204,137.26515562087297L204.3,143.9105359632522L204.6,134.38123858347535L204.89999999999998,124.94945444911718L205.2,140.30707486718893L205.5,151.05059098266065L205.8,143.66272077709436L206.1,142.34156777895987L206.4,126.41444166004658L206.7,144.11881619878113L207,130.88263955712318L207.3,124.22673993557692L207.6,138.80644262582064L207.9,146.8960841074586L208.2,152.2427072962746L208.5,141.5774002932012L208.79999999999998,133.7062458395958L209.10000000000002,134.14687192812562L209.4,143.89972657710314L209.7,137.8907704986632L210,126.99119091778994L210.29999999999998,132.01610411331058L210.6,142.89746746234596L210.9,137.9817497059703L211.20000000000002,148.6026367712766L211.5,151.26928688772023L211.8,134.11523534730077L212.1,82.88072933256626L212.39999999999998,134.32764173299074L212.70000000000002,146.12880584597588L213,126.06732119619846L213.3,135.64104058593512L213.6,100.72794508934021L213.9,137.32394787296653L214.2,145.6121783591807L214.5,121.14230924099684L214.8,123.13235030323267L215.1,143.5788284689188L215.4,115.28166745603085L215.7,115.39721955358982L216,124.1683007851243L216.3,149.2204730520025L216.6,132.6038824096322L216.9,129.41869175806642L217.2,128.47523898631334L217.5,133.063033901155L217.79999999999998,133.46754581481218L218.10000000000002,132.08459754288197L218.4,139.03688703477383L218.70000000000002,110.34398031234741L219,134.64447834342718L219.29999999999998,133.1332331597805L219.6,140.7824259325862L219.9,139.3928764835L220.20000000000002,146.77645559236407L220.5,148.07866294682026L220.8,130.7963667139411L221.1,151.0677570272237L221.39999999999998,150.0170914903283L221.70000000000002,144.3353230394423L222,131.30686879903078L222.3,143.43984318710864L222.6,134.90092628449202L222.9,143.25197239220142L223.2,129.20992911607027L223.49999999999997,151.25897690001875L223.8,148.43023945391178L224.1,131.4554002583027L224.4,126.78913057595491L224.7,128.89913999289274L225,124.29411769658327L225.29999999999998,144.22976056858897L225.60000000000002,144.53829929046333L225.9,122.88877648115158L226.2,133.28630355000496L226.5,137.94266317784786L226.79999999999998,145.05184749886394L227.10000000000002,140.76852732151747L227.4,148.09227891080081L227.70000000000002,142.59490245766938L228,154.25739729823545L228.29999999999998,141.4630467519164L228.6,142.02623558044434L228.89999999999998,117.1849615573883L229.20000000000002,124.12639607489109L229.5,137.67700143903494L229.8,126.9911080300808L230.1,122.10977126657963L230.4,118.67325347661972L230.7,138.4002464339137L231,151.52426688745618L231.3,124.90055733174086L231.6,143.8185049109161L231.9,123.90140567719936L232.2,143.2780306302011L232.5,135.62070988863707L232.8,141.9464785400778L233.1,135.79772156476974L233.4,114.68474996089935L233.7,152.74739770963788L234,139.46815510094166L234.29999999999998,151.0264797769487L234.60000000000002,132.22058311849833L234.9,144.50133220106363L235.2,97.8756198734045L235.5,149.55842986516654L235.79999999999998,143.94898922927678L236.1,105.51577125489712L236.4,131.35272725299L236.70000000000002,142.48732995986938L237,134.7742937579751L237.3,141.724053516984L237.6,140.9639699086547L237.89999999999998,147.92052977532148L238.20000000000002,146.6962194610387L238.5,143.62623443640769L238.8,141.62174024432898L239.1,118.20025642216206L239.4,132.92934597283602L239.7,128.37868972495198L240,124.83608727157116L240.3,144.2346865851432L240.6,110.18624831736088L240.9,130.0655524134636L241.2,137.1636015996337L241.5,144.96301922760904L241.8,154.80063982121646L242.1,150.45404606778175L242.4,149.3945069871843L242.7,147.79150842502713L243,143.91846583038568L243.29999999999998,128.4178823493421L243.60000000000002,147.35854447633028L243.9,151.08425043802708L244.20000000000002,145.09308496303856L244.5,134.07816630601883L244.79999999999998,132.62450155615807L245.1,142.7016427628696L245.39999999999998,136.28836043924093L245.70000000000002,144.27618514560163L246,137.5659418553114L246.3,141.55454980954528L246.6,137.10199779644608L246.89999999999998,148.34007254615426L247.20000000000002,142.63207345083356L247.5,113.25232767313719L247.8,146.85321624204516L248.1,140.9701533317566L248.4,143.15253698080778L248.7,141.35141026973724L249.00000000000003,130.14051937311888L249.3,139.15877506881952L249.6,147.62536830082536L249.9,139.9852218925953L250.2,125.4133205935359L250.5,135.3210094831884L250.79999999999998,134.99479495733976L251.10000000000002,143.8457948602736L251.4,146.02323342859745L251.7,135.48407115787268L252,129.97106705605984L252.29999999999998,138.32588455453515L252.6,141.78349063545465L252.9,148.0994296334684L253.20000000000002,144.89976347237825L253.5,132.18631236627698L253.79999999999998,104.10213795304298L254.1,135.30032236874104L254.39999999999998,142.2022542618215L254.70000000000002,148.0753308609128L255,119.82351605594158L255.3,149.8722070902586" style="fill: none;" fill="none"></path></g></g></g></g></g></g><g transform="translate(60, 178)" clip-path="url(#clip_1)"><clipPath id="clip_1"><rect width="270" height="21"></rect></clipPath><g><g><line x1="0" y1="0" x2="0" y2="5" style="visibility: inherit;" fill="rgb(0, 0, 0)" stroke="rgb(204, 204, 204)" stroke-width="1px"></line><line x1="30" y1="0" x2="30" y2="5" style="visibility: inherit;" fill="rgb(0, 0, 0)" stroke="rgb(204, 204, 204)" stroke-width="1px"></line><line x1="60" y1="0" x2="60" y2="5" style="visibility: inherit;" fill="rgb(0, 0, 0)" stroke="rgb(204, 204, 204)" stroke-width="1px"></line><line x1="90" y1="0" x2="90" y2="5" style="visibility: inherit;" fill="rgb(0, 0, 0)" stroke="rgb(204, 204, 204)" stroke-width="1px"></line><line x1="120" y1="0" x2="120" y2="5" style="visibility: inherit;" fill="rgb(0, 0, 0)" stroke="rgb(204, 204, 204)" stroke-width="1px"></line><line x1="150" y1="0" x2="150" y2="5" style="visibility: inherit;" fill="rgb(0, 0, 0)" stroke="rgb(204, 204, 204)" stroke-width="1px"></line><line x1="180" y1="0" x2="180" y2="5" style="visibility: inherit;" fill="rgb(0, 0, 0)" stroke="rgb(204, 204, 204)" stroke-width="1px"></line><line x1="210" y1="0" x2="210" y2="5" style="visibility: inherit;" fill="rgb(0, 0, 0)" stroke="rgb(204, 204, 204)" stroke-width="1px"></line><line x1="240" y1="0" x2="240" y2="5" style="visibility: inherit;" fill="rgb(0, 0, 0)" stroke="rgb(204, 204, 204)" stroke-width="1px"></line><line x1="270" y1="0" x2="270" y2="5" style="visibility: inherit;" fill="rgb(0, 0, 0)" stroke="rgb(204, 204, 204)" stroke-width="1px"></line></g><g transform="translate(0, 8)"><text x="0" y="0" dx="0em" dy="0.95em" style="text-anchor: middle; visibility: hidden; font-family: Roboto, sans-serif; font-size: 12px; font-weight: 200;" fill="rgb(50, 49, 63)" stroke="none" stroke-width="1px">-100</text><text x="30" y="0" dx="0em" dy="0.95em" style="text-anchor: middle; visibility: inherit; font-family: Roboto, sans-serif; font-size: 12px; font-weight: 200;" fill="rgb(50, 49, 63)" stroke="none" stroke-width="1px">0</text><text x="60" y="0" dx="0em" dy="0.95em" style="text-anchor: middle; visibility: inherit; font-family: Roboto, sans-serif; font-size: 12px; font-weight: 200;" fill="rgb(50, 49, 63)" stroke="none" stroke-width="1px">100</text><text x="90" y="0" dx="0em" dy="0.95em" style="text-anchor: middle; visibility: inherit; font-family: Roboto, sans-serif; font-size: 12px; font-weight: 200;" fill="rgb(50, 49, 63)" stroke="none" stroke-width="1px">200</text><text x="120" y="0" dx="0em" dy="0.95em" style="text-anchor: middle; visibility: inherit; font-family: Roboto, sans-serif; font-size: 12px; font-weight: 200;" fill="rgb(50, 49, 63)" stroke="none" stroke-width="1px">300</text><text x="150" y="0" dx="0em" dy="0.95em" style="text-anchor: middle; visibility: inherit; font-family: Roboto, sans-serif; font-size: 12px; font-weight: 200;" fill="rgb(50, 49, 63)" stroke="none" stroke-width="1px">400</text><text x="180" y="0" dx="0em" dy="0.95em" style="text-anchor: middle; visibility: inherit; font-family: Roboto, sans-serif; font-size: 12px; font-weight: 200;" fill="rgb(50, 49, 63)" stroke="none" stroke-width="1px">500</text><text x="210" y="0" dx="0em" dy="0.95em" style="text-anchor: middle; visibility: inherit; font-family: Roboto, sans-serif; font-size: 12px; font-weight: 200;" fill="rgb(50, 49, 63)" stroke="none" stroke-width="1px">600</text><text x="240" y="0" dx="0em" dy="0.95em" style="text-anchor: middle; visibility: inherit; font-family: Roboto, sans-serif; font-size: 12px; font-weight: 200;" fill="rgb(50, 49, 63)" stroke="none" stroke-width="1px">700</text><text x="270" y="0" dx="0em" dy="0.95em" style="text-anchor: middle; visibility: hidden; font-family: Roboto, sans-serif; font-size: 12px; font-weight: 200;" fill="rgb(50, 49, 63)" stroke="none" stroke-width="1px">800</text></g><line x1="0" y1="0" x2="270" y2="0" fill="rgb(0, 0, 0)" stroke="rgb(204, 204, 204)" stroke-width="1px"></line></g></g></g></g></svg>