<svg viewBox="0 0 330 200" xmlns="http://www.w3.org/2000/svg"><g><g><g><g><g><line x1="50" y1="178" x2="45" y2="178" style="visibility: inherit;" fill="rgb(0, 0, 0)" stroke="rgb(204, 204, 204)" stroke-width="1px"></line><line x1="50" y1="158.2222222222222" x2="45" y2="158.2222222222222" style="visibility: inherit;" fill="rgb(0, 0, 0)" stroke="rgb(204, 204, 204)" stroke-width="1px"></line><line x1="50" y1="138.44444444444446" x2="45" y2="138.44444444444446" style="visibility: inherit;" fill="rgb(0, 0, 0)" stroke="rgb(204, 204, 204)" stroke-width="1px"></line><line x1="50" y1="118.66666666666666" x2="45" y2="118.66666666666666" style="visibility: inherit;" fill="rgb(0, 0, 0)" stroke="rgb(204, 204, 204)" stroke-width="1px"></line><line x1="50" y1="98.8888888888889" x2="45" y2="98.8888888888889" style="visibility: inherit;" fill="rgb(0, 0, 0)" stroke="rgb(204, 204, 204)" stroke-width="1px"></line><line x1="50" y1="79.1111111111111" x2="45" y2="79.1111111111111" style="visibility: inherit;" fill="rgb(0, 0, 0)" stroke="rgb(204, 204, 204)" stroke-width="1px"></line><line x1="50" y1="59.33333333333334" x2="45" y2="59.33333333333334" style="visibility: inherit;" fill="rgb(0, 0, 0)" stroke="rgb(204, 204, 204)" stroke-width="1px"></line><line x1="50" y1="39.55555555555557" x2="45" y2="39.55555555555557" style="visibility: inherit;" fill="rgb(0, 0, 0)" stroke="rgb(204, 204, 204)" stroke-width="1px"></line><line x1="50" y1="19.777777777777786" x2="45" y2="19.777777777777786" style="visibility: inherit;" fill="rgb(0, 0, 0)" stroke="rgb(204, 204, 204)" stroke-width="1px"></line><line x1="50" y1="0" x2="45" y2="0" style="visibility: inherit;" fill="rgb(0, 0, 0)" stroke="rgb(204, 204, 204)" stroke-width="1px"></line></g><g transform="translate(40, 0)"><text x="0" y="178" dx="0em" dy="0.3em" style="text-anchor: end; visibility: hidden; font-family: Roboto, sans-serif; font-size: 12px; font-weight: 200;" fill="rgb(50, 49, 63)" stroke="none" stroke-width="1px">-0.2</text><text x="0" y="158.2222222222222" dx="0em" dy="0.3em" style="text-anchor: end; visibility: inherit; font-family: Roboto, sans-serif; font-size: 12px; font-weight: 200;" fill="rgb(50, 49, 63)" stroke="none" stroke-width="1px">0</text><text x="0" y="138.44444444444446" dx="0em" dy="0.3em" style="text-anchor: end; visibility: hidden; font-family: Roboto, sans-serif; font-size: 12px; font-weight: 200;" fill="rgb(50, 49, 63)" stroke="none" stroke-width="1px">0.2</text><text x="0" y="118.66666666666666" dx="0em" dy="0.3em" style="text-anchor: end; visibility: inherit; font-family: Roboto, sans-serif; font-size: 12px; font-weight: 200;" fill="rgb(50, 49, 63)" stroke="none" stroke-width="1px">0.4</text><text x="0" y="98.8888888888889" dx="0em" dy="0.3em" style="text-anchor: end; visibility: hidden; font-family: Roboto, sans-serif; font-size: 12px; font-weight: 200;" fill="rgb(50, 49, 63)" stroke="none" stroke-width="1px">0.6</text><text x="0" y="79.1111111111111" dx="0em" dy="0.3em" style="text-anchor: end; visibility: inherit; font-family: Roboto, sans-serif; font-size: 12px; font-weight: 200;" fill="rgb(50, 49, 63)" stroke="none" stroke-width="1px">0.8</text><text x="0" y="59.33333333333334" dx="0em" dy="0.3em" style="text-anchor: end; visibility: hidden; font-family: Roboto, sans-serif; font-size: 12px; font-weight: 200;" fill="rgb(50, 49, 63)" stroke="none" stroke-width="1px">1</text><text x="0" y="39.55555555555557" dx="0em" dy="0.3em" style="text-anchor: end; visibility: inherit; font-family: Roboto, sans-serif; font-size: 12px; font-weight: 200;" fill="rgb(50, 49, 63)" stroke="none" stroke-width="1px">1.2</text><text x="0" y="19.777777777777786" dx="0em" dy="0.3em" style="text-anchor: end; visibility: hidden; font-family: Roboto, sans-serif; font-size: 12px; font-weight: 200;" fill="rgb(50, 49, 63)" stroke="none" stroke-width="1px">1.4</text><text x="0" y="0" dx="0em" dy="0.3em" style="text-anchor: end; visibility: hidden; font-family: Roboto, sans-serif; font-size: 12px; font-weight: 200;" fill="rgb(50, 49, 63)" stroke="none" stroke-width="1px">1.6</text></g><line x1="50" y1="0" x2="50" y2="178" fill="rgb(0, 0, 0)" stroke="rgb(204, 204, 204)" stroke-width="1px"></line></g></g><g transform="translate(50, 0)" clip-path="url(#clip_0)"><clipPath id="clip_0"><rect width="280" height="177"></rect></clipPath><g><g><g><line x1="0" y1="0" x2="0" y2="178" fill="rgb(0, 0, 0)" stroke="rgb(60, 60, 60)" stroke-width="1px" opacity="0.25"></line><line x1="31.11111111111111" y1="0" x2="31.11111111111111" y2="178" fill="rgb(0, 0, 0)" stroke="rgb(60, 60, 60)" stroke-width="1px" opacity="0.25"></line><line x1="62.22222222222222" y1="0" x2="62.22222222222222" y2="178" fill="rgb(0, 0, 0)" stroke="rgb(60, 60, 60)" stroke-width="1px" opacity="0.25"></line><line x1="93.33333333333333" y1="0" x2="93.33333333333333" y2="178" fill="rgb(0, 0, 0)" stroke="rgb(60, 60, 60)" stroke-width="1px" opacity="0.25"></line><line x1="124.44444444444444" y1="0" x2="124.44444444444444" y2="178" fill="rgb(0, 0, 0)" stroke="rgb(60, 60, 60)" stroke-width="1px" opacity="0.25"></line><line x1="155.55555555555557" y1="0" x2="155.55555555555557" y2="178" fill="rgb(0, 0, 0)" stroke="rgb(60, 60, 60)" stroke-width="1px" opacity="0.25"></line><line x1="186.66666666666666" y1="0" x2="186.66666666666666" y2="178" fill="rgb(0, 0, 0)" stroke="rgb(60, 60, 60)" stroke-width="1px" opacity="0.25"></line><line x1="217.77777777777777" y1="0" x2="217.77777777777777" y2="178" fill="rgb(0, 0, 0)" stroke="rgb(60, 60, 60)" stroke-width="1px" opacity="0.25"></line><line x1="248.88888888888889" y1="0" x2="248.88888888888889" y2="178" fill="rgb(0, 0, 0)" stroke="rgb(60, 60, 60)" stroke-width="1px" opacity="0.25"></line><line x1="280" y1="0" x2="280" y2="178" fill="rgb(0, 0, 0)" stroke="rgb(60, 60, 60)" stroke-width="1px" opacity="0.25"></line></g><g><line x1="0" y1="178" x2="280" y2="178" fill="rgb(0, 0, 0)" stroke="rgb(60, 60, 60)" stroke-width="1px" opacity="0.25"></line><line x1="0" y1="158.2222222222222" x2="280" y2="158.2222222222222" fill="rgb(0, 0, 0)" stroke="rgb(60, 60, 60)" stroke-width="1px" opacity="0.25"></line><line x1="0" y1="138.44444444444446" x2="280" y2="138.44444444444446" fill="rgb(0, 0, 0)" stroke="rgb(60, 60, 60)" stroke-width="1px" opacity="0.25"></line><line x1="0" y1="118.66666666666666" x2="280" y2="118.66666666666666" fill="rgb(0, 0, 0)" stroke="rgb(60, 60, 60)" stroke-width="1px" opacity="0.25"></line><line x1="0" y1="98.8888888888889" x2="280" y2="98.8888888888889" fill="rgb(0, 0, 0)" stroke="rgb(60, 60, 60)" stroke-width="1px" opacity="0.25"></line><line x1="0" y1="79.1111111111111" x2="280" y2="79.1111111111111" fill="rgb(0, 0, 0)" stroke="rgb(60, 60, 60)" stroke-width="1px" opacity="0.25"></line><line x1="0" y1="59.33333333333334" x2="280" y2="59.33333333333334" fill="rgb(0, 0, 0)" stroke="rgb(60, 60, 60)" stroke-width="1px" opacity="0.25"></line><line x1="0" y1="39.55555555555557" x2="280" y2="39.55555555555557" fill="rgb(0, 0, 0)" stroke="rgb(60, 60, 60)" stroke-width="1px" opacity="0.25"></line><line x1="0" y1="19.777777777777786" x2="280" y2="19.777777777777786" fill="rgb(0, 0, 0)" stroke="rgb(60, 60, 60)" stroke-width="1px" opacity="0.25"></line><line x1="0" y1="0" x2="280" y2="0" fill="rgb(0, 0, 0)" stroke="rgb(60, 60, 60)" stroke-width="1px" opacity="0.25"></line></g></g></g><g><g><line x1="0" y1="158.2222222222222" x2="280" y2="158.2222222222222" fill="rgb(0, 0, 0)" stroke="rgb(153, 153, 153)" stroke-width="1.5px"></line></g></g><g><g><line x1="31.11111111111111" y1="0" x2="31.11111111111111" y2="178" fill="rgb(0, 0, 0)" stroke="rgb(153, 153, 153)" stroke-width="1.5px"></line></g></g><g><g><g><g><g><path stroke="rgb(255, 112, 67)" stroke-width="2px" d="M31.11111111111111,9.932046492894496L31.422222222222224,6.58634489774702L31.73333333333333,3.7193894786358905L32.044444444444444,4.633419456435195L32.355555555555554,7.772884122205244L32.666666666666664,7.721141203901788L32.977777777777774,10.630566208108783L33.28888888888889,11.382702149511895L33.6,12.558431004207716L33.91111111111111,11.313160702407929L34.22222222222222,13.639151995620942L34.53333333333333,7.351163871241795L34.84444444444444,7.712928158270179L35.15555555555556,6.422497135765937L35.46666666666667,9.818755984944891L35.77777777777777,12.554407908747613L36.08888888888889,16.157993839655827L36.4,16.514364848841417L36.711111111111116,17.46932253252385L37.02222222222222,15.63259352735183L37.333333333333336,20.221336363091652L37.644444444444446,20.72617610281905L37.955555555555556,22.199293760529628L38.266666666666666,24.8080499107138L38.577777777777776,22.991309575999864L38.88888888888889,29.791138160091286L39.2,25.771984175708347L39.511111111111106,31.530492040755554L39.82222222222222,34.603129099065654L40.13333333333333,37.14651703055607L40.44444444444444,42.379195145088225L40.75555555555555,43.73773744731774L41.06666666666667,48.73162242792783L41.37777777777778,49.0950021935338L41.68888888888888,50.18173687031768L42,52.12953375291404L42.31111111111111,48.6522798552187L42.62222222222223,52.03697728332121L42.93333333333333,54.842124018657714L43.24444444444444,59.933990833830315L43.55555555555556,60.65311394451409L43.86666666666667,59.76484218982835L44.17777777777778,60.467650740701785L44.48888888888889,58.87159705162409L44.800000000000004,60.423808797364025L45.111111111111114,61.37310619475944L45.42222222222222,59.81107151098666L45.733333333333334,59.999494377967345L46.044444444444444,62.42191019179176L46.35555555555556,64.19315572494754L46.666666666666664,63.899547139292466L46.977777777777774,66.26241420874817L47.28888888888889,65.24520624513475L47.6,66.58274528418485L47.91111111111111,68.44789827486694L48.22222222222222,69.39663011338176L48.53333333333333,70.15058753394617L48.84444444444445,71.62850972912848L49.15555555555555,70.44757881967168L49.46666666666667,70.94346990113227L49.77777777777778,70.83390845545325L50.08888888888889,73.24947800847809L50.4,71.2047513561224L50.71111111111111,74.36536147681197L51.022222222222226,75.92878567270829L51.33333333333333,67.0048431686769L51.644444444444446,66.18831641667344L51.955555555555556,69.8952716461416L52.266666666666666,72.42762379145863L52.577777777777776,69.85186296480641L52.888888888888886,70.68888067934228L53.2,70.97425882922266L53.51111111111111,73.68760416253402L53.822222222222216,74.09848441024354L54.13333333333333,72.4105616675864L54.44444444444444,74.6574201584091L54.75555555555556,70.60457978779789L55.06666666666666,70.1390846061789L55.37777777777778,59.42074466409119L55.68888888888889,65.35882317619621L56,67.95143641920478L56.31111111111111,70.25704131988971L56.62222222222222,54.05489601970686L56.93333333333334,62.52975768548168L57.24444444444445,69.53125189166417L57.55555555555555,73.66332258766913L57.86666666666667,76.71962496298829L58.17777777777778,78.70432479244107L58.488888888888894,66.42480181558578L58.8,74.67411676918988L59.111111111111114,51.87032965479938L59.422222222222224,64.39167585964192L59.733333333333334,45.16597016583329L60.044444444444444,53.350931161889754L60.355555555555554,47.958297990974025L60.66666666666667,14.65325812028157L60.977777777777774,41.2383050863854L61.288888888888884,59.14155881871254L61.6,43.18246377006189L61.91111111111111,48.72660666601866L62.22222222222222,63.30858373977944L62.53333333333333,70.95279150210742L62.84444444444445,60.85500800147739L63.15555555555556,54.00563306796272L63.46666666666666,63.82149689773023L63.77777777777778,69.07205395990854L64.08888888888889,49.496966106261304L64.4,44.08976020303629L64.71111111111111,51.97190078959556L65.02222222222223,46.11047887258477L65.33333333333333,51.941543888432925L65.64444444444445,64.32952706035297L65.95555555555555,60.71989994058802L66.26666666666667,69.25418218194653L66.57777777777778,33.53405895363814L66.88888888888889,26.76307459591741L67.2,27.36124586745782L67.5111111111111,40.93167083870184L67.82222222222222,51.541913623741785L68.13333333333334,50.31408926090823L68.44444444444444,59.57629121553304L68.75555555555556,46.26398801201093L69.06666666666666,63.09095759560107L69.37777777777778,62.00505248064793L69.68888888888888,42.0795828092065L70,60.29183400665191L70.31111111111112,43.12597522003799L70.62222222222222,22.00737556866153L70.93333333333334,26.457809835978424L71.24444444444444,45.57265945492671L71.55555555555554,43.03397842908329L71.86666666666666,60.95598530370649L72.17777777777778,65.68945223780997L72.4888888888889,71.20085016107078L72.8,75.72494554052064L73.11111111111111,80.62599026081547L73.42222222222223,84.87201849769107L73.73333333333332,69.53540019019111L74.04444444444444,76.19576902019514L74.35555555555555,70.31924928125262L74.66666666666667,76.40206616459204L74.97777777777777,79.56816479102851L75.28888888888889,57.02175618332275L75.60000000000001,64.56796356445871L75.91111111111111,75.09530461606509L76.22222222222221,71.6484666314351L76.53333333333333,78.56328255348502L76.84444444444445,66.95124382026849L77.15555555555555,62.237481729342356L77.46666666666667,49.88045461081031L77.77777777777779,27.992212984246052L78.08888888888889,30.134758716128843L78.4,36.30526010511474L78.71111111111111,38.57565741728635L79.02222222222221,58.69239394195745L79.33333333333333,32.802711986800574L79.64444444444445,32.09209334384766L79.95555555555556,52.31292584192904L80.26666666666667,48.144448190178714L80.57777777777778,58.016867112001854L80.88888888888889,71.9543448420319L81.19999999999999,78.51591806668425L81.5111111111111,83.45097089179718L81.82222222222222,76.52485603446117L82.13333333333334,84.6262177925568L82.44444444444444,88.9798876147227L82.75555555555556,89.8556637638596L83.06666666666668,85.56076341512525L83.37777777777777,78.92285181335906L83.68888888888888,75.35828211259226L84,41.03881175065201L84.3111111111111,50.80143440345755L84.62222222222222,39.2429119171159L84.93333333333334,51.06384556818741L85.24444444444445,64.43178544306666L85.55555555555556,74.36876820509644L85.86666666666666,65.7244017646479L86.17777777777778,53.478306001636085L86.48888888888888,54.998174598211335L86.8,70.81776720772508L87.11111111111111,77.79096241686935L87.42222222222223,85.3537320951937L87.73333333333333,88.04361187314237L88.04444444444445,90.63408043785707L88.35555555555555,96.38737835965838L88.66666666666666,87.31021073284454L88.97777777777777,90.1315349058339L89.28888888888889,77.7713765637362L89.60000000000001,88.23570205785538L89.91111111111111,84.13635654062651L90.22222222222223,69.48018871499141L90.53333333333333,85.34186487779179L90.84444444444443,81.7539798315806L91.15555555555555,69.09384932430576L91.46666666666667,66.71107047982211L91.77777777777777,82.99323434543925L92.08888888888889,60.20725600600961L92.4,74.89138189297685L92.71111111111112,90.98843592145435L93.02222222222221,83.46130570812065L93.33333333333333,67.20739708038657L93.64444444444445,82.96223089909051L93.95555555555555,93.22704820390506L94.26666666666667,102.01065533227634L94.57777777777778,99.1178729744767L94.8888888888889,93.67758831122273L95.2,91.09214127239173L95.5111111111111,104.86093597782272L95.82222222222222,101.66442889011805L96.13333333333333,97.89828757334558L96.44444444444444,102.8561939497784L96.75555555555556,88.72595957186459L97.06666666666666,82.87877768768189L97.37777777777778,95.78228329979041L97.6888888888889,101.49043987477084L98,107.9737108075343L98.3111111111111,114.30946111489337L98.62222222222222,99.09453692322373L98.93333333333334,99.48343142970973L99.24444444444444,95.9900329920591L99.55555555555556,99.43495638712558L99.86666666666667,86.51229257312009L100.17777777777778,71.4862761036153L100.48888888888888,96.41326416082089L100.8,91.88146172160714L101.11111111111111,90.11891827302067L101.42222222222222,86.77043899155456L101.73333333333333,94.76814155731678L102.04444444444445,103.71950068777582L102.35555555555557,104.69513445718556L102.66666666666666,105.21713516620214L102.97777777777777,78.08563362861126L103.28888888888889,62.2758102402025L103.6,85.97487657245267L103.91111111111111,92.36220029777051L104.22222222222223,101.4844200518872L104.53333333333333,96.19010535322502L104.84444444444445,89.41504234935566L105.15555555555555,78.74160046696103L105.46666666666667,82.98354133889072L105.77777777777777,102.36065475167497L106.08888888888889,105.12279300437702L106.4,110.65493916996121L106.71111111111111,86.60367440895914L107.02222222222223,83.63061694400186L107.33333333333334,99.11335589413515L107.64444444444443,94.3527365481337L107.95555555555555,96.98094784153385L108.26666666666667,113.40992569022437L108.57777777777778,93.473153384419L108.88888888888889,98.23400021970441L109.2,115.02778440609345L109.51111111111112,110.17764568663497L109.82222222222222,107.8125106089855L110.13333333333333,102.21088835094973L110.44444444444444,114.05351369410849L110.75555555555556,124.09148541124057L111.06666666666666,105.35177384434974L111.37777777777778,111.16779057686162L111.6888888888889,100.90210438605263L112,117.91121226782602L112.3111111111111,110.40248400377898L112.62222222222222,122.35634300024577L112.93333333333334,104.74589293016422L113.24444444444444,99.35444476824392L113.55555555555556,102.56021817498241L113.86666666666667,113.68288642549217L114.17777777777778,114.91890040599856L114.4888888888889,114.87015290000173L114.8,120.71646029581176L115.1111111111111,110.22701954143969L115.42222222222222,123.20770843405163L115.73333333333333,114.91390333454326L116.04444444444445,121.17494439345244L116.35555555555555,123.04376159333836L116.66666666666667,109.23705477450481L116.97777777777779,106.50781159030579L117.28888888888888,118.85295863008805L117.6,110.48966244294034L117.91111111111111,117.35275620546875L118.22222222222223,114.51286284456151L118.53333333333333,106.76442441077066L118.84444444444445,110.16813762093865L119.15555555555557,109.08566188808784L119.46666666666667,119.76487303042977L119.77777777777777,97.85233635000462L120.08888888888889,105.15476384469449L120.39999999999999,112.19274356920003L120.71111111111111,126.79946665672878L121.02222222222223,100.77168269844572L121.33333333333334,113.23496686817904L121.64444444444445,116.50396757828878L121.95555555555555,128.07337940240512L122.26666666666667,119.22980393339627L122.57777777777777,121.33358938450608L122.88888888888889,123.97482921189395L123.2,130.62813721865876L123.51111111111112,114.02741763388725L123.82222222222222,121.5895578176184L124.13333333333334,130.7705376399466L124.44444444444444,115.14868517899632L124.75555555555555,113.70365385059321L125.06666666666666,113.43124687048741L125.37777777777778,116.56048738317791L125.6888888888889,124.5299850743439L126,117.37032595722434L126.31111111111112,116.37045819695594L126.62222222222223,112.15306740881483L126.93333333333332,94.0623468378738L127.24444444444444,116.58979896423551L127.55555555555556,126.30457926422756L127.86666666666666,127.28390729008358L128.17777777777778,137.71145992226346L128.48888888888888,116.82754445786111L128.8,105.36309486921198L129.11111111111111,120.35328016854665L129.42222222222222,123.01980522711808L129.73333333333332,117.26929538975665L130.04444444444445,114.75610009681819L130.35555555555555,113.83608355963544L130.66666666666666,108.40525798638586L130.9777777777778,112.02215208593958L131.2888888888889,119.47678567426442L131.6,113.07814769553697L131.9111111111111,126.02451495294306L132.22222222222223,134.02212891888672L132.53333333333333,121.74228294770487L132.84444444444443,124.7318254528609L133.15555555555557,111.75604513726965L133.46666666666667,121.53624518644878L133.77777777777777,120.66284922188429L134.08888888888887,122.89476004099394L134.4,121.27057058129039L134.7111111111111,126.92484856222733L135.0222222222222,125.53392896464929L135.33333333333334,112.75774244513987L135.64444444444445,126.2005337161633L135.95555555555555,112.68231385512692L136.26666666666668,124.29558994244992L136.57777777777778,132.34278451260138L136.88888888888889,137.31652917710005L137.2,136.18852766767046L137.51111111111112,132.71283589981272L137.82222222222222,133.49892575518322L138.13333333333333,137.94561779948359L138.44444444444446,125.3169879013105L138.75555555555556,129.96052977670718L139.06666666666666,129.47793145382764L139.37777777777777,133.74234904225617L139.6888888888889,130.11598387054838L140,128.3247778841059L140.3111111111111,128.65945007969145L140.62222222222223,115.2879567246456L140.93333333333334,116.57594184946598L141.24444444444444,114.97974944369277L141.55555555555554,117.1028550640123L141.86666666666667,120.01856407310163L142.17777777777778,119.31526539264145L142.48888888888888,116.22629007620428L142.8,117.44604929573359L143.1111111111111,128.74046139888182L143.42222222222222,132.3547579200731L143.73333333333332,116.35272612680987L144.04444444444445,105.97859338296121L144.35555555555555,112.15822212851974L144.66666666666669,117.27776818316009L144.9777777777778,121.00707223121817L145.28888888888886,129.76424555443424L145.6,126.52620701006006L145.9111111111111,133.10573987702432L146.22222222222223,134.50963064621496L146.53333333333333,127.12098365182048L146.84444444444446,121.77610197490407L147.15555555555557,122.83260315354241L147.46666666666664,128.98408977406564L147.77777777777777,128.69639410572324L148.08888888888887,132.63551751903273L148.4,131.56061075606888L148.7111111111111,119.53216903627617L149.02222222222224,126.79123713903051L149.33333333333334,115.47086485557541L149.64444444444445,122.29917423658576L149.95555555555555,126.36172691093357L150.26666666666665,129.39352787730311L150.57777777777778,128.10466152480902L150.88888888888889,131.69821516968472L151.20000000000002,131.18034712650973L151.51111111111112,131.75841831207765L151.82222222222222,128.43921530469552L152.13333333333333,136.74682482747147L152.44444444444443,130.18916225301638L152.75555555555556,133.8212232052L153.06666666666666,122.40015604713493L153.3777777777778,130.85958609552546L153.6888888888889,136.2599776864994L154,124.33456104151763L154.3111111111111,124.74228683204863L154.6222222222222,130.10776947857454L154.93333333333334,134.49089091638302L155.24444444444444,135.41299286854016L155.55555555555557,134.1418143685299L155.86666666666667,138.134513509146L156.17777777777778,124.09464640530246L156.48888888888888,124.70672128201238L156.8,127.50876002471075L157.11111111111111,131.60216384638935L157.42222222222222,128.71724280886272L157.73333333333335,119.00134125984495L158.04444444444442,109.85969883384378L158.35555555555555,113.52937719268178L158.66666666666666,115.97094762681802L158.9777777777778,96.66414922557269L159.2888888888889,97.31389170933959L159.6,112.74181275264606L159.91111111111113,111.21785248270675L160.2222222222222,103.85875520478315L160.53333333333333,118.41943950940215L160.84444444444443,111.26934154788746L161.15555555555557,124.11665688067067L161.46666666666667,125.89541762867537L161.77777777777777,120.59272135906133L162.0888888888889,122.77082769507463L162.39999999999998,125.98788052923723L162.7111111111111,133.92644878701714L163.0222222222222,129.38811816393476L163.33333333333334,124.70742084885455L163.64444444444445,128.43273716551948L163.95555555555558,122.2671419596977L164.26666666666668,128.25848766530063L164.57777777777775,130.67848875872332L164.88888888888889,132.59633042333414L165.2,135.12371937252482L165.51111111111112,132.35435156978278L165.82222222222222,131.74483688448134L166.13333333333335,131.0683072685986L166.44444444444446,126.76353084589442L166.75555555555553,133.20683502747522L167.06666666666666,139.82668762627256L167.37777777777777,128.81887363262118L167.6888888888889,137.7117931960717L168,139.94959934332803L168.31111111111113,128.33931565947634L168.6222222222222,131.7507573644358L168.93333333333334,127.06331504530604L169.24444444444444,128.33011322175267L169.55555555555554,131.5414049311434L169.86666666666667,132.95737122400334L170.17777777777778,130.06180344034138L170.4888888888889,132.06181637981211L170.79999999999998,128.31947745803203L171.11111111111111,130.74400035097125L171.42222222222222,123.49522936608084L171.73333333333332,133.13953282461642L172.04444444444445,128.07841753577836L172.35555555555555,121.37391551106562L172.66666666666669,118.95614668390783L172.97777777777776,122.27507375210834L173.2888888888889,119.54260566418226L173.6,114.32584983988848L173.9111111111111,127.29032076859356L174.22222222222223,123.76090710240929L174.53333333333333,132.05841592941346L174.84444444444446,129.38646671768225L175.15555555555554,122.15655000631398L175.46666666666667,130.7117455605795L175.77777777777777,128.86896315042952L176.0888888888889,129.87515523792837L176.4,121.34069875137925L176.7111111111111,122.49869117028996L177.02222222222224,127.67132321727765L177.33333333333331,133.98248025681735L177.64444444444445,133.09586140589943L177.95555555555555,132.0948314227616L178.26666666666668,135.67501938092443L178.57777777777778,134.40093809878135L178.88888888888889,129.14305422480754L179.20000000000002,137.12876031794988L179.5111111111111,143.92907524836698L179.82222222222222,140.34938628712874L180.13333333333333,136.7758188467266L180.44444444444446,141.22310322847218L180.75555555555556,143.06744978622348L181.06666666666666,142.27326351282449L181.3777777777778,141.58826786736452L181.68888888888887,142.1399797612682L182,133.40795485263595L182.3111111111111,134.47039727950744L182.62222222222223,131.27295419723583L182.93333333333334,128.67827081836404L183.24444444444447,137.02447757682157L183.55555555555554,137.99391892621819L183.86666666666665,138.67147825799327L184.17777777777778,139.22724886720545L184.48888888888888,137.88733496392203L184.8,127.80999636856707L185.11111111111111,127.47230683556658L185.42222222222225,123.97323963981414L185.73333333333332,133.68725034096101L186.04444444444442,132.22432574198268L186.35555555555555,138.66613186140233L186.66666666666666,139.92330620464642L186.9777777777778,136.15424359109178L187.2888888888889,133.76248208310574L187.60000000000002,135.483436077593L187.9111111111111,132.17130560132026L188.22222222222223,131.39629152223102L188.53333333333333,127.6788371518199L188.84444444444443,130.44999604115552L189.15555555555557,138.55030580905213L189.46666666666667,139.10112356935886L189.7777777777778,132.6422712128391L190.08888888888887,135.59538749780438L190.4,137.69519965339742L190.7111111111111,135.93833741903396L191.0222222222222,133.44064832544382L191.33333333333334,123.72843669741981L191.64444444444445,132.36376096672925L191.95555555555558,135.77916174782914L192.26666666666665,130.90331846004221L192.57777777777778,131.69103921633922L192.88888888888889,133.01681946160903L193.2,139.04079626333885L193.51111111111112,136.3505822744565L193.82222222222222,139.00834760095924L194.13333333333333,136.46568204643742L194.44444444444443,137.0288022936329L194.75555555555556,133.49857191793458L195.06666666666666,129.5286435822454L195.3777777777778,131.82651396631044L195.6888888888889,134.3540913796091L196,119.7403235966694L196.3111111111111,125.04569747191393L196.6222222222222,126.30241515853372L196.93333333333334,132.49799366763256L197.24444444444444,138.80721689246707L197.55555555555557,138.9262597990324L197.86666666666667,138.9736954085735L198.17777777777778,137.19851138203916L198.48888888888888,138.91616401678073L198.79999999999998,140.49571477999405L199.11111111111111,134.12099205697314L199.42222222222222,137.9043465357374L199.73333333333335,136.66472297981153L200.04444444444445,138.2001006170597L200.35555555555555,141.10302983178283L200.66666666666666,127.52939148881849L200.97777777777776,127.64347554130642L201.2888888888889,133.03002143167762L201.6,126.8252624103558L201.91111111111113,125.25762300267607L202.22222222222223,127.80143883570905L202.53333333333336,132.53715988444213L202.84444444444443,132.42768574027374L203.15555555555554,134.50757782354182L203.46666666666667,137.52639711714323L203.77777777777777,140.4801645433564L204.0888888888889,135.89534057909205L204.4,125.46667779790401L204.71111111111114,126.41825941123125L205.0222222222222,131.5712550866988L205.33333333333331,133.38139661083937L205.64444444444445,136.92442706384452L205.95555555555555,141.1994397881453L206.26666666666668,137.6353296954461L206.57777777777778,134.21218519390462L206.8888888888889,137.87774670178857L207.2,141.9298303514696L207.51111111111112,137.4299852524187L207.82222222222222,136.4152930370031L208.13333333333333,139.3742941970264L208.44444444444446,138.7101568049306L208.75555555555556,139.50217056933397L209.06666666666666,140.97242035731352L209.37777777777777,138.21804815556084L209.6888888888889,144.93602824193192L210,138.33745104990905L210.3111111111111,137.88072289513386L210.62222222222223,139.20466142189602L210.93333333333334,139.60652787925727L211.24444444444444,138.87322308684546L211.55555555555554,135.3602808810515L211.86666666666667,139.45031824029275L212.17777777777778,141.68171767847477L212.48888888888888,139.0985278527675L212.8,142.05578440273231L213.1111111111111,141.71068737943955L213.42222222222222,140.99282337980793L213.73333333333332,141.80992263543337L214.04444444444445,140.87821988787226L214.35555555555555,142.00333561680964L214.66666666666669,139.80788506510538L214.9777777777778,138.27782275476994L215.28888888888886,140.58342615484563L215.6,141.37952943873026L215.9111111111111,143.6537147946388L216.22222222222223,142.57647168692665L216.53333333333333,138.85354389383426L216.84444444444446,139.46463957277024L217.15555555555557,142.10015269757892L217.46666666666664,137.84081623936643L217.77777777777777,139.05973762264819L218.08888888888887,136.71369158289085L218.4,136.17527354661044L218.7111111111111,137.41278624278357L219.02222222222224,141.6771942427943L219.33333333333334,143.90313499875006L219.64444444444445,142.32679867702342L219.95555555555555,133.6198721803682L220.26666666666665,136.35449125963524L220.57777777777778,133.51444009104216L220.88888888888889,135.40532463420072L221.20000000000002,139.81204638789612L221.51111111111112,136.78533118644998L221.82222222222222,139.3438362619061L222.13333333333333,140.46186014325755L222.44444444444443,141.52761429204017L222.75555555555556,139.60647403060145L223.06666666666666,141.24593478158363L223.3777777777778,133.18151758209683L223.6888888888889,134.36372612639423L224,134.24433389539016L224.3111111111111,138.90759196818567L224.6222222222222,136.76367137065614L224.93333333333334,136.8620444702306L225.24444444444444,137.57722600238048L225.55555555555557,139.58600225145864L225.86666666666667,140.67891264283472L226.17777777777778,140.0072607695489L226.48888888888888,142.91877864330914L226.8,140.0634410465884L227.11111111111111,138.98092067881524L227.42222222222222,128.6296480402661L227.73333333333335,134.73616484236595L228.04444444444442,137.54115019035794L228.35555555555555,139.6790379882734L228.66666666666666,142.74211731889466L228.9777777777778,142.27808084226155L229.2888888888889,145.1143651049856L229.6,141.077894562971L229.91111111111113,143.47591498894312L230.2222222222222,141.20660610372846L230.53333333333333,138.4714454428191L230.84444444444443,140.72810842422984L231.15555555555557,142.951003995508L231.46666666666667,139.05401320872906L231.77777777777777,141.93411857258204L232.0888888888889,144.7915302908012L232.39999999999998,144.8201011443158L232.7111111111111,143.75004573011518L233.0222222222222,133.8501382179373L233.33333333333334,137.16846465644454L233.64444444444445,140.29995590593745L233.95555555555558,144.35879534305266L234.26666666666668,144.2490246020358L234.57777777777775,137.5389052013782L234.88888888888889,139.53632420183584L235.2,142.46579633085747L235.51111111111112,143.19367327912607L235.82222222222222,147.71268233896336L236.13333333333335,146.19827077996027L236.44444444444446,149.04170921570832L236.75555555555553,143.9206439628475L237.06666666666666,144.87737690388136L237.37777777777777,142.8724996188023L237.6888888888889,140.45634533331554L238,140.8731878958092L238.31111111111113,141.6419332494836L238.6222222222222,139.89232109013204L238.93333333333334,136.4156606132501L239.24444444444444,140.37132807978273L239.55555555555554,144.84992901595072L239.86666666666667,142.0272439764637L240.17777777777778,142.5372011530418L240.4888888888889,137.9798262861846L240.79999999999998,139.04547614208394L241.11111111111111,140.7357731641424L241.42222222222222,138.54094008756894L241.73333333333332,140.27064525907502L242.04444444444445,139.73751743000574L242.35555555555555,141.88399701003L242.66666666666669,143.41986592223503L242.97777777777776,146.8863489455596L243.2888888888889,146.73415202988213L243.6,148.18081922851485L243.9111111111111,132.66109307852213L244.22222222222223,133.64426274976557L244.53333333333333,136.6121797726769L244.84444444444446,137.40678286086168L245.15555555555554,133.96891720809924L245.46666666666667,134.81417980820967L245.77777777777777,130.89279781399787L246.0888888888889,138.0908610268219L246.4,142.07534334523183L246.7111111111111,145.9177880480318L247.02222222222224,146.11259841289692L247.33333333333331,146.9056075588194L247.64444444444445,145.82472263162632L247.95555555555555,138.19464112749873L248.26666666666668,141.3963114784033L248.57777777777778,140.73818827796538L248.88888888888889,139.5761564123346L249.20000000000002,142.15430885109254L249.5111111111111,140.29817726345627L249.82222222222222,140.01931325673124L250.13333333333333,134.80171407640745L250.44444444444446,140.57240096358916L250.75555555555556,144.08342375335172L251.06666666666666,145.8275657175605L251.3777777777778,147.35993437374714L251.68888888888887,148.01415232661415L252,143.64579227009577L252.3111111111111,144.2654684609522L252.62222222222223,145.69582316237785L252.93333333333334,146.68403750831743L253.24444444444447,145.86825347050942L253.55555555555554,145.4290361344445L253.86666666666665,143.0580666453087L254.17777777777778,144.1037674659755L254.48888888888888,145.44946735321412L254.8,148.12394848000366L255.11111111111111,146.56399679898038L255.42222222222225,146.6121983465018L255.73333333333332,143.08187654301963L256.0444444444444,145.6670901524815L256.35555555555555,143.8919865669816L256.66666666666663,137.39621602057142L256.97777777777776,141.06623030969072L257.2888888888889,143.7400100836602L257.6,146.8371564678684L257.9111111111111,137.28795797554L258.22222222222223,133.06246664414545L258.53333333333336,131.7460281667495L258.84444444444443,139.2079104599453L259.15555555555557,142.5099166906799L259.46666666666664,141.4983309751903L259.77777777777777,143.3913341536482L260.0888888888889,142.35374222841023L260.40000000000003,144.36764631788958L260.7111111111111,139.42340019218742L261.0222222222222,140.86099877082873L261.3333333333333,141.25175665690642L261.64444444444445,143.29283602295138L261.9555555555556,144.00029646113208L262.26666666666665,141.87851063197996L262.5777777777778,144.1406086233426L262.8888888888889,142.95253661556058L263.2,140.33416730930216L263.5111111111111,141.5587853265658L263.8222222222222,142.36922929986116L264.1333333333333,143.54695806816827L264.44444444444446,136.9272389843997L264.7555555555556,141.25641517913627" style="fill: none;" fill="none"></path></g></g></g></g><g opacity="0.2"><g><g><g><path stroke="rgb(255, 112, 67)" stroke-width="2px" d="M31.11111111111111,9.932046492894496L31.422222222222224,4.578923940658569L31.73333333333333,0.9671122762892157L32.044444444444444,5.708318710327148L32.355555555555554,11.871769189834595L32.666666666666664,7.649562120437622L32.977777777777774,14.791090514924793L33.28888888888889,12.479323572582684L33.6,14.292402691311322L33.91111111111111,9.46407943301731L34.22222222222222,17.10704236560398L34.53333333333333,-2.0465993616315834L34.84444444444444,8.25439336564806L35.15555555555556,4.4893786907196045L35.46666666666667,14.909152083926735L35.77777777777777,16.655956400765323L36.08888888888889,21.561847819222354L36.4,17.048830880059146L36.711111111111116,18.901613579856033L37.02222222222222,12.877667903900146L37.333333333333336,27.10419895913866L37.644444444444446,21.483419100443534L37.955555555555556,24.408941162957095L38.266666666666666,28.721153232786406L38.577777777777776,20.266211986541748L38.88888888888889,39.990852038065604L39.2,19.743263483047485L39.511111111111106,40.16824499766033L39.82222222222222,39.2120818561978L40.13333333333333,40.96159752209982L40.44444444444444,50.22821058167353L40.75555555555555,45.775550630357536L41.06666666666667,56.22244930267334L41.37777777777778,49.640071815914595L41.68888888888888,51.81183883878919L42,55.05122902658251L42.31111111111111,43.43639906247458L42.62222222222223,57.114023394054854L42.93333333333333,59.04984410603842L43.24444444444444,67.57179103957283L43.55555555555556,61.73179860909781L43.86666666666667,58.43243455886841L44.17777777777778,61.52186356650459L44.48888888888889,56.477516518698806L44.800000000000004,62.75212641557059L45.111111111111114,62.79705229070452L45.42222222222222,57.46801948547363L45.733333333333334,60.28212867842781L46.044444444444444,66.05553391244676L46.35555555555556,66.8500240246455L46.666666666666664,63.45913426081341L46.977777777777774,69.80671481291455L47.28888888888889,63.71939429971906L47.6,68.58905384275648L47.91111111111111,71.24562776088715L48.22222222222222,70.81972787115309L48.53333333333333,71.28152366479239L48.84444444444445,73.84539302190146L49.15555555555555,68.67618245548674L49.46666666666667,71.68730652332306L49.77777777777778,70.66956628693475L50.08888888888889,76.87283233801526L50.4,68.13766137758893L50.71111111111111,79.10627665784624L51.022222222222226,78.27392196655273L51.33333333333333,53.618929412629875L51.644444444444446,64.96352628866833L51.955555555555556,75.45570449034375L52.266666666666666,76.22615200943419L52.577777777777776,65.9882217248281L52.888888888888886,71.9444072511461L53.2,71.40232605404326L53.51111111111111,77.75762216250104L53.822222222222216,74.7148047818078L54.13333333333333,69.87867755360075L54.44444444444444,78.02770789464316L54.75555555555556,64.52531923188104L55.06666666666666,69.44084183375043L55.37777777777778,43.343234750959624L55.68888888888889,74.26594094435376L56,71.8403562837177L56.31111111111111,73.7154486709171L56.62222222222222,29.751678069432582L56.93333333333334,75.24205018414392L57.24444444444445,80.03349320093793L57.55555555555555,79.86142863167657L57.86666666666667,81.30407852596709L58.17777777777778,81.68137453662025L58.488888888888894,48.00551735030281L58.8,87.04808919959599L59.111111111111114,17.664648983213652L59.422222222222224,83.17369516690573L59.733333333333334,16.32741162512039L60.044444444444444,65.6283726559745L60.355555555555554,39.86934823460051L60.66666666666667,-35.3043016857571L60.977777777777774,81.11587553554112L61.288888888888884,85.99643941720328L61.6,19.243821197085914L61.91111111111111,57.042821009953826L62.22222222222222,85.18154935042065L62.53333333333333,82.41910314559937L62.84444444444445,45.70833275053236L63.15555555555556,43.73157066769072L63.46666666666666,78.54529264238145L63.77777777777778,76.94788955317604L64.08888888888889,20.134334325790405L64.4,35.9789513481988L64.71111111111111,63.795111669434455L65.02222222222223,37.31834599706863L65.33333333333333,60.688141412205184L65.64444444444445,82.91150181823308L65.95555555555555,55.30545926094055L66.26666666666667,82.05560554398431L66.57777777777778,-20.046125888824463L66.88888888888889,16.606598059336356L67.2,28.25850277476841L67.5111111111111,61.28730829556784L67.82222222222222,67.45727780130174L68.13333333333334,48.472352716657845L68.44444444444444,73.46959414747026L68.75555555555556,26.29553320672777L69.06666666666666,88.33141197098627L69.37777777777778,60.37619480821821L69.68888888888888,12.191378302044354L70,87.61021080281999L70.31111111111112,17.377187040117054L70.62222222222222,-9.670523908403167L70.93333333333334,33.133461236953735L71.24444444444444,74.24493388334912L71.55555555555554,39.225956890318145L71.86666666666666,87.8389956156413L72.17777777777778,72.7896526389652L72.4888888888889,79.46794704596203L72.8,82.51108860969543L73.11111111111111,87.97755734125775L73.42222222222223,91.24106085300446L73.73333333333332,46.53047272894117L74.04444444444444,86.18632226520116L74.35555555555555,61.50446967283886L74.66666666666667,85.52629148960114L74.97777777777777,84.31731273068323L75.28888888888889,23.202143271764125L75.60000000000001,75.88727463616266L75.91111111111111,90.88631619347467L76.22222222222221,66.47820965449017L76.53333333333333,88.93550643655989L76.84444444444445,49.533185720443726L77.15555555555555,55.16683859295317L77.46666666666667,31.344913933012236L77.77777777777779,-4.840149455600319L78.08888888888889,33.34857731395298L78.4,45.56101218859356L78.71111111111111,41.98125338554382L79.02222222222221,88.86749872896407L79.33333333333333,-6.031810945934716L79.64444444444445,31.026165379418277L79.95555555555556,82.64417458905115L80.26666666666667,41.89173171255325L80.57777777777778,72.82549549473657L80.88888888888889,92.86056143707698L81.19999999999999,88.3582779036628L81.5111111111111,90.8535501294666L81.82222222222222,66.13568374845717L82.13333333333334,96.77826042970023L82.44444444444444,95.51039234797162L82.75555555555556,91.16932798756494L83.06666666666668,79.11841289202374L83.37777777777777,68.96598441070982L83.68888888888888,70.01142756144208L84,-10.440393792258376L84.3111111111111,65.44536838266585L84.62222222222222,21.905128187603434L84.93333333333334,68.79524604479474L85.24444444444445,84.48369525538551L85.55555555555556,89.27424234814113L85.86666666666666,52.75785210397509L86.17777777777778,35.1091623571184L86.48888888888888,57.27797749307421L86.8,94.54715612199571L87.11111111111111,88.25075523058575L87.42222222222223,96.69788661268022L87.73333333333333,92.07843154006535L88.04444444444445,94.51978328492906L88.35555555555555,105.01732524236044L88.66666666666666,73.69445929262373L88.97777777777777,94.36352116531795L89.28888888888889,59.231139050589675L89.60000000000001,103.93219029903412L89.91111111111111,77.98733826478323L90.22222222222223,47.49593697653877L90.53333333333333,109.13437912199234L90.84444444444443,76.37215226226384L91.15555555555555,50.1036535633935L91.46666666666667,63.13690221309662L91.77777777777777,107.41648014386496L92.08888888888889,26.028288496865176L92.4,96.91757072342767L92.71111111111112,115.13401696417068L93.02222222222221,72.17061038812002L93.33333333333333,42.826534138785476L93.64444444444445,106.59448162714642L93.95555555555555,108.62427416112688L94.26666666666667,115.18606602483327L94.57777777777778,94.77869943777722L94.8888888888889,85.51716131634184L95.2,87.21397071414525L95.5111111111111,125.5141280359692L95.82222222222222,96.86966825856103L96.13333333333333,92.2490755981869L96.44444444444444,110.2930535144276L96.75555555555556,67.53060800499388L97.06666666666666,74.10800486140782L97.37777777777778,115.13754171795314L97.6888888888889,110.05267473724153L98,117.69861720667946L98.3111111111111,123.81308657593196L98.62222222222222,76.2721506357193L98.93333333333334,100.06677318943872L99.24444444444444,90.74993533558315L99.55555555555556,104.6023414797253L99.86666666666667,67.12829685211182L100.17777777777778,48.94725139935812L100.48888888888888,133.8037462466293L100.8,85.08375806278654L101.11111111111111,87.4751031001409L101.42222222222222,81.74772006935545L101.73333333333333,106.76469540596008L102.04444444444445,117.1465393834644L102.35555555555557,106.15858511130017L102.66666666666666,106.00013622972702L102.97777777777777,37.388381322224944L103.28888888888889,38.5610751575894L103.6,121.5234760708279L103.91111111111111,101.94318588574728L104.22222222222223,115.16774968306225L104.53333333333333,88.24863330523175L104.84444444444445,79.25244784355164L105.15555555555555,62.73143764336905L105.46666666666667,89.34645264678532L105.77777777777777,131.42632487085132L106.08888888888889,109.26600038343007L106.4,118.95315841833752L106.71111111111111,50.526777267456055L107.02222222222223,79.17103074656593L107.33333333333334,122.3374643193351L107.64444444444443,87.21180752913159L107.95555555555555,100.92326478163403L108.26666666666667,138.05339246326022L108.57777777777778,63.567994925710885L108.88888888888889,105.37527047263252L109.2,140.218460685677L109.51111111111112,102.90243760744733L109.82222222222222,104.26480799251134L110.13333333333333,93.80845496389603L110.44444444444444,131.81745170884662L110.75555555555556,139.14844298693868L111.06666666666666,77.24220649401349L111.37777777777778,119.8918156756295L111.6888888888889,85.50357509983911L112,143.4248740904861L112.3111111111111,99.13939160770839L112.62222222222222,140.28713149494595L112.93333333333334,78.33021782504188L113.24444444444444,91.26727252536351L113.55555555555556,107.36887828509015L113.86666666666667,130.36688880125683L114.17777777777778,116.77292137675816L114.4888888888889,114.79703164100647L114.8,129.4859213895268L115.1111111111111,94.49285840988159L115.42222222222222,142.67874177296957L115.73333333333333,102.4731956852807L116.04444444444445,130.56650598181616L116.35555555555555,125.84698739316728L116.66666666666667,88.52699454625449L116.97777777777779,102.41394681400722L117.28888888888888,137.3706791897615L117.6,97.94471816221875L117.91111111111111,127.6473968492614L118.22222222222223,110.25302280320062L118.53333333333333,95.14176676008438L118.84444444444445,115.27370743619072L119.15555555555557,107.46194828881158L119.46666666666667,135.7836897439427L119.77777777777777,64.9835313293669L120.08888888888889,116.10840508672928L120.39999999999999,122.7497131559584L120.71111111111111,148.7095512880219L121.02222222222223,61.7300067610211L121.33333333333334,131.92989312277902L121.64444444444445,121.40746864345338L121.95555555555555,145.4274971385797L122.26666666666667,105.96444072988298L122.57777777777777,124.4892675611708L122.88888888888889,127.93668895297581L123.2,140.60809922880597L123.51111111111112,89.12633825672998L123.82222222222222,132.93276809321512L124.13333333333334,144.54200737343896L124.44444444444444,91.71590648757088L124.75555555555555,111.53610685798859L125.06666666666666,113.02263640032875L125.37777777777778,121.25434815221364L125.6888888888889,136.4842316110929L126,106.63083728154501L126.31111111111112,114.8706565565533L126.62222222222223,105.82698122660321L126.93333333333332,66.92626598146227L127.24444444444444,150.38097715377808L127.55555555555556,140.8767497142156L127.86666666666666,128.7528993288676L128.17777777777778,153.35278887053332L128.48888888888888,85.50167126125761L128.8,88.16642048623827L129.11111111111111,142.83855811754862L129.42222222222222,127.01959281497533L129.73333333333332,108.64353063371446L130.04444444444445,110.98630715741052L130.35555555555555,112.45605875386131L130.66666666666666,100.25901962651147L130.9777777777778,117.4474932352702L131.2888888888889,130.65873605675168L131.6,103.48019072744583L131.9111111111111,145.4440658390522L132.22222222222223,146.0185498678022L132.53333333333333,103.32251399093205L132.84444444444443,129.216139210595L133.15555555555557,92.2923746638828L133.46666666666667,136.20654526021747L133.77777777777777,119.35275527503755L134.08888888888887,126.24262626965842L134.4,118.83428639173508L134.7111111111111,135.4062655336327L135.0222222222222,123.44754956828224L135.33333333333334,93.59346266587576L135.64444444444445,146.36472062269846L135.95555555555555,92.40498406357234L136.26666666666668,141.7155040734344L136.57777777777778,144.41357636782857L136.88888888888889,144.77714617384802L137.2,134.4965254035261L137.51111111111112,127.49929824802612L137.82222222222222,134.67806053823895L138.13333333333333,144.61565586593417L138.44444444444446,106.37404305405086L138.75555555555556,136.92584258980222L139.06666666666666,128.7540339695083L139.37777777777777,140.13897542489897L139.6888888888889,124.67643611298668L140,125.63796890444225L140.3111111111111,129.16145837306976L140.62222222222223,95.2307166920768L140.93333333333334,118.50791953669655L141.24444444444444,112.585460835033L141.55555555555554,120.28751349449158L141.86666666666667,124.39212758673561L142.17777777777778,118.26031737195122L142.48888888888888,111.59282710154852L142.8,119.27568812502754L143.1111111111111,145.68207955360413L143.42222222222222,137.77620270186L143.73333333333332,92.3496784369151L144.04444444444445,90.41739426718819L144.35555555555555,121.42766524685753L144.66666666666669,124.95708726512062L144.9777777777778,126.60102830330533L145.28888888888886,142.90000553925833L145.6,121.66914919349884L145.9111111111111,142.97503917747073L146.22222222222223,136.61546680000095L146.53333333333333,116.03801316022873L146.84444444444446,113.75877945952946L147.15555555555557,124.4173549214999L147.46666666666664,138.21131970485052L147.77777777777777,128.26485060320962L148.08888888888887,138.54420263899695L148.4,129.9482506116231L148.7111111111111,101.48950645658707L149.02222222222224,137.67983929316202L149.33333333333334,98.4903064303928L149.64444444444445,132.54163830810123L149.95555555555555,132.45555592245526L150.26666666666665,133.94122932685744L150.57777777777778,126.17136199606789L150.88888888888889,137.0885456369983L151.20000000000002,130.40354506174725L151.51111111111112,132.6255250904295L151.82222222222222,123.46041079362234L152.13333333333333,149.2082391116354L152.44444444444443,120.3526683913337L152.75555555555556,139.26931463347543L153.06666666666666,105.2685553100374L153.3777777777778,143.54873116811117L153.6888888888889,144.36056507296033L154,106.44643607404497L154.3111111111111,125.35387551784515L154.6222222222222,138.15599344836343L154.93333333333334,141.06557307309575L155.24444444444444,136.79614579677582L155.55555555555557,132.2350466185146L155.86666666666667,144.12356222007008L156.17777777777778,103.03484574953717L156.48888888888888,125.62483359707726L156.8,131.71181813875836L157.11111111111111,137.7422695789072L157.42222222222222,124.3898612525728L157.73333333333335,104.4274889363183L158.04444444444442,96.14723519484204L158.35555555555555,119.0338947309388L158.66666666666666,119.63330327802235L158.9777777777778,67.7039516237047L159.2888888888889,98.28850543498993L159.6,135.88369431760577L159.91111111111113,108.93191207779779L160.2222222222222,92.82010928789776L160.53333333333333,140.26046596633066L160.84444444444443,100.5441946056154L161.15555555555557,143.3876298798455L161.46666666666667,128.5635587506824L161.77777777777777,112.63867695464027L162.0888888888889,126.03798719909456L162.39999999999998,130.81345978048114L162.7111111111111,145.83430117368698L163.0222222222222,122.58062222931122L163.33333333333334,117.68637487623428L163.64444444444445,134.0207116405169L163.95555555555558,113.01874915096496L164.26666666666668,137.2455062237051L164.57777777777775,134.30849039885732L164.88888888888889,135.47309292025037L165.2,138.91480279631085L165.51111111111112,128.20029986566968L165.82222222222222,130.83056485652924L166.13333333333335,130.05351284477445L166.44444444444446,120.30636621183818L166.75555555555553,142.87179129984645L167.06666666666666,149.75646652446855L167.37777777777777,112.30715264214409L167.6888888888889,151.0511725412475L168,143.3063085642126L168.31111111111113,110.92389013369879L168.6222222222222,136.867919921875L168.93333333333334,120.0321515666114L169.24444444444444,130.23031048642267L169.55555555555554,136.35834249522952L169.86666666666667,135.0813206632932L170.17777777777778,125.7184517648485L170.4888888888889,135.0618357890182L170.79999999999998,122.7059690753619L171.11111111111111,134.3807846903801L171.42222222222222,112.6220728887452L171.73333333333332,147.60598801241983L172.04444444444445,120.48674460252127L172.35555555555555,111.31716247399649L172.66666666666669,115.3294934431712L172.97777777777776,127.2534643544091L173.2888888888889,115.4439035322931L173.6,106.50071610344781L173.9111111111111,146.73702716165118L174.22222222222223,118.4667866031329L174.53333333333333,144.50467916991977L174.84444444444446,125.37854290008545L175.15555555555554,111.31167493926155L175.46666666666667,143.54453889197774L175.77777777777777,126.10478953520459L176.0888888888889,131.38444336917667L176.4,108.5390140215556L176.7111111111111,124.23567979865605L177.02222222222224,135.43027128775915L177.33333333333331,143.44921581612695L177.64444444444445,131.76593312952252L177.95555555555555,130.59328644805484L178.26666666666668,141.04530131816864L178.57777777777778,132.4898161755668L178.88888888888889,121.25622841384676L179.20000000000002,149.1073194576634L179.5111111111111,154.12954764399262L179.82222222222222,134.97985284527144L180.13333333333333,131.41546768612332L180.44444444444446,147.89402980109057L180.75555555555556,145.83396962285042L181.06666666666666,141.08198410272598L181.3777777777778,140.56077439917456L181.68888888888887,142.9675476021237L182,120.30991748968762L182.3111111111111,136.06406091981464L182.62222222222223,126.4767895738284L182.93333333333334,124.78624575005638L183.24444444444447,149.54378771450786L183.55555555555554,139.44808095031314L183.86666666666665,139.68781725565592L184.17777777777778,140.06090478102365L184.48888888888888,135.87746410899692L184.8,112.69398847553467L185.11111111111111,126.96577253606584L185.42222222222225,118.72463884618547L185.73333333333332,148.25826639268132L186.04444444444442,130.0299388435152L186.35555555555555,148.32884104053178L186.66666666666666,141.8090677195125L186.9777777777778,130.50064967075986L187.2888888888889,130.17483982112674L187.60000000000002,138.06486706932387L187.9111111111111,127.20310988691118L188.22222222222223,130.23377040359708L188.53333333333333,122.10265559620326L188.84444444444443,134.60673437515894L189.15555555555557,150.70077046089702L189.46666666666667,139.92735020981897L189.7777777777778,122.95399267805946L190.08888888888887,140.0250619252523L190.4,140.844917886787L190.7111111111111,133.3030440674888L191.0222222222222,129.6941146850586L191.33333333333334,109.16011925538382L191.64444444444445,145.3167473706934L191.95555555555558,140.90226291947894L192.26666666666665,123.58955352836186L192.57777777777778,132.87262035078473L192.88888888888889,135.00548982951375L193.2,148.0767614659336L193.51111111111112,132.31526129113306L193.82222222222222,142.9949955907133L194.13333333333333,132.65168371465472L194.44444444444443,137.87348266442618L194.75555555555556,128.20322635438708L195.06666666666666,123.57375107871162L195.3777777777778,135.273319542408L195.6888888888889,138.14545749955707L196,97.81967192225987L196.3111111111111,133.0037582847807L196.6222222222222,128.18749168846344L196.93333333333334,141.79136143128076L197.24444444444444,148.27105172971883L197.55555555555557,139.10482415888043L197.86666666666667,139.0448488228851L198.17777777777778,134.53573534223767L198.48888888888888,141.49264296889305L198.79999999999998,142.86504092481402L199.11111111111111,124.55890797244179L199.42222222222222,143.5793782538838L199.73333333333335,134.8052876459228L200.04444444444445,140.50316707293192L200.35555555555555,145.45742365386752L200.66666666666666,107.16893397437202L200.97777777777776,127.81460162003836L201.2888888888889,141.10984026723438L201.6,117.51812387837303L201.91111111111113,122.90616389115652L202.22222222222223,131.61716258525848L202.53333333333336,139.6407414575418L202.84444444444443,132.26347452402115L203.15555555555554,137.62741594844394L203.46666666666667,142.05462605754533L203.77777777777777,144.91081568267612L204.0888888888889,129.0181046326955L204.4,109.82368362612193L204.71111111111114,127.84563183122212L205.0222222222222,139.30074859990012L205.33333333333331,136.09660889705023L205.64444444444445,142.23897274335226L205.95555555555555,147.61195887459647L206.26666666666668,132.2891645563973L206.57777777777778,129.07746844159234L206.8888888888889,143.3760889636146L207.2,148.0079558259911L207.51111111111112,130.68021760384244L207.82222222222222,134.8932547138797L208.13333333333333,143.8127959370613L208.44444444444446,137.7139507167869L208.75555555555556,140.690191215939L209.06666666666666,143.17779503928293L209.37777777777777,134.08648985293178L209.6888888888889,155.01299837148852L210,128.43958526187473L210.3111111111111,137.19563066297107L210.62222222222223,141.19056921203932L210.93333333333334,140.20932756529916L211.24444444444444,137.7732658982277L211.55555555555554,130.09086757236057L211.86666666666667,145.58537427915465L212.17777777777778,145.02881683574785L212.48888888888888,135.2237431142065L212.8,146.49166922767958L213.1111111111111,141.1930418445004L213.42222222222222,139.91602738036048L213.73333333333332,143.0355715188715L214.04444444444445,139.48066576653056L214.35555555555555,143.6910092102157L214.66666666666669,136.51470923754903L214.9777777777778,135.98272928926679L215.28888888888886,144.0418312549591L215.6,142.57368436455727L215.9111111111111,147.06499282850157L216.22222222222223,140.9606070253584L216.53333333333333,133.26915220419568L216.84444444444446,140.38128309117425L217.15555555555557,146.0534223847919L217.46666666666664,131.45181155204773L217.77777777777777,140.8881196975708L218.08888888888887,133.19462252325482L218.4,135.36764649218983L218.7111111111111,139.26905528704324L219.02222222222224,148.07380624281038L219.33333333333334,147.24204613268375L219.64444444444445,139.9622941944334L219.95555555555555,120.5594824353854L220.26666666666665,140.4564198785358L220.57777777777778,129.2543633381526L220.88888888888889,138.24165144893857L221.20000000000002,146.42212901843916L221.51111111111112,132.24525838428073L221.82222222222222,143.18159387509027L222.13333333333333,142.13889596528477L222.44444444444443,143.1262455152141L222.75555555555556,136.72476363844342L223.06666666666666,143.70512590805689L223.3777777777778,121.08489178286659L223.6888888888889,136.13703894284038L224,134.06524554888406L224.3111111111111,145.9024790773789L224.6222222222222,133.54779047436185L224.93333333333334,137.00960411959224L225.24444444444444,138.64999830060535L225.55555555555557,142.59916662507587L225.86666666666667,142.31827822989888L226.17777777777778,138.99978295962015L226.48888888888888,147.2860554539495L226.8,135.78043465150725L227.11111111111111,137.3571401271555L227.42222222222222,113.1027390824424L227.73333333333335,143.8959400455157L228.04444444444442,141.74862821234595L228.35555555555555,142.88586968514653L228.66666666666666,147.33673631482654L228.9777777777778,141.5820261273119L229.2888888888889,149.36879149907165L229.6,135.02318874994913L229.91111111111113,147.07294562790128L230.2222222222222,137.80264277590643L230.53333333333333,134.368704451455L230.84444444444443,144.11310289634596L231.15555555555557,146.28534735242525L231.46666666666667,133.20852702856064L231.77777777777777,146.25427661836147L232.0888888888889,149.07764786812993L232.39999999999998,144.86295742458768L232.7111111111111,142.14496260881424L233.0222222222222,119.00027694967058L233.33333333333334,142.14595431420537L233.64444444444445,144.9971927801768L233.95555555555558,150.44705449872546L234.26666666666668,144.0843684905105L234.57777777777775,127.4737261003918L234.88888888888889,142.53245270252228L235.2,146.8600045243899L235.51111111111112,144.28548870152898L235.82222222222222,154.49119592871932L236.13333333333335,143.92665344145564L236.44444444444446,153.3068668693304L236.75555555555553,136.2390460835563L237.06666666666666,146.31247631543212L237.37777777777777,139.86518369118372L237.6888888888889,136.83211390508544L238,141.49845173954964L238.31111111111113,142.79505127999516L238.6222222222222,137.26790285110474L238.93333333333334,131.20066989792716L239.24444444444444,146.3048292795817L239.55555555555554,151.56783042020268L239.86666666666667,137.79321641723314L240.17777777777778,143.302136917909L240.4888888888889,131.14376398589877L240.79999999999998,140.643950925933L241.11111111111111,143.27121869723L241.42222222222222,135.24869047270883L241.73333333333332,142.8652030163341L242.04444444444445,138.9378256864018L242.35555555555555,145.10371638006634L242.66666666666669,145.7236692905426L242.97777777777776,152.08607348054647L243.2888888888889,146.50585665636592L243.6,150.35082002646394L243.9111111111111,109.38150385353302L244.22222222222223,135.11901725663077L244.53333333333333,141.0640553070439L244.84444444444446,138.59868749313884L245.15555555555554,128.81211872895557L245.46666666666667,136.0820737083753L245.77777777777777,125.01072482268017L246.0888888888889,148.88795584605802L246.4,148.05206682284674L246.7111111111111,151.68145510223178L247.02222222222224,146.4048139601946L247.33333333333331,148.09512127770316L247.64444444444445,144.20339524083667L247.95555555555555,126.74951887130737L248.26666666666668,146.19881700476012L248.57777777777778,139.75100347730847L248.88888888888889,137.8331086138884L249.20000000000002,146.02153750922946L249.5111111111111,137.51397988200188L249.82222222222222,139.6010172466437L250.13333333333333,126.97531530592178L250.44444444444446,149.22843129436174L250.75555555555556,149.34995793799558L251.06666666666666,148.44377866387367L251.3777777777778,149.65848735802703L251.68888888888887,148.9954792559147L252,137.0932521853182L252.3111111111111,145.19498274723688L252.62222222222223,147.8413552145163L252.93333333333334,148.16635902722678L253.24444444444447,144.64457741379738L253.55555555555554,144.77021013034712L253.86666666666665,139.501612411605L254.17777777777778,145.6723186969757L254.48888888888888,147.46801718407207L254.8,152.13567017018795L255.11111111111111,144.22406927744547L255.42222222222225,146.68450066778394L255.73333333333332,137.78639383779634L256.0444444444444,149.54491056667436L256.35555555555555,141.22933118873172L256.66666666666663,127.65256020095613L256.97777777777776,146.57125174336963L257.2888888888889,147.75067974461447L257.6,151.48287604418067L257.9111111111111,122.96416023704742L258.22222222222223,126.7242296470536L258.53333333333336,129.77137045065564L258.84444444444443,150.40073389973907L259.15555555555557,147.46292603678174L259.46666666666664,139.98095240195593L259.77777777777777,146.23083892133502L260.0888888888889,140.79735434055328L260.40000000000003,147.38850245210858L260.7111111111111,132.00703100363415L261.0222222222222,143.01739663879076L261.3333333333333,141.83789348602295L261.64444444444445,146.35445507201882L261.9555555555556,145.0614871184031L262.26666666666665,138.69583188825183L262.5777777777778,147.53375561038652L262.8888888888889,141.17042860388756L263.2,136.40661334991455L263.5111111111111,143.3957123524613L263.8222222222222,143.5848952598042L264.1333333333333,145.31355122062894L264.44444444444446,126.99766035874686L264.7555555555556,147.75017947124113" style="fill: none;" fill="none"></path></g></g></g></g></g></g><g transform="translate(50, 178)" clip-path="url(#clip_1)"><clipPath id="clip_1"><rect width="280" height="21"></rect></clipPath><g><g><line x1="0" y1="0" x2="0" y2="5" style="visibility: inherit;" fill="rgb(0, 0, 0)" stroke="rgb(204, 204, 204)" stroke-width="1px"></line><line x1="31.11111111111111" y1="0" x2="31.11111111111111" y2="5" style="visibility: inherit;" fill="rgb(0, 0, 0)" stroke="rgb(204, 204, 204)" stroke-width="1px"></line><line x1="62.22222222222222" y1="0" x2="62.22222222222222" y2="5" style="visibility: inherit;" fill="rgb(0, 0, 0)" stroke="rgb(204, 204, 204)" stroke-width="1px"></line><line x1="93.33333333333333" y1="0" x2="93.33333333333333" y2="5" style="visibility: inherit;" fill="rgb(0, 0, 0)" stroke="rgb(204, 204, 204)" stroke-width="1px"></line><line x1="124.44444444444444" y1="0" x2="124.44444444444444" y2="5" style="visibility: inherit;" fill="rgb(0, 0, 0)" stroke="rgb(204, 204, 204)" stroke-width="1px"></line><line x1="155.55555555555557" y1="0" x2="155.55555555555557" y2="5" style="visibility: inherit;" fill="rgb(0, 0, 0)" stroke="rgb(204, 204, 204)" stroke-width="1px"></line><line x1="186.66666666666666" y1="0" x2="186.66666666666666" y2="5" style="visibility: inherit;" fill="rgb(0, 0, 0)" stroke="rgb(204, 204, 204)" stroke-width="1px"></line><line x1="217.77777777777777" y1="0" x2="217.77777777777777" y2="5" style="visibility: inherit;" fill="rgb(0, 0, 0)" stroke="rgb(204, 204, 204)" stroke-width="1px"></line><line x1="248.88888888888889" y1="0" x2="248.88888888888889" y2="5" style="visibility: inherit;" fill="rgb(0, 0, 0)" stroke="rgb(204, 204, 204)" stroke-width="1px"></line><line x1="280" y1="0" x2="280" y2="5" style="visibility: inherit;" fill="rgb(0, 0, 0)" stroke="rgb(204, 204, 204)" stroke-width="1px"></line></g><g transform="translate(0, 8)"><text x="0" y="0" dx="0em" dy="0.95em" style="text-anchor: middle; visibility: hidden; font-family: Roboto, sans-serif; font-size: 12px; font-weight: 200;" fill="rgb(50, 49, 63)" stroke="none" stroke-width="1px">-100</text><text x="31.11111111111111" y="0" dx="0em" dy="0.95em" style="text-anchor: middle; visibility: inherit; font-family: Roboto, sans-serif; font-size: 12px; font-weight: 200;" fill="rgb(50, 49, 63)" stroke="none" stroke-width="1px">0</text><text x="62.22222222222222" y="0" dx="0em" dy="0.95em" style="text-anchor: middle; visibility: inherit; font-family: Roboto, sans-serif; font-size: 12px; font-weight: 200;" fill="rgb(50, 49, 63)" stroke="none" stroke-width="1px">100</text><text x="93.33333333333333" y="0" dx="0em" dy="0.95em" style="text-anchor: middle; visibility: inherit; font-family: Roboto, sans-serif; font-size: 12px; font-weight: 200;" fill="rgb(50, 49, 63)" stroke="none" stroke-width="1px">200</text><text x="124.44444444444444" y="0" dx="0em" dy="0.95em" style="text-anchor: middle; visibility: inherit; font-family: Roboto, sans-serif; font-size: 12px; font-weight: 200;" fill="rgb(50, 49, 63)" stroke="none" stroke-width="1px">300</text><text x="155.55555555555557" y="0" dx="0em" dy="0.95em" style="text-anchor: middle; visibility: inherit; font-family: Roboto, sans-serif; font-size: 12px; font-weight: 200;" fill="rgb(50, 49, 63)" stroke="none" stroke-width="1px">400</text><text x="186.66666666666666" y="0" dx="0em" dy="0.95em" style="text-anchor: middle; visibility: inherit; font-family: Roboto, sans-serif; font-size: 12px; font-weight: 200;" fill="rgb(50, 49, 63)" stroke="none" stroke-width="1px">500</text><text x="217.77777777777777" y="0" dx="0em" dy="0.95em" style="text-anchor: middle; visibility: inherit; font-family: Roboto, sans-serif; font-size: 12px; font-weight: 200;" fill="rgb(50, 49, 63)" stroke="none" stroke-width="1px">600</text><text x="248.88888888888889" y="0" dx="0em" dy="0.95em" style="text-anchor: middle; visibility: inherit; font-family: Roboto, sans-serif; font-size: 12px; font-weight: 200;" fill="rgb(50, 49, 63)" stroke="none" stroke-width="1px">700</text><text x="280" y="0" dx="0em" dy="0.95em" style="text-anchor: middle; visibility: hidden; font-family: Roboto, sans-serif; font-size: 12px; font-weight: 200;" fill="rgb(50, 49, 63)" stroke="none" stroke-width="1px">800</text></g><line x1="0" y1="0" x2="280" y2="0" fill="rgb(0, 0, 0)" stroke="rgb(204, 204, 204)" stroke-width="1px"></line></g></g></g></g></svg>