<svg viewBox="0 0 330 200" xmlns="http://www.w3.org/2000/svg"><g><g><g><g><g><line x1="60" y1="178" x2="55" y2="178" style="visibility: inherit;" fill="rgb(0, 0, 0)" stroke="rgb(204, 204, 204)" stroke-width="1px"></line><line x1="60" y1="158.2222222222222" x2="55" y2="158.2222222222222" style="visibility: inherit;" fill="rgb(0, 0, 0)" stroke="rgb(204, 204, 204)" stroke-width="1px"></line><line x1="60" y1="138.44444444444446" x2="55" y2="138.44444444444446" style="visibility: inherit;" fill="rgb(0, 0, 0)" stroke="rgb(204, 204, 204)" stroke-width="1px"></line><line x1="60" y1="118.66666666666669" x2="55" y2="118.66666666666669" style="visibility: inherit;" fill="rgb(0, 0, 0)" stroke="rgb(204, 204, 204)" stroke-width="1px"></line><line x1="60" y1="98.8888888888889" x2="55" y2="98.8888888888889" style="visibility: inherit;" fill="rgb(0, 0, 0)" stroke="rgb(204, 204, 204)" stroke-width="1px"></line><line x1="60" y1="79.1111111111111" x2="55" y2="79.1111111111111" style="visibility: inherit;" fill="rgb(0, 0, 0)" stroke="rgb(204, 204, 204)" stroke-width="1px"></line><line x1="60" y1="59.33333333333332" x2="55" y2="59.33333333333332" style="visibility: inherit;" fill="rgb(0, 0, 0)" stroke="rgb(204, 204, 204)" stroke-width="1px"></line><line x1="60" y1="39.55555555555557" x2="55" y2="39.55555555555557" style="visibility: inherit;" fill="rgb(0, 0, 0)" stroke="rgb(204, 204, 204)" stroke-width="1px"></line><line x1="60" y1="19.777777777777768" x2="55" y2="19.777777777777768" style="visibility: inherit;" fill="rgb(0, 0, 0)" stroke="rgb(204, 204, 204)" stroke-width="1px"></line><line x1="60" y1="0" x2="55" y2="0" style="visibility: inherit;" fill="rgb(0, 0, 0)" stroke="rgb(204, 204, 204)" stroke-width="1px"></line></g><g transform="translate(50, 0)"><text x="0" y="178" dx="0em" dy="0.3em" style="text-anchor: end; visibility: hidden; font-family: Roboto, sans-serif; font-size: 12px; font-weight: 200;" fill="rgb(50, 49, 63)" stroke="none" stroke-width="1px">-5e-3</text><text x="0" y="158.2222222222222" dx="0em" dy="0.3em" style="text-anchor: end; visibility: inherit; font-family: Roboto, sans-serif; font-size: 12px; font-weight: 200;" fill="rgb(50, 49, 63)" stroke="none" stroke-width="1px">0</text><text x="0" y="138.44444444444446" dx="0em" dy="0.3em" style="text-anchor: end; visibility: hidden; font-family: Roboto, sans-serif; font-size: 12px; font-weight: 200;" fill="rgb(50, 49, 63)" stroke="none" stroke-width="1px">5e-3</text><text x="0" y="118.66666666666669" dx="0em" dy="0.3em" style="text-anchor: end; visibility: inherit; font-family: Roboto, sans-serif; font-size: 12px; font-weight: 200;" fill="rgb(50, 49, 63)" stroke="none" stroke-width="1px">0.01</text><text x="0" y="98.8888888888889" dx="0em" dy="0.3em" style="text-anchor: end; visibility: hidden; font-family: Roboto, sans-serif; font-size: 12px; font-weight: 200;" fill="rgb(50, 49, 63)" stroke="none" stroke-width="1px">0.015</text><text x="0" y="79.1111111111111" dx="0em" dy="0.3em" style="text-anchor: end; visibility: inherit; font-family: Roboto, sans-serif; font-size: 12px; font-weight: 200;" fill="rgb(50, 49, 63)" stroke="none" stroke-width="1px">0.02</text><text x="0" y="59.33333333333332" dx="0em" dy="0.3em" style="text-anchor: end; visibility: hidden; font-family: Roboto, sans-serif; font-size: 12px; font-weight: 200;" fill="rgb(50, 49, 63)" stroke="none" stroke-width="1px">0.025</text><text x="0" y="39.55555555555557" dx="0em" dy="0.3em" style="text-anchor: end; visibility: inherit; font-family: Roboto, sans-serif; font-size: 12px; font-weight: 200;" fill="rgb(50, 49, 63)" stroke="none" stroke-width="1px">0.03</text><text x="0" y="19.777777777777768" dx="0em" dy="0.3em" style="text-anchor: end; visibility: hidden; font-family: Roboto, sans-serif; font-size: 12px; font-weight: 200;" fill="rgb(50, 49, 63)" stroke="none" stroke-width="1px">0.035</text><text x="0" y="0" dx="0em" dy="0.3em" style="text-anchor: end; visibility: hidden; font-family: Roboto, sans-serif; font-size: 12px; font-weight: 200;" fill="rgb(50, 49, 63)" stroke="none" stroke-width="1px">0.04</text></g><line x1="60" y1="0" x2="60" y2="178" fill="rgb(0, 0, 0)" stroke="rgb(204, 204, 204)" stroke-width="1px"></line></g></g><g transform="translate(60, 0)" clip-path="url(#clip_0)"><clipPath id="clip_0"><rect width="270" height="177"></rect></clipPath><g><g><g><line x1="0" y1="0" x2="0" y2="178" fill="rgb(0, 0, 0)" stroke="rgb(60, 60, 60)" stroke-width="1px" opacity="0.25"></line><line x1="27" y1="0" x2="27" y2="178" fill="rgb(0, 0, 0)" stroke="rgb(60, 60, 60)" stroke-width="1px" opacity="0.25"></line><line x1="54" y1="0" x2="54" y2="178" fill="rgb(0, 0, 0)" stroke="rgb(60, 60, 60)" stroke-width="1px" opacity="0.25"></line><line x1="81" y1="0" x2="81" y2="178" fill="rgb(0, 0, 0)" stroke="rgb(60, 60, 60)" stroke-width="1px" opacity="0.25"></line><line x1="108" y1="0" x2="108" y2="178" fill="rgb(0, 0, 0)" stroke="rgb(60, 60, 60)" stroke-width="1px" opacity="0.25"></line><line x1="135" y1="0" x2="135" y2="178" fill="rgb(0, 0, 0)" stroke="rgb(60, 60, 60)" stroke-width="1px" opacity="0.25"></line><line x1="162" y1="0" x2="162" y2="178" fill="rgb(0, 0, 0)" stroke="rgb(60, 60, 60)" stroke-width="1px" opacity="0.25"></line><line x1="189" y1="0" x2="189" y2="178" fill="rgb(0, 0, 0)" stroke="rgb(60, 60, 60)" stroke-width="1px" opacity="0.25"></line><line x1="216" y1="0" x2="216" y2="178" fill="rgb(0, 0, 0)" stroke="rgb(60, 60, 60)" stroke-width="1px" opacity="0.25"></line><line x1="243" y1="0" x2="243" y2="178" fill="rgb(0, 0, 0)" stroke="rgb(60, 60, 60)" stroke-width="1px" opacity="0.25"></line><line x1="270" y1="0" x2="270" y2="178" fill="rgb(0, 0, 0)" stroke="rgb(60, 60, 60)" stroke-width="1px" opacity="0.25"></line></g><g><line x1="0" y1="178" x2="270" y2="178" fill="rgb(0, 0, 0)" stroke="rgb(60, 60, 60)" stroke-width="1px" opacity="0.25"></line><line x1="0" y1="158.2222222222222" x2="270" y2="158.2222222222222" fill="rgb(0, 0, 0)" stroke="rgb(60, 60, 60)" stroke-width="1px" opacity="0.25"></line><line x1="0" y1="138.44444444444446" x2="270" y2="138.44444444444446" fill="rgb(0, 0, 0)" stroke="rgb(60, 60, 60)" stroke-width="1px" opacity="0.25"></line><line x1="0" y1="118.66666666666669" x2="270" y2="118.66666666666669" fill="rgb(0, 0, 0)" stroke="rgb(60, 60, 60)" stroke-width="1px" opacity="0.25"></line><line x1="0" y1="98.8888888888889" x2="270" y2="98.8888888888889" fill="rgb(0, 0, 0)" stroke="rgb(60, 60, 60)" stroke-width="1px" opacity="0.25"></line><line x1="0" y1="79.1111111111111" x2="270" y2="79.1111111111111" fill="rgb(0, 0, 0)" stroke="rgb(60, 60, 60)" stroke-width="1px" opacity="0.25"></line><line x1="0" y1="59.33333333333332" x2="270" y2="59.33333333333332" fill="rgb(0, 0, 0)" stroke="rgb(60, 60, 60)" stroke-width="1px" opacity="0.25"></line><line x1="0" y1="39.55555555555557" x2="270" y2="39.55555555555557" fill="rgb(0, 0, 0)" stroke="rgb(60, 60, 60)" stroke-width="1px" opacity="0.25"></line><line x1="0" y1="19.777777777777768" x2="270" y2="19.777777777777768" fill="rgb(0, 0, 0)" stroke="rgb(60, 60, 60)" stroke-width="1px" opacity="0.25"></line><line x1="0" y1="0" x2="270" y2="0" fill="rgb(0, 0, 0)" stroke="rgb(60, 60, 60)" stroke-width="1px" opacity="0.25"></line></g></g></g><g><g><line x1="0" y1="158.2222222222222" x2="270" y2="158.2222222222222" fill="rgb(0, 0, 0)" stroke="rgb(153, 153, 153)" stroke-width="1.5px"></line></g></g><g><g><line x1="27" y1="0" x2="27" y2="178" fill="rgb(0, 0, 0)" stroke="rgb(153, 153, 153)" stroke-width="1.5px"></line></g></g><g><g><g><g><g><path stroke="rgb(255, 112, 67)" stroke-width="2px" d="M27,60.507036556800195L27.270000000000003,62.15120176018937L27.54,58.1880354308217L27.81,32.698044364651054L28.08,48.05473728555513L28.349999999999998,58.508853105382464L28.619999999999997,56.36868314660754L28.89,39.68269274228045L29.16,47.62285196246717L29.43,37.03920890673964L29.7,38.239378548934724L29.97,50.275421051450834L30.240000000000002,59.22382715280304L30.51,59.303496010656204L30.78,67.3512292727678L31.05,57.31408535413785L31.32,37.978866705790054L31.590000000000003,42.86606490502267L31.86,47.270671873588746L32.129999999999995,45.527072411753515L32.4,35.65398070453746L32.67,33.30072183475699L32.94,31.8635823795424L33.21,31.68461043154986L33.48,41.00837878253211L33.75,42.48086126345086L34.02,45.25527538783727L34.29,49.05650178461488L34.56,58.76257477522146L34.83,62.4880118200991L35.1,67.18379659731151L35.370000000000005,62.683633019340085L35.64,61.693957321824065L35.910000000000004,66.8105891963099L36.18,69.08338148780533L36.45,63.99119908358245L36.720000000000006,27.4182011862277L36.99,42.47027442625102L37.260000000000005,41.83061658394774L37.53,49.2628867775026L37.800000000000004,56.74230862097081L38.06999999999999,60.05559981818515L38.339999999999996,36.98624135026793L38.61,34.7331915194033L38.879999999999995,47.906739339927206L39.15,49.51892318280622L39.419999999999995,55.520242044599726L39.69,52.32402017794473L39.96,36.617302904806074L40.23,40.21273162318416L40.5,49.30018232481007L40.769999999999996,54.72058514884494L41.04,45.166438537940216L41.31,37.94371650105246L41.58,43.299039056152004L41.85,49.19182055607655L42.12,53.15725301817941L42.39,52.466210287175464L42.660000000000004,45.88899178056245L42.93,53.19352150012087L43.2,55.87089802585799L43.47,44.44288170858525L43.74,44.12731352429835L44.010000000000005,41.078239078542374L44.28,54.60883146636935L44.550000000000004,41.97263501155322L44.82,58.810641218961294L45.09,58.004284832720565L45.36,63.072954334457826L45.63,54.292155425996306L45.900000000000006,41.76041990195754L46.17,52.14484378568028L46.44,35.315624634322326L46.709999999999994,32.56843667554005L46.98,26.962797951661397L47.25,33.31663041430485L47.519999999999996,42.691174082001005L47.79,53.119417644100686L48.059999999999995,46.64835998806793L48.33,52.557461931004084L48.6,44.217026010039476L48.87,45.023141293654675L49.14,54.12328917187905L49.41,57.96474671471257L49.68,61.38891034058284L49.95,56.14289781158762L50.22,59.895841646426504L50.49,57.20988470144419L50.76,62.84088088833367L51.03,68.74650897573609L51.3,66.69346390427523L51.57,35.09909538451327L51.84,39.202409643737084L52.11,47.55258780646778L52.38,49.4359551756621L52.65,52.025203033297366L52.92,56.87823957708689L53.190000000000005,59.66228328450846L53.46,45.17932287635999L53.730000000000004,60.42820960418606L54,45.8462143522011L54.27,53.23137134203356L54.540000000000006,33.92920788460399L54.81,36.31777336398817L55.08,47.913994966480814L55.349999999999994,59.54261021924039L55.62,65.31056778961299L55.89,60.52344795200884L56.16,56.15785045173627L56.43,42.98798437961059L56.699999999999996,52.73971448370686L56.97,58.02618188742786L57.239999999999995,63.69468433575887L57.51,64.19703536712696L57.78,68.76879128969519L58.05,66.10087919527373L58.32,67.84550345649106L58.589999999999996,56.20348268508119L58.86,66.01093696874567L59.13,60.98243880397722L59.4,58.29952546566049L59.67,57.57566066813725L59.94,40.59633320311065L60.21,53.17168801205304L60.480000000000004,39.51676531539528L60.75,54.817872366081026L61.02,43.392192353601786L61.29,54.69610658805634L61.56,60.44363928747812L61.830000000000005,65.01457490007994L62.1,55.34582688631498L62.370000000000005,67.05405183897876L62.64,65.01014603535212L62.910000000000004,68.88729532310624L63.18000000000001,77.29070543166223L63.449999999999996,71.65948464886745L63.72,63.86035728172965L63.989999999999995,73.17761329508394L64.25999999999999,66.82092889498945L64.53,69.60234558261863L64.8,68.04658815403572L65.07,69.28529858076449L65.34,55.6773188785413L65.61,63.09903649013103L65.88,61.71920370637557L66.15,70.9205547506363L66.42,64.32025581209366L66.69,61.09724510542323L66.96,41.3954053689943L67.23,54.98409240066443L67.5,64.68296514853829L67.77,32.14327457093196L68.04,44.813155498032415L68.31,60.33725405092516L68.58,62.26059037129038L68.85,75.50533167197942L69.12,76.09092563461711L69.39,53.98838325781495L69.66,59.47310167947466L69.93,66.11654826772973L70.2,67.3972851733068L70.47,78.37080901793172L70.74000000000001,81.30888087841124L71.01,71.60826098629516L71.28,56.86951930746643L71.55,68.7545349431216L71.82000000000001,74.11430839491959L72.09,63.275349378677L72.36,68.22144995271007L72.63000000000001,67.65858605653017L72.9,71.56012092189638L73.17,77.99608369231876L73.44000000000001,58.02819501826889L73.71000000000001,62.34060964930558L73.98,68.62777379720512L74.25,82.37365045754242L74.52000000000001,82.14419223432617L74.79,73.55784457530173L75.06,82.3930547107924L75.33000000000001,79.71217544758996L75.60000000000001,84.30119653076736L75.87,65.59836015554087L76.13999999999999,72.12799621626162L76.41,52.15080885956011L76.67999999999999,64.26939753414783L76.94999999999999,54.603522337472654L77.22,52.221148756674005L77.49,60.674718670565504L77.75999999999999,70.70117024796987L78.03,74.86294113262498L78.3,64.50536808038818L78.57,79.76321316890294L78.83999999999999,82.06865315317538L79.11,79.30435764002456L79.38,62.738447209774726L79.64999999999999,37.48579970632749L79.92,60.3805214171362L80.19,78.71355380378013L80.46,73.11354529715683L80.72999999999999,80.38127995379367L81,73.50753431692944L81.27,60.944345595159156L81.53999999999999,74.48117983840986L81.81,83.32545115452855L82.08,68.37783857922861L82.35,66.03403987399075L82.62,72.66443504439592L82.89,82.640665496668L83.16,74.23760141846387L83.42999999999999,75.57377546976117L83.7,82.24792600045664L83.97,82.63701801123258L84.24,89.27257841004155L84.51,80.86090392706062L84.78,81.79792619250574L85.05,77.99940906930051L85.32000000000001,84.54914981306442L85.59,74.61090944450936L85.86,78.37865219922634L86.13,77.40810949518016L86.4,85.31135157493986L86.67,82.58780347488597L86.94,79.59715131298731L87.21000000000001,83.87378885771453L87.48,46.21440592463188L87.75,59.95079467263376L88.02000000000001,47.91313386102451L88.29,66.12517540405815L88.56,81.50591936625086L88.83,88.10389887508641L89.10000000000001,85.93495223055417L89.37,88.86583214612219L89.64,88.32442878120656L89.91000000000001,85.14337798085586L90.18,88.59913393996887L90.45,70.23340973078183L90.72,82.21338707630551L90.99000000000001,83.29639530964856L91.26,74.84355602469275L91.53,82.92045721759801L91.80000000000001,85.61411390712105L92.07000000000001,75.7851848311505L92.34,70.65371571226603L92.61000000000001,74.19938204698641L92.88,84.35948647268343L93.14999999999999,84.54572472365005L93.41999999999999,81.43387109473132L93.69,80.06209292008681L93.96,72.58190665506508L94.22999999999999,79.82998425481631L94.5,84.39769267933978L94.77,76.80012352935256L95.03999999999999,73.80545870797239L95.30999999999999,61.41026451390824L95.58,71.20156685101759L95.85,64.43283540162109L96.11999999999999,54.46058443875708L96.39,74.41661456970664L96.66,75.07427734383917L96.92999999999999,84.01188647166938L97.2,82.2786643072926L97.47,81.8111704739244L97.74,94.95484041618506L98.00999999999999,102.26393762762333L98.28,100.35850912187821L98.55,92.47660062358705L98.82,83.87896162325364L99.09,80.83818939956561L99.36,86.87756963881706L99.63,95.81892396729235L99.9,91.04680255882569L100.17,97.32446142931359L100.44,84.41632337444105L100.71,83.81210837738891L100.98,91.88654025514565L101.25,90.11264306775516L101.52,94.1890166853839L101.79,85.83036534319164L102.06,89.74455766344639L102.33,95.78749834708448L102.6,105.32524297893623L102.87,102.26863432483225L103.14,92.32118693524409L103.41,86.79881204751085L103.68,82.58554635596442L103.95,80.62819624567663L104.22,65.070318114507L104.49000000000001,86.47849814731083L104.76,94.41419334593337L105.03,102.34537497722195L105.3,87.04015246104385L105.57000000000001,90.53550525879903L105.84,56.648809125280636L106.11,71.58004330610609L106.38000000000001,82.46979482911587L106.65,85.97470339634886L106.92,80.85400163100151L107.19000000000001,82.31594054347534L107.46000000000001,89.19152015250015L107.73,96.28061852866395L108,95.43694761337564L108.27000000000001,93.6344461298489L108.54,92.32394528725764L108.81,83.42548878792337L109.08000000000001,91.31286336794875L109.35000000000001,92.88610228587417L109.62,98.82432850811419L109.88999999999999,83.53761631880987L110.16,64.4225179312713L110.42999999999999,67.07804028208247L110.69999999999999,87.72909912939649L110.97,88.42655532709892L111.24,74.90483118717485L111.50999999999999,90.34299905341301L111.78,99.27928093948161L112.05,104.98628437910065L112.32,100.61286609672324L112.58999999999999,108.50550304037024L112.86,96.13017828440348L113.13,72.44362026888868L113.39999999999999,87.94036447998461L113.67,93.92470185688416L113.94,87.89477028355432L114.21,93.9414740185929L114.47999999999999,92.63593729223764L114.75,97.99437789054289L115.02,105.56798891715484L115.28999999999999,105.52411969133914L115.56,106.58428730014847L115.83,92.04151166081094L116.1,90.42243952843677L116.37,96.43900776481507L116.64,95.31602220216256L116.91,95.02953528981061L117.17999999999999,100.3040979919075L117.45,92.28375447561446L117.72,87.37964836818041L117.99,84.17284879986349L118.26,95.72456439742454L118.53,92.74175957155298L118.8,98.73081778076532L119.07000000000001,106.35595361211908L119.34,102.43616630260885L119.61,104.5366296851785L119.88,91.65968319281843L120.15,84.13958372046163L120.42,98.61909782113399L120.69,99.8393118401341L120.96000000000001,97.84428873843453L121.23,99.16687114614814L121.5,100.01047003150457L121.77000000000001,89.14512529434381L122.04,94.53298616485765L122.31,92.00475934392395L122.58,99.34553687454307L122.85000000000001,93.90587740350392L123.12,96.45164662591458L123.39,88.88258067894417L123.66000000000001,94.72439086381326L123.93,102.8060028450314L124.2,109.0987029941189L124.47,105.96940557520766L124.74000000000001,100.18175085336011L125.01,107.52678652309733L125.28,77.29902319996238L125.55000000000001,86.21230859690117L125.82000000000001,98.93303915076709L126.09,93.85297111267468L126.36000000000001,89.8661846189708L126.63,102.75998111911015L126.89999999999999,107.07626203902998L127.16999999999999,97.6670938252581L127.44,100.83463704435398L127.71,108.38829630191812L127.97999999999999,105.58513294867754L128.25,100.46321081248172L128.51999999999998,101.03765016141548L128.79,102.31267194223878L129.06,110.91846443444642L129.32999999999998,110.77887271250046L129.6,98.1323691378983L129.87,77.03255913746733L130.14,95.41798093572683L130.41,93.61640858246142L130.68,92.20329249192561L130.95,93.75048419144655L131.22,95.8697357103309L131.49,102.23583930747859L131.76,100.6759462072812L132.03,109.35224084012549L132.3,109.19656356346314L132.57,110.41168225311262L132.84,101.39824854567794L133.10999999999999,108.84235127178586L133.38,95.63163336559784L133.65,102.12175356613389L133.92,97.6058265244968L134.19,94.10083710938073L134.46,106.0308180842826L134.73,106.22479648686955L135,109.0750132121494L135.27,112.07002504441908L135.54,115.90399501718677L135.81,120.26711389950803L136.08,119.04061643996968L136.35,119.30156460369443L136.62,111.10189125583126L136.89000000000001,108.89469473018247L137.16,99.47950196404324L137.43,99.51784619374511L137.7,103.77039223190874L137.97,103.26162164045081L138.24,105.83084167552943L138.51,99.97366647562491L138.78,82.50541813623241L139.05,100.52846039868857L139.32,87.56403149885415L139.59,98.35652085244809L139.86,106.59734289507163L140.13,104.87871347993007L140.4,108.09409936147564L140.67000000000002,79.23516360580834L140.94,74.74150368567255L141.21,82.73355478509501L141.48000000000002,89.00646921076915L141.75,84.66385738101724L142.02,87.62614873410867L142.29000000000002,90.49611764633289L142.56,101.71559816158657L142.83,101.11326702833944L143.1,107.19429012246063L143.37,103.3415869315228L143.64000000000001,107.0856968400071L143.91,108.39431009116907L144.18,96.42780593952088L144.45000000000002,99.99661063703229L144.72,98.10172029731734L144.99,103.00688159901736L145.26000000000002,105.56116060942381L145.53,103.46714244602106L145.8,93.0075257439493L146.07000000000002,77.49490856045954L146.34,91.21857900171163L146.61,83.40345591620479L146.88000000000002,98.4826866248203L147.15,87.25380188710538L147.42000000000002,94.3014264864282L147.69,99.51491352891261L147.96,101.17299775863887L148.23000000000002,103.71818295536228L148.5,107.18399854087836L148.77,110.60081808451551L149.04000000000002,85.02043269353021L149.31,97.85230734380893L149.58,99.58708750996013L149.85000000000002,107.11090468442252L150.12,102.59992736159583L150.39000000000001,96.53484003690176L150.66000000000003,100.08809341558195L150.93,86.23692121645831L151.20000000000002,96.9850360849627L151.47000000000003,98.9934387577385L151.74,98.58554595745467L152.01,98.95842317563412L152.27999999999997,111.27663774980375L152.54999999999998,116.71890813393026L152.82,106.11934928135318L153.08999999999997,108.72073019433434L153.35999999999999,116.05083358949801L153.63,108.2473488814284L153.89999999999998,109.78267322381235L154.17,109.28542998737697L154.44,97.82464856688144L154.70999999999998,108.51791910267913L154.98,116.27223205628223L155.25,118.5897316002581L155.51999999999998,114.7613411828783L155.79,118.516595047475L156.06,108.73817863039503L156.32999999999998,109.3386776869502L156.6,119.3260235155626L156.86999999999998,84.75712277283293L157.14,89.15961932878373L157.41,97.28676731498118L157.67999999999998,91.30378039810371L157.95,91.91478744824715L158.22,103.52251964285631L158.48999999999998,98.19392440933116L158.76,101.22531370319469L159.03,110.24949994681803L159.29999999999998,113.47103131081442L159.57,107.0294342745622L159.84,106.51440823663289L160.10999999999999,109.1256732260526L160.38,77.00870622686588L160.65,98.43342862455607L160.92,105.60882202013137L161.19,114.59155957699764L161.45999999999998,115.79829634110698L161.73,113.79956777819336L162,117.49503184977841L162.26999999999998,120.1382146031413L162.54,100.46063446572609L162.81,107.32797405000575L163.07999999999998,99.1243753326498L163.35,101.90094441197357L163.62,101.08880122913148L163.89,104.09080642443169L164.16,102.45146377737748L164.43,99.71133132821907L164.7,109.61992709267095L164.97,109.24799488773053L165.24,103.04876582961013L165.51,108.56432938924536L165.78,105.60336778903003L166.05,111.30229259139695L166.32,107.29241547151246L166.59,110.91333926086595L166.85999999999999,117.07765951043017L167.13,116.29639569889893L167.4,107.83788851350049L167.67,96.93270293146072L167.94,108.93649527856198L168.21,107.65319119616109L168.48,110.59449745053307L168.75,118.01670184996942L169.02,50.33178657783733L169.29,65.28325240508912L169.56,76.5074073819755L169.83,90.83807779375678L170.1,101.78786951847584L170.37,114.37072547470822L170.64000000000001,120.17381745295897L170.91,124.62141539020975L171.18,127.98608650053393L171.45,121.5778482917704L171.72,116.41696388704126L171.99,122.16828875584265L172.26,123.27108043868391L172.53,124.87939202914731L172.8,86.50736641431574L173.07,95.79897878560922L173.34,106.39322506582837L173.61,109.08899626848759L173.88,111.7815147879779L174.15,111.66673723517216L174.42000000000002,117.90957598151448L174.69,124.8261584890254L174.96,92.39531510453297L175.23000000000002,106.56298078856723L175.5,114.79815386126883L175.77,102.55768330065013L176.04000000000002,105.45639439854914L176.31,83.62410127183135L176.58,100.82135603993669L176.85,104.33887330460932L177.12,109.4119244819982L177.39000000000001,116.77695228593171L177.66,121.23165120610234L177.93,120.01232676728416L178.20000000000002,84.02860561557256L178.47,88.87831140354527L178.74,97.68105166167503L179.01000000000002,108.2703428560458L179.28,106.20326310360208L179.55,111.05770650881792L179.82000000000002,108.07994313465512L180.09,110.77156288944524L180.36,117.66789643148951L180.63000000000002,121.17217216532981L180.9,106.82639008679257L181.17000000000002,110.75580546873437L181.44,116.86155438592608L181.71,119.94848693247316L181.98000000000002,71.42239129511587L182.25,91.37252225128324L182.52,103.45735277985705L182.79000000000002,110.14077752649557L183.06,113.31952391026942L183.33,103.04722818243951L183.60000000000002,109.90265998812256L183.87,95.3506546736728L184.14000000000001,78.25183041419412L184.41000000000003,91.7715666815522L184.68,103.64564251054622L184.95000000000002,113.97667602952563L185.22000000000003,117.13899115542982L185.49,109.56483928321713L185.76,109.56514240478822L186.02999999999997,96.17530924517457L186.29999999999998,102.1485259552445L186.57,107.60781802983294L186.83999999999997,108.07737392204396L187.10999999999999,114.86908160922033L187.38,115.9901179409649L187.64999999999998,114.5326921272916L187.92,112.85058911613477L188.19,117.36574523299711L188.45999999999998,121.18663348081908L188.73,124.05039020836936L189,127.16662613692897L189.26999999999998,105.77731320545882L189.54,115.85438926324069L189.81,119.66177524774828L190.07999999999998,119.63972702678446L190.35,121.39460123678552L190.61999999999998,113.61455467337008L190.89,110.9541598849447L191.16,112.15240734243766L191.42999999999998,119.0055892999433L191.7,117.14216920282551L191.97,120.83330181500314L192.23999999999998,122.9666423839655L192.51,125.92073236558794L192.78,126.02808058452979L193.04999999999998,128.2384795663962L193.32,128.01876150445065L193.59,122.4527793009303L193.85999999999999,122.51307582201558L194.13,115.13402938781711L194.4,115.49859712881961L194.67,101.68861731507252L194.94,99.62725324601652L195.20999999999998,111.68057346313297L195.48,112.79495164866044L195.75,113.31141882938357L196.01999999999998,96.90547113962961L196.29,111.17200159472355L196.56,115.52259244321397L196.82999999999998,112.39514733101758L197.1,113.93903826588556L197.37,117.61115897048016L197.64,113.2241998355498L197.91,107.35532488603187L198.18,114.91135945029335L198.45,119.29951336447759L198.72,115.45307717335176L198.99,116.94484551450118L199.26,114.02663130449224L199.53,123.51784749890878L199.8,100.68254963066155L200.07,111.92515603075675L200.34,111.44829601932383L200.60999999999999,110.86579272084724L200.88,114.5529531216619L201.15,119.89375200426565L201.42,118.5315923094775L201.69,121.75443352527242L201.96,115.46887365804871L202.23,112.92229979001206L202.5,108.7837433383627L202.77,118.33379764485272L203.04,121.46117531799688L203.31,116.89020246458763L203.58,121.54680340669847L203.85,97.43910043017112L204.12,99.84015141141705L204.39000000000001,97.5958700073498L204.66,108.15516350623393L204.93,117.89185955465359L205.2,122.82118183047552L205.47,127.18220631019194L205.74,122.53727856849517L206.01,125.43858490266666L206.28,108.18951014207758L206.55,106.6135016333677L206.82,104.36883319659073L207.09,100.22512527253053L207.36,101.87867373460689L207.63,109.24484259427088L207.9,118.036441024717L208.17000000000002,117.01122393271571L208.44,123.18614871405974L208.71,115.50826489655886L208.98000000000002,113.27742642731033L209.25,95.52466514715556L209.52,108.1155737393969L209.79000000000002,115.43735989255947L210.06,117.56314402878891L210.33,104.92909615605771L210.6,114.94130077416852L210.87,122.20892932057141L211.14000000000001,83.49529926668129L211.41,101.62410359131938L211.68,101.10537977412596L211.95000000000002,107.93338544074516L212.22,109.05797263194083L212.49,112.09884117568903L212.76000000000002,106.49237676509777L213.03,104.14099985191359L213.3,111.16406662958344L213.57000000000002,116.98346888308876L213.84,122.24375196368588L214.11,126.46887118030908L214.38000000000002,120.48755772622684L214.65,124.42411087480541L214.92000000000002,117.72040034913101L215.19,124.83653155382984L215.46,116.85315821419067L215.73000000000002,122.695586413575L216,124.0098621669011L216.27,130.80755812991572L216.54000000000002,129.14497511163037L216.81,133.75412751083383L217.08,131.61791759769338L217.35000000000002,131.44615017265875L217.62,129.07131959465954L217.89000000000001,128.9308366634517L218.16000000000003,128.58782968238074L218.43,129.44961181967506L218.70000000000002,122.59996706326896L218.97000000000003,124.32563555089688L219.24,126.87041224879192L219.51,130.1995119900038L219.77999999999997,131.4499656965651L220.04999999999998,129.9898997468608L220.32,127.65635459493079L220.58999999999997,118.30219915564477L220.85999999999999,114.77978910373356L221.13,118.38377221047901L221.39999999999998,99.34871426461817L221.67,112.5744584316334L221.94,112.91858141044038L222.20999999999998,122.55439782856129L222.48,126.55853279495504L222.75,130.38686951404043L223.01999999999998,124.25232378949526L223.29,128.9810517733549L223.56,114.98426932326484L223.82999999999998,117.96716711924059L224.1,121.22179170055539L224.36999999999998,117.36134859087079L224.64,119.09535047773393L224.91,124.53682372455785L225.17999999999998,115.70119404552044L225.45,113.10449597227502L225.72,119.83420328888056L225.98999999999998,123.19529926633491L226.26,126.55115551829397L226.53,126.2547199624913L226.79999999999998,126.09986383638932L227.07,128.64232619192825L227.34,129.0425318544306L227.60999999999999,131.76015266899782L227.88,128.5642276393842L228.15,126.1317388070109L228.42,129.18700050991336L228.69,125.14558287536705L228.95999999999998,122.16766276603302L229.23,125.10659245074343L229.5,126.5228990550074L229.76999999999998,119.85571308677126L230.04,117.56414820730858L230.31,123.91249003398521L230.57999999999998,117.23812439209416L230.85,120.07302006052318L231.12,125.23701626439721L231.39,125.91723690855402L231.66,125.33483833064707L231.93,118.2134099840526L232.2,116.96301018830563L232.47,117.41987470237933L232.74,122.55155503222458L233.01,127.08811743969521L233.28,126.51632498783084L233.55,128.33017779770157L233.82,124.51091820759504L234.09,112.04463459972962L234.35999999999999,121.77757293636256L234.63,104.0656406825727L234.9,105.28057686761692L235.17,112.35360174475846L235.44,120.42646191708818L235.71,126.81710507355344L235.98,128.8547993013858L236.25,108.2752495102511L236.52,119.38228047842343L236.79,102.6360216197643L237.06,113.73196309285338L237.33,119.9820792594173L237.6,119.17713631767408L237.87,109.41860562046726L238.14000000000001,79.59497875990023L238.41,102.58416242016285L238.68,111.2429462840268L238.95,117.16057009386341L239.22,120.60920944345385L239.49,116.44250092625057L239.76,113.01942207778488L240.03,120.04819479669793L240.3,127.15490996988015L240.57,114.18675306595867L240.84,121.28754622036716L241.11,124.52496306442586L241.38,128.06848763299672L241.65,128.86707724521835L241.92000000000002,126.82003761895001L242.19,104.95485935350754L242.46,114.71365898825361L242.73000000000002,119.25545518649864" style="fill: none;" fill="none"></path></g></g></g></g><g opacity="0.2"><g><g><g><path stroke="rgb(255, 112, 67)" stroke-width="2px" d="M27,60.507036556800195L27.270000000000003,63.1377008822229L27.54,54.383395754628715L27.81,2.7218148708343506L28.08,68.10443556308746L28.349999999999998,72.9706587658988L28.619999999999997,53.308205862840026L28.89,15.35435854726368L29.16,59.33304451571569L29.43,21.323732429080543L29.7,40.028747561905114L29.97,68.26398519343799L30.240000000000002,72.61721820632616L30.51,59.42284321784973L30.78,79.4133693575859L31.05,42.26544844773081L31.32,8.984220749802056L31.590000000000003,50.19562134477827L31.86,53.876911328898544L32.129999999999995,42.91183259089789L32.4,20.84488460752699L32.67,29.770910965071792L32.94,29.707901570532055L33.21,31.41615462965435L33.48,54.99396503965059L33.75,44.68957870536381L34.02,49.41688947545158L34.29,54.75833554400337L34.56,73.32167532046634L34.83,68.07616532842317L35.1,74.22747220595676L35.370000000000005,55.93338854776487L35.64,60.20944389369751L35.910000000000004,74.48553664154475L36.18,72.49256982737116L36.45,56.352925608555466L36.720000000000006,-27.44129509396023L36.99,65.04838414655791L37.260000000000005,40.87112982405558L37.53,60.41129204299713L37.800000000000004,67.96144137117598L38.06999999999999,65.02553661002052L38.339999999999996,2.3822036650445746L38.61,31.353616774082184L38.879999999999995,67.66706106728977L39.15,51.93719894687336L39.419999999999995,64.52222033672861L39.69,47.52968737814161L39.96,13.057226995627099L40.23,45.60587470067873L40.5,62.931358377138764L40.769999999999996,62.851189384857804L41.04,30.83521862162485L41.31,27.109633445739746L41.58,51.3320228887929L41.85,58.030992805957794L42.12,59.10540171133146L42.39,51.42964619066981L42.660000000000004,36.0231640206443L42.93,64.15031607945758L43.2,59.8869628144635L43.47,27.30085723267662L43.74,43.653961247868004L44.010000000000005,36.5046274099085L44.28,74.90472004810968L44.550000000000004,23.018340329329185L44.82,84.06765053007338L45.09,56.79475025335947L45.36,70.67595858706368L45.63,41.12095706330406L45.900000000000006,22.96281661589941L46.17,67.72147961126433L46.44,10.07179590728548L46.709999999999994,28.44765473736658L46.98,18.554339865843467L47.25,42.84737910827002L47.519999999999996,56.752989583545244L47.79,68.76178298725021L48.059999999999995,36.941773504018784L48.33,61.421114845408326L48.6,31.706372128592605L48.87,46.23231421907744L49.14,67.77351098921562L49.41,63.72693302896286L49.68,66.5251557793882L49.95,48.27387901809481L50.22,65.5252573986848L50.49,53.18094928397074L50.76,71.2873751686679L51.03,77.60495110683969L51.3,63.61389629708395L51.57,-12.292457395129738L51.84,45.35738103257286L52.11,60.07785505056381L52.38,52.26100622945362L52.65,55.90907481975025L52.92,64.15779439277118L53.190000000000005,63.83834884564081L53.46,23.454882264137268L53.730000000000004,83.30153969592517L54,23.97322147422367L54.27,64.30910682678223L54.540000000000006,4.975962698459625L54.81,39.90062158306441L55.08,65.30832737021974L55.349999999999994,76.98553309837976L55.62,73.96250414517189L55.89,53.34276819560262L56.16,49.60945420132744L56.43,23.23318527142208L56.699999999999996,67.36730963985124L56.97,65.95588299300934L57.239999999999995,72.19743800825542L57.51,64.95056191417906L57.78,75.62642517354753L58.05,62.099011053641625L58.32,70.46243984831703L58.589999999999996,38.74045152796641L58.86,80.72211839424239L59.13,53.43969155682459L59.4,54.2751554581854L59.67,56.489863471852395L59.94,15.127342005570735L60.21,72.03472022546661L60.480000000000004,19.03438127040863L60.75,77.76953294210962L61.02,26.253672334882946L61.29,71.65197793973816L61.56,69.0649383366108L61.830000000000005,71.87097831898264L62.1,40.84270486566755L62.370000000000005,84.61638926797441L62.64,61.944287329912186L62.910000000000004,74.70301925473741L63.18000000000001,89.89582059449619L63.449999999999996,63.21265347467527L63.72,52.16166623102295L63.989999999999995,87.15349731511539L64.25999999999999,57.285902294847695L64.53,73.77447061406241L64.8,65.71295201116136L65.07,71.14336422085762L65.34,35.26534932520655L65.61,74.23161290751563L65.88,59.64945453074242L66.15,84.72258131702739L66.42,54.41980740427971L66.69,56.26272904541756L66.96,11.842645764350891L67.23,75.36712294816971L67.5,79.23127427034906L67.77,-16.66626129547756L68.04,63.81797688868309L68.31,83.62340188026428L68.58,65.14559485183821L68.85,95.37244362301296L69.12,76.96931657857364L69.39,20.834569692611694L69.66,67.70017931196425L69.93,76.08171815011237L70.2,69.31839053167236L70.47,94.83109478486908L70.74000000000001,85.71598866913054L71.01,57.05733114812109L71.28,34.761406789223365L71.55,86.58205839660432L71.82000000000001,82.15396857261658L72.09,47.0169108543131L72.36,75.64060081375969L72.63000000000001,66.81429021226035L72.9,77.4124232199457L73.17,87.6500278479523L73.44000000000001,28.0763620071941L73.71000000000001,68.80923159586058L73.98,78.05852001905441L74.25,102.99246544804836L74.52000000000001,81.8000048995018L74.79,60.67832308676506L75.06,95.64586991402838L75.33000000000001,75.69085655278629L75.60000000000001,91.18472815553346L75.87,37.544105592701165L76.13999999999999,81.92245030734274L76.41,22.185027824507827L76.67999999999999,82.44728054602939L76.94999999999999,40.10470954245991L77.22,48.64758838547602L77.49,73.35507354140282L77.75999999999999,85.7408476140764L78.03,81.10559745960764L78.3,48.96900850203303L78.57,102.64998080167506L78.83999999999999,85.52681312958399L79.11,75.15791437029839L79.38,37.889581564399926L79.64999999999999,-0.3931715488433838L79.92,94.72260398334926L80.19,106.21310238374603L80.46,64.71353253722191L80.72999999999999,91.2828819387489L81,63.19691586163307L81.27,42.09956251250374L81.53999999999999,94.78643120328584L81.81,96.5918581287066L82.08,45.956419716278724L82.35,62.51834181613392L82.62,82.61002780000368L82.89,97.60501117507616L83.16,61.633005301157624L83.42999999999999,77.57803654670715L83.7,92.25915179649988L83.97,83.2206560273965L84.24,99.225919008255L84.51,68.24339220258925L84.78,83.20345959067345L85.05,72.30163338449265L85.32000000000001,94.37376092871028L85.59,59.70354889167679L85.86,84.03026633130179L86.13,75.95229543911086L86.4,97.16621469457942L86.67,78.50248132480515L86.94,75.11117307013934L87.21000000000001,90.28874517480531L87.48,-10.274668474992103L87.75,80.55537779463661L88.02000000000001,29.85664264361065L88.29,93.44323771860863L88.56,104.5770353095399L88.83,98.00086813833977L89.10000000000001,82.6815322637558L89.37,93.26215201947424L89.64,87.5123237338331L89.91000000000001,80.3718017803298L90.18,93.78276787863837L90.45,42.684823417001304L90.72,100.18335309459103L90.99000000000001,84.92090765966309L91.26,62.16429709725908L91.53,95.03580900695587L91.80000000000001,89.6545989414056L92.07000000000001,61.04179121719465L92.34,62.95651203393936L92.61000000000001,79.51788154906696L92.88,99.59964311122894L93.14999999999999,84.82508210009998L93.41999999999999,76.76609065135318L93.69,78.00442565812004L93.96,61.36162725753254L94.22999999999999,90.70210065444309L94.5,91.24925531612502L94.77,65.40376980437172L95.03999999999999,69.31346147590212L95.30999999999999,42.817473222812026L95.58,85.88852035668161L95.85,54.27973822752636L96.11999999999999,39.50220799446106L96.39,104.35065976613099L96.66,76.06077150503793L96.92999999999999,97.41830016341473L97.2,79.67883106072742L97.47,81.10992972387207L97.74,114.67034532957608L98.00999999999999,113.22758344478076L98.28,97.50036636326048L98.55,80.65373787615034L98.82,70.98250312275356L99.09,76.27703106403351L99.36,95.93663999769423L99.63,109.23095546000535L99.9,83.88862044612566L100.17,106.74094973504543L100.44,65.05411629213226L100.71,82.9057858818107L100.98,103.99818807178075L101.25,87.4517972866694L101.52,100.303577111827L101.79,73.29238832990328L102.06,95.61584614382849L102.33,104.85190937254164L102.6,119.63185992671383L102.87,97.68372134367624L103.14,77.40001585086185L103.41,78.51524971591101L103.68,76.26564781864482L103.95,77.6921710802449L104.22,41.73350091775259L104.49000000000001,118.59076819651658L104.76,106.31773614386717L105.03,114.24214742415482L105.3,64.08231868677667L105.57000000000001,95.77853445543182L105.84,5.818764925003052L106.11,93.97689457734424L106.38000000000001,98.80442211363051L106.65,91.23206624719832L106.92,73.1729489829805L107.19000000000001,84.50884891218608L107.46000000000001,99.50488956603739L107.73,106.9142660929097L108,94.17144124044312L108.27000000000001,90.93069390455881L108.54,90.35819402337074L108.81,70.07780403892198L109.08000000000001,103.14392523798678L109.35000000000001,95.24596066276231L109.62,107.7316678414742L109.88999999999999,60.6075480348534L110.16,35.749870349963516L110.42999999999999,71.06132380829916L110.69999999999999,118.70568740036751L110.97,89.47273962365256L111.24,54.62224497728876L111.50999999999999,113.50025085277026L111.78,112.68370376858446L112.05,113.54678953852917L112.32,94.05273867315715L112.58999999999999,120.34445845584074L112.86,77.56719115045335L113.13,36.91378324561649L113.39999999999999,111.18548079662854L113.67,102.90120792223347L113.94,78.8498729235596L114.21,103.01152962115074L114.47999999999999,90.67763220270473L114.75,106.03203878800073L115.02,116.9284054570728L115.28999999999999,105.45831585261557L115.56,108.17453871336247L115.83,70.22734820180467L116.1,87.9938313298755L116.37,105.46386011938253L116.64,93.63154385818375L116.91,94.59980492128265L117.17999999999999,108.21594204505283L117.45,80.25323920117484L117.72,80.02348920702934L117.99,79.36264944738811L118.26,113.05213779376612L118.53,88.26755233274565L118.8,107.71440509458381L119.07000000000001,117.7936573591497L119.34,96.5564853383435L119.61,107.68732475903298L119.88,72.34426345427829L120.15,72.85943451192642L120.42,120.33836897214252L120.69,101.66963286863432L120.96000000000001,94.85175408588515L121.23,101.1507447577185L121.5,101.27586835953925L121.77000000000001,72.84710818860266L122.04,102.61477747062841L122.31,88.21241911252338L122.58,110.35670317047173L122.85000000000001,85.74638819694519L123.12,100.2703004595306L123.39,77.52898175848854L123.66000000000001,103.48710614111687L123.93,114.92842081685859L124.2,118.53775321775014L124.47,101.27545944684083L124.74000000000001,91.50026877058876L125.01,118.54434002770317L125.28,31.957378215259972L125.55000000000001,99.58223669230938L125.82000000000001,118.01413498156602L126.09,86.23286905553606L126.36000000000001,83.886004878415L126.63,122.10067586931918L126.89999999999999,113.5506834189097L127.16999999999999,83.55334150460031L127.44,105.58595187299782L127.71,119.7187851882643L127.97999999999999,101.38038791881667L128.25,92.78032760818797L128.51999999999998,101.89930918481613L128.79,104.22520461347366L129.06,123.82715317275787L129.32999999999998,110.56948512958155L129.6,79.16261377599504L129.87,45.38284413682091L130.14,122.99611363311607L130.41,90.91405005256334L130.68,90.0836183561219L130.95,96.07127174072797L131.22,99.04861298865741L131.49,111.78499470320011L131.76,98.33610655698511L132.03,122.36668278939193L132.3,108.9630476484696L132.57,112.23436028758684L132.84,87.8780979845259L133.10999999999999,120.00850536094772L133.38,75.81555650631586L133.65,111.85693386693794L133.92,90.8319359620412L134.19,88.84335298670662L134.46,123.9257895466354L134.73,106.51576409074995L135,113.35033830006915L135.27,116.56254279282356L135.54,121.65494997633827L135.81,126.81179222298992L136.08,117.20087025066215L136.35,119.69298684928152L136.62,98.80238123403655L136.89000000000001,105.58389994170929L137.16,85.35671281483438L137.43,99.57536253829795L137.7,110.14921128915415L137.97,102.49846575326389L138.24,109.68467172814739L138.51,91.18790367576811L138.78,56.30304562714363L139.05,127.56302379237282L139.32,68.11738814910251L139.59,114.54525488283898L139.86,118.95857595900694L140.13,102.30076935721767L140.4,112.91717818379402L140.67000000000002,35.94675997230741L140.94,68.00101380546886L141.21,94.72163143422867L141.48000000000002,98.41584084928036L141.75,78.1499396363894L142.02,92.06958576374585L142.29000000000002,94.80107101466919L142.56,118.54481893446709L142.83,100.20977032846874L143.1,116.31582476364241L143.37,97.56253214511607L143.64000000000001,112.70186170273358L143.91,110.35722996791202L144.18,78.47804971204863L144.45000000000002,105.34981768329936L144.72,95.25938478774493L144.99,110.36462355156738L145.26000000000002,109.39257912503348L145.53,100.32611520091692L145.8,77.31810069084167L146.07000000000002,54.225982785224915L146.34,111.80408466358978L146.61,71.68077128794457L146.88000000000002,121.10153268774349L147.15,70.41047478053305L147.42000000000002,104.87286338541243L147.69,107.33514409263927L147.96,103.66012410322824L148.23000000000002,107.53596075044737L148.5,112.38272191915247L148.77,115.72604739997122L149.04000000000002,46.64985460705227L149.31,117.10011931922699L149.58,102.18925775918696L149.85000000000002,118.39663044611612L150.12,95.83346137735579L150.39000000000001,87.43720904986063L150.66000000000003,105.4179734836022L150.93,65.46016291777292L151.20000000000002,113.10720838771925L151.47000000000003,102.00604276690218L151.74,97.97370675702888L152.01,99.51773900290328L152.27999999999997,129.75395961105824L152.54999999999998,124.88231371011997L152.82,90.2200110024876L153.08999999999997,112.622801563806L153.35999999999999,127.04598868224356L153.63,96.54212181932395L153.89999999999998,112.08565973738828L154.17,108.53956513272391L154.44,80.63347643613815L154.70999999999998,124.55782490637566L154.98,127.90370148668686L155.25,122.06598091622192L155.51999999999998,109.01875555680857L155.79,124.14947584437L156.06,94.07055400477515L156.32999999999998,110.23942627178297L156.6,134.30704225848118L156.86999999999998,32.903771658738464L157.14,95.76336416270996L157.41,109.47748929427729L157.67999999999998,82.3293000227875L157.95,92.8312980234623L158.22,120.93411793477004L158.48999999999998,90.20103155904347L158.76,105.77239764398998L159.03,123.785779312253L159.29999999999998,118.30332835680908L159.57,97.36703872018391L159.84,105.74186917973888L160.10999999999999,113.04257071018219L160.38,28.83325572808584L160.65,130.57051222109132L160.92,116.37191211349433L161.19,128.06566591229702L161.45999999999998,117.60840148727098L161.73,110.80147493382293L162,123.03822795715595L162.26999999999998,124.10298873318565L162.54,70.94426425960327L162.81,117.6289834264252L163.07999999999998,86.81897725661594L163.35,106.06579803095923L163.62,99.87058645486832L163.89,108.59381421738202L164.16,99.99244980679617L164.43,95.60113265448148L164.7,124.48282073934871L164.97,108.69009658031995L165.24,93.7499222424295L165.51,116.83767472869819L165.78,101.16192538870705L166.05,119.8506797949473L166.32,101.27759979168573L166.59,116.34472494489616L166.85999999999999,126.32413988477653L167.13,115.12449998160201L167.4,95.15012773540283L167.67,80.57492455840111L167.94,126.94218379921382L168.21,105.72823507255977L168.48,115.006456832091L168.75,129.150008449124L169.02,-51.19558633036083L169.29,87.71045114596683L169.56,93.34363984730507L169.83,112.33408341142867L170.1,118.21255710555447L170.37,133.2450094090568L170.64000000000001,128.87845542033511L170.91,131.29281229608588L171.18,133.03309316602017L171.45,111.96549097862507L171.72,108.67563727994758L171.99,130.7952760590447L172.26,124.92526796294582L172.53,127.29185941484238L172.8,28.949327992068405L173.07,109.73639734254942L173.34,122.28459448615709L173.61,113.13265307247639L173.88,115.82029256721336L174.15,111.49457090596357L174.42000000000002,127.2738341010279L174.69,135.20103225029177L174.96,43.749050027794304L175.23000000000002,127.81447931461865L175.5,127.15091347032124L175.77,84.19697745972208L176.04000000000002,109.80446104539764L176.31,50.875661581754684L176.58,126.61723819209469L176.85,109.6151492016183L177.12,117.0215012480815L177.39000000000001,127.82449399183193L177.66,127.91369958635832L177.93,118.18334010905689L178.20000000000002,30.05302388800516L178.47,96.1528700855043L178.74,110.88516204886967L179.01000000000002,124.15427964760197L179.28,103.10264347493649L179.55,118.33937161664167L179.82000000000002,103.61329807341099L180.09,114.80899252163039L180.36,128.0123967445559L180.63000000000002,126.42858576609028L180.9,85.30771696898672L181.17000000000002,116.64992854164706L181.44,126.02017776171365L181.71,124.5788857522938L181.98000000000002,-1.3667521609200284L182.25,121.29771868553425L182.52,121.58459857271778L182.79000000000002,120.16591464645332L183.06,118.08764348593022L183.33,87.63878459069464L183.60000000000002,120.1858076966471L183.87,73.52264670199817L184.14000000000001,52.603594024976104L184.41000000000003,112.05117108258936L184.68,121.4567562540372L184.95000000000002,129.4732263079948L185.22000000000003,121.88246384428608L185.49,98.20361147489811L185.76,109.56559708714485L186.02999999999997,76.09055950575403L186.29999999999998,111.10835102034939L186.57,115.79675614171559L186.83999999999997,108.78170776036049L187.10999999999999,125.05664313998486L187.38,117.67167243858177L187.64999999999998,112.34655340678161L187.92,110.32743459939957L188.19,124.13847940829064L188.45999999999998,126.917965852552L188.73,128.3460252996948L189,131.84098002976842L189.26999999999998,73.69334380825359L189.54,130.97000334991347L189.81,125.37285422450965L190.07999999999998,119.60665469533866L190.35,124.02691255178715L190.61999999999998,101.94448482824696L190.89,106.96356770230663L191.16,113.94977852867709L191.42999999999998,129.28536223620176L191.7,114.34703905714882L191.97,126.37000073326958L192.23999999999998,126.16665323740905L192.51,130.35186733802158L192.78,126.18910291294256L193.04999999999998,131.5540780391958L193.32,127.68918441153234L193.59,114.10380599564975L193.85999999999999,122.60352060364353L194.13,104.0654597365194L194.4,116.04544874032337L194.67,80.9736475944519L194.94,96.53520714243251L195.20999999999998,129.76055378880764L195.48,114.46651892695162L195.75,114.08611960046822L196.01999999999998,72.29654960499869L196.29,132.57179727736445L196.56,122.0484787159496L196.82999999999998,107.703979662723L197.1,116.25487466818755L197.37,123.11934002737203L197.64,106.64376113315421L197.91,98.55201246175501L198.18,126.24541129668552L198.45,125.88174423575401L198.72,109.68342288666302L198.99,119.1824980262253L199.26,109.64930998947884L199.53,137.7546717905336L199.8,66.42960282829071L200.07,128.78906563089956L200.34,110.73300600217448L200.60999999999999,109.99203777313232L200.88,120.08369372288385L201.15,127.90495032817125L201.42,116.4883527672953L201.69,126.5886953489648L201.96,106.04053385721312L202.23,109.1024389879571L202.5,102.57590866088867L202.77,132.65887910458775L203.04,126.15224182771313L203.31,110.03374318447376L203.58,128.5317048198647L203.85,61.277545965380135L204.12,103.44172788328594L204.39000000000001,94.22944790124893L204.66,123.99410375456014L204.93,132.49690362728305L205.2,130.21516524420846L205.47,133.7237430297666L205.74,115.56988695595L206.01,129.79054440392386L206.28,82.315898001194L206.55,104.24948887030283L206.82,101.00183054142529L207.09,94.00956338644028L207.36,104.35899642772144L207.63,120.2940958837668L207.9,131.2238386703862L208.17000000000002,115.47339829471375L208.44,132.44853588607575L208.71,103.99143917030757L208.98000000000002,109.93116872343752L209.25,68.8955232269234L209.52,127.00193662775887L209.79000000000002,126.42003912230331L210.06,120.75182023313309L210.33,85.97802434696091L210.6,129.95960770133468L210.87,133.11037214017577L211.14000000000001,25.42485418584612L211.41,128.8173100782765L211.68,100.3272940483358L211.95000000000002,118.17539394067393L212.22,110.74485341873432L212.49,116.66014399131137L212.76000000000002,98.08268014921082L213.03,100.61393448213735L213.3,121.69866679608822L213.57000000000002,125.71257226334679L213.84,130.13417658458152L214.11,132.8065500052439L214.38000000000002,111.51558754510349L214.65,130.32894059767324L214.92000000000002,107.66483456061945L215.19,135.5107283608781L215.46,104.87809820473194L215.73000000000002,131.45922871265145L216,125.98127579689026L216.27,141.00410207443767L216.54000000000002,126.65110058420235L216.81,140.667856109639L217.08,128.41360272798272L217.35000000000002,131.1884990351068L217.62,125.50907372766072L217.89000000000001,128.72011226663986L218.16000000000003,128.07331921077437L218.43,130.74228502561647L218.70000000000002,112.32549992865985L218.97000000000003,126.91413828233877L219.24,130.68757729563447L219.51,135.19316160182157L219.77999999999997,133.32564625640708L220.04999999999998,127.79980082230436L220.32,124.15603686703575L220.58999999999997,104.27096599671576L220.85999999999999,109.49617402586672L221.13,123.78974687059718L221.39999999999998,70.79612734582687L221.67,132.41307468215624L221.94,113.43476587865088L222.20999999999998,137.0081224557426L222.48,132.56473524454566L222.75,136.12937459266848L223.01999999999998,115.0505052026775L223.29,136.07414374914433L223.56,93.98909564812976L223.82999999999998,122.44151381320422L224.1,126.10372857252756L224.36999999999998,111.57068392634392L224.64,121.69635330802863L224.91,132.69903359479375L225.17999999999998,102.44774952696429L225.45,109.20944886240694L225.72,129.92876426378885L225.98999999999998,128.23694323251644L226.26,131.58493989623256L226.53,125.81006662878725L226.79999999999998,125.86757964723641L227.07,132.45601972523662L227.34,129.6428403481841L227.60999999999999,135.8365838908487L227.88,123.7703400949637L228.15,122.483005558451L228.42,133.7698930642671L228.69,119.08345642354752L228.95999999999998,117.700782602032L229.23,129.514986977809L229.5,128.64735896140337L229.76999999999998,109.85493413441712L230.04,114.12680088811452L230.31,133.43500277400017L230.57999999999998,107.2265759292576L230.85,124.32536356316673L231.12,132.98301057020822L231.39,126.93756787478924L231.66,124.46124046378667L231.93,107.53126746416092L232.2,115.08741049468517L232.47,118.10517147348986L232.74,130.24907552699247L233.01,133.89296105090114L233.28,125.65863631003434L233.55,131.05095701250764L233.82,118.78202882243527L234.09,93.34520918793147L234.35999999999999,136.37698044131199L234.63,77.49774230188793L234.9,107.10298114518324L235.17,122.9631390604708L235.44,132.53575217558276L235.71,136.40306980825133L235.98,131.91134064313437L236.25,77.40592482354906L236.52,136.04282693068185L236.79,77.51663333177567L237.06,130.37587530248695L237.33,129.3572535092632L237.6,117.96972190505927L237.87,94.78080957465703L238.14000000000001,34.85953846904966L238.41,137.0679379105568L238.68,124.23112207982275L238.95,126.03700580861832L239.22,125.78216846783954L239.49,110.19243815044561L239.76,107.88480380508635L240.03,130.59135387506748L240.3,137.8149827296535L240.57,94.73451771007643L240.84,131.93873595197994L241.11,129.3810883305139L241.38,133.38377448585297L241.65,130.0649616635508L241.92000000000002,123.74947817954752L242.19,72.15709195534387L242.46,129.35185844037267L242.73000000000002,126.06814948386615" style="fill: none;" fill="none"></path></g></g></g></g></g></g><g transform="translate(60, 178)" clip-path="url(#clip_1)"><clipPath id="clip_1"><rect width="270" height="21"></rect></clipPath><g><g><line x1="0" y1="0" x2="0" y2="5" style="visibility: inherit;" fill="rgb(0, 0, 0)" stroke="rgb(204, 204, 204)" stroke-width="1px"></line><line x1="27" y1="0" x2="27" y2="5" style="visibility: inherit;" fill="rgb(0, 0, 0)" stroke="rgb(204, 204, 204)" stroke-width="1px"></line><line x1="54" y1="0" x2="54" y2="5" style="visibility: inherit;" fill="rgb(0, 0, 0)" stroke="rgb(204, 204, 204)" stroke-width="1px"></line><line x1="81" y1="0" x2="81" y2="5" style="visibility: inherit;" fill="rgb(0, 0, 0)" stroke="rgb(204, 204, 204)" stroke-width="1px"></line><line x1="108" y1="0" x2="108" y2="5" style="visibility: inherit;" fill="rgb(0, 0, 0)" stroke="rgb(204, 204, 204)" stroke-width="1px"></line><line x1="135" y1="0" x2="135" y2="5" style="visibility: inherit;" fill="rgb(0, 0, 0)" stroke="rgb(204, 204, 204)" stroke-width="1px"></line><line x1="162" y1="0" x2="162" y2="5" style="visibility: inherit;" fill="rgb(0, 0, 0)" stroke="rgb(204, 204, 204)" stroke-width="1px"></line><line x1="189" y1="0" x2="189" y2="5" style="visibility: inherit;" fill="rgb(0, 0, 0)" stroke="rgb(204, 204, 204)" stroke-width="1px"></line><line x1="216" y1="0" x2="216" y2="5" style="visibility: inherit;" fill="rgb(0, 0, 0)" stroke="rgb(204, 204, 204)" stroke-width="1px"></line><line x1="243" y1="0" x2="243" y2="5" style="visibility: inherit;" fill="rgb(0, 0, 0)" stroke="rgb(204, 204, 204)" stroke-width="1px"></line><line x1="270" y1="0" x2="270" y2="5" style="visibility: inherit;" fill="rgb(0, 0, 0)" stroke="rgb(204, 204, 204)" stroke-width="1px"></line></g><g transform="translate(0, 8)"><text x="0" y="0" dx="0em" dy="0.95em" style="text-anchor: middle; visibility: hidden; font-family: Roboto, sans-serif; font-size: 12px; font-weight: 200;" fill="rgb(50, 49, 63)" stroke="none" stroke-width="1px">-100</text><text x="27" y="0" dx="0em" dy="0.95em" style="text-anchor: middle; visibility: inherit; font-family: Roboto, sans-serif; font-size: 12px; font-weight: 200;" fill="rgb(50, 49, 63)" stroke="none" stroke-width="1px">0</text><text x="54" y="0" dx="0em" dy="0.95em" style="text-anchor: middle; visibility: inherit; font-family: Roboto, sans-serif; font-size: 12px; font-weight: 200;" fill="rgb(50, 49, 63)" stroke="none" stroke-width="1px">100</text><text x="81" y="0" dx="0em" dy="0.95em" style="text-anchor: middle; visibility: inherit; font-family: Roboto, sans-serif; font-size: 12px; font-weight: 200;" fill="rgb(50, 49, 63)" stroke="none" stroke-width="1px">200</text><text x="108" y="0" dx="0em" dy="0.95em" style="text-anchor: middle; visibility: inherit; font-family: Roboto, sans-serif; font-size: 12px; font-weight: 200;" fill="rgb(50, 49, 63)" stroke="none" stroke-width="1px">300</text><text x="135" y="0" dx="0em" dy="0.95em" style="text-anchor: middle; visibility: inherit; font-family: Roboto, sans-serif; font-size: 12px; font-weight: 200;" fill="rgb(50, 49, 63)" stroke="none" stroke-width="1px">400</text><text x="162" y="0" dx="0em" dy="0.95em" style="text-anchor: middle; visibility: inherit; font-family: Roboto, sans-serif; font-size: 12px; font-weight: 200;" fill="rgb(50, 49, 63)" stroke="none" stroke-width="1px">500</text><text x="189" y="0" dx="0em" dy="0.95em" style="text-anchor: middle; visibility: inherit; font-family: Roboto, sans-serif; font-size: 12px; font-weight: 200;" fill="rgb(50, 49, 63)" stroke="none" stroke-width="1px">600</text><text x="216" y="0" dx="0em" dy="0.95em" style="text-anchor: middle; visibility: inherit; font-family: Roboto, sans-serif; font-size: 12px; font-weight: 200;" fill="rgb(50, 49, 63)" stroke="none" stroke-width="1px">700</text><text x="243" y="0" dx="0em" dy="0.95em" style="text-anchor: middle; visibility: inherit; font-family: Roboto, sans-serif; font-size: 12px; font-weight: 200;" fill="rgb(50, 49, 63)" stroke="none" stroke-width="1px">800</text><text x="270" y="0" dx="0em" dy="0.95em" style="text-anchor: middle; visibility: hidden; font-family: Roboto, sans-serif; font-size: 12px; font-weight: 200;" fill="rgb(50, 49, 63)" stroke="none" stroke-width="1px">900</text></g><line x1="0" y1="0" x2="270" y2="0" fill="rgb(0, 0, 0)" stroke="rgb(204, 204, 204)" stroke-width="1px"></line></g></g></g></g></svg>