<svg viewBox="0 0 330 200" xmlns="http://www.w3.org/2000/svg"><g><g><g><g><g><line x1="50" y1="178" x2="45" y2="178" style="visibility: inherit;" fill="rgb(0, 0, 0)" stroke="rgb(204, 204, 204)" stroke-width="1px"></line><line x1="50" y1="155.75" x2="45" y2="155.75" style="visibility: inherit;" fill="rgb(0, 0, 0)" stroke="rgb(204, 204, 204)" stroke-width="1px"></line><line x1="50" y1="133.5" x2="45" y2="133.5" style="visibility: inherit;" fill="rgb(0, 0, 0)" stroke="rgb(204, 204, 204)" stroke-width="1px"></line><line x1="50" y1="111.24999999999999" x2="45" y2="111.24999999999999" style="visibility: inherit;" fill="rgb(0, 0, 0)" stroke="rgb(204, 204, 204)" stroke-width="1px"></line><line x1="50" y1="88.99999999999999" x2="45" y2="88.99999999999999" style="visibility: inherit;" fill="rgb(0, 0, 0)" stroke="rgb(204, 204, 204)" stroke-width="1px"></line><line x1="50" y1="66.75" x2="45" y2="66.75" style="visibility: inherit;" fill="rgb(0, 0, 0)" stroke="rgb(204, 204, 204)" stroke-width="1px"></line><line x1="50" y1="44.5" x2="45" y2="44.5" style="visibility: inherit;" fill="rgb(0, 0, 0)" stroke="rgb(204, 204, 204)" stroke-width="1px"></line><line x1="50" y1="22.25" x2="45" y2="22.25" style="visibility: inherit;" fill="rgb(0, 0, 0)" stroke="rgb(204, 204, 204)" stroke-width="1px"></line><line x1="50" y1="0" x2="45" y2="0" style="visibility: inherit;" fill="rgb(0, 0, 0)" stroke="rgb(204, 204, 204)" stroke-width="1px"></line></g><g transform="translate(40, 0)"><text x="0" y="178" dx="0em" dy="0.3em" style="text-anchor: end; visibility: hidden; font-family: Roboto, sans-serif; font-size: 12px; font-weight: 200;" fill="rgb(50, 49, 63)" stroke="none" stroke-width="1px">-0.2</text><text x="0" y="155.75" dx="0em" dy="0.3em" style="text-anchor: end; visibility: inherit; font-family: Roboto, sans-serif; font-size: 12px; font-weight: 200;" fill="rgb(50, 49, 63)" stroke="none" stroke-width="1px">0</text><text x="0" y="133.5" dx="0em" dy="0.3em" style="text-anchor: end; visibility: hidden; font-family: Roboto, sans-serif; font-size: 12px; font-weight: 200;" fill="rgb(50, 49, 63)" stroke="none" stroke-width="1px">0.2</text><text x="0" y="111.24999999999999" dx="0em" dy="0.3em" style="text-anchor: end; visibility: inherit; font-family: Roboto, sans-serif; font-size: 12px; font-weight: 200;" fill="rgb(50, 49, 63)" stroke="none" stroke-width="1px">0.4</text><text x="0" y="88.99999999999999" dx="0em" dy="0.3em" style="text-anchor: end; visibility: hidden; font-family: Roboto, sans-serif; font-size: 12px; font-weight: 200;" fill="rgb(50, 49, 63)" stroke="none" stroke-width="1px">0.6</text><text x="0" y="66.75" dx="0em" dy="0.3em" style="text-anchor: end; visibility: inherit; font-family: Roboto, sans-serif; font-size: 12px; font-weight: 200;" fill="rgb(50, 49, 63)" stroke="none" stroke-width="1px">0.8</text><text x="0" y="44.5" dx="0em" dy="0.3em" style="text-anchor: end; visibility: hidden; font-family: Roboto, sans-serif; font-size: 12px; font-weight: 200;" fill="rgb(50, 49, 63)" stroke="none" stroke-width="1px">1</text><text x="0" y="22.25" dx="0em" dy="0.3em" style="text-anchor: end; visibility: inherit; font-family: Roboto, sans-serif; font-size: 12px; font-weight: 200;" fill="rgb(50, 49, 63)" stroke="none" stroke-width="1px">1.2</text><text x="0" y="0" dx="0em" dy="0.3em" style="text-anchor: end; visibility: hidden; font-family: Roboto, sans-serif; font-size: 12px; font-weight: 200;" fill="rgb(50, 49, 63)" stroke="none" stroke-width="1px">1.4</text></g><line x1="50" y1="0" x2="50" y2="178" fill="rgb(0, 0, 0)" stroke="rgb(204, 204, 204)" stroke-width="1px"></line></g></g><g transform="translate(50, 0)" clip-path="url(#clip_0)"><clipPath id="clip_0"><rect width="280" height="177"></rect></clipPath><g><g><g><line x1="0" y1="0" x2="0" y2="178" fill="rgb(0, 0, 0)" stroke="rgb(60, 60, 60)" stroke-width="1px" opacity="0.25"></line><line x1="28" y1="0" x2="28" y2="178" fill="rgb(0, 0, 0)" stroke="rgb(60, 60, 60)" stroke-width="1px" opacity="0.25"></line><line x1="56" y1="0" x2="56" y2="178" fill="rgb(0, 0, 0)" stroke="rgb(60, 60, 60)" stroke-width="1px" opacity="0.25"></line><line x1="84" y1="0" x2="84" y2="178" fill="rgb(0, 0, 0)" stroke="rgb(60, 60, 60)" stroke-width="1px" opacity="0.25"></line><line x1="112" y1="0" x2="112" y2="178" fill="rgb(0, 0, 0)" stroke="rgb(60, 60, 60)" stroke-width="1px" opacity="0.25"></line><line x1="140" y1="0" x2="140" y2="178" fill="rgb(0, 0, 0)" stroke="rgb(60, 60, 60)" stroke-width="1px" opacity="0.25"></line><line x1="168" y1="0" x2="168" y2="178" fill="rgb(0, 0, 0)" stroke="rgb(60, 60, 60)" stroke-width="1px" opacity="0.25"></line><line x1="196" y1="0" x2="196" y2="178" fill="rgb(0, 0, 0)" stroke="rgb(60, 60, 60)" stroke-width="1px" opacity="0.25"></line><line x1="224" y1="0" x2="224" y2="178" fill="rgb(0, 0, 0)" stroke="rgb(60, 60, 60)" stroke-width="1px" opacity="0.25"></line><line x1="252" y1="0" x2="252" y2="178" fill="rgb(0, 0, 0)" stroke="rgb(60, 60, 60)" stroke-width="1px" opacity="0.25"></line><line x1="280" y1="0" x2="280" y2="178" fill="rgb(0, 0, 0)" stroke="rgb(60, 60, 60)" stroke-width="1px" opacity="0.25"></line></g><g><line x1="0" y1="178" x2="280" y2="178" fill="rgb(0, 0, 0)" stroke="rgb(60, 60, 60)" stroke-width="1px" opacity="0.25"></line><line x1="0" y1="155.75" x2="280" y2="155.75" fill="rgb(0, 0, 0)" stroke="rgb(60, 60, 60)" stroke-width="1px" opacity="0.25"></line><line x1="0" y1="133.5" x2="280" y2="133.5" fill="rgb(0, 0, 0)" stroke="rgb(60, 60, 60)" stroke-width="1px" opacity="0.25"></line><line x1="0" y1="111.24999999999999" x2="280" y2="111.24999999999999" fill="rgb(0, 0, 0)" stroke="rgb(60, 60, 60)" stroke-width="1px" opacity="0.25"></line><line x1="0" y1="88.99999999999999" x2="280" y2="88.99999999999999" fill="rgb(0, 0, 0)" stroke="rgb(60, 60, 60)" stroke-width="1px" opacity="0.25"></line><line x1="0" y1="66.75" x2="280" y2="66.75" fill="rgb(0, 0, 0)" stroke="rgb(60, 60, 60)" stroke-width="1px" opacity="0.25"></line><line x1="0" y1="44.5" x2="280" y2="44.5" fill="rgb(0, 0, 0)" stroke="rgb(60, 60, 60)" stroke-width="1px" opacity="0.25"></line><line x1="0" y1="22.25" x2="280" y2="22.25" fill="rgb(0, 0, 0)" stroke="rgb(60, 60, 60)" stroke-width="1px" opacity="0.25"></line><line x1="0" y1="0" x2="280" y2="0" fill="rgb(0, 0, 0)" stroke="rgb(60, 60, 60)" stroke-width="1px" opacity="0.25"></line></g></g></g><g><g><line x1="0" y1="155.75" x2="280" y2="155.75" fill="rgb(0, 0, 0)" stroke="rgb(153, 153, 153)" stroke-width="1.5px"></line></g></g><g><g><line x1="28" y1="0" x2="28" y2="178" fill="rgb(0, 0, 0)" stroke="rgb(153, 153, 153)" stroke-width="1.5px"></line></g></g><g><g><g><g><g><path stroke="rgb(255, 112, 67)" stroke-width="2px" d="M28,27.481482297182083L28.28,27.141170229762793L28.56,27.49819381261357L28.84,27.100283429355294L29.119999999999997,27.06887480482139L29.4,27.332717315366857L29.68,27.597718059918513L29.96,27.235648961812867L30.24,27.46773735421108L30.52,26.257683693440732L30.8,26.54006673507115L31.080000000000002,27.20605978123293L31.36,27.535620694316805L31.64,27.60960013158829L31.92,27.713636668328764L32.2,27.571171857525023L32.480000000000004,26.57664340091256L32.760000000000005,27.061185273105792L33.04,27.35812835105342L33.32,27.212889369188815L33.6,27.324541011510384L33.879999999999995,26.98123484731573L34.16,27.12606412036442L34.44,27.083544111616348L34.72,27.089818767485514L35,27.5538511632595L35.28,27.806175690380215L35.56,27.84541580791219L35.84,28.194351931125176L36.120000000000005,27.832008353064584L36.4,28.178456251793335L36.68,27.846979237027803L36.96,27.841803619869438L37.24,27.986410782670387L37.52,28.267087229508434L37.800000000000004,28.16323415435618L38.080000000000005,27.743361971147756L38.36,28.02808419653272L38.64,28.237377428214106L38.92,28.352471055661706L39.2,28.458639706503114L39.48,28.798758808139162L39.76,28.31446707435165L40.04,29.188595641929638L40.32,29.429615383935435L40.599999999999994,29.729504421725196L40.879999999999995,29.298721203414956L41.16,29.007175760982822L41.44,28.954932914684537L41.72,30.097690943792948L42,30.485528233002842L42.28,31.16562265298041L42.56,30.655002332574824L42.839999999999996,31.51573152354254L43.12,31.824310535257602L43.4,31.30375331286503L43.68,30.882134518884993L43.96,30.994808114685657L44.24,33.49971408672238L44.52,33.13275339023534L44.800000000000004,33.687764047481195L45.08,33.909539114771825L45.36,35.307945377432446L45.64,34.553073076488445L45.92,34.29951519255748L46.2,37.6647581963832L46.480000000000004,40.69009712988703L46.760000000000005,41.28867071661093L47.040000000000006,43.761053590731265L47.32,41.0128840737083L47.6,41.21918700531355L47.88,42.49178445574778L48.16,42.96064462803088L48.44,45.87702864135672L48.72,49.724716465028344L49,50.714870840520966L49.279999999999994,48.29507883203704L49.559999999999995,51.9554443288605L49.839999999999996,55.567298169658216L50.12,66.533483216599L50.4,56.21386243667327L50.68,55.78926027873826L50.96,51.91003298198981L51.24,42.05785753390671L51.519999999999996,52.40648695863174L51.8,55.849249524097964L52.08,57.312052155865025L52.36,55.759696862299926L52.64,50.68425630402545L52.92,52.506972538661834L53.2,60.48689724041933L53.480000000000004,57.35893526097483L53.76,63.8214016343376L54.04,62.38456184775955L54.32,59.840436924167406L54.6,62.04729865710018L54.88,63.31311314535186L55.160000000000004,65.59319211382893L55.440000000000005,58.67297519051568L55.720000000000006,61.49413628461083L56,66.13012111831975L56.28,64.35632818728251L56.56,66.08745301836468L56.84,71.44293837591252L57.12,71.65897024181034L57.4,73.01182097498504L57.68,65.19529753508523L57.959999999999994,71.14130885352108L58.239999999999995,70.78761350482353L58.519999999999996,63.43155264478712L58.8,67.80250142587298L59.08,66.51933818205042L59.36,68.52387355055714L59.64,69.53968762926047L59.92,71.60536326510778L60.199999999999996,73.97834891404551L60.48,73.36666484073307L60.76,80.68628920552436L61.04,83.48676834367099L61.32,82.38419846810332L61.6,87.16903417776483L61.88,84.63710783404385L62.160000000000004,86.94731379438801L62.44,93.00212405854084L62.72,84.23021337827217L63,84.58802866602046L63.28,88.3678335885054L63.56,86.9876414680389L63.84,86.78618380093022L64.12,79.00301552810338L64.4,81.50488275288384L64.68,88.70809925197864L64.96000000000001,92.25943869709553L65.24000000000001,93.61397045469037L65.52000000000001,90.0535047985062L65.8,81.23366980176834L66.08,85.40036247027915L66.36,89.05959119709136L66.64,86.88100477046848L66.92,88.65214328758168L67.2,89.63295986528546L67.48,92.41208045646756L67.75999999999999,92.49003974774605L68.03999999999999,96.55849779355003L68.32,94.25828956191228L68.6,91.68448877706818L68.88,94.16889843568022L69.16,95.20547077193747L69.44,80.9254745729857L69.72,87.33066805530149L70,95.94508051174019L70.28,88.28291086731635L70.56,89.9059536837237L70.84,91.15438569084982L71.12,94.71987906990161L71.4,97.58699018894261L71.68,101.90855034970417L71.96000000000001,101.67160589565738L72.24000000000001,107.46526413899603L72.52,104.4544242724296L72.8,99.16352794793346L73.08,97.18244850174844L73.36,99.7355403455273L73.64,99.69818390918827L73.92,91.03644645519884L74.2,101.09799281840223L74.48,100.40403416207255L74.76,100.11729534537088L75.04,101.31955944937759L75.32000000000001,107.41359577442581L75.60000000000001,99.61192037978992L75.88000000000001,93.62959402393834L76.16000000000001,87.78791767711361L76.44000000000001,87.74198174688173L76.72,84.1676803124723L77,87.55121630387171L77.28,91.57483637307084L77.56,92.87026836260556L77.84,100.64203938415287L78.12,103.50962424916409L78.4,94.50916721011627L78.68,83.75934676280872L78.96,93.73348695904767L79.24,92.94801465195867L79.52,97.86057045771155L79.8,98.72683998175545L80.08,100.33188694255401L80.36,96.80367709122211L80.64,101.01076775146787L80.91999999999999,105.19071806283752L81.19999999999999,104.87356479055856L81.47999999999999,108.7926664089392L81.75999999999999,109.61419002325717L82.03999999999999,106.70104000932803L82.32,105.12021714131133L82.6,108.60281282174645L82.88,104.84791807239093L83.16,101.38434323611757L83.44,97.88266492451966L83.72,93.62358293274487L84,93.96774208151963L84.28,98.35636014404098L84.56,100.56660606063723L84.84,101.17213317213846L85.12,98.03496090446943L85.39999999999999,91.59758669659519L85.67999999999999,89.88106528237473L85.96,98.62811978051074L86.24,101.70092542999392L86.52,101.41414271613003L86.8,104.90531462323692L87.08,102.43980920846477L87.36,103.15714695772655L87.64,99.68983266783434L87.92,102.86731651146816L88.2,106.13298090529207L88.48,106.79176926750996L88.76,108.91586107396517L89.04,107.78238576879164L89.32000000000001,108.64166061717307L89.60000000000001,108.74134804986738L89.88,106.5682319353987L90.16,110.8433177978378L90.44,112.88484258714803L90.72,115.80248760440043L91,111.59445756827647L91.28,106.81328756901536L91.56,111.26243903513499L91.84,114.67401230201571L92.12,115.3672355226603L92.4,113.58619955849211L92.68,114.61969648701881L92.96000000000001,111.28201130272708L93.24000000000001,111.04322411860085L93.52000000000001,116.5364685430828L93.80000000000001,113.06261393873115L94.08000000000001,112.28738323717246L94.36,113.07045016508657L94.64,103.71512211454723L94.92,106.98977142627724L95.2,106.17047956917101L95.48,109.85231387217888L95.76,108.7721741980317L96.04,103.94185111439243L96.32,109.40982540557394L96.6,110.48828885322575L96.88,104.03168733934024L97.16,105.65740417849693L97.44,108.09859665877627L97.72,113.19791299490335L98,112.80427219205023L98.28,114.1021946503694L98.55999999999999,109.82721951508373L98.83999999999999,104.78939700069338L99.11999999999999,109.354351809277L99.39999999999999,113.75743669608464L99.67999999999999,111.89417220854301L99.96,112.78712106170379L100.24,110.32217626525237L100.52,105.89891992660328L100.8,109.31918035836198L101.08,105.58264070088373L101.36,112.18339123627366L101.64,116.36131901324286L101.92,118.38511618542964L102.2,109.95058480243861L102.48,110.73062465394125L102.75999999999999,111.00613821330418L103.03999999999999,112.14265954066963L103.32,115.93352187913447L103.6,116.86157552744027L103.88,116.43947602120086L104.16,113.60054417733575L104.44,117.64393317570821L104.72,116.69689170044978L105,115.65411412431193L105.28,116.16374130078192L105.56,108.75637729780695L105.84,116.38639450262085L106.12,118.84802565389926L106.4,120.53322887965474L106.68,121.28827818959017L106.96000000000001,108.36292118864691L107.24000000000001,96.97052004359624L107.52,101.25712457551037L107.8,103.77565456183837L108.08,102.01858577580502L108.36,108.76223185927421L108.64,111.42482603949755L108.92,112.289681722894L109.2,107.8925662160961L109.48,107.39760066396286L109.76,107.91728011266164L110.04,102.86048534211976L110.32000000000001,106.71281616805472L110.60000000000001,108.73523628067063L110.88000000000001,108.43738547474791L111.16000000000001,103.47941079444081L111.44000000000001,106.12142472986214L111.72,108.5550239385595L112,104.01905342945038L112.28,105.11998570268499L112.56,109.53908492210594L112.84,113.19058798005037L113.12,117.56938715428026L113.4,117.12348349481768L113.68,120.25263187640874L113.96,117.04251443060616L114.24,108.48316340275036L114.52,109.80884201304572L114.8,112.5496595202473L115.08,112.52461119881792L115.36,109.37156759137822L115.64,114.06282386442967L115.91999999999999,115.1179829642829L116.19999999999999,118.22091996405463L116.47999999999999,119.15963933011257L116.75999999999999,122.3764606156371L117.03999999999999,118.0293584250463L117.32,120.44490524727424L117.6,122.26083838402224L117.88,113.49571805571908L118.16,109.64172912761802L118.44,113.81282298937579L118.72,114.07360283836807L119,116.74243169310739L119.28,119.18937991728217L119.56,121.58481962185999L119.84,123.51463801981149L120.12,119.75633436632837L120.39999999999999,123.5385547261994L120.67999999999999,120.76735140273338L120.96,120.05219904714444L121.24,121.39124304731858L121.52,120.1013900856982L121.8,119.17060038869442L122.08,113.12701451435602L122.36,115.24829806777784L122.64,114.69079750712484L122.92,107.802152490233L123.2,113.93673416114723L123.48,114.4237361796908L123.76,118.25100402523354L124.04,120.3797962873535L124.32000000000001,118.11159166153409L124.60000000000001,105.58047718081558L124.88,113.70567266210126L125.16,117.12714244165545L125.44,113.43273113512113L125.72,113.49488762523599L126,118.57323162559192L126.28,115.54404376926138L126.56,115.40734393585987L126.84,118.45956162327091L127.12,120.9368487519834L127.4,120.95649848120296L127.68,121.32167641959715L127.96000000000001,120.36379495347813L128.24,120.82809599986838L128.52,121.56317836493949L128.8,122.54855866402805L129.08,118.35272722345842L129.36,119.17592397869977L129.64000000000001,122.45387042785497L129.92000000000002,113.07343425288681L130.20000000000002,113.47400410434535L130.48000000000002,118.39732784903605L130.76000000000002,109.41333026812408L131.04000000000002,109.06276039258204L131.32,114.09060604855753L131.6,118.90339859119257L131.88,119.94270737940789L132.16,123.37196800246669L132.44,123.350881657808L132.72,117.29274648535787L133,113.74321054582917L133.28,119.30048717060757L133.56,117.06646215021058L133.84,119.39110822438862L134.12,116.38993096327582L134.4,117.61640575513721L134.68,117.32817253461766L134.96,122.81509316856436L135.24,121.01328125533325L135.51999999999998,124.10874662659683L135.79999999999998,116.67683609343837L136.07999999999998,119.86808607588571L136.35999999999999,122.97199353641487L136.64,121.67291590908894L136.92,124.68995916002828L137.2,125.61770089062354L137.48,125.02826619501293L137.76,116.1016436747037L138.04,119.45508094914692L138.32,119.77826711707078L138.6,122.46084979279497L138.88,124.97686203779968L139.16,124.81976730800982L139.44,125.66461495266745L139.72,125.19198576930994L140,125.70762083425421L140.28,127.25824266519726L140.56,128.30940570143807L140.84,127.60807416563004L141.12,126.993441341667L141.4,128.36858721873082L141.68,124.80795873880935L141.96,122.51187759149403L142.24,121.48161062901218L142.52,121.09972683969141L142.8,123.992633745867L143.08,119.70033608722566L143.36,121.73943561820913L143.64000000000001,124.21098000114397L143.92000000000002,115.85208130958816L144.20000000000002,121.83726133306706L144.48000000000002,123.79948462188175L144.76,123.26263048136192L145.04,125.46186463316653L145.32,125.1078260200046L145.6,125.90306674282685L145.88,126.04580104554256L146.16,124.9887821716342L146.44,125.65267724944792L146.72,120.98775426240945L147,123.87629049385895L147.28,123.51327556589429L147.56,120.20119415950292L147.84,120.41627042133516L148.12,117.1624167897636L148.4,124.6441761144003L148.68,123.8318737469912L148.96,125.85079915361405L149.24,124.49970275185586L149.52,123.74557698084163L149.8,123.82108163722306L150.08,121.8723753684041L150.36,123.87731719871026L150.64000000000001,121.68472031867302L150.92000000000002,123.97541278967736L151.20000000000002,123.15831570249483L151.48000000000002,122.38630952788402L151.76000000000002,116.54971976788646L152.04000000000002,116.27523559458137L152.32000000000002,122.87928406075886L152.60000000000002,122.00752821073682L152.88000000000002,120.58448923829644L153.16000000000003,118.96180742206244L153.44,123.51941120607894L153.72,121.23538991798901L154,123.29597660297122L154.28,123.66845301624517L154.56,122.07612909279096L154.84,123.2367956215252L155.12,123.97248961771189L155.4,127.40824373808297L155.68,125.6548232152867L155.96,120.88820529668378L156.24,123.68134871535806L156.52,125.89895169981304L156.8,123.6843345555543L157.08,126.08825045334572L157.36,121.23486006562277L157.64,124.15059965732314L157.92,123.71798402001032L158.2,125.93330304431657L158.48,125.8923798567518L158.76,127.23209596821454L159.04,127.89993674396746L159.32,125.09664466285271L159.6,125.4915038544152L159.88,124.79501756121002L160.16,126.02917596751024L160.44,125.63893677624206L160.72,127.72846265782204L161,128.86279999255706L161.28,126.2982564094041L161.56,127.19563517554845L161.83999999999997,123.15428773512986L162.11999999999998,122.39428752929298L162.39999999999998,126.7262011007686L162.67999999999998,124.2787715218198L162.95999999999998,128.77228810469697L163.23999999999998,128.37177358317606L163.51999999999998,120.69521460085055L163.79999999999998,123.42445687144362L164.07999999999998,122.83707066589216L164.35999999999999,118.11609196492205L164.64,121.03132839994532L164.92,115.87611506281435L165.2,116.4590198272356L165.48,115.61499931060601L165.76,118.9261070975264L166.04,118.56590243510006L166.32,119.62909373838663L166.6,123.16117478876684L166.88,124.31298261266573L167.16,122.98712553609386L167.44,124.04832912998779L167.72,125.34149939726223L168,127.06125517434138L168.28,118.7088221475259L168.56,116.15559826581332L168.84,121.16891111903578L169.12,121.8525563864302L169.4,117.54074348440119L169.68,119.01249710577933L169.96,122.82215647016889L170.24,123.21677948602989L170.51999999999998,117.83993478756518L170.79999999999998,123.23105767602547L171.07999999999998,126.69535556128515L171.35999999999999,127.53384331876572L171.64,126.39889049836718L171.92,128.58664915745686L172.2,123.88299348226327L172.48,121.8722959474989L172.76,122.19383874036481L173.04,124.96265448032385L173.32,124.91082340418438L173.6,128.0777964916178L173.88,125.99218360938718L174.16,127.62086869244631L174.44,122.45203899720225L174.72,122.65352727698631L175,127.05264746980278L175.28,124.18919263980632L175.56,125.45444997669365L175.84,126.00051267755691L176.12,125.41617595739761L176.4,123.54580324344396L176.68,124.66116448910569L176.96,125.07635229034145L177.24,127.88715272368742L177.52,128.98541936112494L177.8,127.32495313485295L178.08,125.01282239615816L178.36,128.6291573280686L178.64000000000001,130.80463443753683L178.92000000000002,128.74241124127843L179.20000000000002,115.03813194355094L179.48000000000002,121.00179379505349L179.76,119.94666013611814L180.04,120.7342394679395L180.32,122.59710969266936L180.6,121.46225289844064L180.88,124.68076192195765L181.16,128.56100430849523L181.44,119.75463356830677L181.72,123.53403505985735L182,127.43040617737054L182.28,117.71964558620977L182.56,120.70356387889221L182.84,123.09493031797312L183.12,123.62656459032L183.4,123.31749636124671L183.68,124.47593573445738L183.96,126.0399715555588L184.24,128.69079343991754L184.52,125.78515219996736L184.8,121.3780270296953L185.08,121.48819537929427L185.36,118.46211270971136L185.64000000000001,121.9254791854801L185.92000000000002,120.77853856497896L186.20000000000002,120.40910064288313L186.48000000000002,121.45971780781947L186.76000000000002,124.97137097278238L187.04000000000002,128.7127646029532L187.32000000000002,128.89476242783903L187.60000000000002,116.50060880853678L187.88000000000002,119.0784452061292L188.16000000000003,116.19600981476525L188.44,114.40880038143764L188.72,106.99884069443686L189,108.46191905725563L189.28,115.67637627296783L189.56,117.76663154645645L189.84,119.06397915353703L190.12,112.98556497377353L190.4,119.16139034141419L190.68,122.02747974222491L190.96,123.02572252706045L191.24,121.46466621968361L191.52,123.10733879931696L191.8,126.54993363963321L192.08,126.16410643903468L192.36,128.2223738002661L192.64,126.84682029890318L192.92,123.1286965394455L193.2,122.43882680740582L193.48,123.19236177388804L193.76,121.35011117866026L194.04,124.54874755716554L194.32,124.65512677893777L194.6,117.6095004401549L194.88,120.38333113920358L195.16,123.79378248859445L195.44,123.70651106601356L195.72,124.64101590851186L196,127.00137410246872L196.28,119.74621904899803L196.56,125.076387150646L196.83999999999997,125.59885750923202L197.11999999999998,128.61583044358278L197.39999999999998,128.93422641294114L197.67999999999998,124.62186733446664L197.95999999999998,121.86980506814805L198.23999999999998,123.85581963680558L198.51999999999998,128.12653967095835L198.79999999999998,127.5532925209607L199.07999999999998,131.00998308546576L199.35999999999999,129.5671952622368L199.64,129.46605558885537L199.92,129.31034202094912L200.2,129.0841470001104L200.48,128.5825523667313L200.76,129.45660909907684L201.04,129.67862434772647L201.32,126.55990000419615L201.6,127.08543445976257L201.88,128.94147783852625L202.16,128.03883514307148L202.44,131.2252588540447L202.72,132.4051105019529L203,131.26923280728334L203.28,131.65186369134472L203.56,134.4528609914391L203.84,132.80109628753718L204.12,133.49034439901624L204.4,130.2280322425372L204.68,129.6843923039917L204.96,130.86859348164106L205.24,131.4617180049187L205.51999999999998,128.6033791017393L205.79999999999998,129.71573718707918L206.07999999999998,130.32639119816517L206.35999999999999,126.56170925076422L206.64,131.14984791621933L206.92,132.00938022372347L207.2,133.23622907243504L207.48,130.43827170456845L207.76,129.00465392962334L208.04,128.15387543675445L208.32,130.30851409368003L208.6,129.59895900507144L208.88,131.29207318794354L209.16,127.1657022760607L209.44,128.91000001736265L209.72,129.37971999262442L210,129.77864644983214L210.28,131.00493964587926L210.56,130.78062126061488L210.84,123.45588218880397L211.12,126.39690802075089L211.4,120.84564808653366L211.68,123.86351441083296L211.96,126.56202788047754L212.24,127.06180376048545L212.52,131.47275643191136L212.8,132.5024898775899L213.08,135.03687613329194L213.36,131.09751213265002L213.64000000000001,131.29889831943834L213.92000000000002,130.44700894655898L214.20000000000002,129.9279267230756L214.48000000000002,127.90033511454622L214.76,131.8999474503682L215.04,128.3824329112819L215.32,129.70081564544745L215.6,131.39471656685535L215.88,131.743212280306L216.16,131.03679705717133L216.44,127.30998676751831L216.72,127.74450743785368L217,127.45026806051057L217.28,128.95112234088492L217.56,129.03508023609348L217.84,128.7427978467323L218.12,129.71377537705766L218.4,129.67254037593761L218.68,133.27251934519387L218.96,126.608476826614L219.24,130.51097207162726L219.52,123.52236277397841L219.8,124.25255603811961L220.08,121.4981159432043L220.36,125.13208368648941L220.64000000000001,121.27175330954704L220.92000000000002,117.95033538542933L221.20000000000002,119.66837134780137L221.48000000000002,120.96132099522141L221.76000000000002,124.81010087813728L222.04000000000002,127.69230058929796L222.32000000000002,124.31424356485293L222.60000000000002,126.99054881176284L222.88000000000002,121.04313641632157L223.16000000000003,124.16152892467116L223.44,120.77302696381054L223.72,124.86408948197389L224,122.08120715495602L224.28,128.0834885232249L224.56,122.64579882279631L224.84,129.8052760097718L225.12,128.02079210778092L225.4,129.35143164157876L225.68,128.8671956992746L225.96,125.21488580623867L226.24,126.8966223688102L226.52,127.52118602044442L226.8,123.3380338558379L227.08,123.18153813831945L227.36,125.9462401917752L227.64,127.55799446709017L227.92,126.61538317624961L228.2,127.89676609083553L228.48,118.63970211413229L228.76,120.07771305302813L229.04,124.70912469214221L229.32,121.85436264148962L229.6,123.65395629985102L229.88,124.63072219540457L230.16,123.57963542371857L230.44,127.80208127635638L230.72,128.99074345045042L231,130.39292859114857L231.28,119.54456815169841L231.56,124.82695448128337L231.83999999999997,123.61139703230829L232.11999999999998,123.5316714432047L232.39999999999998,124.0462417951945L232.67999999999998,127.37367745350144L232.95999999999998,126.4776800668856L233.23999999999998,129.09377528855921L233.51999999999998,125.26545789319113L233.79999999999998,116.6589728115668L234.07999999999998,120.67412237338245L234.35999999999999,122.81939843602191L234.64,122.89689156298165L234.92,124.02839020421698L235.2,125.28495041150208L235.48,126.04642732809995L235.76,121.73740414900192L236.04,126.01595790608292L236.32,127.52837986900548L236.6,128.41215633841836L236.88,131.5453628539591L237.16,127.26295692560367L237.44,123.38589410982904L237.72,125.49302158655154L238,126.69242219419138L238.28,129.10113437051092L238.56,127.46989748522348L238.84,125.80670578566017L239.12,125.91744238905207L239.4,127.24164300574121L239.68,128.02779768504652L239.96,124.74148310779304L240.24,125.09404874181014L240.51999999999998,126.93602981022156L240.79999999999998,123.83896079570745L241.07999999999998,124.63965365237412L241.35999999999999,128.2523116808916L241.64,128.06442015718133L241.92,130.1547669476313L242.2,128.35171226597086L242.48,129.9086706828252L242.76,126.88459092624039L243.04,130.78820009378822L243.32,121.3870829632773L243.6,123.15525165742002L243.88,122.14763638106206L244.16,123.54311978654395L244.44,126.39047523639398L244.72,126.93627366901515L245,123.88246335077929L245.28,127.38560130738405L245.56,126.16004452731124L245.84,129.23289740011637L246.12,130.78286834463802L246.4,130.5484980845769L246.68,127.62294306184766L246.96,124.21721762016962L247.24,128.10671482143132L247.52,129.05564200375872L247.8,130.12371243980166L248.08,129.00474187699936L248.36,128.91335467975128L248.64000000000001,130.8817868067669L248.92000000000002,128.55018896960303L249.20000000000002,130.60365918191124L249.48000000000002,126.58255768365771L249.76,130.4212142038173L250.04,127.99853089796463L250.32,130.4465746885357L250.6,128.2395837042223L250.88,128.11087787947002L251.16,130.06206449896658L251.44,130.52423376608232L251.72,129.39318097691736" style="fill: none;" fill="none"></path></g></g></g></g><g opacity="0.2"><g><g><g><path stroke="rgb(255, 112, 67)" stroke-width="2px" d="M28,27.481482297182083L28.28,26.93698298931122L28.56,27.840936452150345L28.84,26.63234081864357L29.119999999999997,27.027867704629898L29.4,27.69770649075508L29.68,27.976673364639282L29.96,26.707748740911484L30.24,27.8100226521492L30.52,24.460895031690598L30.8,26.961080104112625L31.080000000000002,28.201425045728683L31.36,28.02888599038124L31.64,27.720424354076385L31.92,27.869569182395935L32.2,27.357575118541718L32.480000000000004,25.085271567106247L32.760000000000005,27.787875056266785L33.04,27.80349773168564L33.32,26.99504417181015L33.6,27.492012351751328L33.879999999999995,26.4662868976593L34.16,27.34330517053604L34.44,27.019764602184296L34.72,27.099230706691742L35,28.24989777803421L35.28,28.184661835432053L35.56,27.90427592396736L35.84,28.717755794525146L36.120000000000005,27.288493186235428L36.4,28.69812798500061L36.68,27.34976378083229L36.96,27.834040194749832L37.24,28.203321516513824L37.52,28.688101887702942L37.800000000000004,28.0074545443058L38.080000000000005,27.11355370283127L38.36,28.455167531967163L38.64,28.551317274570465L38.92,28.525111496448517L39.2,28.617892682552338L39.48,29.308937460184097L39.76,27.588029474020004L40.04,30.499788492918015L40.32,29.791144996881485L40.599999999999994,30.179337978363037L40.879999999999995,28.652546375989914L41.16,28.569857597351074L41.44,28.876568645238876L41.72,31.81182798743248L42,31.067284166812897L42.28,32.18576428294182L42.56,29.889071851968765L42.839999999999996,32.80682530999184L43.12,32.28717905282974L43.4,30.522917479276657L43.68,30.24970632791519L43.96,31.163818508386612L44.24,37.25707304477692L44.52,32.58231234550476L44.800000000000004,34.52028003334999L45.08,34.24220171570778L45.36,37.40555477142334L45.64,33.42076462507248L45.92,33.91917836666107L46.2,42.712622702121735L46.480000000000004,45.228105530142784L46.760000000000005,42.186531096696854L47.040000000000006,47.469627901911736L47.32,36.890629798173904L47.6,41.528641402721405L47.88,44.400680631399155L48.16,43.663934886455536L48.44,50.25160466134548L48.72,55.496248200535774L49,52.200102403759956L49.279999999999994,44.66539081931114L49.559999999999995,57.445992574095726L49.839999999999996,60.9850789308548L50.12,82.98276078701019L50.4,40.73443126678467L50.68,55.152357041835785L50.96,46.09119203686714L51.24,27.279594361782074L51.519999999999996,67.92943109571934L51.8,61.01339337229729L52.08,59.506256103515625L52.36,53.43116392195225L52.64,43.07109546661377L52.92,55.24104689061642L53.2,72.45678429305553L53.480000000000004,52.66699229180813L53.76,73.51510119438171L54.04,60.229302167892456L54.32,56.02424953877926L54.6,65.35759125649929L54.88,65.21183487772942L55.160000000000004,69.01331056654453L55.440000000000005,48.29264980554581L55.720000000000006,65.7258779257536L56,73.08409836888313L56.28,61.69563879072666L56.56,68.68414026498795L56.84,79.4761664122343L57.12,71.98301804065704L57.4,75.04109707474709L57.68,53.47051237523556L57.959999999999994,80.06032583117485L58.239999999999995,70.25707048177719L58.519999999999996,52.39746135473251L58.8,74.35892459750175L59.08,64.5945933163166L59.36,71.53067660331726L59.64,71.0634087473154L59.92,74.70387671887875L60.199999999999996,77.53782738745213L60.48,72.44913873076439L60.76,91.6657257527113L61.04,87.68748705089092L61.32,80.73034365475178L61.6,94.34628774225712L61.88,80.83921831846237L62.160000000000004,90.41262273490429L62.44,102.08433945477009L62.72,71.07234735786915L63,85.1247515976429L63.28,94.03754097223282L63.56,84.91735328733921L63.84,86.48399730026722L64.12,67.3282631188631L64.4,85.25768359005451L64.68,99.51292400062084L64.96000000000001,97.58644786477089L65.24000000000001,95.64576809108257L65.52000000000001,84.71280631422997L65.8,68.0039173066616L66.08,91.65040147304535L66.36,94.54843428730965L66.64,83.61312513053417L66.92,91.3088510632515L67.2,91.10418473184109L67.48,96.58076134324074L67.75999999999999,92.60697868466377L68.03999999999999,102.66118486225605L68.32,90.8079772144556L68.6,87.82378759980202L68.88,97.89551292359829L69.16,96.76032927632332L69.44,59.50548027455807L69.72,96.93845827877522L70,108.86669919639826L70.28,76.78965640068054L70.56,92.34051790833473L70.84,93.02703370153904L71.12,100.06811913847923L71.4,101.88765686750412L71.68,108.39089059084654L71.96000000000001,101.31618921458721L72.24000000000001,116.155751504004L72.52,99.93816447257996L72.8,91.22718346118927L73.08,94.2108293324709L73.36,103.56517811119556L73.64,99.64214925467968L73.92,78.04384027421474L74.2,116.19031236320734L74.48,99.36309617757797L74.76,99.68718712031841L75.04,103.12295560538769L75.32000000000001,116.55465026199818L75.60000000000001,87.90940728783607L75.88000000000001,84.65610449016094L76.16000000000001,79.02540315687656L76.44000000000001,87.67307785153389L76.72,78.80622816085815L77,92.6265202909708L77.28,97.61026647686958L77.56,94.81341634690762L77.84,112.29969591647387L78.12,107.81100154668093L78.4,81.00848165154457L78.68,67.63461609184742L78.96,108.69469725340605L79.24,91.76980619132519L79.52,105.22940416634083L79.8,100.02624426782131L80.08,102.73945738375187L80.36,91.51136231422424L80.64,107.32140374183655L80.91999999999999,111.46064352989197L81.19999999999999,104.39783488214016L81.47999999999999,114.67131883651018L81.75999999999999,110.8464754447341L82.03999999999999,102.33131498843431L82.32,102.74898283928633L82.6,113.82670634239912L82.88,99.21557594835758L83.16,96.18898098170757L83.44,92.6301474571228L83.72,87.23495994508266L84,94.48398080468178L84.28,104.93928723782301L84.56,103.88197493553162L84.84,102.08042383939028L85.12,93.32920250296593L85.39999999999999,81.94152538478374L85.67999999999999,87.30628316104412L85.96,111.74870152771473L86.24,106.31013390421867L86.52,100.98396864533424L86.8,110.14207248389721L87.08,98.74155108630657L87.36,104.23315358161926L87.64,94.48886123299599L87.92,107.63354227691889L88.2,111.03147749602795L88.48,107.77995181083679L88.76,112.10199878364801L89.04,106.08217281103134L89.32000000000001,109.93057288974524L89.60000000000001,108.8908791989088L89.88,103.30855776369572L90.16,117.25594659149647L90.44,115.9471297711134L90.72,120.17895513027906L91,105.28241251409054L91.28,99.64153257012367L91.56,117.93616623431444L91.84,119.79137220233679L92.12,116.4070703536272L92.4,110.91464561223984L92.68,116.1699418798089L92.96000000000001,106.27548352628946L93.24000000000001,110.68504334241152L93.52000000000001,124.77633517980576L93.80000000000001,107.85183203220367L94.08000000000001,111.12453718483448L94.36,114.24505055695772L94.64,89.68213003873825L94.92,111.90174539387226L95.2,104.94154178351164L95.48,115.37506532669067L95.76,107.15196468681097L96.04,96.69636648893356L96.32,117.61178684234619L96.6,112.1059840247035L96.88,94.34678506851196L97.16,108.09597943723202L97.44,111.76038537919521L97.72,120.84688749909401L98,112.21381098777056L98.28,116.04907833784819L98.55999999999999,103.41475681215525L98.83999999999999,97.23266322910786L99.11999999999999,116.20178402215242L99.39999999999999,120.36206402629614L99.67999999999999,109.09927547723055L99.96,114.12654434144497L100.24,106.62475907057524L100.52,99.26403541862965L100.8,114.44957100600004L101.08,99.97783121466637L101.36,122.08451703935862L101.64,122.62821067869663L101.92,121.42081194370985L102.2,97.298787727952L102.48,111.90068443119526L102.75999999999999,111.41940855234861L103.03999999999999,113.84744153171778L103.32,121.61981538683176L103.6,118.25365599989891L103.88,115.80632676184177L104.16,109.34214641153812L104.44,123.70901667326689L104.72,115.27632948756218L105,114.08994776010513L105.28,116.92818206548691L105.56,97.6453312933445L105.84,127.83142030984163L106.12,122.54047238081694L106.4,123.06103371828794L106.68,122.42085215449333L106.96000000000001,88.97488568723202L107.24000000000001,79.88191832602024L107.52,107.68703137338161L107.8,107.55344954133034L108.08,99.38298259675503L108.36,118.877700984478L108.64,115.41871730983257L108.92,113.5869652479887L109.2,101.29689295589924L109.48,106.65515233576298L109.76,108.69679928570986L110.04,95.27529318630695L110.32000000000001,112.49131240695715L110.60000000000001,111.7688664495945L110.88000000000001,107.9906092658639L111.16000000000001,96.04244877398014L111.44000000000001,110.08444563299417L111.72,112.20542275160551L112,97.21509766578674L112.28,106.77138411253691L112.56,116.16773375123739L112.84,118.66784256696701L113.12,124.1375859156251L113.4,116.45462800562382L113.68,124.94635444879532L113.96,112.22733826190233L114.24,95.64413686096668L114.52,111.79735992848873L114.8,116.66088578104973L115.08,112.48703871667385L115.36,104.6420021802187L115.64,121.09970827400684L115.91999999999999,116.70072161406279L116.19999999999999,122.87532546371222L116.47999999999999,120.5677183791995L116.75999999999999,127.20169254392385L117.03999999999999,111.50870513916016L117.32,124.06822548061609L117.6,124.98473808914423L117.88,100.34803756326437L118.16,103.86074573546648L118.44,120.06946378201246L118.72,114.46477261185646L119,120.74567497521639L119.28,122.85980225354433L119.56,125.17797917872667L119.84,126.4093656167388L120.12,114.11887888610363L120.39999999999999,129.211885266006L120.67999999999999,116.61054641753435L120.96,118.97947051376104L121.24,123.39980904757977L121.52,118.16661064326763L121.8,117.77441584318876L122.08,104.06163570284843L122.36,118.4302233979106L122.64,113.85454666614532L122.92,97.46918496489525L123.2,123.13860666751862L123.48,115.15423920750618L123.76,123.99190579354763L124.04,123.57298468053341L124.32000000000001,114.70928472280502L124.60000000000001,86.78380545973778L124.88,125.89346588402987L125.16,122.25934711098671L125.44,107.89111417531967L125.72,113.5881223604083L126,126.19074762612581L126.28,111.00026198476553L126.56,115.20229418575764L126.84,123.03788815438747L127.12,124.65277944505215L127.4,120.98597307503223L127.68,121.86944332718849L127.96000000000001,118.92697275429964L128.24,121.52454756945372L128.52,122.66580191254616L128.8,124.02662911266088L129.08,112.05898006260395L129.36,120.41071911156178L129.64000000000001,127.37079010158777L129.92000000000002,99.00277999043465L130.20000000000002,114.07485888153315L130.48000000000002,125.78231346607208L130.76000000000002,95.93733389675617L131.04000000000002,108.53690557926893L131.32,121.63237453252077L131.6,126.12258740514517L131.88,121.50167056173086L132.16,128.51585893705487L132.44,123.31925214082003L132.72,108.20554372668266L133,108.41890663653612L133.28,127.63640210777521L133.56,113.71542461961508L133.84,122.87807733565569L134.12,111.88816507160664L134.4,119.45611794292927L134.68,116.89582270383835L134.96,131.04547411948442L135.24,118.3105633854866L135.51999999999998,128.75194468349218L135.79999999999998,105.5289702937007L136.07999999999998,124.65496104955673L136.35999999999999,127.62785472720861L136.64,119.72429946810007L136.92,129.21552403643727L137.2,127.00931348651648L137.48,124.14411415159702L137.76,102.7117098942399L138.04,124.48523686081171L138.32,120.26304636895657L138.6,126.48472380638123L138.88,128.75088040530682L139.16,124.58412521332502L139.44,126.93188641965389L139.72,124.48304199427366L140,126.48107343167067L140.28,129.5841754116118L140.56,129.8861502557993L140.84,126.55607686191797L141.12,126.07149210572243L141.4,130.43130603432655L141.68,119.4670160189271L141.96,119.06775587052107L142.24,119.93621018528938L142.52,120.52690115571022L142.8,128.33199410513043L143.08,113.26188959926367L143.36,124.7980849146843L143.64000000000001,127.91829657554626L143.92000000000002,103.31373327225447L144.20000000000002,130.81503136828542L144.48000000000002,126.74281955510378L144.76,122.4573492705822L145.04,128.76071586087346L145.32,124.57676810026169L145.6,127.09592782706022L145.88,126.25990249961615L146.16,123.40325386077166L146.44,126.6485198661685L146.72,113.99036978185177L147,128.20909484103322L147.28,122.96875317394733L147.56,115.23307204991579L147.84,120.73888481408358L148.12,112.28163634240627L148.4,135.86681510135531L148.68,122.61342019587755L148.96,128.87918726354837L149.24,122.47305814921856L149.52,122.61438832432032L149.8,123.93433862179518L150.08,118.94931596517563L150.36,126.88472994416952L150.64000000000001,118.39582499861717L150.92000000000002,127.41145149618387L151.20000000000002,121.93267007172108L151.48000000000002,121.22830026596785L151.76000000000002,107.79483512789011L152.04000000000002,115.86350933462381L152.32000000000002,132.78535676002502L152.60000000000002,120.69989443570375L152.88000000000002,118.4499307796359L153.16000000000003,116.52778469771147L153.44,130.35581688210368L153.72,117.80935798585415L154,126.38685663044453L154.28,124.22716763615608L154.56,119.68764320760965L154.84,124.9777954146266L155.12,125.07603061199188L155.4,132.56187491863966L155.68,123.02469243109226L155.96,113.73827841877937L156.24,127.87106384336948L156.52,129.22535617649555L156.8,120.36240883916616L157.08,129.69412430003285L157.36,113.95477448403835L157.64,128.52420904487371L157.92,123.06906056404114L158.2,129.25628158077598L158.48,125.83099507540464L158.76,129.24167013540864L159.04,128.90169790759683L159.32,120.89170654118061L159.6,126.08379264175892L159.88,123.75028812140226L160.16,127.88041357696056L160.44,125.05357798933983L160.72,130.86275148019195L161,130.56430599465966L161.28,122.45144103467464L161.56,128.54170332476497L161.83999999999997,117.09226657450199L162.11999999999998,121.25428722053766L162.39999999999998,133.22407145798206L162.67999999999998,120.6076271533966L162.95999999999998,135.51256297901273L163.23999999999998,127.77100180089474L163.51999999999998,109.18037612736225L163.79999999999998,127.51832027733326L164.07999999999998,121.95599135756493L164.35999999999999,111.03462391346693L164.64,125.40418305248022L164.92,108.14329505711794L165.2,117.33337697386742L165.48,114.3489685356617L165.76,123.8927687779069L166.04,118.02559544146061L166.32,121.22388069331646L166.6,128.4592963643372L166.88,126.04069434851408L167.16,120.99833992123604L167.44,125.64013452082872L167.72,127.2812547981739L168,129.6408888399601L168.28,106.18017260730267L168.56,112.32576244324446L168.84,128.68888039886951L169.12,122.87802428752184L169.4,111.07302413135767L169.68,121.22012753784657L169.96,128.5366455167532L170.24,123.80871400982141L170.51999999999998,109.77466773986816L170.79999999999998,131.31774200871587L171.07999999999998,131.8918023891747L171.35999999999999,128.79157495498657L171.64,124.69646126776934L171.92,131.86828714609146L172.2,116.82750996947289L172.48,118.85624964535236L172.76,122.67615292966366L173.04,129.1158780902624L173.32,124.83307678997517L173.6,132.82825612276793L173.88,122.86376428604126L174.16,130.06389631703496L174.44,114.69879445433617L174.72,122.95575969666243L175,133.65132775902748L175.28,119.89401039481163L175.56,127.35233598202467L175.84,126.8196067288518L176.12,124.53967087715864L176.4,120.74024417251348L176.68,126.3342063575983L176.96,125.69913399219513L177.24,132.10335337370634L177.52,130.63281931728125L177.8,124.83425379544497L178.08,121.54462628811598L178.36,134.05365972593427L178.64000000000001,134.06785010173917L178.92000000000002,125.64907644689083L179.20000000000002,94.48171299695969L179.48000000000002,129.94728657230735L179.76,118.36395964771509L180.04,121.91560846567154L180.32,125.39141502976418L180.6,119.75996770709753L180.88,129.5085254572332L181.16,134.3813678883016L181.44,106.54507745802402L181.72,129.20313729718328L182,133.27496285364032L182.28,103.15350469946861L182.56,125.17944131791592L182.84,126.68197997659445L183.12,124.42401599884033L183.4,122.85389401763678L183.68,126.21359479427338L183.96,128.38602528721094L184.24,132.66702626645565L184.52,121.42669034004211L184.8,114.76733927428722L185.08,121.65344790369272L185.36,113.92298870533705L185.64000000000001,127.1205288991332L185.92000000000002,119.05812763422728L186.20000000000002,119.8549437597394L186.48000000000002,123.03564355522394L186.76000000000002,130.23885072022676L187.04000000000002,134.32485504820943L187.32000000000002,129.1677591651678L187.60000000000002,97.90937837958336L187.88000000000002,122.94519980251789L188.16000000000003,111.8723567277193L188.44,111.72798623144627L188.72,95.88390116393566L189,110.65653660148382L189.28,126.49806209653616L189.56,120.90201445668936L189.84,121.01000056415796L190.12,103.86794370412827L190.4,128.4251283928752L190.68,126.32661384344101L190.96,124.52308670431376L191.24,119.12308175861835L191.52,125.57134766876698L191.8,131.71382590010762L192.08,125.58536563813686L192.36,131.30977484211326L192.64,124.78349004685879L192.92,117.55151090025902L193.2,121.4040222093463L193.48,124.32266422361135L193.76,118.58673528581858L194.04,129.34670212492347L194.32,124.81469561159611L194.6,107.04106093198061L194.88,124.54407718777657L195.16,128.90945951268077L195.44,123.57560393214226L195.72,126.04277317225933L196,130.541911393404L196.28,108.86348646879196L196.56,133.071639303118L196.83999999999997,126.38256304711103L197.11999999999998,133.141289845109L197.39999999999998,129.41182036697865L197.67999999999998,118.15332871675491L197.95999999999998,117.74171166867018L198.23999999999998,126.83484148979187L198.51999999999998,134.53261972218752L198.79999999999998,126.69342179596424L199.07999999999998,136.19501893222332L199.35999999999999,127.40301352739334L199.64,129.31434607878327L199.92,129.0767716690898L200.2,128.74485446885228L200.48,127.8301604166627L200.76,130.76769419759512L201.04,130.01164722070098L201.32,121.88181348890066L201.6,127.87373614311218L201.88,131.72554290667176L202.16,126.68487109988928L202.44,136.00489442050457L202.72,134.1748879738152L203,129.56541626527905L203.28,132.22581001743674L203.56,138.65435694158077L203.84,130.3234492316842L204.12,134.52421656623483L204.4,125.3345640078187L204.68,128.86893239617348L204.96,132.64489524811506L205.24,132.35140478983521L205.51999999999998,124.31587074697018L205.79999999999998,131.384274315089L206.07999999999998,131.24237221479416L206.35999999999999,120.9146863296628L206.64,138.032055914402L206.92,133.29867868497968L207.2,135.07650234550238L207.48,126.24133565276861L207.76,126.85422726720572L208.04,126.87770769745111L208.32,133.54047207906842L208.6,128.53462637215853L208.88,133.83174446225166L209.16,120.9761459082365L209.44,131.52644662931561L209.72,130.08429995551705L210,130.37703613564372L210.28,132.84437943995L210.56,130.44414368271828L210.84,112.46877358108759L211.12,130.80844676867127L211.4,112.51875818520784L211.68,128.39031389728189L211.96,130.6097980849445L212.24,127.81146758049726L212.52,138.0891854390502L212.8,134.04709004610777L213.08,138.838455516845L213.36,125.18846613168716L213.64000000000001,131.60097759962082L213.92000000000002,129.16917488723993L214.20000000000002,129.14930338785052L214.48000000000002,124.85894770175219L214.76,137.89936595410109L215.04,123.10616110265255L215.32,131.67838974669576L215.6,133.93556794896722L215.88,132.265955850482L216.16,129.97717422246933L216.44,121.7197713330388L216.72,128.39628844335675L217,127.00890899449587L217.28,131.20240376144648L217.56,129.1610170789063L217.84,128.30437426269054L218.12,131.17024167254567L218.4,129.61068787425756L218.68,138.67248779907823L218.96,116.6124130487442L219.24,136.36471493914723L219.52,113.03944882750511L219.8,125.34784593433142L220.08,117.36645580083132L220.36,130.5830353014171L220.64000000000001,115.48125774413347L220.92000000000002,112.9682084992528L221.20000000000002,122.24542529135942L221.48000000000002,122.90074546635151L221.76000000000002,130.58327070251107L222.04000000000002,132.015600156039L222.32000000000002,119.24715802818537L222.60000000000002,131.0050066821277L222.88000000000002,112.1220178231597L223.16000000000003,128.83911768719554L223.44,115.69027402251959L223.72,131.00068325921893L224,117.90688366442919L224.28,137.08691057562828L224.56,114.48926427215338L224.84,140.54449179023504L225.12,125.3440662547946L225.4,131.34739094227552L225.68,128.14084178581834L225.96,119.73642096668482L226.24,129.41922721266747L226.52,128.45803149789572L226.8,117.0633056089282L227.08,122.94679456204176L227.36,130.09329327195883L227.64,129.97562588006258L227.92,125.2014662399888L228.2,129.81884046271443L228.48,104.75410614907742L228.76,122.2347294613719L229.04,131.65624215081334L229.32,117.57221956551075L229.6,126.3533467873931L229.88,126.09587103873491L230.16,122.00300526618958L230.44,134.1357500553131L230.72,130.77373671159148L231,132.4962063021958L231.28,103.2720274925232L231.56,132.7505339756608L231.83999999999997,121.78806085884571L232.11999999999998,123.41208305954933L232.39999999999998,124.81809732317924L232.67999999999998,132.36483094096184L232.95999999999998,125.13368398696184L233.23999999999998,133.01791812106967L233.51999999999998,119.52298180013895L233.79999999999998,103.7492451891303L234.07999999999998,126.69684671610594L234.35999999999999,126.03731252998114L234.64,123.0131312534213L234.92,125.72563816606998L235.2,127.16979072242975L235.48,127.18864270299673L235.76,115.27386938035488L236.04,132.43378854170442L236.32,129.7970128133893L236.6,129.7378210425377L236.88,136.24517262727022L237.16,120.83934803307056L237.44,117.57029988616705L237.72,128.65371280163527L238,128.49152310565114L238.28,132.71420263499022L238.56,125.02304215729237L238.84,123.31191823631525L239.12,126.08354729413986L239.4,129.22794393077493L239.68,129.20702970400453L239.96,119.81201124191284L240.24,125.62289719283581L240.51999999999998,129.6990014128387L240.79999999999998,119.19335727393627L241.07999999999998,125.84069293737411L241.35999999999999,133.67129872366786L241.64,127.78258287161589L241.92,133.29028713330626L242.2,125.6471302434802L242.48,132.24410830810666L242.76,122.34847129136324L243.04,136.64361384510994L243.32,107.28540726751089L243.6,125.80750469863415L243.88,120.63621346652508L244.16,125.63634489476681L244.44,130.66150841116905L244.72,127.75497131794691L245,119.30174787342548L245.28,132.6403082422912L245.56,124.32170935720205L245.84,133.84217670932412L246.12,133.1078247614205L246.4,130.1969426944852L246.68,123.23461052775383L246.96,119.10862945765257L247.24,133.94096062332392L247.52,130.4790327772498L247.8,131.7258180938661L248.08,127.3262860327959L248.36,128.77627388387918L248.64000000000001,133.83443499729037L248.92000000000002,125.05279221385717L249.20000000000002,133.6838645003736L249.48000000000002,120.55090543627739L249.76,136.1791989840567L250.04,124.36450593918562L250.32,134.11864037439227L250.6,124.92909722775221L250.88,127.91781914234161L251.16,132.98884442821145L251.44,131.21748766675591L251.72,127.69660179316998" style="fill: none;" fill="none"></path></g></g></g></g></g></g><g transform="translate(50, 178)" clip-path="url(#clip_1)"><clipPath id="clip_1"><rect width="280" height="21"></rect></clipPath><g><g><line x1="0" y1="0" x2="0" y2="5" style="visibility: inherit;" fill="rgb(0, 0, 0)" stroke="rgb(204, 204, 204)" stroke-width="1px"></line><line x1="28" y1="0" x2="28" y2="5" style="visibility: inherit;" fill="rgb(0, 0, 0)" stroke="rgb(204, 204, 204)" stroke-width="1px"></line><line x1="56" y1="0" x2="56" y2="5" style="visibility: inherit;" fill="rgb(0, 0, 0)" stroke="rgb(204, 204, 204)" stroke-width="1px"></line><line x1="84" y1="0" x2="84" y2="5" style="visibility: inherit;" fill="rgb(0, 0, 0)" stroke="rgb(204, 204, 204)" stroke-width="1px"></line><line x1="112" y1="0" x2="112" y2="5" style="visibility: inherit;" fill="rgb(0, 0, 0)" stroke="rgb(204, 204, 204)" stroke-width="1px"></line><line x1="140" y1="0" x2="140" y2="5" style="visibility: inherit;" fill="rgb(0, 0, 0)" stroke="rgb(204, 204, 204)" stroke-width="1px"></line><line x1="168" y1="0" x2="168" y2="5" style="visibility: inherit;" fill="rgb(0, 0, 0)" stroke="rgb(204, 204, 204)" stroke-width="1px"></line><line x1="196" y1="0" x2="196" y2="5" style="visibility: inherit;" fill="rgb(0, 0, 0)" stroke="rgb(204, 204, 204)" stroke-width="1px"></line><line x1="224" y1="0" x2="224" y2="5" style="visibility: inherit;" fill="rgb(0, 0, 0)" stroke="rgb(204, 204, 204)" stroke-width="1px"></line><line x1="252" y1="0" x2="252" y2="5" style="visibility: inherit;" fill="rgb(0, 0, 0)" stroke="rgb(204, 204, 204)" stroke-width="1px"></line><line x1="280" y1="0" x2="280" y2="5" style="visibility: inherit;" fill="rgb(0, 0, 0)" stroke="rgb(204, 204, 204)" stroke-width="1px"></line></g><g transform="translate(0, 8)"><text x="0" y="0" dx="0em" dy="0.95em" style="text-anchor: middle; visibility: hidden; font-family: Roboto, sans-serif; font-size: 12px; font-weight: 200;" fill="rgb(50, 49, 63)" stroke="none" stroke-width="1px">-100</text><text x="28" y="0" dx="0em" dy="0.95em" style="text-anchor: middle; visibility: inherit; font-family: Roboto, sans-serif; font-size: 12px; font-weight: 200;" fill="rgb(50, 49, 63)" stroke="none" stroke-width="1px">0</text><text x="56" y="0" dx="0em" dy="0.95em" style="text-anchor: middle; visibility: inherit; font-family: Roboto, sans-serif; font-size: 12px; font-weight: 200;" fill="rgb(50, 49, 63)" stroke="none" stroke-width="1px">100</text><text x="84" y="0" dx="0em" dy="0.95em" style="text-anchor: middle; visibility: inherit; font-family: Roboto, sans-serif; font-size: 12px; font-weight: 200;" fill="rgb(50, 49, 63)" stroke="none" stroke-width="1px">200</text><text x="112" y="0" dx="0em" dy="0.95em" style="text-anchor: middle; visibility: inherit; font-family: Roboto, sans-serif; font-size: 12px; font-weight: 200;" fill="rgb(50, 49, 63)" stroke="none" stroke-width="1px">300</text><text x="140" y="0" dx="0em" dy="0.95em" style="text-anchor: middle; visibility: inherit; font-family: Roboto, sans-serif; font-size: 12px; font-weight: 200;" fill="rgb(50, 49, 63)" stroke="none" stroke-width="1px">400</text><text x="168" y="0" dx="0em" dy="0.95em" style="text-anchor: middle; visibility: inherit; font-family: Roboto, sans-serif; font-size: 12px; font-weight: 200;" fill="rgb(50, 49, 63)" stroke="none" stroke-width="1px">500</text><text x="196" y="0" dx="0em" dy="0.95em" style="text-anchor: middle; visibility: inherit; font-family: Roboto, sans-serif; font-size: 12px; font-weight: 200;" fill="rgb(50, 49, 63)" stroke="none" stroke-width="1px">600</text><text x="224" y="0" dx="0em" dy="0.95em" style="text-anchor: middle; visibility: inherit; font-family: Roboto, sans-serif; font-size: 12px; font-weight: 200;" fill="rgb(50, 49, 63)" stroke="none" stroke-width="1px">700</text><text x="252" y="0" dx="0em" dy="0.95em" style="text-anchor: middle; visibility: inherit; font-family: Roboto, sans-serif; font-size: 12px; font-weight: 200;" fill="rgb(50, 49, 63)" stroke="none" stroke-width="1px">800</text><text x="280" y="0" dx="0em" dy="0.95em" style="text-anchor: middle; visibility: hidden; font-family: Roboto, sans-serif; font-size: 12px; font-weight: 200;" fill="rgb(50, 49, 63)" stroke="none" stroke-width="1px">900</text></g><line x1="0" y1="0" x2="280" y2="0" fill="rgb(0, 0, 0)" stroke="rgb(204, 204, 204)" stroke-width="1px"></line></g></g></g></g></svg>