<svg viewBox="0 0 330 200" xmlns="http://www.w3.org/2000/svg"><g><g><g><g><g><line x1="50" y1="178" x2="45" y2="178" style="visibility: inherit;" fill="rgb(0, 0, 0)" stroke="rgb(204, 204, 204)" stroke-width="1px"></line><line x1="50" y1="155.75" x2="45" y2="155.75" style="visibility: inherit;" fill="rgb(0, 0, 0)" stroke="rgb(204, 204, 204)" stroke-width="1px"></line><line x1="50" y1="133.5" x2="45" y2="133.5" style="visibility: inherit;" fill="rgb(0, 0, 0)" stroke="rgb(204, 204, 204)" stroke-width="1px"></line><line x1="50" y1="111.24999999999999" x2="45" y2="111.24999999999999" style="visibility: inherit;" fill="rgb(0, 0, 0)" stroke="rgb(204, 204, 204)" stroke-width="1px"></line><line x1="50" y1="88.99999999999999" x2="45" y2="88.99999999999999" style="visibility: inherit;" fill="rgb(0, 0, 0)" stroke="rgb(204, 204, 204)" stroke-width="1px"></line><line x1="50" y1="66.75" x2="45" y2="66.75" style="visibility: inherit;" fill="rgb(0, 0, 0)" stroke="rgb(204, 204, 204)" stroke-width="1px"></line><line x1="50" y1="44.5" x2="45" y2="44.5" style="visibility: inherit;" fill="rgb(0, 0, 0)" stroke="rgb(204, 204, 204)" stroke-width="1px"></line><line x1="50" y1="22.25" x2="45" y2="22.25" style="visibility: inherit;" fill="rgb(0, 0, 0)" stroke="rgb(204, 204, 204)" stroke-width="1px"></line><line x1="50" y1="0" x2="45" y2="0" style="visibility: inherit;" fill="rgb(0, 0, 0)" stroke="rgb(204, 204, 204)" stroke-width="1px"></line></g><g transform="translate(40, 0)"><text x="0" y="178" dx="0em" dy="0.3em" style="text-anchor: end; visibility: hidden; font-family: Roboto, sans-serif; font-size: 12px; font-weight: 200;" fill="rgb(50, 49, 63)" stroke="none" stroke-width="1px">-0.2</text><text x="0" y="155.75" dx="0em" dy="0.3em" style="text-anchor: end; visibility: inherit; font-family: Roboto, sans-serif; font-size: 12px; font-weight: 200;" fill="rgb(50, 49, 63)" stroke="none" stroke-width="1px">0</text><text x="0" y="133.5" dx="0em" dy="0.3em" style="text-anchor: end; visibility: hidden; font-family: Roboto, sans-serif; font-size: 12px; font-weight: 200;" fill="rgb(50, 49, 63)" stroke="none" stroke-width="1px">0.2</text><text x="0" y="111.24999999999999" dx="0em" dy="0.3em" style="text-anchor: end; visibility: inherit; font-family: Roboto, sans-serif; font-size: 12px; font-weight: 200;" fill="rgb(50, 49, 63)" stroke="none" stroke-width="1px">0.4</text><text x="0" y="88.99999999999999" dx="0em" dy="0.3em" style="text-anchor: end; visibility: hidden; font-family: Roboto, sans-serif; font-size: 12px; font-weight: 200;" fill="rgb(50, 49, 63)" stroke="none" stroke-width="1px">0.6</text><text x="0" y="66.75" dx="0em" dy="0.3em" style="text-anchor: end; visibility: inherit; font-family: Roboto, sans-serif; font-size: 12px; font-weight: 200;" fill="rgb(50, 49, 63)" stroke="none" stroke-width="1px">0.8</text><text x="0" y="44.5" dx="0em" dy="0.3em" style="text-anchor: end; visibility: hidden; font-family: Roboto, sans-serif; font-size: 12px; font-weight: 200;" fill="rgb(50, 49, 63)" stroke="none" stroke-width="1px">1</text><text x="0" y="22.25" dx="0em" dy="0.3em" style="text-anchor: end; visibility: inherit; font-family: Roboto, sans-serif; font-size: 12px; font-weight: 200;" fill="rgb(50, 49, 63)" stroke="none" stroke-width="1px">1.2</text><text x="0" y="0" dx="0em" dy="0.3em" style="text-anchor: end; visibility: hidden; font-family: Roboto, sans-serif; font-size: 12px; font-weight: 200;" fill="rgb(50, 49, 63)" stroke="none" stroke-width="1px">1.4</text></g><line x1="50" y1="0" x2="50" y2="178" fill="rgb(0, 0, 0)" stroke="rgb(204, 204, 204)" stroke-width="1px"></line></g></g><g transform="translate(50, 0)" clip-path="url(#clip_0)"><clipPath id="clip_0"><rect width="280" height="177"></rect></clipPath><g><g><g><line x1="0" y1="0" x2="0" y2="178" fill="rgb(0, 0, 0)" stroke="rgb(60, 60, 60)" stroke-width="1px" opacity="0.25"></line><line x1="28" y1="0" x2="28" y2="178" fill="rgb(0, 0, 0)" stroke="rgb(60, 60, 60)" stroke-width="1px" opacity="0.25"></line><line x1="56" y1="0" x2="56" y2="178" fill="rgb(0, 0, 0)" stroke="rgb(60, 60, 60)" stroke-width="1px" opacity="0.25"></line><line x1="84" y1="0" x2="84" y2="178" fill="rgb(0, 0, 0)" stroke="rgb(60, 60, 60)" stroke-width="1px" opacity="0.25"></line><line x1="112" y1="0" x2="112" y2="178" fill="rgb(0, 0, 0)" stroke="rgb(60, 60, 60)" stroke-width="1px" opacity="0.25"></line><line x1="140" y1="0" x2="140" y2="178" fill="rgb(0, 0, 0)" stroke="rgb(60, 60, 60)" stroke-width="1px" opacity="0.25"></line><line x1="168" y1="0" x2="168" y2="178" fill="rgb(0, 0, 0)" stroke="rgb(60, 60, 60)" stroke-width="1px" opacity="0.25"></line><line x1="196" y1="0" x2="196" y2="178" fill="rgb(0, 0, 0)" stroke="rgb(60, 60, 60)" stroke-width="1px" opacity="0.25"></line><line x1="224" y1="0" x2="224" y2="178" fill="rgb(0, 0, 0)" stroke="rgb(60, 60, 60)" stroke-width="1px" opacity="0.25"></line><line x1="252" y1="0" x2="252" y2="178" fill="rgb(0, 0, 0)" stroke="rgb(60, 60, 60)" stroke-width="1px" opacity="0.25"></line><line x1="280" y1="0" x2="280" y2="178" fill="rgb(0, 0, 0)" stroke="rgb(60, 60, 60)" stroke-width="1px" opacity="0.25"></line></g><g><line x1="0" y1="178" x2="280" y2="178" fill="rgb(0, 0, 0)" stroke="rgb(60, 60, 60)" stroke-width="1px" opacity="0.25"></line><line x1="0" y1="155.75" x2="280" y2="155.75" fill="rgb(0, 0, 0)" stroke="rgb(60, 60, 60)" stroke-width="1px" opacity="0.25"></line><line x1="0" y1="133.5" x2="280" y2="133.5" fill="rgb(0, 0, 0)" stroke="rgb(60, 60, 60)" stroke-width="1px" opacity="0.25"></line><line x1="0" y1="111.24999999999999" x2="280" y2="111.24999999999999" fill="rgb(0, 0, 0)" stroke="rgb(60, 60, 60)" stroke-width="1px" opacity="0.25"></line><line x1="0" y1="88.99999999999999" x2="280" y2="88.99999999999999" fill="rgb(0, 0, 0)" stroke="rgb(60, 60, 60)" stroke-width="1px" opacity="0.25"></line><line x1="0" y1="66.75" x2="280" y2="66.75" fill="rgb(0, 0, 0)" stroke="rgb(60, 60, 60)" stroke-width="1px" opacity="0.25"></line><line x1="0" y1="44.5" x2="280" y2="44.5" fill="rgb(0, 0, 0)" stroke="rgb(60, 60, 60)" stroke-width="1px" opacity="0.25"></line><line x1="0" y1="22.25" x2="280" y2="22.25" fill="rgb(0, 0, 0)" stroke="rgb(60, 60, 60)" stroke-width="1px" opacity="0.25"></line><line x1="0" y1="0" x2="280" y2="0" fill="rgb(0, 0, 0)" stroke="rgb(60, 60, 60)" stroke-width="1px" opacity="0.25"></line></g></g></g><g><g><line x1="0" y1="155.75" x2="280" y2="155.75" fill="rgb(0, 0, 0)" stroke="rgb(153, 153, 153)" stroke-width="1.5px"></line></g></g><g><g><line x1="28" y1="0" x2="28" y2="178" fill="rgb(0, 0, 0)" stroke="rgb(153, 153, 153)" stroke-width="1.5px"></line></g></g><g><g><g><g><g><path stroke="rgb(255, 112, 67)" stroke-width="2px" d="M28,21.58014264702797L28.28,21.28607363253832L28.56,21.531629316660815L28.84,20.416814380599302L29.119999999999997,20.817313841487877L29.4,21.375179655965958L29.68,21.579985959153614L29.96,20.7486238096186L30.24,21.204027925477302L30.52,19.696308225573514L30.8,20.012445312474128L31.080000000000002,21.016952118569588L31.36,21.598187157886407L31.64,21.674410141832844L31.92,22.00478973019004L32.2,21.5800314907022L32.480000000000004,20.04170083869847L32.760000000000005,20.663697481326224L33.04,21.08452168854805L33.32,20.89024391203964L33.6,20.72421862714763L33.879999999999995,20.31472633942168L34.16,20.41913895014183L34.44,20.3715832733988L34.72,20.640093881566948L35,21.14554639174184L35.28,21.47590375089858L35.56,21.6220564794661L35.84,22.24397479275575L36.120000000000005,21.986409707227985L36.4,22.464925986438274L36.68,22.00687912747202L36.96,21.9738709651261L37.24,22.26238713631124L37.52,22.60699084379062L37.800000000000004,22.35992096990488L38.080000000000005,20.911437449611437L38.36,21.619500197272455L38.64,21.81080404401778L38.92,22.134930202684693L39.2,22.451459044067736L39.48,22.884761186956467L39.76,21.751645429116582L40.04,22.56241262162789L40.32,23.173939217422788L40.599999999999994,23.519174402553137L40.879999999999995,23.257179037083322L41.16,22.875742051204906L41.44,22.381745286696948L41.72,23.625626318413403L42,24.269046862580556L42.28,25.10158941725625L42.56,24.322251758453266L42.839999999999996,24.97984252064119L43.12,25.43903612904988L43.4,25.08421314843428L43.68,24.77411926441143L43.96,24.867356053905226L44.24,27.18727577442934L44.52,27.025750140637207L44.800000000000004,27.656061017686156L45.08,27.55642178307416L45.36,28.94595039278535L45.64,28.105319919528153L45.92,28.232304610217582L46.2,31.242147408369146L46.480000000000004,34.74104714539228L46.760000000000005,35.3169347652589L47.040000000000006,37.931866503286074L47.32,34.93673386366823L47.6,34.790570558259844L47.88,36.355226457804406L48.16,36.35075521510241L48.44,39.18986630464435L48.72,42.87988477960132L49,44.04873092183413L49.279999999999994,41.89259026771154L49.559999999999995,45.846238954814446L49.839999999999996,49.27607798811922L50.12,60.40844292782026L50.4,49.85423135365414L50.68,49.45228949550012L50.96,45.828987558860874L51.24,36.084836113559795L51.519999999999996,46.52975605017401L51.8,49.8249621634868L52.08,51.393299564432354L52.36,49.76538777036144L52.64,44.848302231327715L52.92,46.83709741002085L53.2,54.75926240304565L53.480000000000004,50.742691654082876L53.76,57.32054864055917L54.04,56.118538276475675L54.32,53.62736515767694L54.6,55.90703335742546L54.88,57.30932086909049L55.160000000000004,59.667681683327174L55.440000000000005,52.34011638714396L55.720000000000006,55.590134153089046L56,59.81598136980601L56.28,58.24987695312061L56.56,59.43811022457816L56.84,64.86075369249187L57.12,65.40290907460691L57.4,67.08279170655156L57.68,59.42847029008237L57.959999999999994,65.2398206808434L58.239999999999995,64.76331730593834L58.519999999999996,57.0368283266401L58.8,61.68201628771875L59.08,60.54750598339709L59.36,62.71143436353489L59.64,63.74133865786245L59.92,65.93555348368078L60.199999999999996,68.23346224577182L60.48,67.67080229610774L60.76,74.66295185739143L61.04,77.73922303947414L61.32,76.49518127818469L61.6,81.20451807129122L61.88,78.65219051925978L62.160000000000004,80.48481221967127L62.44,86.8932647643875L62.72,77.73727047076171L63,78.52538988369909L63.28,81.9838158093584L63.56,80.92151189462496L63.84,80.88167168269247L64.12,73.2270269129854L64.4,75.45692764724382L64.68,82.98940742614916L64.96000000000001,86.48323349716098L65.24000000000001,87.94677895642417L65.52000000000001,84.62262934647262L65.8,75.64438989282998L66.08,79.59170567108009L66.36,83.51295724578387L66.64,81.155564386056L66.92,83.00490184331305L67.2,83.94193078103284L67.48,86.75586106194626L67.75999999999999,86.45106556900485L68.03999999999999,90.7282286935338L68.32,88.38918154557278L68.6,86.0741369910224L68.88,88.37288390321636L69.16,89.31877919270458L69.44,74.48463947316324L69.72,81.27198477828689L70,90.15914933827037L70.28,81.5817738172204L70.56,83.56113191823904L70.84,85.24615260589565L71.12,88.86571681874064L71.4,92.1053116284434L71.68,96.44331646338844L71.96000000000001,95.58471271619642L72.24000000000001,101.53260089293389L72.52,98.70858276090185L72.8,93.4536819291184L73.08,91.78120609713017L73.36,94.41690215225468L73.64,94.10668698999551L73.92,85.0303935471372L74.2,95.42617745776153L74.48,94.88293454396234L74.76,94.29131843654814L75.04,95.63266099100412L75.32000000000001,101.71083297494114L75.60000000000001,94.01885404683985L75.88000000000001,88.21750511227746L76.16000000000001,81.81419448553743L76.44000000000001,81.88950511514676L76.72,78.4919896167489L77,82.26208652508092L77.28,86.27920769722361L77.56,87.33310327572283L77.84,95.35331895138418L78.12,98.14546029678341L78.4,89.27402546352958L78.68,77.9981427690197L78.96,88.15588425700716L79.24,86.80850856962712L79.52,92.06185362614936L79.8,92.65622180627433L80.08,94.1942166979709L80.36,90.90371599767202L80.64,95.39275246246811L80.91999999999999,99.68970670034979L81.19999999999999,99.08120490151938L81.47999999999999,103.42938940249859L81.75999999999999,104.3157118172823L82.03999999999999,101.32477232285612L82.32,99.27798862140341L82.6,102.05031000304795L82.88,98.93927795129169L83.16,95.99126455448356L83.44,92.33202526129655L83.72,88.27728782389981L84,88.42806453880323L84.28,92.46328263507277L84.56,95.05419139281508L84.84,95.90840314159152L85.12,92.35076703029486L85.39999999999999,85.84741425751218L85.67999999999999,84.31731197380167L85.96,93.34488581802331L86.24,96.18129090479543L86.52,95.93202226764875L86.8,99.61083748285127L87.08,97.15621019210904L87.36,98.06010692004257L87.64,94.35615138223108L87.92,97.55992446249923L88.2,100.71869389358879L88.48,101.5616304376347L88.76,103.40614822498696L89.04,102.3785773068174L89.32000000000001,103.21049150523568L89.60000000000001,103.53239294706L89.88,101.28261420022375L90.16,105.4735263937171L90.44,107.63527444323631L90.72,109.49369453978976L91,105.67194668407703L91.28,100.5521645006863L91.56,105.51348284824655L91.84,109.35759360458832L92.12,110.23634247700201L92.4,108.39426453840629L92.68,109.51015374917924L92.96000000000001,106.15720377778493L93.24000000000001,105.82891234407117L93.52000000000001,111.41931117564016L93.80000000000001,107.42888250344738L94.08000000000001,106.99054978128518L94.36,107.80403603515771L94.64,98.21093071938601L94.92,101.71269895101216L95.2,100.96912532725707L95.48,104.37447857963308L95.76,103.14997190300983L96.04,98.41932703294968L96.32,104.17300975166924L96.6,105.25666397120457L96.88,98.71249246183574L97.16,100.29958182921135L97.44,102.53034321874453L97.72,107.83345975822255L98,107.56823276785637L98.28,108.65242149417176L98.55999999999999,104.2931697606121L98.83999999999999,98.90668127769676L99.11999999999999,103.74696489771871L99.39999999999999,107.95962697029512L99.67999999999999,105.81584002828836L99.96,107.26999865029L100.24,104.82349489065255L100.52,100.65155021507887L100.8,104.02300536727515L101.08,100.27326010522609L101.36,107.24361891065456L101.64,111.62705902763854L101.92,113.59721226995379L102.2,104.94095222059006L102.48,105.47913193048903L102.75999999999999,105.66906797791641L103.03999999999999,106.97538985851479L103.32,111.01766858722613L103.6,111.81144498125221L103.88,111.56584242186251L104.16,108.36381019473852L104.44,112.39014604282843L104.72,111.67013973946848L105,110.5774134931295L105.28,111.20163028462702L105.56,103.55912055387482L105.84,111.29916427322854L106.12,113.93068753652949L106.4,115.88406959756122L106.68,116.55307786216679L106.96000000000001,103.34787255257574L107.24000000000001,91.80007912951831L107.52,95.96810852729156L107.8,98.43151131715102L108.08,96.23679859903886L108.36,103.58247394244331L108.64,106.46818149316584L108.92,107.55602473752663L109.2,102.7283704145966L109.48,102.33163134242402L109.76,101.89816122642343L110.04,97.2612182104062L110.32000000000001,101.41973496100134L110.60000000000001,103.54064214897646L110.88000000000001,103.09868403775987L111.16000000000001,98.18174085917175L111.44000000000001,101.01704421581088L111.72,103.64993712867056L112,99.09015241005869L112.28,100.14030036770612L112.56,104.522449168225L112.84,107.92358614364855L113.12,112.5241166374659L113.4,112.1223590118632L113.68,115.41842005508813L113.96,111.7782672635178L114.24,102.68121067830683L114.52,104.08148640184857L114.8,107.40302869253907L115.08,107.39751415892573L115.36,103.8640921738394L115.64,108.9894698099284L115.91999999999999,110.29588461434773L116.19999999999999,113.55925366888005L116.47999999999999,114.37489680117106L116.75999999999999,117.81362762847982L117.03999999999999,113.118401252028L117.32,114.8677005099038L117.6,117.11941841404318L117.88,108.52255011296677L118.16,104.49891387043242L118.44,108.84001410971786L118.72,109.06401988846483L119,111.88349576283944L119.28,114.54339062863261L119.56,116.93753353472754L119.84,118.89710570702674L120.12,114.72972426312997L120.39999999999999,118.4663461834063L120.67999999999999,115.86429795562444L120.96,115.11750110351575L121.24,116.44842796840388L121.52,115.3068626452572L121.8,114.15044224733633L122.08,107.96887063666891L122.36,109.99990550687737L122.64,109.76723956174153L122.92,102.79464647237357L123.2,109.09761123695311L123.48,109.79900962614022L123.76,113.51596793236136L124.04,115.70376674057127L124.32000000000001,113.07332784069227L124.60000000000001,100.33063780148413L124.88,108.86299379992238L125.16,112.3187065203652L125.44,108.56811083135993L125.72,108.66739053891892L126,113.76938639501806L126.28,110.43453592908426L126.56,110.44929559142616L126.84,113.43032957977786L127.12,116.11399798015795L127.4,115.98057980191734L127.68,116.41728270263687L127.96000000000001,115.24644914991387L128.24,115.87498372332291L128.52,116.83729567251228L128.8,117.99959421826377L129.08,113.71568726702316L129.36,114.37604341032377L129.64000000000001,117.86050327791136L129.92000000000002,107.62984431489323L130.20000000000002,108.2810278666259L130.48000000000002,113.56204652680402L130.76000000000002,104.43509627517132L131.04000000000002,103.97232223830264L131.32,109.36273023355986L131.6,114.29684280078996L131.88,115.07144607139462L132.16,118.58972227592965L132.44,118.78101130735695L132.72,112.64396533913505L133,108.95030058054382L133.28,114.52365389244709L133.56,112.32540506885618L133.84,114.89199949363572L134.12,111.88680264985382L134.4,112.7574988105048L134.68,111.87573770869665L134.96,117.87965421789227L135.24,116.02707910784086L135.51999999999998,119.08271030335426L135.79999999999998,111.69422530382155L136.07999999999998,114.94498939066696L136.35999999999999,118.22785516828041L136.64,116.88481681495749L136.92,120.14579238563684L137.2,121.06906904321853L137.48,120.51372429157463L137.76,111.33351703539589L138.04,114.89624029728829L138.32,114.84779911835822L138.6,117.71284033715628L138.88,120.10176618611754L139.16,119.84601739177668L139.44,121.0263175584648L139.72,120.55906373964392L140,121.15478015963221L140.28,122.78955602660172L140.56,123.94847097703452L140.84,123.36977485244653L141.12,122.72057271853197L141.4,124.10298377189103L141.68,120.31166872628368L141.96,117.9534416153898L142.24,116.65830394952714L142.52,116.27743123071923L142.8,119.28987007497271L143.08,114.98319379483769L143.36,117.09448233243889L143.64000000000001,119.40122035442035L143.92000000000002,110.55095061837577L144.20000000000002,117.04295085775223L144.48000000000002,118.64047054891208L144.76,118.40707434680712L145.04,120.83800382296234L145.32,120.43555207478994L145.6,121.32114830868238L145.88,120.652144812088L146.16,119.46866203399944L146.44,120.35725347430972L146.72,115.86867968876042L147,118.63500400566386L147.28,118.35522885431841L147.56,115.1237929213643L147.84,115.65434188536403L148.12,112.38347166115997L148.4,120.03618571212863L148.68,119.11545059711324L148.96,121.23960219103446L149.24,119.92523414062471L149.52,118.83447501162892L149.8,119.01027720332269L150.08,117.00820125138831L150.36,119.15102516112373L150.64000000000001,117.0301898270705L150.92000000000002,119.26191042362801L151.20000000000002,118.15055664479226L151.48000000000002,116.94217730521851L151.76000000000002,111.4914853391629L152.04000000000002,110.99712011620889L152.32000000000002,118.02519036326105L152.60000000000002,116.83754101987657L152.88000000000002,115.61263375637516L153.16000000000003,114.13649689351071L153.44,118.74064678963751L153.72,116.52811695943313L154,118.68608823603415L154.28,119.15456939748539L154.56,116.84270244545706L154.84,118.36416636232713L155.12,119.14855019643416L155.4,122.7958108374149L155.68,120.91541978351297L155.96,115.97812357921615L156.24,118.87110736298094L156.52,120.69905019895748L156.8,118.78662867901632L157.08,121.24693823789305L157.36,116.38198479077069L157.64,119.30812267697361L157.92,119.22187075755899L158.2,121.59016486252487L158.48,121.2510387256452L158.76,122.66382430223874L159.04,123.53772795038374L159.32,120.51486741803258L159.6,120.95281362117629L159.88,120.24225153077424L160.16,121.15398714273442L160.44,121.0644124438123L160.72,123.37194748459792L161,124.57138489626965L161.28,121.89908865954354L161.56,122.90200684586688L161.83999999999997,118.58556447696401L162.11999999999998,117.84238018853493L162.39999999999998,122.45511313535589L162.67999999999998,119.03535517011771L162.95999999999998,123.65261098715477L163.23999999999998,123.48058740182408L163.51999999999998,115.6356691740971L163.79999999999998,118.38199297922976L164.07999999999998,118.12095891438798L164.35999999999999,113.24999325873183L164.64,116.25036134661272L164.92,111.34882578158997L165.2,112.02221040072811L165.48,110.99689236070378L165.76,114.29338074496785L166.04,114.00648051364064L166.32,114.16624132909081L166.6,118.30074773500978L166.88,119.65421586794032L167.16,118.58084803856835L167.44,119.67584330759895L167.72,120.91265259338887L168,122.73620261939449L168.28,114.45797136242439L168.56,111.35117470511943L168.84,116.55748726301879L169.12,117.01026014610224L169.4,112.77639070227201L169.68,114.22515608116662L169.96,118.11910452094479L170.24,118.46748283294917L170.51999999999998,113.01343718938875L170.79999999999998,118.68310694559126L171.07999999999998,122.13681241967504L171.35999999999999,122.80081463812724L171.64,121.82085437154136L171.92,123.92520495102023L172.2,119.38170367983112L172.48,117.25810638074354L172.76,117.68136892619297L173.04,120.62344117106537L173.32,120.54952295804941L173.6,123.47848677745417L173.88,121.08605278796526L174.16,123.05223236242873L174.44,117.84719668483699L174.72,118.13129511866548L175,122.73904888566481L175.28,117.97183824620335L175.56,119.6574862810474L175.84,120.51910828426486L176.12,120.33770147785548L176.4,118.77517672970893L176.68,120.24431911465527L176.96,120.82261191521287L177.24,123.7583981958878L177.52,124.9511946325214L177.8,123.11039804725115L178.08,120.65301762406983L178.36,124.43100976577377L178.64000000000001,126.6374044455944L178.92000000000002,124.62031620072476L179.20000000000002,109.83672610120266L179.48000000000002,116.06161480662993L179.76,115.3043445260392L180.04,116.1676383233706L180.32,118.10612957278727L180.6,116.9679379230728L180.88,120.36191657578887L181.16,124.43657619295085L181.44,114.71797728858927L181.72,118.89572632206999L182,123.02358705486967L182.28,112.9684318404562L182.56,116.03373554951945L182.84,117.8109204209268L183.12,118.82607437589287L183.4,118.61578129481386L183.68,119.91674480289882L183.96,121.68776870042481L184.24,124.46372768742083L184.52,121.52364685810947L184.8,116.10433526442851L185.08,116.35075949493887L185.36,113.57210895934011L185.64000000000001,117.33315115879955L185.92000000000002,116.12792687839855L186.20000000000002,115.89487351612205L186.48000000000002,116.8615977205989L186.76000000000002,120.44881026674253L187.04000000000002,124.38402058916654L187.32000000000002,124.66443319760182L187.60000000000002,111.86665986563216L187.88000000000002,114.55485978773507L188.16000000000003,111.84398416907352L188.44,110.14341951746201L188.72,101.36848330103432L189,103.39248104454919L189.28,110.94664625264312L189.56,113.22469782791798L189.84,114.61127328850188L190.12,108.24377781735275L190.4,114.61223560325155L190.68,117.06886452884582L190.96,117.58601667255823L191.24,116.405012188975L191.52,118.38145272947787L191.8,122.1144165695753L192.08,121.8173389524845L192.36,123.66239727679658L192.64,122.28667483713487L192.92,118.19179072371875L193.2,117.66975380415768L193.48,118.57667453846368L193.76,116.74747999466081L194.04,120.13698794815909L194.32,120.27475506886229L194.6,113.18800116374719L194.88,115.91438043293135L195.16,119.45167326138483L195.44,119.47171295408052L195.72,120.48661041393065L196,122.93446510216107L196.28,115.07759183454817L196.56,120.69103572701398L196.83999999999997,121.32044905087342L197.11999999999998,124.33666347957248L197.39999999999998,124.70427729187365L197.67999999999998,120.17296748160098L197.95999999999998,117.34594483553632L198.23999999999998,119.36552624332467L198.51999999999998,123.82886045233938L198.79999999999998,123.20307757590135L199.07999999999998,126.76345777740433L199.35999999999999,125.38055293399304L199.64,125.36238281809217L199.92,125.20957699050264L200.2,125.0454416789398L200.48,124.53755886660727L200.76,125.25496592704482L201.04,125.47857018461244L201.32,122.15220934242258L201.6,122.68790018016247L201.88,124.1554461387047L202.16,123.19474062426382L202.44,126.72007727088628L202.72,127.93118853397426L203,126.80975843684232L203.28,126.73089624772282L203.56,129.93306558179742L203.84,128.4035893908017L204.12,129.00480768417555L204.4,125.78584727248692L204.68,125.34541667760101L204.96,126.40616742080857L205.24,126.83416456166749L205.51999999999998,124.18827505817322L205.79999999999998,125.42398823744243L206.07999999999998,125.92639982072225L206.35999999999999,122.20361268441502L206.64,126.70961562645809L206.92,127.83602807284817L207.2,128.4205730713095L207.48,125.93875318805489L207.76,124.4916607918746L208.04,123.62443714036982L208.32,125.88271513101124L208.6,125.32330872128405L208.88,126.97805141365528L209.16,122.94226217541694L209.44,124.50971520706177L209.72,124.90774465956783L210,125.19020237838323L210.28,126.68501368203816L210.56,126.54857122325336L210.84,119.0951887901034L211.12,122.16709200652873L211.4,115.93771241374276L211.68,119.0230176017729L211.96,121.65831711685941L212.24,122.45497991023234L212.52,127.13968200163704L212.8,128.30795863674084L213.08,130.96490612570045L213.36,126.89481238391161L213.64000000000001,127.17770748058652L213.92000000000002,125.84059903454599L214.20000000000002,125.27710626978764L214.48000000000002,123.18629894232208L214.76,127.06928494021568L215.04,123.5981928136663L215.32,125.12366206209158L215.6,127.06473802781282L215.88,127.3843069419633L216.16,126.8514664826018L216.44,122.908619755937L216.72,123.2803028490742L217,122.48667174378632L217.28,124.34154744028807L217.56,124.63133027005053L217.84,124.39873720912848L218.12,125.01428177183101L218.4,125.25454107359187L218.68,129.05882426461656L218.96,121.3058649233644L219.24,125.71813815275817L219.52,118.71484301352496L219.8,119.6369734994411L220.08,116.914057397356L220.36,120.63344134003542L220.64000000000001,116.61531589097154L220.92000000000002,113.22764941851122L221.20000000000002,115.1430866080512L221.48000000000002,116.59957718896801L221.76000000000002,120.59616982965431L222.04000000000002,123.59706652479626L222.32000000000002,120.05064971934114L222.60000000000002,122.83753550464125L222.88000000000002,116.70144849666482L223.16000000000003,120.01984899728613L223.44,116.40667887621589L223.72,120.66192176993769L224,117.91586396131565L224.28,124.10918906351117L224.56,118.6245966882717L224.84,125.91355617977447L225.12,124.068831870778L225.4,125.39447171975588L225.68,124.84326853745827L225.96,121.18683180149584L226.24,122.85874641797656L226.52,123.50737450934477L226.8,119.13140858064311L227.08,119.02327993720898L227.36,121.85938371545153L227.64,123.56459888116167L227.92,122.65698677477626L228.2,123.89714042352072L228.48,114.57428294722101L228.76,115.74904086472904L229.04,120.28120839764068L229.32,117.52762445610398L229.6,118.79166926027317L229.88,120.14021684575664L230.16,119.09861536531798L230.44,123.59187635606023L230.72,124.89296409979755L231,126.40263006237323L231.28,115.3815441021155L231.56,120.79673927210753L231.83999999999997,119.18733627607214L232.11999999999998,119.19131622618312L232.39999999999998,119.7972261840455L232.67999999999998,123.01588107552244L232.95999999999998,122.16843795720406L233.23999999999998,124.93735210563938L233.51999999999998,120.86030491868377L233.79999999999998,112.18055484700037L234.07999999999998,116.38473812346358L234.35999999999999,118.62430658402859L234.64,118.79594781674633L234.92,119.91887709008272L235.2,121.17085533444056L235.48,122.00361837508659L235.76,117.70563612915502L236.04,122.06041028223889L236.32,123.48273539914165L236.6,124.29788939579412L236.88,127.51682019486479L237.16,123.1205508515504L237.44,119.15954333277146L237.72,121.34914845068216L238,122.58821444415427L238.28,124.80925145568474L238.56,123.11341007543815L238.84,121.62861484583148L239.12,121.55148679790456L239.4,122.95527540312742L239.68,123.88652487496456L239.96,120.61920177578878L240.24,120.95524969482393L240.51999999999998,122.5968063818453L240.79999999999998,119.46443733555306L241.07999999999998,120.27785323549647L241.35999999999999,124.03471286886534L241.64,123.97428419466974L241.92,126.04841769055224L242.2,124.29624252507507L242.48,125.74564634853255L242.76,122.37081064041644L243.04,126.54801388088578L243.32,116.64860069753952L243.6,118.45079081059829L243.88,117.64195079983077L244.16,119.26432872343538L244.44,122.29126730578233L244.72,122.89422096024207L245,119.26145541197214L245.28,123.07682006374687L245.56,121.38011480459981L245.84,124.76487920784601L246.12,126.49047368975667L246.4,126.2333066297304L246.68,123.03313771383353L246.96,118.78847377000088L247.24,123.32439699469705L247.52,124.51670717715443L247.8,125.75106318008434L248.08,124.72893371112067L248.36,124.52020375089L248.64000000000001,126.3922054687509L248.92000000000002,124.25813835378702L249.20000000000002,126.5113324196113L249.48000000000002,122.12535183554725L249.76,126.16356901184224L250.04,123.83178977582159L250.32,126.37934690066159L250.6,124.19466564564694L250.88,124.00823463504784L251.16,125.34430892768664L251.44,126.08078652324177L251.72,125.07731434227168" style="fill: none;" fill="none"></path></g></g></g></g><g opacity="0.2"><g><g><g><path stroke="rgb(255, 112, 67)" stroke-width="2px" d="M28,21.58014264702797L28.28,21.109632223844528L28.56,21.767362773418427L28.84,19.10579201579094L29.119999999999997,21.340205937623978L29.4,22.146908909082413L29.68,21.87286224961281L29.96,19.536489814519882L30.24,21.8756605386734L30.52,17.457520186901093L30.8,20.48378360271454L31.080000000000002,22.518245846033096L31.36,22.46814188361168L31.64,21.788595288991928L31.92,22.499970763921738L32.2,20.943193703889847L32.480000000000004,17.734855830669403L32.760000000000005,21.59653452038765L33.04,21.71569389104843L33.32,20.5988450050354L33.6,20.475189805030823L33.879999999999995,19.70050138235092L34.16,20.575755804777145L34.44,20.300250321626663L34.72,21.042857885360718L35,21.903723001480103L35.28,21.971438944339752L35.56,21.841285347938538L35.84,23.17685168981552L36.120000000000005,21.60006222128868L36.4,23.182700246572495L36.68,21.319808930158615L36.96,21.92435872554779L37.24,22.695161372423172L37.52,23.12389639019966L37.800000000000004,21.989316165447235L38.080000000000005,18.738712191581726L38.36,22.68159431219101L38.64,22.097759813070297L38.92,22.621119439601898L39.2,22.92625230550766L39.48,23.53471440076828L39.76,20.051971793174744L40.04,23.778563410043716L40.32,24.091229110956192L40.599999999999994,24.037027180194855L40.879999999999995,22.864185988903046L41.16,22.303586572408676L41.44,21.640750139951706L41.72,25.491447865962982L42,25.23417767882347L42.28,26.350403249263763L42.56,23.153245270252228L42.839999999999996,25.966228663921356L43.12,26.127826541662216L43.4,24.551978677511215L43.68,24.30897843837738L43.96,25.00721123814583L44.24,30.667155355215073L44.52,26.783461689949036L44.800000000000004,28.601527333259583L45.08,27.40696293115616L45.36,31.030243307352066L45.64,26.84437420964241L45.92,28.42278164625168L46.2,35.75691160559654L46.480000000000004,39.98939675092697L46.760000000000005,36.18076619505882L47.040000000000006,41.85426411032677L47.32,30.444034904241562L47.6,34.57132560014725L47.88,38.70221030712128L48.16,36.34404835104942L48.44,43.448532938957214L48.72,48.41491249203682L49,45.802000135183334L49.279999999999994,38.658379286527634L49.559999999999995,51.776711985468864L49.839999999999996,54.4208365380764L50.12,77.10699033737183L50.4,34.02291399240494L50.68,48.84937670826912L50.96,40.394034653902054L51.24,21.46860894560814L51.519999999999996,62.19713595509529L51.8,54.76777133345604L52.08,53.74580566585064L52.36,47.323520079255104L52.64,37.472673922777176L52.92,49.82029017806053L53.2,66.6425098925829L53.480000000000004,44.717835530638695L53.76,67.18733412027359L54.04,54.315522730350494L54.32,49.890605479478836L54.6,59.326535657048225L54.88,59.4127521365881L55.160000000000004,63.20522290468216L55.440000000000005,41.348768442869186L55.720000000000006,60.46516080200672L56,66.15475219488144L56.28,55.900720328092575L56.56,61.22046013176441L56.84,72.99471889436245L57.12,66.21614214777946L57.4,69.60261565446854L57.68,47.94698816537857L57.959999999999994,73.95684626698494L58.239999999999995,64.04856224358082L58.519999999999996,45.44709485769272L58.8,68.64979822933674L59.08,58.8457405269146L59.36,65.95732693374157L59.64,65.28619509935379L59.92,69.2268757224083L60.199999999999996,71.68032538890839L60.48,66.8268123716116L60.76,85.15117619931698L61.04,82.35362981259823L61.32,74.6291186362505L61.6,88.26852326095104L61.88,74.82369919121265L62.160000000000004,83.23374477028847L62.44,96.5059435814619L62.72,64.00327903032303L63,79.70756900310516L63.28,87.17145469784737L63.56,79.32805602252483L63.84,80.82191136479378L64.12,61.74505975842476L64.4,78.80177874863148L64.68,94.28812709450722L64.96000000000001,91.7239726036787L65.24000000000001,90.14209714531898L65.52000000000001,79.63640493154526L65.8,62.177030712366104L66.08,85.5126793384552L66.36,89.39483460783958L66.64,77.61947509646416L66.92,85.77890802919865L67.2,85.34747418761253L67.48,90.97675648331642L67.75999999999999,85.9938723295927L68.03999999999999,97.14397338032722L68.32,84.88061082363129L68.6,82.60157015919685L68.88,91.82100427150726L69.16,90.73762212693691L69.44,52.23342989385128L69.72,91.4530027359724L70,103.48989617824554L70.28,68.71571053564548L70.56,86.530169069767L70.84,87.7736836373806L71.12,94.29506313800812L71.4,96.96470384299755L71.68,102.95032371580601L71.96000000000001,94.29680709540844L72.24000000000001,110.45443315804005L72.52,94.47255556285381L72.8,85.57133068144321L73.08,89.2724923491478L73.36,98.37044623494148L73.64,93.64136424660683L73.92,71.4159533828497L74.2,111.01985332369804L74.48,94.06807017326355L74.76,93.40389427542686L75.04,97.6446748226881L75.32000000000001,110.82809095084667L75.60000000000001,82.48088565468788L75.88000000000001,79.51548171043396L76.16000000000001,72.20922854542732L76.44000000000001,82.00247105956078L76.72,73.39571636915207L77,87.91723188757896L77.28,92.30488945543766L77.56,88.91394664347172L77.84,107.38364246487617L78.12,102.33367231488228L78.4,75.9668732136488L78.68,61.08431872725487L78.96,103.3924964889884L79.24,84.78744503855705L79.52,99.94187121093273L79.8,93.54777407646179L80.08,96.50120903551579L80.36,85.96796494722366L80.64,102.12630715966225L80.91999999999999,106.1351380571723L81.19999999999999,98.16845220327377L81.47999999999999,109.95166615396738L81.75999999999999,105.6451954394579L82.03999999999999,96.83836308121681L82.32,96.20781306922436L82.6,106.2087920755148L82.88,94.27272987365723L83.16,91.56924445927143L83.44,86.84316632151604L83.72,82.19518166780472L84,88.65422961115837L84.28,98.51610977947712L84.56,98.94055452942848L84.84,97.1897207647562L85.12,87.01431286334991L85.39999999999999,76.09238509833813L85.67999999999999,82.0221585482359L85.96,106.88624658435583L86.24,100.4358985349536L86.52,95.55811931192875L86.8,105.129060305655L87.08,93.47426925599575L87.36,99.41595201194286L87.64,88.80021807551384L87.92,102.36558408290148L88.2,105.45684804022312L88.48,102.8260352537036L88.76,106.1729249060154L89.04,100.83722092956305L89.32000000000001,104.45836280286312L89.60000000000001,104.01524510979652L89.88,97.9079460799694L90.16,111.7598946839571L90.44,110.87789651751518L90.72,112.2813246846199L91,99.93932490050793L91.28,92.87249122560024L91.56,112.95546036958694L91.84,115.12375973910093L92.12,111.5544657856226L92.4,105.63114763051271L92.68,111.18398756533861L92.96000000000001,101.12777882069349L93.24000000000001,105.33647519350052L93.52000000000001,119.80490942299366L93.80000000000001,101.4432394951582L94.08000000000001,106.33305069804192L94.36,109.02426541596651L94.64,83.82127274572849L94.92,106.96535129845142L95.2,99.85376489162445L95.48,109.48250845819712L95.76,101.31321188807487L96.04,91.3233597278595L96.32,112.80353382974863L96.6,106.88214530050755L96.88,88.89623519778252L97.16,102.68021588027477L97.44,105.87648530304432L97.72,115.78813456743956L98,107.17039228230715L98.28,110.27870458364487L98.55999999999999,97.7542921602726L98.83999999999999,90.82694855332375L99.11999999999999,111.00739032775164L99.39999999999999,114.27862007915974L99.67999999999999,102.60015961527824L99.96,109.45123658329248L100.24,101.15373925119638L100.52,94.39363320171833L100.8,109.08018809556961L101.08,94.64864221215248L101.36,117.6991571187973L101.64,118.20221920311451L101.92,116.55244213342667L102.2,91.95656214654446L102.48,106.28640149533749L102.75999999999999,105.95397204905748L103.03999999999999,108.93487267941236L103.32,117.08108668029308L103.6,113.00210957229137L103.88,111.19743858277798L104.16,103.56076185405254L104.44,118.42964981496334L104.72,110.5901302844286L105,108.93832412362099L105.28,112.13795547187328L105.56,92.0953559577465L105.84,122.90922985225916L106.12,117.87797243148088L106.4,118.81414268910885L106.68,117.55659025907516L106.96000000000001,83.54006458818913L107.24000000000001,74.47838899493217L107.52,102.22015262395144L107.8,102.12661550194025L108.08,92.94472952187061L108.36,114.60098695755005L108.64,110.79674281924963L108.92,109.1877896040678L109.2,95.48688893020153L109.48,101.73652273416519L109.76,101.24795605242252L110.04,90.30580368638039L110.32000000000001,107.65751008689404L110.60000000000001,106.7220029309392L110.88000000000001,102.43574687093496L111.16000000000001,90.80632609128952L111.44000000000001,105.26999925076962L111.72,107.59927649796009L112,92.25047533214092L112.28,101.71552230417728L112.56,111.0956723690033L112.84,113.02529160678387L113.12,119.42491237819195L113.4,111.51972257345915L113.68,120.3625116199255L113.96,106.31803807616234L114.24,89.03562580049038L114.52,106.18189998716116L114.8,112.38534212857485L115.08,107.38924235850573L115.36,98.56395919620991L115.64,116.67753626406193L115.91999999999999,112.25550682097673L116.19999999999999,118.45430725067854L116.47999999999999,115.59836149960756L116.75999999999999,122.97172386944294L117.03999999999999,106.07556168735027L117.32,117.49164939671755L117.6,120.49699527025223L117.88,95.62724766135216L118.16,98.4634595066309L118.44,115.35166446864605L118.72,109.40002855658531L119,116.11270957440138L119.28,118.53323292732239L119.56,120.52874789386988L119.84,121.83646396547556L120.12,108.4786520972848L120.39999999999999,124.07127906382084L120.67999999999999,111.96122561395168L120.96,113.99730582535267L121.24,118.4448182657361L121.52,113.59451466053724L121.8,112.415811650455L122.08,98.69651322066784L122.36,113.04645781219006L122.64,109.41824064403772L122.92,92.33575683832169L123.2,118.55205838382244L123.48,110.85110720992088L123.76,119.09140539169312L124.04,118.9854649528861L124.32000000000001,109.12766949087381L124.60000000000001,81.21660274267197L124.88,121.66152779757977L125.16,117.5022756010294L125.44,102.94221729785204L125.72,108.8163101002574L126,121.4223801791668L126.28,105.4322602301836L126.56,110.471435084939L126.84,117.90188056230545L127.12,120.13950058072805L127.4,115.78045253455639L127.68,117.07233705371618L127.96000000000001,113.49019882082939L128.24,116.81778558343649L128.52,118.28076359629631L128.8,119.74304203689098L129.08,107.28982684016228L129.36,115.36657762527466L129.64000000000001,123.08719307929277L129.92000000000002,92.2838558703661L130.20000000000002,109.25780319422483L130.48000000000002,121.48357451707125L130.76000000000002,90.74467089772224L131.04000000000002,103.27816118299961L131.32,117.44834222644567L131.6,121.69801165163517L131.88,116.2333509773016L132.16,123.8671365827322L132.44,119.06794485449791L132.72,103.4383963868022L133,103.409803442657L133.28,122.88368386030197L133.56,109.02803183346987L133.84,118.74189113080502L134.12,107.37900738418102L134.4,114.06354305148125L134.68,110.5530960559845L134.96,126.88552898168564L135.24,113.2482164427638L135.51999999999998,123.66615709662437L135.79999999999998,100.61149780452251L136.07999999999998,119.82113552093506L136.35999999999999,123.15215383470058L136.64,114.87025928497314L136.92,125.03725574165583L137.2,122.45398402959108L137.48,119.68070716410875L137.76,97.56320615112782L138.04,120.2403251901269L138.32,114.77513734996319L138.6,122.0104021653533L138.88,123.68515495955944L139.16,119.46239420026541L139.44,122.79676780849695L139.72,119.85818301141262L140,122.04835478961468L140.28,125.24171982705593L140.56,125.68684340268373L140.84,122.50173066556454L141.12,121.74676951766014L141.4,126.17660035192966L141.68,114.62469615787268L141.96,114.416100949049L142.24,114.71559745073318L142.52,115.7061221525073L142.8,123.80852834135294L143.08,108.52317937463522L143.36,120.26141513884068L143.64000000000001,122.86132738739252L143.92000000000002,97.27554601430893L144.20000000000002,126.7809512168169L144.48000000000002,121.03675008565187L144.76,118.05698004364967L145.04,124.4843980371952L145.32,119.83187445253134L145.6,122.6495426595211L145.88,119.64863956719637L146.16,117.69343786686659L146.44,121.69014063477516L146.72,109.13581901043653L147,122.78449048101902L147.28,117.93556612730026L147.56,110.27663902193308L147.84,116.45016533136368L148.12,107.4771663248539L148.4,131.5152567885816L148.68,117.73434792459011L148.96,124.42582958191633L149.24,117.95368206501007L149.52,117.19833631813526L149.8,119.27398049086332L150.08,114.0050873234868L150.36,122.3652610257268L150.64000000000001,113.84893682599068L150.92000000000002,122.60949131846428L151.20000000000002,116.48352597653866L151.48000000000002,115.1296082958579L151.76000000000002,103.3154473900795L152.04000000000002,110.25557228177786L152.32000000000002,128.56729573383927L152.60000000000002,115.05606700479984L152.88000000000002,113.77527286112309L153.16000000000003,111.92229159921408L153.44,125.64687163382769L153.72,113.20932221412659L154,121.92304515093565L154.28,119.85729113966227L154.56,113.37490201741457L154.84,120.64636223763227L155.12,120.32512594759464L155.4,128.26670179888606L155.68,118.09483320266008L155.96,108.57217927277088L156.24,123.2105830386281L156.52,123.44096445292234L156.8,115.9179963991046L157.08,124.93740257620811L157.36,109.08455462008715L157.64,123.69732950627804L157.92,119.09249287843704L158.2,125.14260601997375L158.48,120.74234952032566L158.76,124.78300266712904L159.04,124.84858342260122L159.32,115.98057661950588L159.6,121.60973292589188L159.88,119.17640839517117L160.16,122.52159056067467L160.44,120.93005039542913L160.72,126.83325004577637L161,126.37054101377726L161.28,117.89064430445433L161.56,124.4063841253519L161.83999999999997,112.11090092360973L162.11999999999998,116.72760375589132L162.39999999999998,129.3742125555873L162.67999999999998,113.90571822226048L162.95999999999998,130.57849471271038L163.23999999999998,123.22255202382803L163.51999999999998,103.86829183250666L163.79999999999998,122.50147868692875L164.07999999999998,117.72940781712532L164.35999999999999,105.94354477524757L164.64,120.75091347843409L164.92,103.9965224340558L165.2,113.03228732943535L165.48,109.45891530066729L165.76,119.23811332136393L166.04,113.57613016664982L166.32,114.40588255226612L166.6,124.50250734388828L166.88,121.68441806733608L167.16,116.97079629451036L167.44,121.31833621114492L167.72,122.76786652207375L168,125.47152765840292L168.28,102.04062447696924L168.56,106.69097971916199L168.84,124.36695609986782L169.12,117.68941947072744L169.4,106.42558653652668L169.68,116.39830414950848L169.96,123.96002718061209L170.24,118.99005030095577L170.51999999999998,104.83236872404814L170.79999999999998,127.18761157989502L171.07999999999998,127.31737063080072L171.35999999999999,123.79681796580553L171.64,120.35091397166252L171.92,127.08173082023859L172.2,112.56645177304745L172.48,114.07271043211222L172.76,118.31626274436712L173.04,125.03654953837395L173.32,120.43864563852549L173.6,127.87193250656128L173.88,117.49740180373192L174.16,126.00150172412395L174.44,110.0396431684494L174.72,118.55744276940823L175,129.6506795361638L175.28,110.82102228701115L175.56,122.18595833331347L175.84,121.81154128909111L176.12,120.0655912682414L176.4,116.43138960748911L176.68,122.44803269207478L176.96,121.69005111604929L177.24,128.1620776169002L177.52,126.74038928747177L177.8,120.34920316934586L178.08,116.96694698929787L178.36,130.09799797832966L178.64000000000001,129.94699646532536L178.92000000000002,121.59468383342028L179.20000000000002,87.66134095191956L179.48000000000002,125.39894786477089L179.76,114.16843910515308L180.04,117.4625790193677L180.32,121.01386644691229L180.6,115.26065044850111L180.88,125.45288455486298L181.16,130.54856561869383L181.44,100.14007893204689L181.72,125.16234987229109L182,129.21537815406919L182.28,97.88569901883602L182.56,120.63169111311436L182.84,120.47669772803783L183.12,120.34880530834198L183.4,118.30034167319536L183.68,121.86819006502628L183.96,124.34430454671383L184.24,128.62766616791487L184.52,117.11352561414242L184.8,107.97536787390709L185.08,116.72039584070444L185.36,109.40413315594196L185.64000000000001,122.97471445798874L185.92000000000002,114.32009045779705L186.20000000000002,115.54529347270727L186.48000000000002,118.31168402731419L186.76000000000002,125.829629085958L187.04000000000002,130.28683607280254L187.32000000000002,125.08505211025476L187.60000000000002,92.66999986767769L187.88000000000002,118.58715967088938L188.16000000000003,107.77767074108124L188.44,107.59257254004478L188.72,88.20607897639275L189,106.42847765982151L189.28,122.27789406478405L189.56,116.64177519083023L189.84,116.69113647937775L190.12,98.69253461062908L190.4,124.16492228209972L190.68,120.75380791723728L190.96,118.36174488812685L191.24,114.63350546360016L191.52,121.34611354023218L191.8,127.71386232972145L192.08,121.37172252684832L192.36,126.42998476326466L192.64,120.22309117764235L192.92,112.04946455359459L193.2,116.88669842481613L193.48,119.93705563992262L193.76,114.00368817895651L194.04,125.22124987840652L194.32,120.48140574991703L194.6,102.55787030607462L194.88,120.00394933670759L195.16,124.75761250406504L195.44,119.50177249312401L195.72,122.00895660370588L196,126.6062471345067L196.28,103.29228193312883L196.56,129.1112015657127L196.83999999999997,122.26456903666258L197.11999999999998,128.86098512262106L197.39999999999998,125.25569801032543L197.67999999999998,113.37600276619196L197.95999999999998,113.10541086643934L198.23999999999998,122.39489835500717L198.51999999999998,130.5238617658615L198.79999999999998,122.2644032612443L199.07999999999998,132.10402807965875L199.35999999999999,123.30619566887617L199.64,125.33512764424086L199.92,124.98036824911833L200.2,124.79923871159554L200.48,123.77573464810848L200.76,126.33107651770115L201.04,125.81397657096386L201.32,117.1626680791378L201.6,123.49143643677235L201.88,126.35676507651806L202.16,121.75368235260248L202.44,132.00808224081993L202.72,129.74785542860627L203,125.12761329114437L203.28,126.61260296404362L203.56,134.73631958290935L203.84,126.10937510430813L204.12,129.90663512423635L204.4,120.95740665495396L204.68,124.68477078527212L204.96,127.99729353561997L205.24,127.4761602729559L205.51999999999998,120.21944080293179L205.79999999999998,127.27755800634623L206.07999999999998,126.680017195642L206.35999999999999,116.61943197995424L206.64,133.46862003952265L206.92,129.5256467424333L207.2,129.29739056900144L207.48,122.21602336317301L207.76,122.32102219760418L208.04,122.32360166311264L208.32,129.2701321169734L208.6,124.48419910669327L208.88,129.4601654522121L209.16,116.88857831805944L209.44,126.860894754529L209.72,125.50478883832693L210,125.61388895660639L210.28,128.92723063752055L210.56,126.34390753507614L210.84,107.91511514037848L211.12,126.77494683116674L211.4,106.59364302456379L211.68,123.65097538381815L211.96,125.61126638948917L212.24,123.64997410029173L212.52,134.16673513874412L212.8,130.06037358939648L213.08,134.95032735913992L213.36,120.78967177122831L213.64000000000001,127.60205012559891L213.92000000000002,123.83493636548519L214.20000000000002,124.43186712265015L214.48000000000002,120.05008795112371L214.76,132.89376393705606L215.04,118.39155462384224L215.32,127.41186593472958L215.6,129.97635197639465L215.88,127.86366031318903L216.16,126.05220579355955L216.44,116.99434966593981L216.72,123.83782748878002L217,121.29622508585453L217.28,127.12386098504066L217.56,125.06600451469421L217.84,124.0498476177454L218.12,125.93759861588478L218.4,125.6149300262332L218.68,134.76524905115366L218.96,109.67642591148615L219.24,132.33654799684882L219.52,108.2099003046751L219.8,121.02016922831535L220.08,112.82968324422836L220.36,126.21251725405455L220.64000000000001,110.58812771737576L220.92000000000002,108.14614970982075L221.20000000000002,118.01624239236116L221.48000000000002,118.78431306034327L221.76000000000002,126.59105879068375L222.04000000000002,128.09841156750917L222.32000000000002,114.73102451115847L222.60000000000002,127.01786418259144L222.88000000000002,107.4973179847002L223.16000000000003,124.99744974821806L223.44,110.9869236946106L223.72,127.04478611052036L224,113.79677724838257L224.28,133.3991767168045L224.56,110.39770812541246L224.84,136.84699541702867L225.12,121.3017454072833L225.4,127.38293149322271L225.68,124.01646376401186L225.96,115.7021766975522L226.24,125.36661834269762L226.52,124.48031664639711L226.8,112.5674596875906L227.08,118.86108697205782L227.36,126.11353938281536L227.64,126.12242162972689L227.92,121.29556861519814L228.2,125.75737089663744L228.48,100.5899967327714L228.76,117.51117774099112L229.04,127.07945969700813L229.32,113.39724854379892L229.6,120.68773646652699L229.88,122.16303822398186L230.16,117.53621314466L230.44,130.33176784217358L230.72,126.84459571540356L231,128.6671290062368L231.28,98.84991516172886L231.56,128.91953202709556L231.83999999999997,116.77323178201914L232.11999999999998,119.19728615134954L232.39999999999998,120.70609112083912L232.67999999999998,127.84386341273785L232.95999999999998,120.8972732797265L233.23999999999998,129.09072332829237L233.51999999999998,114.74473413825035L233.79999999999998,99.16092973947525L234.07999999999998,122.69101303815842L234.35999999999999,121.98365927487612L234.64,119.05340966582298L234.92,121.60327100008726L235.2,123.04882270097733L235.48,123.25276293605566L235.76,111.25866276025772L236.04,128.59257151186466L236.32,125.61622307449579L236.6,125.52062039077282L236.88,132.34521639347076L237.16,116.52614683657885L237.44,113.2180320546031L237.72,124.63355612754822L238,124.44681343436241L238.28,128.1408069729805L238.56,120.5696480050683L238.84,119.40142200142145L239.12,121.43579472601414L239.4,125.06095831096172L239.68,125.28339908272028L239.96,115.71821712702513L240.24,121.45932157337666L240.51999999999998,125.05914141237736L240.79999999999998,114.76588376611471L241.07999999999998,121.49797708541155L241.35999999999999,129.6700023189187L241.64,123.88364118337631L241.92,129.159617934376L242.2,121.66797977685928L242.48,127.91975208371878L242.76,117.3085570782423L243.04,132.81381874158978L243.32,101.79948092252016L243.6,121.15407598018646L243.88,116.42869078367949L244.16,121.69789560884237L244.44,126.83167517930269L244.72,123.79865144193172L245,113.81230708956718L245.28,128.79986704140902L245.56,118.83505691587925L245.84,129.8420258127153L246.12,129.0788654126227L246.4,125.84755603969097L246.68,118.23288433998823L246.96,112.42147785425186L247.24,130.12828183174133L247.52,126.30517245084047L247.8,127.60259718447924L248.08,123.19573950767517L248.36,124.20710881054401L248.64000000000001,129.20020804554224L248.92000000000002,121.05703768134117L249.20000000000002,129.89112351834774L249.48000000000002,115.5463809594512L249.76,132.2208947762847L250.04,120.3341209217906L250.32,130.20068258792162L250.6,120.91764376312494L250.88,123.72858811914921L251.16,127.34842036664486L251.44,127.18550291657448L251.72,123.57210607081652" style="fill: none;" fill="none"></path></g></g></g></g></g></g><g transform="translate(50, 178)" clip-path="url(#clip_1)"><clipPath id="clip_1"><rect width="280" height="21"></rect></clipPath><g><g><line x1="0" y1="0" x2="0" y2="5" style="visibility: inherit;" fill="rgb(0, 0, 0)" stroke="rgb(204, 204, 204)" stroke-width="1px"></line><line x1="28" y1="0" x2="28" y2="5" style="visibility: inherit;" fill="rgb(0, 0, 0)" stroke="rgb(204, 204, 204)" stroke-width="1px"></line><line x1="56" y1="0" x2="56" y2="5" style="visibility: inherit;" fill="rgb(0, 0, 0)" stroke="rgb(204, 204, 204)" stroke-width="1px"></line><line x1="84" y1="0" x2="84" y2="5" style="visibility: inherit;" fill="rgb(0, 0, 0)" stroke="rgb(204, 204, 204)" stroke-width="1px"></line><line x1="112" y1="0" x2="112" y2="5" style="visibility: inherit;" fill="rgb(0, 0, 0)" stroke="rgb(204, 204, 204)" stroke-width="1px"></line><line x1="140" y1="0" x2="140" y2="5" style="visibility: inherit;" fill="rgb(0, 0, 0)" stroke="rgb(204, 204, 204)" stroke-width="1px"></line><line x1="168" y1="0" x2="168" y2="5" style="visibility: inherit;" fill="rgb(0, 0, 0)" stroke="rgb(204, 204, 204)" stroke-width="1px"></line><line x1="196" y1="0" x2="196" y2="5" style="visibility: inherit;" fill="rgb(0, 0, 0)" stroke="rgb(204, 204, 204)" stroke-width="1px"></line><line x1="224" y1="0" x2="224" y2="5" style="visibility: inherit;" fill="rgb(0, 0, 0)" stroke="rgb(204, 204, 204)" stroke-width="1px"></line><line x1="252" y1="0" x2="252" y2="5" style="visibility: inherit;" fill="rgb(0, 0, 0)" stroke="rgb(204, 204, 204)" stroke-width="1px"></line><line x1="280" y1="0" x2="280" y2="5" style="visibility: inherit;" fill="rgb(0, 0, 0)" stroke="rgb(204, 204, 204)" stroke-width="1px"></line></g><g transform="translate(0, 8)"><text x="0" y="0" dx="0em" dy="0.95em" style="text-anchor: middle; visibility: hidden; font-family: Roboto, sans-serif; font-size: 12px; font-weight: 200;" fill="rgb(50, 49, 63)" stroke="none" stroke-width="1px">-100</text><text x="28" y="0" dx="0em" dy="0.95em" style="text-anchor: middle; visibility: inherit; font-family: Roboto, sans-serif; font-size: 12px; font-weight: 200;" fill="rgb(50, 49, 63)" stroke="none" stroke-width="1px">0</text><text x="56" y="0" dx="0em" dy="0.95em" style="text-anchor: middle; visibility: inherit; font-family: Roboto, sans-serif; font-size: 12px; font-weight: 200;" fill="rgb(50, 49, 63)" stroke="none" stroke-width="1px">100</text><text x="84" y="0" dx="0em" dy="0.95em" style="text-anchor: middle; visibility: inherit; font-family: Roboto, sans-serif; font-size: 12px; font-weight: 200;" fill="rgb(50, 49, 63)" stroke="none" stroke-width="1px">200</text><text x="112" y="0" dx="0em" dy="0.95em" style="text-anchor: middle; visibility: inherit; font-family: Roboto, sans-serif; font-size: 12px; font-weight: 200;" fill="rgb(50, 49, 63)" stroke="none" stroke-width="1px">300</text><text x="140" y="0" dx="0em" dy="0.95em" style="text-anchor: middle; visibility: inherit; font-family: Roboto, sans-serif; font-size: 12px; font-weight: 200;" fill="rgb(50, 49, 63)" stroke="none" stroke-width="1px">400</text><text x="168" y="0" dx="0em" dy="0.95em" style="text-anchor: middle; visibility: inherit; font-family: Roboto, sans-serif; font-size: 12px; font-weight: 200;" fill="rgb(50, 49, 63)" stroke="none" stroke-width="1px">500</text><text x="196" y="0" dx="0em" dy="0.95em" style="text-anchor: middle; visibility: inherit; font-family: Roboto, sans-serif; font-size: 12px; font-weight: 200;" fill="rgb(50, 49, 63)" stroke="none" stroke-width="1px">600</text><text x="224" y="0" dx="0em" dy="0.95em" style="text-anchor: middle; visibility: inherit; font-family: Roboto, sans-serif; font-size: 12px; font-weight: 200;" fill="rgb(50, 49, 63)" stroke="none" stroke-width="1px">700</text><text x="252" y="0" dx="0em" dy="0.95em" style="text-anchor: middle; visibility: inherit; font-family: Roboto, sans-serif; font-size: 12px; font-weight: 200;" fill="rgb(50, 49, 63)" stroke="none" stroke-width="1px">800</text><text x="280" y="0" dx="0em" dy="0.95em" style="text-anchor: middle; visibility: hidden; font-family: Roboto, sans-serif; font-size: 12px; font-weight: 200;" fill="rgb(50, 49, 63)" stroke="none" stroke-width="1px">900</text></g><line x1="0" y1="0" x2="280" y2="0" fill="rgb(0, 0, 0)" stroke="rgb(204, 204, 204)" stroke-width="1px"></line></g></g></g></g></svg>