<svg viewBox="0 0 330 200" xmlns="http://www.w3.org/2000/svg"><g><g><g><g><g><line x1="70" y1="178" x2="65" y2="178" style="visibility: inherit;" fill="rgb(0, 0, 0)" stroke="rgb(204, 204, 204)" stroke-width="1px"></line><line x1="70" y1="155.7500000000002" x2="65" y2="155.7500000000002" style="visibility: inherit;" fill="rgb(0, 0, 0)" stroke="rgb(204, 204, 204)" stroke-width="1px"></line><line x1="70" y1="133.4999999999996" x2="65" y2="133.4999999999996" style="visibility: inherit;" fill="rgb(0, 0, 0)" stroke="rgb(204, 204, 204)" stroke-width="1px"></line><line x1="70" y1="111.2499999999998" x2="65" y2="111.2499999999998" style="visibility: inherit;" fill="rgb(0, 0, 0)" stroke="rgb(204, 204, 204)" stroke-width="1px"></line><line x1="70" y1="89" x2="65" y2="89" style="visibility: inherit;" fill="rgb(0, 0, 0)" stroke="rgb(204, 204, 204)" stroke-width="1px"></line><line x1="70" y1="66.7500000000002" x2="65" y2="66.7500000000002" style="visibility: inherit;" fill="rgb(0, 0, 0)" stroke="rgb(204, 204, 204)" stroke-width="1px"></line><line x1="70" y1="44.5000000000004" x2="65" y2="44.5000000000004" style="visibility: inherit;" fill="rgb(0, 0, 0)" stroke="rgb(204, 204, 204)" stroke-width="1px"></line><line x1="70" y1="22.250000000000572" x2="65" y2="22.250000000000572" style="visibility: inherit;" fill="rgb(0, 0, 0)" stroke="rgb(204, 204, 204)" stroke-width="1px"></line><line x1="70" y1="0" x2="65" y2="0" style="visibility: inherit;" fill="rgb(0, 0, 0)" stroke="rgb(204, 204, 204)" stroke-width="1px"></line></g><g transform="translate(60, 0)"><text x="0" y="178" dx="0em" dy="0.3em" style="text-anchor: end; visibility: hidden; font-family: Roboto, sans-serif; font-size: 12px; font-weight: 200;" fill="rgb(50, 49, 63)" stroke="none" stroke-width="1px">0.0282</text><text x="0" y="155.7500000000002" dx="0em" dy="0.3em" style="text-anchor: end; visibility: inherit; font-family: Roboto, sans-serif; font-size: 12px; font-weight: 200;" fill="rgb(50, 49, 63)" stroke="none" stroke-width="1px">0.0283</text><text x="0" y="133.4999999999996" dx="0em" dy="0.3em" style="text-anchor: end; visibility: hidden; font-family: Roboto, sans-serif; font-size: 12px; font-weight: 200;" fill="rgb(50, 49, 63)" stroke="none" stroke-width="1px">0.0284</text><text x="0" y="111.2499999999998" dx="0em" dy="0.3em" style="text-anchor: end; visibility: inherit; font-family: Roboto, sans-serif; font-size: 12px; font-weight: 200;" fill="rgb(50, 49, 63)" stroke="none" stroke-width="1px">0.0285</text><text x="0" y="89" dx="0em" dy="0.3em" style="text-anchor: end; visibility: hidden; font-family: Roboto, sans-serif; font-size: 12px; font-weight: 200;" fill="rgb(50, 49, 63)" stroke="none" stroke-width="1px">0.0286</text><text x="0" y="66.7500000000002" dx="0em" dy="0.3em" style="text-anchor: end; visibility: inherit; font-family: Roboto, sans-serif; font-size: 12px; font-weight: 200;" fill="rgb(50, 49, 63)" stroke="none" stroke-width="1px">0.0287</text><text x="0" y="44.5000000000004" dx="0em" dy="0.3em" style="text-anchor: end; visibility: hidden; font-family: Roboto, sans-serif; font-size: 12px; font-weight: 200;" fill="rgb(50, 49, 63)" stroke="none" stroke-width="1px">0.0288</text><text x="0" y="22.250000000000572" dx="0em" dy="0.3em" style="text-anchor: end; visibility: inherit; font-family: Roboto, sans-serif; font-size: 12px; font-weight: 200;" fill="rgb(50, 49, 63)" stroke="none" stroke-width="1px">0.0289</text><text x="0" y="0" dx="0em" dy="0.3em" style="text-anchor: end; visibility: hidden; font-family: Roboto, sans-serif; font-size: 12px; font-weight: 200;" fill="rgb(50, 49, 63)" stroke="none" stroke-width="1px">0.029</text></g><line x1="70" y1="0" x2="70" y2="178" fill="rgb(0, 0, 0)" stroke="rgb(204, 204, 204)" stroke-width="1px"></line></g></g><g transform="translate(70, 0)" clip-path="url(#clip_0)"><clipPath id="clip_0"><rect width="260" height="177"></rect></clipPath><g><g><g><line x1="0" y1="0" x2="0" y2="178" fill="rgb(0, 0, 0)" stroke="rgb(60, 60, 60)" stroke-width="1px" opacity="0.25"></line><line x1="26" y1="0" x2="26" y2="178" fill="rgb(0, 0, 0)" stroke="rgb(60, 60, 60)" stroke-width="1px" opacity="0.25"></line><line x1="52" y1="0" x2="52" y2="178" fill="rgb(0, 0, 0)" stroke="rgb(60, 60, 60)" stroke-width="1px" opacity="0.25"></line><line x1="78" y1="0" x2="78" y2="178" fill="rgb(0, 0, 0)" stroke="rgb(60, 60, 60)" stroke-width="1px" opacity="0.25"></line><line x1="104" y1="0" x2="104" y2="178" fill="rgb(0, 0, 0)" stroke="rgb(60, 60, 60)" stroke-width="1px" opacity="0.25"></line><line x1="130" y1="0" x2="130" y2="178" fill="rgb(0, 0, 0)" stroke="rgb(60, 60, 60)" stroke-width="1px" opacity="0.25"></line><line x1="156" y1="0" x2="156" y2="178" fill="rgb(0, 0, 0)" stroke="rgb(60, 60, 60)" stroke-width="1px" opacity="0.25"></line><line x1="182" y1="0" x2="182" y2="178" fill="rgb(0, 0, 0)" stroke="rgb(60, 60, 60)" stroke-width="1px" opacity="0.25"></line><line x1="208" y1="0" x2="208" y2="178" fill="rgb(0, 0, 0)" stroke="rgb(60, 60, 60)" stroke-width="1px" opacity="0.25"></line><line x1="234" y1="0" x2="234" y2="178" fill="rgb(0, 0, 0)" stroke="rgb(60, 60, 60)" stroke-width="1px" opacity="0.25"></line><line x1="260" y1="0" x2="260" y2="178" fill="rgb(0, 0, 0)" stroke="rgb(60, 60, 60)" stroke-width="1px" opacity="0.25"></line></g><g><line x1="0" y1="178" x2="260" y2="178" fill="rgb(0, 0, 0)" stroke="rgb(60, 60, 60)" stroke-width="1px" opacity="0.25"></line><line x1="0" y1="155.7500000000002" x2="260" y2="155.7500000000002" fill="rgb(0, 0, 0)" stroke="rgb(60, 60, 60)" stroke-width="1px" opacity="0.25"></line><line x1="0" y1="133.4999999999996" x2="260" y2="133.4999999999996" fill="rgb(0, 0, 0)" stroke="rgb(60, 60, 60)" stroke-width="1px" opacity="0.25"></line><line x1="0" y1="111.2499999999998" x2="260" y2="111.2499999999998" fill="rgb(0, 0, 0)" stroke="rgb(60, 60, 60)" stroke-width="1px" opacity="0.25"></line><line x1="0" y1="89" x2="260" y2="89" fill="rgb(0, 0, 0)" stroke="rgb(60, 60, 60)" stroke-width="1px" opacity="0.25"></line><line x1="0" y1="66.7500000000002" x2="260" y2="66.7500000000002" fill="rgb(0, 0, 0)" stroke="rgb(60, 60, 60)" stroke-width="1px" opacity="0.25"></line><line x1="0" y1="44.5000000000004" x2="260" y2="44.5000000000004" fill="rgb(0, 0, 0)" stroke="rgb(60, 60, 60)" stroke-width="1px" opacity="0.25"></line><line x1="0" y1="22.250000000000572" x2="260" y2="22.250000000000572" fill="rgb(0, 0, 0)" stroke="rgb(60, 60, 60)" stroke-width="1px" opacity="0.25"></line><line x1="0" y1="0" x2="260" y2="0" fill="rgb(0, 0, 0)" stroke="rgb(60, 60, 60)" stroke-width="1px" opacity="0.25"></line></g></g></g><g><g><line x1="0" y1="6452.499999999984" x2="260" y2="6452.499999999984" fill="rgb(0, 0, 0)" stroke="rgb(153, 153, 153)" stroke-width="1.5px"></line></g></g><g><g><line x1="26" y1="0" x2="26" y2="178" fill="rgb(0, 0, 0)" stroke="rgb(153, 153, 153)" stroke-width="1.5px"></line></g></g><g><g><g><g><g><path stroke="rgb(255, 112, 67)" stroke-width="2px" d="M26,146.2862168997518L26.26,146.28647592384362L26.52,146.28676666517063L26.779999999999998,146.2870853922939L27.04,146.28760746905783L27.3,146.28858901511276L27.56,146.28982998872561L27.82,146.29088917466743L28.08,146.2920155737373L28.34,146.29401837519276L28.6,146.29587779348074L28.86,146.29765366589828L29.12,146.29954667315172L29.380000000000003,146.30151042107107L29.64,146.30368280488L29.900000000000002,146.30614633666096L30.16,146.30878463524323L30.42,146.31152787434797L30.68,146.31433413813778L30.939999999999998,146.31717825732247L31.2,146.32004511566717L31.46,146.32275985602365L31.72,146.3255491144632L31.98,146.32871464126316L32.24,146.33210593074955L32.5,146.33530112817795L32.76,146.33837867226194L33.02,146.34171717637744L33.28,146.34471493041127L33.54,146.3480055612189L33.800000000000004,146.3511403673196L34.06,146.35451322959742L34.32,146.3576973747752L34.58,146.3606025143227L34.84,146.36383757678854L35.1,146.36693904217196L35.36,146.37012612473575L35.620000000000005,146.3730330267746L35.88,146.37577182050376L36.14,146.37857552466613L36.400000000000006,146.3812523996726L36.66,146.38385317718465L36.919999999999995,146.38607674536547L37.18,146.38857131420085L37.44,146.39056538175723L37.699999999999996,146.39176182229136L37.96,146.39264546202827L38.22,146.39317564587165L38.48,146.3933279807591L38.739999999999995,146.39308783085454L39,146.39277796549413L39.26,146.3917631691862L39.519999999999996,146.39049118972736L39.78,146.38873334954374L40.04,146.38568934041328L40.3,146.38187362991548L40.56,146.37759489859803L40.82,146.37303835478772L41.08,146.3686466743184L41.34,146.36369081018273L41.6,146.35773333417117L41.86,146.35134066645315L42.120000000000005,146.3440237820389L42.38,146.33565504135112L42.64,146.32632363606356L42.9,146.3160830811784L43.160000000000004,146.30413660860808L43.42,146.2913323608449L43.68,146.27751612170985L43.940000000000005,146.26276113691534L44.2,146.24694557847113L44.46,146.23065945125566L44.72,146.21442253361232L44.98,146.19705471378694L45.239999999999995,146.1798372297412L45.5,146.16038909130845L45.76,146.1387736831519L46.019999999999996,146.11552636232466L46.28,146.08980791513048L46.54,146.06227524127928L46.8,146.03348825601557L47.059999999999995,146.0046117855773L47.32,145.97634472570763L47.58,145.94794598592517L47.839999999999996,145.9186393611027L48.1,145.88829067900107L48.36,145.85731676253255L48.62,145.8258019300252L48.88,145.79346522163996L49.14,145.76080116314645L49.4,145.7266144912419L49.660000000000004,145.69118270045365L49.92,145.65533538917194L50.18,145.61973609184912L50.440000000000005,145.58428560290182L50.7,145.54925594981574L50.96,145.513815696573L51.22,145.47812908323746L51.480000000000004,145.44229465384598L51.74,145.4058742085651L52,145.36926792916998L52.260000000000005,145.3325501493059L52.52,145.2955996937419L52.78,145.2571834294113L53.04,145.21656147647573L53.3,145.17378723328528L53.559999999999995,145.1297216159416L53.82,145.08338919534162L54.08,145.03354161235032L54.339999999999996,144.9812533810877L54.6,144.92600878209666L54.86,144.8643486507584L55.12,144.79519214080864L55.379999999999995,144.71755919365356L55.64,144.63517193501124L55.9,144.55092674198642L56.16,144.46523523749644L56.42,144.3788417215449L56.68,144.29119812162514L56.94,144.2033017975798L57.2,144.11575116531282L57.46,144.0307288039693L57.72,143.9483838331086L57.980000000000004,143.86946882613853L58.24,143.79277757292036L58.5,143.71974142780985L58.760000000000005,143.65039032632697L59.02,143.58341602644046L59.28,143.51720470583928L59.54,143.45228004989931L59.800000000000004,143.38829316817436L60.06,143.32636092974354L60.32,143.26549570187066L60.580000000000005,143.20626533284235L60.84,143.14884475621236L61.099999999999994,143.0931731566946L61.36,143.04120335013613L61.62,142.989299538916L61.879999999999995,142.93577757071637L62.14,142.8801242803997L62.4,142.8221975443045L62.66,142.761746312814L62.92,142.70011193492283L63.18,142.63942542337355L63.44,142.57963918246608L63.699999999999996,142.5195642268533L63.96,142.45964759325216L64.22,142.39916285118642L64.48,142.33916612113194L64.74,142.27962797370375L65,142.22185695461505L65.26,142.1666381912948L65.52,142.1147743110376L65.78,142.06442603436213L66.04,142.0154844460912L66.3,141.96606066751627L66.56,141.9148555959953L66.82000000000001,141.8620844224502L67.08,141.8088709139475L67.34,141.75622088156004L67.60000000000001,141.7045720365158L67.86,141.65203192511268L68.12,141.59796240138496L68.38000000000001,141.54247790400595L68.64,141.486310197856L68.9,141.43039566811677L69.16,141.3728095146221L69.42,141.31206530643635L69.68,141.24793428667297L69.94,141.1809423028696L70.2,141.1119021898067L70.46000000000001,141.0414674237703L70.72,140.96671458216485L70.98,140.88771314103528L71.24000000000001,140.8058309893557L71.5,140.71989955548855L71.76,140.63153855231022L72.02000000000001,140.54221713380016L72.28,140.4523194660905L72.54,140.36207604886042L72.80000000000001,140.27245405901039L73.06,140.18303915016972L73.32,140.09358271451677L73.58,140.0039355873578L73.83999999999999,139.91135586318512L74.1,139.81552460203832L74.36,139.71956594830954L74.61999999999999,139.6235308590308L74.88,139.52977076427848L75.14,139.43919919584238L75.39999999999999,139.3521984973786L75.66,139.26667721922684L75.92,139.18138049158773L76.17999999999999,139.0967158205111L76.44,139.01060685377053L76.7,138.91865804708422L76.96,138.81674009511735L77.22,138.70519359677948L77.47999999999999,138.58770419520152L77.74,138.46648327625934L78,138.34451542566535L78.25999999999999,138.22309406858884L78.52,138.1018348322038L78.78,137.97984399114395L79.03999999999999,137.85840883978796L79.3,137.73797020392814L79.56,137.61580862150922L79.82,137.4916186186448L80.08,137.36339338140368L80.34,137.23224967728004L80.6,137.10001799470152L80.86,136.96879127923168L81.12,136.83916219653761L81.38,136.71098901976438L81.64,136.58302628487002L81.9,136.45767644637598L82.16,136.33356279488635L82.42,136.20919620308982L82.68,136.08351741918165L82.94,135.95555934124104L83.2,135.82722833939172L83.46000000000001,135.70132598988815L83.72,135.5800305647409L83.98,135.46431747631794L84.24000000000001,135.35377731952988L84.5,135.247169798814L84.76,135.1442480630891L85.02000000000001,135.04768218381562L85.28,134.9572506742679L85.54,134.87116288822907L85.8,134.79016796756977L86.06,134.71173143988366L86.32000000000001,134.634995723399L86.58,134.5591147182175L86.84,134.48374653981853L87.10000000000001,134.40818873123396L87.36,134.33102516577253L87.62,134.24991418865716L87.88000000000001,134.16577166287524L88.14,134.0806390849855L88.4,133.9959071283401L88.66000000000001,133.91091821818713L88.92,133.8234542800739L89.18,133.73450532518385L89.44,133.64433380939067L89.69999999999999,133.5527656553836L89.96,133.45870176426448L90.22,133.3623115537873L90.47999999999999,133.26170736958403L90.74,133.15774592405418L91,133.0522674479832L91.25999999999999,132.947204956934L91.52,132.843552484825L91.78,132.7397513715716L92.03999999999999,132.63702150155882L92.3,132.5341055003986L92.56,132.4300831680405L92.82,132.32224730401666L93.08,132.21013401597367L93.34,132.0944596210106L93.6,131.97648278647563L93.86,131.85961111947267L94.11999999999999,131.74522608258914L94.38,131.63349345170582L94.64,131.52550734485993L94.89999999999999,131.42142690662047L95.16,131.31803211536064L95.42,131.21024122515917L95.67999999999999,131.09649716722774L95.94,130.97702612821956L96.2,130.8552793284933L96.46,130.73299594942762L96.72,130.61271147861515L96.98,130.4947867806818L97.24,130.37894104814876L97.5,130.2626849406737L97.76,130.14551950655996L98.02,130.02847157813633L98.28,129.9075155430883L98.54,129.77774940275236L98.8,129.63739238585833L99.06,129.49001774135695L99.32000000000001,129.33876407112774L99.58,129.18617763797116L99.84,129.03245999622163L100.10000000000001,128.87822940473464L100.36,128.72369104340558L100.62,128.56896802016976L100.88000000000001,128.41347109811818L101.14,128.25966491721505L101.4,128.10306034638026L101.66,127.93980347903707L101.92,127.7684108483315L102.18,127.59097633168193L102.44,127.41256909015799L102.7,127.23440709080067L102.96000000000001,127.05804999092695L103.22,126.88426780950742L103.48,126.7123621299959L103.74000000000001,126.53926149577478L104,126.36759896916513L104.26,126.19166026915559L104.52000000000001,126.00669062379193L104.78,125.81166069950606L105.04,125.61076038328376L105.30000000000001,125.40832713691945L105.56,125.2079580899984L105.82,125.01413237612906L106.08,124.82870859838418L106.33999999999999,124.64915485940543L106.6,124.47710175372461L106.86,124.31236721013428L107.11999999999999,124.15268690546984L107.38,123.99620491958058L107.64,123.84213925121067L107.89999999999999,123.6901864750258L108.16,123.54298271793525L108.42,123.40161232983067L108.67999999999999,123.26672592064783L108.94,123.13904540718192L109.2,123.01618575740231L109.46,122.89870525710728L109.72,122.78561267443268L109.97999999999999,122.67415818981954L110.24,122.56070260651487L110.5,122.44322818188385L110.75999999999999,122.32069004576483L111.02,122.19577678442646L111.28,122.06927267253846L111.53999999999999,121.94413490617544L111.8,121.82097737505597L112.06,121.69917376050093L112.32,121.57851404672108L112.58,121.4583748979878L112.84,121.33854808828319L113.1,121.22156108868816L113.36,121.10611219973981L113.62,120.99208350343461L113.88,120.87874114729722L114.14,120.76398706565999L114.4,120.64507044035616L114.66,120.52365628885205L114.92,120.3934495032254L115.18,120.25630938294073L115.44,120.11666701604452L115.7,119.97038426321384L115.96000000000001,119.82111193133363L116.22,119.67037740285988L116.48,119.51959443352072L116.74000000000001,119.3679535225713L117,119.21828447793061L117.26,119.06963277765608L117.52000000000001,118.92125993316516L117.78,118.76841269043206L118.04,118.61321235959022L118.3,118.45858948090233L118.56,118.30762858187323L118.82000000000001,118.1630092560957L119.08,118.02600770888955L119.34,117.89374260424545L119.60000000000001,117.76597711932075L119.86,117.64041407997229L120.12,117.51385165211465L120.38000000000001,117.38403718445889L120.64,117.25061373874048L120.9,117.10673613527149L121.16000000000001,116.95642026173344L121.42,116.804728057428L121.68,116.65237583008039L121.94,116.5001249151622L122.19999999999999,116.35108452064915L122.46,116.2043019892162L122.72,116.06020037897743L122.97999999999999,115.91671266894576L123.24,115.77193554485416L123.5,115.62555589523721L123.75999999999999,115.4689313068802L124.02,115.29936296312867L124.28,115.11954173486777L124.53999999999999,114.93240834797201L124.8,114.74055611506004L125.06,114.54918808290365L125.32,114.35960254996391L125.58,114.17291004615711L125.84,113.99060576652133L126.1,113.81308950182647L126.36,113.63595941482144L126.61999999999999,113.45856370817565L126.88,113.28183750683601L127.14,113.10601033493602L127.39999999999999,112.93221455946431L127.66,112.76262157937822L127.92,112.59870000947112L128.18,112.44033636610865L128.44,112.28497592783683L128.7,112.13125163720109L128.96,111.97850903514659L129.22,111.82635544624083L129.48,111.67057665518615L129.74,111.51063343782229L130,111.35001509427445L130.26,111.18948900127005L130.52,111.03084178819475L130.78,110.87663741144088L131.04,110.7260933889902L131.3,110.57973488413982L131.56,110.43754544403401L131.82,110.29968097237438L132.08,110.1642457063655L132.34,110.02861020956321L132.6,109.88937329050296L132.86,109.74880439517688L133.12,109.60677321242018L133.38,109.46170957676635L133.64000000000001,109.31117941017223L133.9,109.15488269373908L134.16,108.99545759823938L134.42000000000002,108.8358132294835L134.68,108.67852392804782L134.94,108.52380809493225L135.20000000000002,108.36831548695183L135.46,108.20937285652474L135.72,108.04985219139319L135.98000000000002,107.8916424596215L136.24,107.73654014372292L136.5,107.58429692985676L136.76000000000002,107.43708468557682L137.02,107.29073594260922L137.28,107.14059513955527L137.54000000000002,106.99016840546778L137.8,106.84073054068942L138.06,106.68906781538539L138.32,106.53540707209177L138.58,106.3831999246983L138.84,106.23319113818991L139.1,106.08284361403071L139.36,105.93179552102603L139.62,105.78016131129652L139.88,105.62519147400076L140.14000000000001,105.4692149126769L140.4,105.30965035940623L140.66,105.1492592143145L140.92000000000002,104.98870366496621L141.18,104.82639171888101L141.44,104.66252860849963L141.70000000000002,104.4992267783035L141.96,104.33294620785443L142.22,104.16338641448814L142.48000000000002,103.98837780358778L142.74,103.80728172005678L143,103.62286470378274L143.26000000000002,103.43562625077331L143.52,103.2460318340477L143.78,103.047895496107L144.04000000000002,102.84629175962087L144.3,102.64525999069826L144.56,102.44722380900754L144.82000000000002,102.25197963216529L145.08,102.06039996325185L145.34,101.86853236782065L145.60000000000002,101.678978647754L145.86,101.4937972104339L146.12,101.31173646901824L146.38,101.1346978780917L146.64,100.96083835287595L146.89999999999998,100.78324990286576L147.16,100.60176634379684L147.42,100.41413288467221L147.67999999999998,100.22330681176825L147.94,100.03305180187151L148.2,99.84546028563504L148.45999999999998,99.66211927228679L148.72,99.48630182321959L148.98,99.31814824566882L149.23999999999998,99.15575341895592L149.5,98.99615074107291L149.76,98.83838912790581L150.01999999999998,98.68305835691449L150.28,98.53018074373834L150.54,98.38225630903536L150.79999999999998,98.23282784512251L151.06,98.07802102738907L151.32,97.91716901525375L151.57999999999998,97.7482139501838L151.84,97.57041844331403L152.1,97.363944337387L152.35999999999999,97.13545558489525L152.62,96.89375804446473L152.88,96.6429748033426L153.14,96.38856367140694L153.4,96.13396511000178L153.66,95.87941986633415L153.92,95.61330233402957L154.18,95.33924677603225L154.44,95.05711289425363L154.7,94.76714806067736L154.95999999999998,94.47149000351307L155.22,94.17075825801334L155.48,93.87311598998812L155.73999999999998,93.58230067099592L156,93.29922858062726L156.26,93.02428371121465L156.51999999999998,92.74360554760653L156.78,92.4553430220241L157.04,92.16170100216554L157.29999999999998,91.8658259382508L157.56,91.57391586128783L157.82,91.28803183569875L158.07999999999998,91.01040515264448L158.34,90.7410483834775L158.6,90.47698511347949L158.85999999999999,90.2131139854536L159.12,89.94985546886569L159.38,89.68514098954056L159.64,89.42353154260967L159.9,89.16925570392094L160.16,88.92385596646989L160.42,88.6862685210358L160.68,88.45602085750335L160.94,88.22735888100337L161.2,87.99997986755697L161.46,87.77221020401677L161.72,87.54652700627547L161.98,87.32192991259551L162.24,87.09500052382268L162.5,86.8625273725374L162.76,86.62606486207136L163.02,86.38737451151579L163.28,86.1466843552318L163.54,85.90844137471512L163.8,85.6776346147159L164.06,85.45526819706544L164.32,85.24177881944578L164.58,85.03577074628181L164.84,84.83242792618938L165.1,84.63300511379644L165.36,84.4352712043507L165.62,84.2387164120909L165.88,84.04204021305098L166.14000000000001,83.84462806826986L166.4,83.64859788564557L166.66,83.45157335071352L166.92000000000002,83.25080247145053L167.18,83.04231319678492L167.44,82.83051908822492L167.70000000000002,82.61491854972627L167.96,82.39438174657207L168.22,82.17171206171625L168.48000000000002,81.9500835036951L168.74,81.71565181289427L169,81.46541524692995L169.26000000000002,81.2035406754296L169.52,80.92142126714478L169.78,80.62466832551539L170.04000000000002,80.31814061136969L170.3,80.00757156331531L170.56,79.69706434618872L170.82,79.3904070622416L171.08,79.08854636947483L171.34,78.7943711185466L171.6,78.5084541919232L171.86,78.22351364984476L172.12,77.93302524801697L172.38,77.63854502866573L172.64000000000001,77.34316169756602L172.9,77.05121510945517L173.16,76.76282254590177L173.42000000000002,76.47805437584904L173.68,76.19380308771265L173.94,75.90836994996138L174.20000000000002,75.62206192702277L174.46,75.3174910032167L174.72,74.98720832666247L174.98000000000002,74.63669111132951L175.24,74.28000108778663L175.5,73.92143090891878L175.76000000000002,73.56504814522326L176.02,73.2126302373218L176.28,72.86408322166177L176.54000000000002,72.51769296592941L176.8,72.16397644440207L177.06,71.79575186288363L177.32000000000002,71.4213090766437L177.58,71.04131183796947L177.84,70.65864502950855L178.10000000000002,70.27570268252138L178.36,69.89475009285601L178.62,69.52294857766184L178.88,69.16757888475635L179.14,68.82704154777251L179.39999999999998,68.49888490812619L179.66,68.1851192544502L179.92,67.88429835323115L180.17999999999998,67.5938967101795L180.44,67.31273057955643L180.7,67.03843195973678L180.95999999999998,66.75416293584618L181.22,66.45877263154549L181.48,66.15803576234516L181.73999999999998,65.85591448380693L182,65.5590962501422L182.26,65.27142775845927L182.51999999999998,64.9875913577818L182.78,64.70820929214638L183.04,64.43166560295444L183.29999999999998,64.15566451169941L183.56,63.88098363171712L183.82,63.60808953100817L184.07999999999998,63.33958300622901L184.34,63.07685875995492L184.6,62.82191404165952L184.85999999999999,62.57544987477148L185.12,62.34020772920442L185.38,62.11219612268434L185.64,61.89117524628481L185.9,61.67451458337696L186.16,61.459475396053804L186.42,61.243585564480995L186.68,61.031329731813884L186.94,60.827553764386145L187.2,60.633838978649834L187.45999999999998,60.44997373654947L187.72,60.274504851904624L187.98,60.10307912922398L188.23999999999998,59.93905256626846L188.5,59.781289028750976L188.76,59.63059881486195L189.01999999999998,59.48315794263843L189.28,59.33949020501702L189.54,59.19891522524751L189.79999999999998,59.058869696844L190.06,58.9209653688599L190.32,58.78699816782015L190.57999999999998,58.65721677254884L190.84,58.53011263615645L191.1,58.405941058437946L191.35999999999999,58.2831974650866L191.62,58.16031600984602L191.88,58.03884381623689L192.14,57.91722252709618L192.4,57.79451712812698L192.66,57.67066393700675L192.92,57.545790519758896L193.18,57.42179694559838L193.44,57.29833127729121L193.7,57.17584545416868L193.96,57.053947538156805L194.22,56.932402366410685L194.48,56.80476937533025L194.74,56.66768155300984L195,56.52376040401718L195.26,56.37126332272677L195.52,56.20815009325504L195.78,56.0378382977825L196.04,55.86138383310884L196.3,55.679751788149666L196.56,55.4960078475298L196.82,55.3100021170029L197.08,55.12164466002334L197.34,54.9323734934256L197.6,54.74570383400511L197.86,54.56042930347191L198.12,54.378644256964506L198.38,54.199450227126206L198.64000000000001,54.022473908963406L198.9,53.85113837868184L199.16,53.68202689320043L199.42000000000002,53.5129236312521L199.68,53.34432262967907L199.94,53.17187859887419L200.20000000000002,52.99381324216425L200.46,52.80889380612767L200.72,52.619530371658556L200.98000000000002,52.426505885620664L201.24,52.235594929516715L201.5,52.04396278635296L201.76000000000002,51.84924552426188L202.02,51.650522110375846L202.28,51.45204741210518L202.54000000000002,51.25305884153107L202.8,51.05425927382973L203.06,50.858722840799736L203.32,50.6672993690091L203.58,50.478012123126305L203.84,50.2851991256585L204.1,50.08397121134454L204.36,49.87305263521117L204.62,49.65499345863908L204.88,49.42983173969379L205.14000000000001,49.19676143612345L205.4,48.95049143544388L205.66,48.69199145562374L205.92000000000002,48.426153488319734L206.18,48.15674160561727L206.44,47.8870089032753L206.70000000000002,47.61807836166023L206.96,47.350623768991156L207.22,47.08388897027184L207.48000000000002,46.81443631497429L207.74,46.53920856027226L208,46.26084729676491L208.26000000000002,45.97745619502714L208.52,45.691876067442394L208.78,45.39122316463179L209.04000000000002,45.07058541907922L209.3,44.73281772991398L209.56,44.383777422072846L209.82000000000002,44.031123275972746L210.08,43.6822687419765L210.34,43.33851215735194L210.60000000000002,43.00278760489947L210.86,42.66657745836445L211.12,42.32758932410679L211.38,41.98560819386849L211.64,41.64730185484589L211.89999999999998,41.31633942851852L212.16,40.99094377773669L212.42,40.6549630571467L212.67999999999998,40.30367942208372L212.94,39.937080347861254L213.2,39.55880537887011L213.45999999999998,39.17402219927064L213.72,38.78997580501894L213.98,38.406205706557486L214.23999999999998,38.02359603808002L214.5,37.64068797508293L214.76,37.260750608321615L215.01999999999998,36.886076943086096L215.28,36.514064172510764L215.54,36.137845799091075L215.79999999999998,35.745510479666144L216.06,35.33289536586836L216.32,34.90313911289904L216.57999999999998,34.457461812203974L216.84,34.00073990410971L217.1,33.53606502822858L217.35999999999999,33.06015313036285L217.62,32.58313538352911L217.88,32.11092471611668L218.14,31.646737334324182L218.4,31.194160716052597L218.66,30.751866064259954L218.92,30.32137695657548L219.18,29.895981870337284L219.44,29.473974747803442L219.7,29.056487034766114L219.95999999999998,28.646186903720306L220.22,28.24931696987518L220.48,27.86929125151833L220.73999999999998,27.510147464643506L221,27.17149005673558L221.26,26.850097738756233L221.51999999999998,26.54254575851793L221.78,26.241806002159443L222.04,25.94614823263835L222.29999999999998,25.656192061912975L222.56,25.372143481738348L222.82,25.09213678215022L223.07999999999998,24.817207617605135L223.34,24.547811605360863L223.6,24.285050992862853L223.85999999999999,24.03041600566918L224.12,23.777175109874054L224.38,23.520957834298336L224.64,23.257981468305367L224.9,22.988794567624375L225.16,22.71206851150949L225.42,22.42949275878893L225.68,22.139097027228708L225.94,21.84467241003847L226.2,21.544349177686264L226.46,21.23816592038191L226.72,20.93062172854281L226.98,20.62358717932959L227.24,20.314537559834868L227.5,20.00311847024468L227.76,19.684807109792676L228.02,19.362691937660756L228.28,19.038791804775904L228.54,18.716970428386475L228.8,18.400540691351484L229.06,18.092650751314356L229.32,17.795023727441855L229.58,17.505046432033765L229.84,17.21501726199137L230.1,16.920315255456813L230.36,16.618002059897865L230.62,16.308801295066633L230.88,15.99629686576408L231.14000000000001,15.688772805346387L231.4,15.383242313750094L231.66,15.081726145558026L231.92000000000002,14.784276325590842L232.18,14.488437437467969L232.44,14.191575803431228L232.70000000000002,13.890287687225515L232.96,13.586343681719203L233.22,13.277159083429876L233.48000000000002,12.962177722778218L233.74,12.647365363911232" style="fill: none;" fill="none"></path></g></g></g></g><g opacity="0.2"><g><g><g><path stroke="rgb(255, 112, 67)" stroke-width="2px" d="M26,146.28621689975256L26.26,146.28663133829826L26.52,146.28704577684397L26.779999999999998,146.28746021538967L27.04,146.28828909248108L27.3,146.2899468466639L27.56,146.2916046008467L27.82,146.29243347793812L28.08,146.29367679357523L28.34,146.29699230194086L28.6,146.29865005612368L28.86,146.3003078103065L29.12,146.302380003035L29.380000000000003,146.30445219576353L29.64,146.30693882703775L29.900000000000002,146.30983989685768L30.16,146.3127409666776L30.42,146.31564203649754L30.68,146.31854310631746L30.939999999999998,146.3214441761374L31.2,146.32434524595732L31.46,146.32683187723154L31.72,146.32973294705147L31.98,146.3334628939628L32.24,146.33719284087414L32.5,146.34009391069407L32.76,146.342994980514L33.02,146.34672492742533L33.28,146.34921155869955L33.54,146.3529415056109L33.800000000000004,146.3558425754308L34.06,146.35957252234215L34.32,146.36247359216208L34.58,146.3649602234363L34.84,146.36869017034763L35.1,146.37159124016756L35.36,146.3749067485332L35.620000000000005,146.37739337980742L35.88,146.37988001108164L36.14,146.38278108090157L36.400000000000006,146.3852677121758L36.66,146.38775434345L36.919999999999995,146.38941209763283L37.18,146.39231316745276L37.44,146.39355648308987L37.699999999999996,146.39355648308987L37.96,146.39397092163557L38.22,146.39397092163557L38.48,146.39355648308987L38.739999999999995,146.39272760599846L39,146.39231316745276L39.26,146.39024097472424L39.519999999999996,146.38858322054142L39.78,146.3860965892672L40.04,146.38112332671875L40.3,146.3761500641703L40.56,146.37117680162186L40.82,146.3662035390734L41.08,146.36205915361637L41.34,146.35625701397652L41.6,146.34879712015385L41.86,146.34175166487688L42.120000000000005,146.3330484554171L42.38,146.3231019303202L42.64,146.3123265281319L42.9,146.3007222488522L43.160000000000004,146.28621689975256L43.42,146.27212598919863L43.68,146.25679176300758L43.940000000000005,146.24062865972513L44.2,146.22322224080557L44.46,146.2062302604317L44.72,146.19006715714926L44.98,146.17100298404688L45.239999999999995,146.15401100367302L45.5,146.1312168836593L45.76,146.10635057091707L46.019999999999996,146.08065538108343L46.28,146.05123024433846L46.54,146.02097623050207L46.8,145.99030777811998L47.059999999999995,145.9612970799207L47.32,145.93394413590426L47.58,145.9053478762507L47.839999999999996,145.8746794238686L48.1,145.8427676558494L48.36,145.8108558878302L48.62,145.7785296812653L48.88,145.74496015906328L49.14,145.71180507540697L49.4,145.67533448338503L49.660000000000004,145.63803501427168L49.92,145.60156442224974L50.18,145.5663371458649L50.440000000000005,145.53110986948008L50.7,145.49671147018665L50.96,145.46065531671042L51.22,145.42459916323418L51.480000000000004,145.38854300975794L51.74,145.3512435406446L52,145.31435851007694L52.260000000000005,145.2774734795093L52.52,145.24017401039595L52.78,145.19955903291697L53.04,145.15562854707235L53.3,145.10962586849922L53.559999999999995,145.0636231899261L53.82,145.01389056444162L54.08,144.958770237863L54.339999999999996,144.90282103419298L54.6,144.84314188361162L54.86,144.77185845375055L55.12,144.691457375884L55.379999999999995,144.60110977292055L55.64,144.51159104704854L55.9,144.42455895245072L56.16,144.3366979807615L56.42,144.24925144761798L56.68,144.15973272174594L56.94,144.071457311511L57.2,143.9844252169132L57.46,143.90319526195523L57.72,143.8248663768172L57.980000000000004,143.7510963156819L58.24,143.67774069309232L58.5,143.61018721014258L58.760000000000005,143.54636367410419L59.02,143.4829545766115L59.28,143.41788772493598L59.54,143.354893065989L59.800000000000004,143.2923128455877L60.06,143.23346257209775L60.32,143.1741978600621L60.580000000000005,143.11741977930066L60.84,143.06271389126775L61.099999999999994,143.00966575741765L61.36,142.96324864029881L61.62,142.91144382208583L61.879999999999995,142.8554946184158L62.14,142.79664434492585L62.4,142.73530744016168L62.66,142.67106946557757L62.92,142.60766036808488L63.18,142.54839565604922L63.44,142.48995982110497L63.699999999999996,142.4294517934322L63.96,142.36977264285085L64.22,142.30843573808667L64.48,142.24917102605102L64.74,142.19032075256106L65,142.13520042598245L65.26,142.08381004631516L65.52,142.03697849065063L65.78,141.98890361934897L66.04,141.94207206368444L66.3,141.89192499965426L66.56,141.83804798871276L66.82000000000001,141.78292766213414L67.08,141.72905065119264L67.34,141.67724583297965L67.60000000000001,141.62709876894948L67.86,141.57322175800797L68.12,141.51685811579225L68.38000000000001,141.4592511579394L68.64,141.40205863863227L68.9,141.34652387350795L69.16,141.28643028438088L69.42,141.22094899415967L69.68,141.15173775702712L69.94,141.08045432716605L70.2,141.00834202021358L70.46000000000001,140.9358152747154L70.72,140.85458531975743L70.98,140.76921097934243L71.24000000000001,140.68300776183602L71.5,140.59100240468976L71.76,140.4989970475435L72.02000000000001,140.40823500603435L72.28,140.3174729645252L72.54,140.22671092301604L72.80000000000001,140.1380210742354L73.06,140.04891678690907L73.32,139.95939806103704L73.58,139.8694648966193L73.83999999999999,139.77248627692458L74.1,139.67177771031854L74.36,139.57562796771523L74.61999999999999,139.47947822511193L74.88,139.38913062214849L75.14,139.30334184318778L75.39999999999999,139.22169744968411L75.66,139.13839530199763L75.92,139.05343540012834L76.17999999999999,138.96971881389615L76.44,138.88144340366122L76.7,138.78073483705518L76.96,138.66386316716668L77.22,138.5378738492727L77.47999999999999,138.411470092833L77.74,138.28465189784762L78,138.16156364977357L78.25999999999999,138.04096203297374L78.52,137.9199459776282L78.78,137.79685772955415L79.03999999999999,137.67625611275432L79.3,137.5573122501373L79.56,137.43256624788043L79.82,137.30533361434934L80.08,137.17105552554128L80.34,137.0355341210961L80.6,136.90167047083375L80.86,136.77195120602843L81.12,136.64471857249734L81.38,136.51872925460336L81.64,136.39108218252656L81.9,136.26965168863532L82.16,136.14739231765267L82.42,136.0226463153958L82.68,135.894999243319L82.94,135.76362222433087L83.2,135.63473183661696L83.46000000000001,135.51247246563432L83.72,135.39808742702004L83.98,135.29074784368274L84.24000000000001,135.18796708434817L84.5,135.08725851774213L84.76,134.98986545950171L85.02000000000001,134.9028333649039L85.28,134.82160340994594L85.54,134.7420312091708L85.8,134.6686755865812L86.06,134.5940766483545L86.32000000000001,134.5198921486735L86.58,134.4452932104468L86.84,134.3706942722201L87.10000000000001,134.2948520183563L87.36,134.21527981758115L87.62,134.12824772298333L87.88000000000001,134.0395578742027L88.14,133.9529402181506L88.4,133.8688091933727L88.66000000000001,133.7834348529577L88.92,133.69225837290284L89.18,133.601081892848L89.44,133.50907653570172L89.69999999999999,133.41541342437264L89.96,133.31760592758653L90.22,133.2177262380719L90.47999999999999,133.1108010932803L90.74,133.00180375576016L91,132.89404973387715L91.25999999999999,132.78961122035977L91.52,132.68807377666232L91.78,132.58404970169065L92.03999999999999,132.4829266965389L92.3,132.37973149865863L92.56,132.27404966950414L92.82,132.16049350798127L93.08,132.04196408390996L93.34,131.92094802856442L93.6,131.79951753467319L93.86,131.6843036189675L94.11999999999999,131.57364852726457L94.38,131.46589450538156L94.64,131.3635281845927L94.89999999999999,131.26530624926087L95.16,131.162939928472L95.42,131.04855488985774L95.67999999999999,130.9258810803294L95.94,130.7978195697069L96.2,130.67265912890431L96.46,130.54957088083026L96.72,130.4322847723961L96.98,130.31789973378181L97.24,130.20517244935036L97.5,130.08830077946186L97.76,129.96977135539055L98.02,129.85289968550205L98.28,129.72608149051666L98.54,129.58310019224882L98.8,129.42685686051846L99.06,129.26895577460527L99.32000000000001,129.1118835657835L99.58,128.95729798823595L99.84,128.801883533597L100.10000000000001,128.64688351750374L100.36,128.49188350141048L100.62,128.33688348531723L100.88000000000001,128.18022571504116L101.14,128.02895564585924L101.4,127.86815349012613L101.66,127.69491817802191L101.92,127.51132190227509L102.18,127.32482455670834L102.44,127.14495822787285L102.7,126.96716409176588L102.96000000000001,126.79351434111595L103.22,126.62359453737736L103.48,126.45450361073017L103.74000000000001,126.27961054444313L104,126.11010517925024L104.26,125.92775221914053L104.52000000000001,125.72923615574837L104.78,125.5191158130765L105.04,125.30940990895033L105.30000000000001,125.10467726737261L105.56,124.90740451961756L105.82,124.72339380532503L106.08,124.55057293176651L106.33999999999999,124.37982425093651L106.6,124.2190220952034L106.86,124.06526539474726L107.11999999999999,123.91316644847393L107.38,123.76148194074631L107.64,123.6110407486558L107.89999999999999,123.4622573107481L108.16,123.32217708230019L108.42,123.18955674767494L108.67999999999999,123.06439630687237L108.94,122.94752463698387L109.2,122.83189628273249L109.46,122.72248450666666L109.72,122.61597380042076L109.97999999999999,122.50697646290064L110.24,122.39051923155785L110.5,122.26701654493809L110.75999999999999,122.13688284158707L111.02,122.00840689241886L111.28,121.87951650470495L111.53999999999999,121.7564282566309L111.8,121.63624107837677L112.06,121.51646833866835L112.32,121.39752447605133L112.58,121.27816617488861L112.84,121.15880787372589L113.1,121.04608058929443L113.36,120.93293886631727L113.62,120.82104045897722L113.88,120.70872761309147L114.14,120.59185594320297L114.4,120.4666955024004L114.66,120.34153506159782L114.92,120.19813932478428L115.18,120.0505992025137L115.44,119.90720346570015L115.7,119.75096013396978L115.96000000000001,119.59720343351364L116.22,119.4442756101489L116.48,119.29341997951269L116.74000000000001,119.14049215614796L117,118.9937809109688L117.26,118.84665522724391L117.52000000000001,118.69870066642763L117.78,118.53914182633163L118.04,118.38041186332704L118.3,118.2266551628709L118.56,118.08118723332883L118.82000000000001,117.94608026742937L119.08,117.82050538808109L119.34,117.69534494727851L119.60000000000001,117.57432889193298L119.86,117.45206952095033L120.12,117.32400801032783L120.38000000000001,117.18931548297407L120.64,117.05047857016326L120.9,116.89091973006727L121.16000000000001,116.73094645142557L121.42,116.57718975096942L121.68,116.42384748905899L121.94,116.27174854278566L122.19999999999999,116.1275239288807L122.46,115.98412819206716L122.72,115.84404796361925L122.97999999999999,115.70148110389711L123.24,115.55476985871793L123.5,115.40598642081024L123.75999999999999,115.23399442434315L124.02,115.04501044750218L124.28,114.84980989247565L124.53999999999999,114.65170826762919L124.8,114.45277776569132L125.06,114.26213603466753L125.32,114.07522425055508L125.58,113.89287129044537L125.84,113.71714934706692L126.1,113.54681510478262L126.36,113.37026428431277L126.61999999999999,113.1924701482058L126.88,113.01674820482735L127.14,112.84226957708601L127.39999999999999,112.67152089625601L127.66,112.50823210924868L127.92,112.35281765460972L128.18,112.20279090106492L128.44,112.0519352704287L128.7,111.90066520124678L128.96,111.74939513206486L129.22,111.59812506288294L129.48,111.43690846860413L129.74,111.27071861177687L130,111.10908757895236L130.26,110.94869986176495L130.52,110.79287096858029L130.78,110.6453308463097L131.04,110.50027735531334L131.3,110.36019712686543L131.56,110.22426128387455L131.82,110.09288426488642L132.08,109.96109280735259L132.34,109.82515696436171L132.6,109.68051791191105L132.86,109.53795105218892L133.12,109.39372643828396L133.38,109.24411412328486L133.64000000000001,109.08538416028027L133.9,108.92043761909012L134.16,108.75631995499138L134.42000000000002,108.59634667634968L134.68,108.44258997589354L134.94,108.29173434525732L135.20000000000002,108.13507657498126L135.46,107.97095891088252L135.72,107.81057119369511L135.98000000000002,107.65432786196475L136.24,107.50388666987423L136.5,107.35593210905795L136.76000000000002,107.21626631915574L137.02,107.07121282815937L137.28,106.91538393497471L137.54000000000002,106.7645283043385L137.8,106.61657374352221L138.06,106.46157372742896L138.32,106.30491595715289L138.58,106.15488920360808L138.84,106.0081779584289L139.1,105.85732232779269L139.36,105.70522338151936L139.62,105.55270999670033L139.88,105.39273671805863L140.14000000000001,105.23525007069115L140.4,105.070303529501L140.66,104.90867249667649L140.92000000000002,104.74787034094338L141.18,104.58292379975323L141.44,104.41673394292597L141.70000000000002,104.25427403301005L141.96,104.08352535218005L142.22,103.90904672443872L142.48000000000002,103.7258648872376L142.74,103.53563759475952L143,103.34623917937284L143.26000000000002,103.15476857125765L143.52,102.96164020895964L143.78,102.75069098919636L144.04000000000002,102.54388615489012L144.3,102.34371233731514L144.56,102.15016953647142L144.82000000000002,101.95911336690193L145.08,101.77303045988089L145.34,101.58073097467428L145.60000000000002,101.39464806765324L145.86,101.21602505445486L146.12,101.0386453568936L146.38,100.8691399917007L146.64,100.70004906505352L146.89999999999998,100.5168672278524L147.16,100.32954100519424L147.42,100.13268269598493L147.67999999999998,99.93706770241269L147.94,99.74766928702601L148.2,99.56407301127919L148.45999999999998,99.38710775226363L148.72,99.22257564961919L148.98,99.06591787934312L149.23999999999998,98.91216117888698L149.5,98.75674672424802L149.76,98.60174670815476L150.01999999999998,98.45006220042714L150.28,98.30086432397374L150.54,98.16036965698012L150.79999999999998,98.0086851492525L151.06,97.84581080079087L151.32,97.67589099705228L151.57999999999998,97.49478135257968L151.84,97.30372518301019L152.1,97.05423317849645L152.35999999999999,96.79272245615729L152.62,96.53121173381814L152.88,96.26679994165906L153.14,96.00694697350272L153.4,95.75206726789483L153.66,95.49760200083264L153.92,95.21412603557118L154.18,94.9281634390355L154.44,94.63391207158574L154.7,94.33220081031331L154.95999999999998,94.02800291776666L155.22,93.71966063976296L155.48,93.42665258795031L155.73999999999998,93.14607769250878L156,92.87462044507274L156.26,92.61186640709647L156.51999999999998,92.32258830219516L156.78,92.02294923365125L157.04,91.72123797237882L157.29999999999998,91.42201334238061L157.56,91.13605074584493L157.82,90.85920579731473L158.07999999999998,90.59396512806424L158.34,90.33701322972783L158.6,90.08089020848283L158.85999999999999,89.81730729341515L159.12,89.5549676939846L159.38,89.28806927055129L159.64,89.03111737221488L159.9,88.78784194588671L160.16,88.55575636029253L160.42,88.32988735288392L160.68,88.11064936220656L160.94,87.88436591625224L161.2,87.65891134738932L161.46,87.43055570870648L161.72,87.20800220966349L161.98,86.9850342720748L162.24,86.75460644066344L162.5,86.51381764560948L162.76,86.2713710963727L163.02,86.02933898568163L163.28,85.78564912080775L163.54,85.55107690393935L163.8,85.33142447471629L164.06,85.12171857059012L164.32,84.92154475301514L164.58,84.72675863653431L164.84,84.52741369605074L165.1,84.33387089520703L165.36,84.1386703401805L165.62,83.94388422369967L165.88,83.74702591449032L166.14000000000001,83.54850985109816L166.4,83.35455261170874L166.66,83.15603654831659L166.92000000000002,82.94964615255606L167.18,82.72957928478729L167.44,82.51282792538416L167.70000000000002,82.29151774197828L167.96,82.06357654184114L168.22,81.83770753443252L168.48000000000002,81.61764066666376L168.74,81.36400427669298L169,81.09006039798271L169.26000000000002,80.81072881817829L169.52,80.49824215471756L169.78,80.17953891307127L170.04000000000002,79.85834904015076L170.3,79.54171799123299L170.56,79.23130352050077L170.82,78.93042113631975L171.08,78.63575533032429L171.34,78.35310824215424L171.6,78.07957880198967L171.86,77.79610283672821L172.12,77.4972926452757L172.38,77.19682469964039L172.64000000000001,76.9000867009164L172.9,76.61329522728931L173.16,76.33023370057356L173.42000000000002,76.05090212076914L173.68,75.7674261555077L173.94,75.48022024333491L174.20000000000002,75.19259989261641L174.46,74.8606346175076L174.72,74.49178431183114L174.98000000000002,74.11091528832927L175.24,73.74496605247273L175.5,73.38357564061894L175.76000000000002,73.03047399967923L176.02,72.68400337547078L176.28,72.34126269817367L176.54000000000002,71.99810758233085L176.8,71.63340166211142L177.06,71.24341499060407L177.32000000000002,70.85964489728227L177.58,70.47131597995772L177.84,70.084644816816L178.10000000000002,69.7012891620399L178.36,69.32332120835795L178.62,68.9652463048698L178.88,68.63452434539809L179.14,68.3162355422975L179.39999999999998,68.00664994865672L179.66,67.71447077393547L179.92,67.43306700140253L180.17999999999998,67.15829424560086L180.44,66.89098138362185L180.7,66.62698403000847L180.95999999999998,66.32775940001027L181.22,66.01568717509524L181.48,65.70693045854584L181.73999999999998,65.40273256599919L182,65.11386889964358L182.26,64.83992502093331L182.51999999999998,64.561836756766L182.78,64.28913619369284L183.04,64.01685006916539L183.29999999999998,63.741662874818005L183.56,63.468962311744846L183.82,63.19874837994591L184.07999999999998,62.936823219061054L184.34,62.68277239054457L184.6,62.43949696421639L184.85999999999999,62.205753624439396L185.12,61.98734451085345L185.38,61.77017871290461L185.64,61.559643931687035L185.9,61.34952358901516L186.16,61.13691661506907L186.42,60.91975081712023L186.68,60.71294598281401L186.94,60.52188981324452L187.2,60.343266800046145L187.45999999999998,60.17417587339896L187.72,60.01130152493733L187.98,59.84594054520148L188.23999999999998,59.693012721836745L188.5,59.54464372247475L188.76,59.40456349402684L189.01999999999998,59.2619966343047L189.28,59.123988598585306L189.54,58.98805275559443L189.79999999999998,58.848801404237925L190.06,58.71410887688416L190.32,58.58604736626166L190.57999999999998,58.4625446796419L190.84,58.33945643156785L191.1,58.21968369185942L191.35999999999999,58.09908207505959L191.62,57.97599382698554L191.88,57.85663552582282L192.14,57.734790593385874L192.4,57.61045902967471L192.66,57.48488415032643L192.92,57.358480393886744L193.18,57.23580658435839L193.44,57.11313277483004L193.7,56.99211671948451L193.96,56.87110066413897L194.22,56.750084608793436L194.48,56.61331988871115L194.74,56.462049819529234L195,56.30787868052739L195.26,56.14251770079154L195.52,55.96348024904746L195.78,55.78237060457486L196.04,55.596702136099516L196.3,55.40730372071284L196.56,55.220391936600386L196.82,55.03099352121371L197.08,54.83910847455281L197.34,54.64846674352902L197.6,54.465699344873606L197.86,54.28251750767249L198.12,54.10596668720263L198.38,53.93065918236989L198.64000000000001,53.75700943171996L198.9,53.59413508325833L199.16,53.428359664976774L199.42000000000002,53.25926873832959L199.68,53.091421127319535L199.94,52.91321255266686L200.20000000000002,52.72671520710011L200.46,52.53151465207358L200.72,52.33548521995564L200.98000000000002,52.13696915656348L201.24,51.94922849535962L201.5,51.75651457160731L201.76000000000002,51.55716963112374L202.02,51.35243698954602L202.28,51.15433536469956L202.54000000000002,50.95457598567029L202.8,50.756059922278126L203.06,50.56541819125434L203.32,50.3801641613247L203.58,50.194081254303654L203.84,49.995979629457196L204.1,49.78212933987399L204.36,49.556674771011075L204.62,49.32790469378253L204.88,49.092089161277016L205.14000000000001,48.84715598076602L205.4,48.58108643442412L205.66,48.304241485893925L205.92000000000002,48.02739653736373L206.18,47.75262378156205L206.44,47.482409849763116L206.70000000000002,47.214682549238404L206.96,46.949441879987916L207.22,46.68378677219172L207.48000000000002,46.41025733202716L207.74,46.126366928219994L208,45.84330540150424L208.26000000000002,45.55236954242013L208.52,45.26350587606452L208.78,44.94024381041549L209.04000000000002,44.58962880075L209.3,44.22616619616769L209.56,43.860216960311156L209.82000000000002,43.502142056823L210.08,43.15898694098018L210.34,42.822877280414325L210.60000000000002,42.49920077621959L210.86,42.16226223856233L211.12,41.81910712271951L211.38,41.47263649851106L211.64,41.139842346310836L211.89999999999998,40.819895789027434L212.16,40.50285030156396L212.42,40.15099197626136L212.67999999999998,39.77675396949075L212.94,39.387181736529094L213.2,38.99139292538188L213.45999999999998,38.59684742987178L213.72,38.21390621364139L213.98,37.830550558865305L214.23999999999998,37.44968153536343L214.5,37.066325880587335L214.76,36.69084455817961L215.01999999999998,36.32406644523167L215.28,35.95604501664662L215.54,35.57351823896193L215.79999999999998,35.157007500529524L216.06,34.71397269517207L216.32,34.258504733443495L216.57999999999998,33.78894586116099L216.84,33.31565704196715L217.1,32.83905271440768L217.35999999999999,32.346285283565756L217.62,31.86760876327777L217.88,31.402608714998006L218.14,30.950456261635065L218.4,30.515295788646L218.66,30.088424086570996L218.92,29.675643295049923L219.18,29.257889240980404L219.44,28.840964064002293L219.7,28.43025546520974L219.95999999999998,28.030736707151192L220.22,27.654012069106358L220.48,27.29925267398383L220.73999999999998,26.971431784332054L221,26.663503944874066L221.26,26.368009261787194L221.51999999999998,26.081217788160103L221.78,25.790696367621678L222.04,25.502661578357475L222.29999999999998,25.221257805824536L222.56,24.946070611477154L222.82,24.672126732766884L223.07999999999998,24.404813870787876L223.34,24.143717586994427L223.6,23.890910074115055L223.85999999999999,23.64846352487828L224.12,23.397313766181725L224.38,23.13663192093398L224.64,22.86351691931514L224.9,22.585014216602126L225.16,22.296979427337924L225.42,22.00562912970809L225.68,21.703503429889956L225.94,21.403035484254637L226.2,21.093864329159537L226.46,20.778891034424582L226.72,20.469305440783778L226.98,20.163035355508605L227.24,19.850963130593577L227.5,19.535989835858622L227.76,19.20734006911544L228.02,18.879519179463664L228.28,18.552941605449L228.54,18.23423836380271L228.8,17.925896085799017L229.06,17.63081584125785L229.32,17.3485831916335L229.58,17.07008048892049L229.84,16.779973506927767L230.1,16.478262245655337L230.36,16.164532266557494L230.62,15.845000147819796L230.88,15.527540221810638L231.14000000000001,15.227486714721023L231.4,14.924946576357184L231.66,14.629451893270312L231.92000000000002,14.33810159564048L232.18,14.044679105282126L232.44,13.746283352375327L232.70000000000002,13.438355512917338L232.96,13.13042767345935L233.22,12.813382185995875L233.48000000000002,12.489705681801139L233.74,12.175146825611888" style="fill: none;" fill="none"></path></g></g></g></g></g></g><g transform="translate(70, 178)" clip-path="url(#clip_1)"><clipPath id="clip_1"><rect width="260" height="21"></rect></clipPath><g><g><line x1="0" y1="0" x2="0" y2="5" style="visibility: inherit;" fill="rgb(0, 0, 0)" stroke="rgb(204, 204, 204)" stroke-width="1px"></line><line x1="26" y1="0" x2="26" y2="5" style="visibility: inherit;" fill="rgb(0, 0, 0)" stroke="rgb(204, 204, 204)" stroke-width="1px"></line><line x1="52" y1="0" x2="52" y2="5" style="visibility: inherit;" fill="rgb(0, 0, 0)" stroke="rgb(204, 204, 204)" stroke-width="1px"></line><line x1="78" y1="0" x2="78" y2="5" style="visibility: inherit;" fill="rgb(0, 0, 0)" stroke="rgb(204, 204, 204)" stroke-width="1px"></line><line x1="104" y1="0" x2="104" y2="5" style="visibility: inherit;" fill="rgb(0, 0, 0)" stroke="rgb(204, 204, 204)" stroke-width="1px"></line><line x1="130" y1="0" x2="130" y2="5" style="visibility: inherit;" fill="rgb(0, 0, 0)" stroke="rgb(204, 204, 204)" stroke-width="1px"></line><line x1="156" y1="0" x2="156" y2="5" style="visibility: inherit;" fill="rgb(0, 0, 0)" stroke="rgb(204, 204, 204)" stroke-width="1px"></line><line x1="182" y1="0" x2="182" y2="5" style="visibility: inherit;" fill="rgb(0, 0, 0)" stroke="rgb(204, 204, 204)" stroke-width="1px"></line><line x1="208" y1="0" x2="208" y2="5" style="visibility: inherit;" fill="rgb(0, 0, 0)" stroke="rgb(204, 204, 204)" stroke-width="1px"></line><line x1="234" y1="0" x2="234" y2="5" style="visibility: inherit;" fill="rgb(0, 0, 0)" stroke="rgb(204, 204, 204)" stroke-width="1px"></line><line x1="260" y1="0" x2="260" y2="5" style="visibility: inherit;" fill="rgb(0, 0, 0)" stroke="rgb(204, 204, 204)" stroke-width="1px"></line></g><g transform="translate(0, 8)"><text x="0" y="0" dx="0em" dy="0.95em" style="text-anchor: middle; visibility: hidden; font-family: Roboto, sans-serif; font-size: 12px; font-weight: 200;" fill="rgb(50, 49, 63)" stroke="none" stroke-width="1px">-100</text><text x="26" y="0" dx="0em" dy="0.95em" style="text-anchor: middle; visibility: inherit; font-family: Roboto, sans-serif; font-size: 12px; font-weight: 200;" fill="rgb(50, 49, 63)" stroke="none" stroke-width="1px">0</text><text x="52" y="0" dx="0em" dy="0.95em" style="text-anchor: middle; visibility: inherit; font-family: Roboto, sans-serif; font-size: 12px; font-weight: 200;" fill="rgb(50, 49, 63)" stroke="none" stroke-width="1px">100</text><text x="78" y="0" dx="0em" dy="0.95em" style="text-anchor: middle; visibility: inherit; font-family: Roboto, sans-serif; font-size: 12px; font-weight: 200;" fill="rgb(50, 49, 63)" stroke="none" stroke-width="1px">200</text><text x="104" y="0" dx="0em" dy="0.95em" style="text-anchor: middle; visibility: inherit; font-family: Roboto, sans-serif; font-size: 12px; font-weight: 200;" fill="rgb(50, 49, 63)" stroke="none" stroke-width="1px">300</text><text x="130" y="0" dx="0em" dy="0.95em" style="text-anchor: middle; visibility: inherit; font-family: Roboto, sans-serif; font-size: 12px; font-weight: 200;" fill="rgb(50, 49, 63)" stroke="none" stroke-width="1px">400</text><text x="156" y="0" dx="0em" dy="0.95em" style="text-anchor: middle; visibility: inherit; font-family: Roboto, sans-serif; font-size: 12px; font-weight: 200;" fill="rgb(50, 49, 63)" stroke="none" stroke-width="1px">500</text><text x="182" y="0" dx="0em" dy="0.95em" style="text-anchor: middle; visibility: inherit; font-family: Roboto, sans-serif; font-size: 12px; font-weight: 200;" fill="rgb(50, 49, 63)" stroke="none" stroke-width="1px">600</text><text x="208" y="0" dx="0em" dy="0.95em" style="text-anchor: middle; visibility: inherit; font-family: Roboto, sans-serif; font-size: 12px; font-weight: 200;" fill="rgb(50, 49, 63)" stroke="none" stroke-width="1px">700</text><text x="234" y="0" dx="0em" dy="0.95em" style="text-anchor: middle; visibility: inherit; font-family: Roboto, sans-serif; font-size: 12px; font-weight: 200;" fill="rgb(50, 49, 63)" stroke="none" stroke-width="1px">800</text><text x="260" y="0" dx="0em" dy="0.95em" style="text-anchor: middle; visibility: hidden; font-family: Roboto, sans-serif; font-size: 12px; font-weight: 200;" fill="rgb(50, 49, 63)" stroke="none" stroke-width="1px">900</text></g><line x1="0" y1="0" x2="260" y2="0" fill="rgb(0, 0, 0)" stroke="rgb(204, 204, 204)" stroke-width="1px"></line></g></g></g></g></svg>